<svg width="208" height="93" viewBox="0 0 208 93" fill="none" xmlns="http://www.w3.org/2000/svg">
<path d="M173.29 38.5284H180.79V30.3084C180.79 29.4843 180.959 28.669 181.286 27.9126C181.613 27.1561 182.091 26.4745 182.691 25.9096L185.562 5.48527C185.695 4.37962 185.389 3.26598 184.709 2.38343C184.03 1.50088 183.032 0.919795 181.929 0.764921C180.827 0.610046 179.707 0.89373 178.811 1.55507C177.915 2.21641 177.314 3.20269 177.137 4.30215L173.159 31.5871C173.133 31.7659 173.044 31.9295 172.908 32.0478C172.771 32.1662 172.597 32.2313 172.416 32.2313C172.236 32.2313 172.061 32.1662 171.925 32.0478C171.788 31.9295 171.699 31.7659 171.674 31.5871L167.686 4.22527C167.608 3.67212 167.422 3.13966 167.139 2.65829C166.856 2.17693 166.48 1.75608 166.034 1.41979C165.588 1.0835 165.08 0.83834 164.54 0.698316C163.999 0.558292 163.436 0.526146 162.883 0.603708C162.33 0.68127 161.797 0.867023 161.316 1.15036C160.834 1.4337 160.414 1.80908 160.077 2.25506C159.741 2.70104 159.496 3.2089 159.356 3.74963C159.216 4.29035 159.184 4.85337 159.261 5.40652C160.362 13.619 161.194 19.4784 161.804 23.7571C163.345 34.5928 163.606 36.4378 163.651 44.1065C164.626 42.4125 166.031 41.0052 167.723 40.0261C169.415 39.0469 171.335 38.5304 173.29 38.5284Z" fill="#0C7CEB"/>
<path d="M197.494 47.6803C196.491 47.68 195.503 47.4308 194.62 46.955C193.736 46.4792 192.984 45.7917 192.432 44.9541C191.834 46.5551 190.761 47.9354 189.358 48.9104C187.954 49.8855 186.286 50.4088 184.577 50.4103H181.577C182.948 51.2789 184.078 52.4796 184.861 53.9012C185.644 55.3228 186.055 56.9192 186.057 58.5422V61.1672C186.057 61.3661 185.978 61.5569 185.837 61.6975C185.696 61.8382 185.506 61.9172 185.307 61.9172C185.108 61.9172 184.917 61.8382 184.776 61.6975C184.636 61.5569 184.557 61.3661 184.557 61.1672V58.5422C184.552 56.3869 183.692 54.3215 182.167 52.7989C180.642 51.2763 178.575 50.4207 176.419 50.4197C176.22 50.4197 176.03 50.3407 175.889 50.2C175.748 50.0594 175.669 49.8686 175.669 49.6697C175.669 49.4708 175.748 49.28 175.889 49.1394C176.03 48.9987 176.22 48.9197 176.419 48.9197H184.579C186.21 48.9205 187.788 48.3394 189.029 47.281C189.642 46.7586 190.159 46.1337 190.559 45.4341C191.122 44.4455 191.43 43.3318 191.453 42.1941C191.453 42.1435 191.453 42.0928 191.453 42.0403C191.451 41.9359 191.44 41.8318 191.421 41.7291C191.421 41.7047 191.421 41.6803 191.421 41.656C191.331 41.2006 191.086 40.7904 190.728 40.4954C190.37 40.2003 189.92 40.0386 189.456 40.0378H173.29C170.737 40.0418 168.289 41.0579 166.484 42.8634C164.679 44.669 163.663 47.1166 163.66 49.6697C163.66 55.4053 165.818 60.5878 169.735 64.261C171.66 66.0523 173.932 67.4314 176.409 68.3139C178.886 69.1963 181.518 69.5635 184.142 69.3928C194.191 68.7422 202.064 60.0178 202.064 49.5478V45.6103C201.494 46.2619 200.792 46.7838 200.003 47.1408C199.215 47.4979 198.36 47.6819 197.494 47.6803Z" fill="#0C7CEB"/>
<path d="M197.494 30.5447C196.282 30.5462 195.121 31.0283 194.264 31.8852C193.407 32.7422 192.925 33.904 192.923 35.1159V41.5509C192.947 41.7105 192.96 41.8715 192.961 42.0328C192.961 42.0703 192.961 42.1097 192.961 42.1472C193.094 43.3066 193.666 44.371 194.56 45.1217C195.454 45.8725 196.601 46.2527 197.766 46.1843C198.931 46.1159 200.026 45.6042 200.825 44.754C201.625 43.9039 202.069 42.7799 202.066 41.6128V35.1141C202.064 33.9023 201.582 32.7407 200.725 31.884C199.868 31.0273 198.706 30.5457 197.494 30.5447Z" fill="#0C7CEB"/>
<path d="M185.376 25.9884C185.309 26.0109 185.246 26.0353 185.189 26.0615C185.123 26.0878 185.057 26.114 185.001 26.144C184.945 26.174 184.866 26.2059 184.801 26.2397L184.628 26.3315C184.557 26.3709 184.487 26.414 184.42 26.459C184.352 26.504 184.322 26.519 184.274 26.5528C184.225 26.5865 184.129 26.6578 184.06 26.714C184.019 26.7459 183.977 26.7759 183.938 26.8097C183.426 27.2374 183.013 27.7724 182.73 28.377C182.447 28.9815 182.3 29.6408 182.299 30.3084V38.5284H189.475C190.176 38.5272 190.861 38.7383 191.44 39.134V30.3084C191.439 29.1778 191.019 28.0877 190.261 27.2485C189.503 26.4092 188.462 25.8802 187.337 25.7634C187.182 25.7468 187.027 25.7386 186.871 25.739C186.725 25.7389 186.58 25.7465 186.436 25.7615C186.377 25.7615 186.319 25.7765 186.263 25.784C186.207 25.7915 186.094 25.8065 186.012 25.8234C185.929 25.8403 185.875 25.8534 185.807 25.8684C185.74 25.8834 185.669 25.9022 185.599 25.9228L185.376 25.9884Z" fill="#0C7CEB"/>
<path d="M161.638 87.5645C161.638 87.4121 161.625 87.2734 161.597 87.1484C161.57 87.0234 161.511 86.9082 161.421 86.8027C161.335 86.6973 161.208 86.5918 161.041 86.4863C160.876 86.3809 160.662 86.2715 160.396 86.1582C160.08 86.0254 159.773 85.8848 159.476 85.7363C159.179 85.584 158.912 85.4082 158.673 85.209C158.435 85.0098 158.246 84.7754 158.105 84.5059C157.968 84.2324 157.9 83.9121 157.9 83.5449C157.9 83.1855 157.964 82.8594 158.093 82.5664C158.226 82.2734 158.414 82.0234 158.656 81.8164C158.898 81.6055 159.181 81.4434 159.505 81.3301C159.833 81.2168 160.199 81.1602 160.601 81.1602C161.148 81.1602 161.621 81.2734 162.019 81.5C162.421 81.7266 162.732 82.0371 162.951 82.4316C163.173 82.8262 163.285 83.2793 163.285 83.791H161.574C161.574 83.5488 161.539 83.3359 161.468 83.1523C161.402 82.9648 161.294 82.8184 161.146 82.7129C160.998 82.6074 160.806 82.5547 160.572 82.5547C160.353 82.5547 160.171 82.5996 160.027 82.6895C159.886 82.7754 159.781 82.8945 159.71 83.0469C159.644 83.1953 159.611 83.3633 159.611 83.5508C159.611 83.6914 159.644 83.8184 159.71 83.9316C159.781 84.041 159.876 84.1406 159.998 84.2305C160.119 84.3164 160.261 84.4004 160.425 84.4824C160.593 84.5645 160.777 84.6445 160.976 84.7227C161.363 84.875 161.705 85.043 162.001 85.2266C162.298 85.4062 162.546 85.6094 162.746 85.8359C162.945 86.0586 163.095 86.3105 163.197 86.5918C163.298 86.873 163.349 87.1934 163.349 87.5527C163.349 87.9082 163.287 88.2324 163.162 88.5254C163.041 88.8145 162.863 89.0645 162.628 89.2754C162.394 89.4824 162.111 89.6426 161.779 89.7559C161.451 89.8691 161.083 89.9258 160.677 89.9258C160.283 89.9258 159.91 89.8711 159.558 89.7617C159.207 89.6484 158.896 89.4785 158.626 89.252C158.361 89.0215 158.152 88.7305 158 88.3789C157.847 88.0234 157.771 87.6035 157.771 87.1191H159.488C159.488 87.377 159.513 87.5977 159.564 87.7812C159.615 87.9609 159.693 88.1055 159.798 88.2148C159.904 88.3203 160.033 88.4004 160.185 88.4551C160.341 88.5059 160.519 88.5312 160.718 88.5312C160.945 88.5312 161.125 88.4883 161.257 88.4023C161.394 88.3164 161.492 88.2012 161.55 88.0566C161.609 87.9121 161.638 87.748 161.638 87.5645ZM168.576 86.9668H170.281C170.257 87.6074 170.128 88.1484 169.894 88.5898C169.66 89.0273 169.326 89.3594 168.892 89.5859C168.462 89.8125 167.943 89.9258 167.333 89.9258C166.861 89.9258 166.441 89.8477 166.074 89.6914C165.707 89.5312 165.394 89.2969 165.136 88.9883C164.878 88.6797 164.683 88.2988 164.55 87.8457C164.421 87.3887 164.357 86.8633 164.357 86.2695V84.8223C164.357 84.2285 164.425 83.7031 164.562 83.2461C164.703 82.7891 164.902 82.4062 165.16 82.0977C165.421 81.7852 165.736 81.5508 166.103 81.3945C166.474 81.2344 166.892 81.1543 167.357 81.1543C167.978 81.1543 168.498 81.2715 168.916 81.5059C169.333 81.7402 169.656 82.082 169.882 82.5312C170.113 82.9766 170.251 83.5215 170.298 84.166H168.587C168.576 83.7598 168.529 83.4414 168.447 83.2109C168.369 82.9766 168.244 82.8125 168.072 82.7188C167.9 82.6211 167.662 82.5723 167.357 82.5723C167.13 82.5723 166.935 82.6133 166.771 82.6953C166.607 82.7734 166.472 82.9004 166.367 83.0762C166.261 83.252 166.183 83.4824 166.132 83.7676C166.085 84.0527 166.062 84.4004 166.062 84.8105V86.2695C166.062 86.6719 166.083 87.0156 166.126 87.3008C166.169 87.582 166.238 87.8125 166.332 87.9922C166.425 88.1719 166.552 88.3027 166.712 88.3848C166.876 88.4668 167.083 88.5078 167.333 88.5078C167.623 88.5078 167.855 88.4648 168.031 88.3789C168.21 88.293 168.343 88.1387 168.429 87.916C168.515 87.6934 168.564 87.377 168.576 86.9668ZM173.134 81.2773V89.8086H171.429V81.2773H173.134ZM178.208 87.5645C178.208 87.4121 178.195 87.2734 178.167 87.1484C178.14 87.0234 178.082 86.9082 177.992 86.8027C177.906 86.6973 177.779 86.5918 177.611 86.4863C177.447 86.3809 177.232 86.2715 176.966 86.1582C176.65 86.0254 176.343 85.8848 176.046 85.7363C175.75 85.584 175.482 85.4082 175.244 85.209C175.005 85.0098 174.816 84.7754 174.675 84.5059C174.539 84.2324 174.47 83.9121 174.47 83.5449C174.47 83.1855 174.535 82.8594 174.664 82.5664C174.796 82.2734 174.984 82.0234 175.226 81.8164C175.468 81.6055 175.751 81.4434 176.076 81.3301C176.404 81.2168 176.769 81.1602 177.171 81.1602C177.718 81.1602 178.191 81.2734 178.589 81.5C178.992 81.7266 179.302 82.0371 179.521 82.4316C179.744 82.8262 179.855 83.2793 179.855 83.791H178.144C178.144 83.5488 178.109 83.3359 178.039 83.1523C177.972 82.9648 177.865 82.8184 177.716 82.7129C177.568 82.6074 177.376 82.5547 177.142 82.5547C176.923 82.5547 176.742 82.5996 176.597 82.6895C176.457 82.7754 176.351 82.8945 176.281 83.0469C176.214 83.1953 176.181 83.3633 176.181 83.5508C176.181 83.6914 176.214 83.8184 176.281 83.9316C176.351 84.041 176.447 84.1406 176.568 84.2305C176.689 84.3164 176.832 84.4004 176.996 84.4824C177.164 84.5645 177.347 84.6445 177.546 84.7227C177.933 84.875 178.275 85.043 178.572 85.2266C178.869 85.4062 179.117 85.6094 179.316 85.8359C179.515 86.0586 179.666 86.3105 179.767 86.5918C179.869 86.873 179.919 87.1934 179.919 87.5527C179.919 87.9082 179.857 88.2324 179.732 88.5254C179.611 88.8145 179.433 89.0645 179.199 89.2754C178.964 89.4824 178.681 89.6426 178.349 89.7559C178.021 89.8691 177.654 89.9258 177.248 89.9258C176.853 89.9258 176.48 89.8711 176.128 89.7617C175.777 89.6484 175.466 89.4785 175.197 89.252C174.931 89.0215 174.722 88.7305 174.57 88.3789C174.417 88.0234 174.341 87.6035 174.341 87.1191H176.058C176.058 87.377 176.083 87.5977 176.134 87.7812C176.185 87.9609 176.263 88.1055 176.369 88.2148C176.474 88.3203 176.603 88.4004 176.755 88.4551C176.912 88.5059 177.089 88.5312 177.289 88.5312C177.515 88.5312 177.695 88.4883 177.828 88.4023C177.964 88.3164 178.062 88.2012 178.121 88.0566C178.179 87.9121 178.208 87.748 178.208 87.5645ZM184.689 87.5645C184.689 87.4121 184.675 87.2734 184.648 87.1484C184.621 87.0234 184.562 86.9082 184.472 86.8027C184.386 86.6973 184.259 86.5918 184.091 86.4863C183.927 86.3809 183.712 86.2715 183.447 86.1582C183.13 86.0254 182.824 85.8848 182.527 85.7363C182.23 85.584 181.962 85.4082 181.724 85.209C181.486 85.0098 181.296 84.7754 181.156 84.5059C181.019 84.2324 180.951 83.9121 180.951 83.5449C180.951 83.1855 181.015 82.8594 181.144 82.5664C181.277 82.2734 181.464 82.0234 181.707 81.8164C181.949 81.6055 182.232 81.4434 182.556 81.3301C182.884 81.2168 183.25 81.1602 183.652 81.1602C184.199 81.1602 184.671 81.2734 185.07 81.5C185.472 81.7266 185.783 82.0371 186.001 82.4316C186.224 82.8262 186.335 83.2793 186.335 83.791H184.625C184.625 83.5488 184.589 83.3359 184.519 83.1523C184.453 82.9648 184.345 82.8184 184.197 82.7129C184.048 82.6074 183.857 82.5547 183.623 82.5547C183.404 82.5547 183.222 82.5996 183.078 82.6895C182.937 82.7754 182.832 82.8945 182.761 83.0469C182.695 83.1953 182.662 83.3633 182.662 83.5508C182.662 83.6914 182.695 83.8184 182.761 83.9316C182.832 84.041 182.927 84.1406 183.048 84.2305C183.169 84.3164 183.312 84.4004 183.476 84.4824C183.644 84.5645 183.828 84.6445 184.027 84.7227C184.414 84.875 184.755 85.043 185.052 85.2266C185.349 85.4062 185.597 85.6094 185.796 85.8359C185.996 86.0586 186.146 86.3105 186.248 86.5918C186.349 86.873 186.4 87.1934 186.4 87.5527C186.4 87.9082 186.337 88.2324 186.212 88.5254C186.091 88.8145 185.914 89.0645 185.679 89.2754C185.445 89.4824 185.162 89.6426 184.83 89.7559C184.501 89.8691 184.134 89.9258 183.728 89.9258C183.333 89.9258 182.96 89.8711 182.609 89.7617C182.257 89.6484 181.947 89.4785 181.677 89.252C181.412 89.0215 181.203 88.7305 181.05 88.3789C180.898 88.0234 180.822 87.6035 180.822 87.1191H182.539C182.539 87.377 182.564 87.5977 182.615 87.7812C182.666 87.9609 182.744 88.1055 182.849 88.2148C182.955 88.3203 183.083 88.4004 183.236 88.4551C183.392 88.5059 183.57 88.5312 183.769 88.5312C183.996 88.5312 184.175 88.4883 184.308 88.4023C184.445 88.3164 184.542 88.2012 184.601 88.0566C184.66 87.9121 184.689 87.748 184.689 87.5645ZM193.554 84.8809V86.3047C193.554 86.9062 193.48 87.4336 193.332 87.8867C193.187 88.3359 192.98 88.7129 192.71 89.0176C192.445 89.3184 192.123 89.5449 191.744 89.6973C191.369 89.8496 190.953 89.9258 190.496 89.9258C190.039 89.9258 189.621 89.8496 189.242 89.6973C188.867 89.5449 188.542 89.3184 188.269 89.0176C188 88.7129 187.791 88.3359 187.642 87.8867C187.494 87.4336 187.419 86.9062 187.419 86.3047V84.8809C187.419 84.2637 187.492 83.7246 187.636 83.2637C187.781 82.7988 187.99 82.4121 188.263 82.1035C188.537 81.791 188.861 81.5566 189.236 81.4004C189.611 81.2402 190.027 81.1602 190.484 81.1602C190.941 81.1602 191.357 81.2402 191.732 81.4004C192.107 81.5566 192.431 81.791 192.705 82.1035C192.978 82.4121 193.187 82.7988 193.332 83.2637C193.48 83.7246 193.554 84.2637 193.554 84.8809ZM191.849 86.3047V84.8691C191.849 84.4629 191.82 84.1172 191.761 83.832C191.703 83.543 191.615 83.3066 191.498 83.123C191.38 82.9395 191.238 82.8047 191.07 82.7188C190.902 82.6328 190.707 82.5898 190.484 82.5898C190.261 82.5898 190.064 82.6328 189.892 82.7188C189.724 82.8047 189.582 82.9395 189.464 83.123C189.351 83.3066 189.265 83.543 189.207 83.832C189.152 84.1172 189.125 84.4629 189.125 84.8691V86.3047C189.125 86.6953 189.154 87.0293 189.212 87.3066C189.271 87.584 189.359 87.8105 189.476 87.9863C189.593 88.1621 189.736 88.293 189.904 88.3789C190.076 88.4609 190.273 88.502 190.496 88.502C190.714 88.502 190.908 88.4609 191.076 88.3789C191.248 88.293 191.39 88.1621 191.503 87.9863C191.617 87.8105 191.703 87.584 191.761 87.3066C191.82 87.0293 191.849 86.6953 191.849 86.3047ZM194.808 81.2773H197.544C198.115 81.2773 198.601 81.375 199.003 81.5703C199.406 81.7656 199.714 82.0547 199.929 82.4375C200.144 82.8203 200.251 83.293 200.251 83.8555C200.251 84.3164 200.189 84.7109 200.064 85.0391C199.939 85.3633 199.761 85.6348 199.531 85.8535C199.3 86.0684 199.025 86.2402 198.705 86.3691L198.183 86.6797H195.962L195.957 85.2559H197.498C197.732 85.2559 197.925 85.2051 198.078 85.1035C198.234 84.998 198.349 84.8516 198.423 84.6641C198.501 84.4727 198.541 84.25 198.541 83.9961C198.541 83.7266 198.505 83.4961 198.435 83.3047C198.369 83.1094 198.261 82.9609 198.113 82.8594C197.968 82.7539 197.779 82.7012 197.544 82.7012H196.525V89.8086H194.808V81.2773ZM198.681 89.8086L197.117 86.0059L198.916 86L200.515 89.7266V89.8086H198.681ZM205.056 87.5645C205.056 87.4121 205.042 87.2734 205.015 87.1484C204.988 87.0234 204.929 86.9082 204.839 86.8027C204.753 86.6973 204.626 86.5918 204.458 86.4863C204.294 86.3809 204.08 86.2715 203.814 86.1582C203.498 86.0254 203.191 85.8848 202.894 85.7363C202.597 85.584 202.33 85.4082 202.091 85.209C201.853 85.0098 201.664 84.7754 201.523 84.5059C201.386 84.2324 201.318 83.9121 201.318 83.5449C201.318 83.1855 201.382 82.8594 201.511 82.5664C201.644 82.2734 201.832 82.0234 202.074 81.8164C202.316 81.6055 202.599 81.4434 202.923 81.3301C203.251 81.2168 203.617 81.1602 204.019 81.1602C204.566 81.1602 205.039 81.2734 205.437 81.5C205.839 81.7266 206.15 82.0371 206.369 82.4316C206.591 82.8262 206.703 83.2793 206.703 83.791H204.992C204.992 83.5488 204.957 83.3359 204.886 83.1523C204.82 82.9648 204.712 82.8184 204.564 82.7129C204.416 82.6074 204.224 82.5547 203.99 82.5547C203.771 82.5547 203.589 82.5996 203.445 82.6895C203.304 82.7754 203.199 82.8945 203.128 83.0469C203.062 83.1953 203.029 83.3633 203.029 83.5508C203.029 83.6914 203.062 83.8184 203.128 83.9316C203.199 84.041 203.294 84.1406 203.416 84.2305C203.537 84.3164 203.679 84.4004 203.843 84.4824C204.011 84.5645 204.195 84.6445 204.394 84.7227C204.781 84.875 205.123 85.043 205.419 85.2266C205.716 85.4062 205.964 85.6094 206.164 85.8359C206.363 86.0586 206.513 86.3105 206.615 86.5918C206.716 86.873 206.767 87.1934 206.767 87.5527C206.767 87.9082 206.705 88.2324 206.58 88.5254C206.458 88.8145 206.281 89.0645 206.046 89.2754C205.812 89.4824 205.529 89.6426 205.197 89.7559C204.869 89.8691 204.501 89.9258 204.095 89.9258C203.701 89.9258 203.328 89.8711 202.976 89.7617C202.625 89.6484 202.314 89.4785 202.044 89.252C201.779 89.0215 201.57 88.7305 201.417 88.3789C201.265 88.0234 201.189 87.6035 201.189 87.1191H202.906C202.906 87.377 202.931 87.5977 202.982 87.7812C203.033 87.9609 203.111 88.1055 203.216 88.2148C203.322 88.3203 203.451 88.4004 203.603 88.4551C203.759 88.5059 203.937 88.5312 204.136 88.5312C204.363 88.5312 204.542 88.4883 204.675 88.4023C204.812 88.3164 204.91 88.2012 204.968 88.0566C205.027 87.9121 205.056 87.748 205.056 87.5645Z" fill="#0C7CEB"/>
<path d="M123.199 15.1091C122.301 15.1101 121.44 15.4671 120.805 16.1019C120.17 16.7367 119.813 17.5974 119.811 18.4954V34.6935C119.811 34.8924 119.732 35.0832 119.591 35.2238C119.451 35.3645 119.26 35.4435 119.061 35.4435C118.862 35.4435 118.671 35.3645 118.531 35.2238C118.39 35.0832 118.311 34.8924 118.311 34.6935V10.5341C118.31 9.48119 117.891 8.47166 117.147 7.72713C116.402 6.98259 115.393 6.56387 114.34 6.56288C113.807 6.5555 113.279 6.65622 112.786 6.85893C112.294 7.06164 111.848 7.36214 111.475 7.74225C110.754 8.50017 110.357 9.50905 110.369 10.5547V34.6935C110.369 34.8924 110.29 35.0832 110.149 35.2238C110.008 35.3645 109.817 35.4435 109.619 35.4435C109.42 35.4435 109.229 35.3645 109.088 35.2238C108.948 35.0832 108.869 34.8924 108.869 34.6935V10.8491C108.867 9.7128 108.415 8.62344 107.611 7.81993C106.808 7.01643 105.719 6.56437 104.582 6.56288C101.899 6.56288 100.296 8.88038 100.296 11.1191V34.6935C100.296 34.8924 100.217 35.0832 100.076 35.2238C99.9357 35.3645 99.7449 35.4435 99.546 35.4435C99.3471 35.4435 99.1564 35.3645 99.0157 35.2238C98.8751 35.0832 98.796 34.8924 98.796 34.6935V15.381C98.795 14.3281 98.3763 13.3185 97.6318 12.574C96.8873 11.8295 95.8777 11.4107 94.8248 11.4098C92.3385 11.4098 90.8535 13.5566 90.8535 15.6341V44.9385H99.666C101.405 44.9381 103.123 45.3126 104.703 46.0364C106.284 46.7602 107.69 47.8164 108.825 49.1329C108.955 49.2833 109.02 49.4792 109.006 49.6775C108.991 49.8758 108.899 50.0603 108.749 50.1904C108.598 50.3203 108.402 50.3853 108.204 50.3708C108.006 50.3564 107.821 50.2639 107.691 50.1135C106.696 48.9601 105.464 48.0348 104.079 47.4006C102.695 46.7664 101.189 46.4383 99.666 46.4385H90.1035C90.0703 46.4373 90.0371 46.4342 90.0042 46.4291H89.9648C89.9033 46.4159 89.8436 46.3958 89.7867 46.3691L89.7473 46.3485C89.6981 46.3212 89.6516 46.2892 89.6085 46.2529L89.5898 46.2379L85.8717 42.7448C84.5351 41.4788 82.7571 40.7846 80.9163 40.8102C79.0756 40.8357 77.3175 41.579 76.0167 42.8816C75.6768 43.2171 75.4809 43.6716 75.4704 44.149C75.4599 44.6264 75.6357 45.0891 75.9604 45.4391L90.0435 60.7185C95.6929 66.981 101.434 69.531 109.86 69.531C119.084 69.531 126.587 61.9504 126.587 52.6297V18.6623C126.595 16.9391 125.4 15.1091 123.199 15.1091Z" fill="#00DFBA"/>
<path d="M94.9219 86.9001H93.1758V85.4763H94.9219C95.1641 85.4763 95.3613 85.4216 95.5137 85.3123C95.6699 85.2029 95.7832 85.0525 95.8535 84.8611C95.9238 84.6658 95.959 84.447 95.959 84.2048C95.959 83.9587 95.9219 83.7302 95.8477 83.5193C95.7773 83.3044 95.666 83.1306 95.5137 82.9978C95.3652 82.865 95.168 82.7986 94.9219 82.7986H93.7266V89.906H92.0156V81.3748H94.9219C95.4961 81.3748 95.9902 81.4958 96.4043 81.738C96.8184 81.9802 97.1348 82.3142 97.3535 82.74C97.5762 83.1619 97.6875 83.6462 97.6875 84.1931C97.6875 84.7439 97.5762 85.2224 97.3535 85.6287C97.1348 86.031 96.8184 86.3435 96.4043 86.5662C95.9902 86.7888 95.4961 86.9001 94.9219 86.9001ZM100.881 82.8982L99.0469 89.906H97.2363L99.9023 81.3748H101.033L100.881 82.8982ZM102.328 89.906L100.482 82.8982L100.312 81.3748H101.461L104.15 89.906H102.328ZM102.393 86.7244V88.1482H98.543V86.7244H102.393ZM107.871 86.9001H106.125V85.4763H107.871C108.113 85.4763 108.311 85.4216 108.463 85.3123C108.619 85.2029 108.732 85.0525 108.803 84.8611C108.873 84.6658 108.908 84.447 108.908 84.2048C108.908 83.9587 108.871 83.7302 108.797 83.5193C108.727 83.3044 108.615 83.1306 108.463 82.9978C108.314 82.865 108.117 82.7986 107.871 82.7986H106.676V89.906H104.965V81.3748H107.871C108.445 81.3748 108.939 81.4958 109.354 81.738C109.768 81.9802 110.084 82.3142 110.303 82.74C110.525 83.1619 110.637 83.6462 110.637 84.1931C110.637 84.7439 110.525 85.2224 110.303 85.6287C110.084 86.031 109.768 86.3435 109.354 86.5662C108.939 86.7888 108.445 86.9001 107.871 86.9001ZM116.678 88.488V89.906H112.969V88.488H116.678ZM113.502 81.3748V89.906H111.785V81.3748H113.502ZM116.18 84.8318V86.2087H112.969V84.8318H116.18ZM116.666 81.3748V82.7986H112.969V81.3748H116.666ZM117.686 81.3748H120.422C120.992 81.3748 121.479 81.4724 121.881 81.6677C122.283 81.863 122.592 82.1521 122.807 82.5349C123.021 82.9177 123.129 83.3904 123.129 83.9529C123.129 84.4138 123.066 84.8083 122.941 85.1365C122.816 85.4607 122.639 85.7322 122.408 85.9509C122.178 86.1658 121.902 86.3376 121.582 86.4666L121.061 86.7771H118.84L118.834 85.3533H120.375C120.609 85.3533 120.803 85.3025 120.955 85.2009C121.111 85.0955 121.227 84.949 121.301 84.7615C121.379 84.5701 121.418 84.3474 121.418 84.0935C121.418 83.824 121.383 83.5935 121.312 83.4021C121.246 83.2068 121.139 83.0583 120.99 82.9568C120.846 82.8513 120.656 82.7986 120.422 82.7986H119.402V89.906H117.686V81.3748ZM121.559 89.906L119.994 86.1033L121.793 86.0974L123.393 89.824V89.906H121.559Z" fill="#00DFBA"/>
<path d="M33.9444 36.1912V26.1787C33.9444 24.8565 33.4191 23.5884 32.4841 22.6534C31.5492 21.7184 30.281 21.1931 28.9588 21.1931C27.6365 21.1931 26.3684 21.7184 25.4334 22.6534C24.4984 23.5884 23.9731 24.8565 23.9731 26.1787V35.9156H32.7669C33.1753 35.9164 33.5781 36.0106 33.9444 36.1912Z" fill="#FE2BF1"/>
<path d="M10.8782 35.9157V25.8C10.8782 24.6951 10.4392 23.6354 9.65789 22.8541C8.87656 22.0727 7.81686 21.6338 6.7119 21.6338C5.60695 21.6338 4.54724 22.0727 3.76592 22.8541C2.9846 23.6354 2.54565 24.6951 2.54565 25.8V38.265C4.42441 36.7434 6.76921 35.9139 9.1869 35.9157H10.8782Z" fill="#FE2BF1"/>
<path d="M40.0813 46.3274C39.005 46.3263 37.948 46.0422 37.0163 45.5034C36.0845 44.9647 35.311 44.1903 34.7732 43.258C34.0804 44.9791 32.8892 46.4539 31.3524 47.4932C29.8157 48.5325 28.0034 49.089 26.1482 49.0912H19.9157C21.4152 50.0052 22.6546 51.2895 23.5149 52.8205C24.3751 54.3516 24.8274 56.0781 24.8282 57.8343V60.6468C24.8282 60.8457 24.7491 61.0364 24.6085 61.1771C24.4678 61.3178 24.2771 61.3968 24.0782 61.3968C23.8792 61.3968 23.6885 61.3178 23.5478 61.1771C23.4072 61.0364 23.3282 60.8457 23.3282 60.6468V57.8343C23.3252 55.5164 22.4031 53.2942 20.7641 51.6552C19.1251 50.0162 16.9029 49.0941 14.585 49.0912H14.4519C14.253 49.0912 14.0622 49.0121 13.9216 48.8715C13.7809 48.7308 13.7019 48.5401 13.7019 48.3412C13.7019 48.1422 13.7809 47.9515 13.9216 47.8108C14.0622 47.6702 14.253 47.5912 14.4519 47.5912H26.15C28.2163 47.5892 30.1974 46.7676 31.6586 45.3067C33.1199 43.8458 33.9419 41.8649 33.9444 39.7987V38.593C33.9444 38.2807 33.8204 37.9812 33.5995 37.7604C33.3787 37.5396 33.0792 37.4155 32.7669 37.4155H9.18691C7.8684 37.4156 6.56575 37.703 5.36959 38.2577C4.17344 38.8123 3.11252 39.621 2.26066 40.6274C2.13504 40.7755 2.01129 40.9255 1.89691 41.0812C1.84816 41.1449 1.80316 41.2105 1.75816 41.2687C1.64379 41.4299 1.53316 41.593 1.43004 41.7618C1.39629 41.8162 1.36441 41.8724 1.33254 41.9287C1.22754 42.1162 1.12816 42.2924 1.03441 42.478L0.989413 42.5699C0.884413 42.7874 0.790662 43.0086 0.704412 43.2336C0.693162 43.2636 0.680037 43.2918 0.668787 43.3218C0.584412 43.5487 0.509414 43.7812 0.441914 44.0155C0.441914 44.0455 0.425038 44.0755 0.417538 44.1055C0.351913 44.3418 0.297537 44.5799 0.252537 44.8199L0.235662 44.9137C0.192537 45.1555 0.158788 45.4012 0.136288 45.6468C0.136288 45.6749 0.136288 45.703 0.136288 45.733C0.115663 45.988 0.102539 46.243 0.102539 46.4999C0.102539 47.1187 0.132539 47.728 0.181289 48.3336C1.11879 60.118 11.0019 69.4199 23.0225 69.4199H25.7488C30.7777 69.4125 35.5985 67.4116 39.1546 63.8558C42.7107 60.3 44.7121 55.4794 44.72 50.4505V44.1993C44.1454 44.8668 43.4336 45.4025 42.633 45.7698C41.8324 46.1371 40.9621 46.3273 40.0813 46.3274Z" fill="#FE2BF1"/>
<path d="M22.4732 26.235C22.4732 24.8963 21.9414 23.6125 20.9948 22.6659C20.0482 21.7193 18.7644 21.1875 17.4257 21.1875C16.087 21.1875 14.8031 21.7193 13.8566 22.6659C12.91 23.6125 12.3782 24.8963 12.3782 26.235V35.91H22.4732V26.235Z" fill="#FE2BF1"/>
<path d="M40.0812 28.502C38.8516 28.5034 37.6727 28.9927 36.8034 29.8624C35.9341 30.732 35.4453 31.9111 35.4443 33.1407V40.1907C35.4687 41.4046 35.9681 42.5605 36.8352 43.4103C37.7023 44.2602 38.868 44.7362 40.0822 44.7362C41.2963 44.7362 42.462 44.2602 43.3291 43.4103C44.1962 42.5605 44.6956 41.4046 44.72 40.1907V33.1407C44.7185 31.9109 44.2293 30.7319 43.3597 29.8623C42.49 28.9926 41.311 28.5034 40.0812 28.502Z" fill="#FE2BF1"/>
<path d="M7.55542 81.2637H10.2917C10.8621 81.2637 11.3484 81.3613 11.7507 81.5566C12.1531 81.752 12.4617 82.041 12.6765 82.4238C12.8914 82.8066 12.9988 83.2793 12.9988 83.8418C12.9988 84.3027 12.9363 84.6973 12.8113 85.0254C12.6863 85.3496 12.5085 85.6211 12.2781 85.8398C12.0476 86.0547 11.7722 86.2266 11.4519 86.3555L10.9304 86.666H8.70972L8.70386 85.2422H10.2449C10.4792 85.2422 10.6726 85.1914 10.825 85.0898C10.9812 84.9844 11.0964 84.8379 11.1707 84.6504C11.2488 84.459 11.2878 84.2363 11.2878 83.9824C11.2878 83.7129 11.2527 83.4824 11.1824 83.291C11.116 83.0957 11.0085 82.9473 10.8601 82.8457C10.7156 82.7402 10.5261 82.6875 10.2917 82.6875H9.27222V89.7949H7.55542V81.2637ZM11.4285 89.7949L9.86401 85.9922L11.6628 85.9863L13.2625 89.7129V89.7949H11.4285ZM20.1882 84.8672V86.291C20.1882 86.8926 20.114 87.4199 19.9656 87.873C19.821 88.3223 19.614 88.6992 19.3445 89.0039C19.0789 89.3047 18.7566 89.5312 18.3777 89.6836C18.0027 89.8359 17.5867 89.9121 17.1296 89.9121C16.6726 89.9121 16.2546 89.8359 15.8757 89.6836C15.5007 89.5312 15.1765 89.3047 14.9031 89.0039C14.6335 88.6992 14.4246 88.3223 14.2761 87.873C14.1277 87.4199 14.0535 86.8926 14.0535 86.291V84.8672C14.0535 84.25 14.1257 83.7109 14.2703 83.25C14.4148 82.7852 14.6238 82.3984 14.8972 82.0898C15.1707 81.7773 15.4949 81.543 15.8699 81.3867C16.2449 81.2266 16.6609 81.1465 17.1179 81.1465C17.575 81.1465 17.991 81.2266 18.366 81.3867C18.741 81.543 19.0652 81.7773 19.3386 82.0898C19.6121 82.3984 19.821 82.7852 19.9656 83.25C20.114 83.7109 20.1882 84.25 20.1882 84.8672ZM18.4832 86.291V84.8555C18.4832 84.4492 18.4539 84.1035 18.3953 83.8184C18.3367 83.5293 18.2488 83.293 18.1316 83.1094C18.0144 82.9258 17.8718 82.791 17.7039 82.7051C17.5359 82.6191 17.3406 82.5762 17.1179 82.5762C16.8953 82.5762 16.698 82.6191 16.5261 82.7051C16.3582 82.791 16.2156 82.9258 16.0984 83.1094C15.9851 83.293 15.8992 83.5293 15.8406 83.8184C15.7859 84.1035 15.7585 84.4492 15.7585 84.8555V86.291C15.7585 86.6816 15.7878 87.0156 15.8464 87.293C15.905 87.5703 15.9929 87.7969 16.1101 87.9727C16.2273 88.1484 16.3699 88.2793 16.5378 88.3652C16.7097 88.4473 16.907 88.4883 17.1296 88.4883C17.3484 88.4883 17.5417 88.4473 17.7097 88.3652C17.8816 88.2793 18.0242 88.1484 18.1375 87.9727C18.2507 87.7969 18.3367 87.5703 18.3953 87.293C18.4539 87.0156 18.4832 86.6816 18.4832 86.291ZM25.5027 86.9531H27.2078C27.1843 87.5938 27.0554 88.1348 26.821 88.5762C26.5867 89.0137 26.2527 89.3457 25.8191 89.5723C25.3894 89.7988 24.8699 89.9121 24.2605 89.9121C23.7878 89.9121 23.3679 89.834 23.0007 89.6777C22.6335 89.5176 22.321 89.2832 22.0632 88.9746C21.8054 88.666 21.6101 88.2852 21.4773 87.832C21.3484 87.375 21.2839 86.8496 21.2839 86.2559V84.8086C21.2839 84.2148 21.3523 83.6895 21.489 83.2324C21.6296 82.7754 21.8289 82.3926 22.0867 82.084C22.3484 81.7715 22.6628 81.5371 23.03 81.3809C23.4011 81.2207 23.8191 81.1406 24.2839 81.1406C24.905 81.1406 25.4246 81.2578 25.8425 81.4922C26.2605 81.7266 26.5828 82.0684 26.8093 82.5176C27.0398 82.9629 27.1785 83.5078 27.2253 84.1523H25.5144C25.5027 83.7461 25.4558 83.4277 25.3738 83.1973C25.2957 82.9629 25.1707 82.7988 24.9988 82.7051C24.8269 82.6074 24.5886 82.5586 24.2839 82.5586C24.0574 82.5586 23.8621 82.5996 23.698 82.6816C23.5339 82.7598 23.3992 82.8867 23.2937 83.0625C23.1882 83.2383 23.1101 83.4688 23.0593 83.7539C23.0125 84.0391 22.989 84.3867 22.989 84.7969V86.2559C22.989 86.6582 23.0105 87.002 23.0535 87.2871C23.0964 87.5684 23.1648 87.7988 23.2585 87.9785C23.3523 88.1582 23.4792 88.2891 23.6394 88.3711C23.8035 88.4531 24.0105 88.4941 24.2605 88.4941C24.5496 88.4941 24.782 88.4512 24.9578 88.3652C25.1375 88.2793 25.2703 88.125 25.3562 87.9023C25.4421 87.6797 25.491 87.3633 25.5027 86.9531ZM29.9968 81.2637V89.7949H28.28V81.2637H29.9968ZM34.2332 81.2637L31.4675 85.5L29.7742 87.6094L29.446 85.8926L30.5417 84.0645L32.1472 81.2637H34.2332ZM32.2527 89.7949L30.3894 85.875L31.6492 84.7617L34.2742 89.7949H32.2527Z" fill="#FE2BF1"/>
</svg>
