<svg width="317" height="69" viewBox="0 0 317 69" fill="none" xmlns="http://www.w3.org/2000/svg">
<path d="M29.7 45.15C29.7 45.7167 28.0167 46 24.65 46C21.2833 46 19.6 45.7167 19.6 45.15V33.65H12.6V45.15C12.6 45.7167 10.9167 46 7.55 46C4.18333 46 2.5 45.7167 2.5 45.15V12C2.5 11.3 4.18333 10.95 7.55 10.95C10.9167 10.95 12.6 11.3 12.6 12V23.75H19.6V12.1C19.6 11.6333 20.4333 11.3 22.1 11.1C22.9667 11.0333 23.8167 11 24.65 11L27.2 11.1C28.8667 11.3 29.7 11.6333 29.7 12.1V45.15ZM49.5277 46.5C44.8611 46.5 41.0444 44.9667 38.0777 41.9C35.1444 38.8333 33.6777 34.3667 33.6777 28.5C33.6777 22.6 35.1611 18.1333 38.1277 15.1C41.1277 12.0667 44.9777 10.55 49.6777 10.55C54.4111 10.55 58.2277 12.05 61.1277 15.05C64.0277 18.0167 65.4777 22.5333 65.4777 28.6C65.4777 34.6333 63.9944 39.1333 61.0277 42.1C58.0611 45.0333 54.2277 46.5 49.5277 46.5ZM49.5777 20.15C47.9777 20.15 46.6277 20.8833 45.5277 22.35C44.4611 23.8167 43.9277 25.8833 43.9277 28.55C43.9277 31.1833 44.4444 33.2167 45.4777 34.65C46.5111 36.05 47.8611 36.75 49.5277 36.75C51.2277 36.75 52.5944 36.0333 53.6277 34.6C54.6944 33.1667 55.2277 31.1167 55.2277 28.45C55.2277 25.7833 54.6777 23.7333 53.5777 22.3C52.5111 20.8667 51.1777 20.15 49.5777 20.15ZM104.492 46.05C101.526 46.05 100.042 45.7167 100.042 45.05L98.9922 25L92.8922 45.3C92.7589 45.7 91.6255 45.9 89.4922 45.9C87.3589 45.9 86.2589 45.7167 86.1922 45.35L79.8922 24.8L79.1922 44.75C79.1589 45.25 78.5255 45.6 77.2922 45.8C76.0589 45.9667 75.0255 46.05 74.1922 46.05C73.3922 46.05 72.6089 46 71.8422 45.9C70.2422 45.6667 69.4589 45.25 69.4922 44.65L70.6422 12.15C70.6422 11.35 72.6755 10.95 76.7422 10.95C77.9422 10.95 79.4089 11.05 81.1422 11.25C82.8755 11.4167 83.8422 11.7667 84.0422 12.3L89.6422 28.05L94.5422 12.25C94.8422 11.3833 97.1422 10.95 101.442 10.95C102.676 10.95 104.142 11.05 105.842 11.25C107.576 11.4167 108.442 11.7333 108.442 12.2L109.892 45C109.892 45.3667 109.242 45.6333 107.942 45.8C106.642 45.9667 105.492 46.05 104.492 46.05ZM128.627 46.1C125.594 46.1 124.077 45.7667 124.077 45.1V12.7C124.077 11.5667 124.594 11 125.627 11H134.427C139.361 11 142.911 12.0167 145.077 14.05C147.277 16.0833 148.377 19.0333 148.377 22.9C148.377 26.1 147.344 29.0333 145.277 31.7C144.244 33.0333 142.727 34.1 140.727 34.9C138.727 35.7 136.394 36.1 133.727 36.1V45.05C133.727 45.45 133.094 45.7333 131.827 45.9C130.594 46.0333 129.527 46.1 128.627 46.1ZM133.727 19.7V27.6H134.377C135.544 27.6 136.527 27.2333 137.327 26.5C138.127 25.7667 138.527 24.7333 138.527 23.4C138.527 22.0667 138.244 21.1167 137.677 20.55C137.144 19.9833 136.177 19.7 134.777 19.7H133.727ZM156.093 37.4V19.6H152.543C151.976 19.6 151.576 18.8833 151.343 17.45C151.243 16.75 151.193 16.0333 151.193 15.3C151.193 14.5667 151.243 13.85 151.343 13.15C151.576 11.7167 151.976 11 152.543 11H169.343C169.91 11 170.293 11.7167 170.493 13.15C170.626 13.85 170.693 14.5667 170.693 15.3C170.693 16.0333 170.626 16.75 170.493 17.45C170.293 18.8833 169.91 19.6 169.343 19.6H165.993V37.4H169.493C170.06 37.4 170.46 38.1167 170.693 39.55C170.826 40.25 170.893 40.9667 170.893 41.7C170.893 42.4333 170.826 43.15 170.693 43.85C170.46 45.2833 170.06 46 169.493 46H152.643C152.076 46 151.693 45.2833 151.493 43.85C151.36 43.15 151.293 42.4333 151.293 41.7C151.293 40.9667 151.36 40.25 151.493 39.55C151.693 38.1167 152.076 37.4 152.643 37.4H156.093ZM209.229 46.05C206.262 46.05 204.779 45.7167 204.779 45.05L203.729 25L197.629 45.3C197.495 45.7 196.362 45.9 194.229 45.9C192.095 45.9 190.995 45.7167 190.929 45.35L184.629 24.8L183.929 44.75C183.895 45.25 183.262 45.6 182.029 45.8C180.795 45.9667 179.762 46.05 178.929 46.05C178.129 46.05 177.345 46 176.579 45.9C174.979 45.6667 174.195 45.25 174.229 44.65L175.379 12.15C175.379 11.35 177.412 10.95 181.479 10.95C182.679 10.95 184.145 11.05 185.879 11.25C187.612 11.4167 188.579 11.7667 188.779 12.3L194.379 28.05L199.279 12.25C199.579 11.3833 201.879 10.95 206.179 10.95C207.412 10.95 208.879 11.05 210.579 11.25C212.312 11.4167 213.179 11.7333 213.179 12.2L214.629 45C214.629 45.3667 213.979 45.6333 212.679 45.8C211.379 45.9667 210.229 46.05 209.229 46.05ZM233.364 46.1C230.33 46.1 228.814 45.7667 228.814 45.1V12.7C228.814 11.5667 229.33 11 230.364 11H239.164C244.097 11 247.647 12.0167 249.814 14.05C252.014 16.0833 253.114 19.0333 253.114 22.9C253.114 26.1 252.08 29.0333 250.014 31.7C248.98 33.0333 247.464 34.1 245.464 34.9C243.464 35.7 241.13 36.1 238.464 36.1V45.05C238.464 45.45 237.83 45.7333 236.564 45.9C235.33 46.0333 234.264 46.1 233.364 46.1ZM238.464 19.7V27.6H239.114C240.28 27.6 241.264 27.2333 242.064 26.5C242.864 25.7667 243.264 24.7333 243.264 23.4C243.264 22.0667 242.98 21.1167 242.414 20.55C241.88 19.9833 240.914 19.7 239.514 19.7H238.464ZM278.051 46.1C275.151 46.1 273.584 45.6333 273.351 44.7L271.701 38.25H263.751L262.301 44.45C262.101 45.4833 260.501 46 257.501 46C255.901 46 254.717 45.9167 253.951 45.75C253.184 45.55 252.801 45.4 252.801 45.3L261.651 11.45C261.651 11.1833 263.934 11.05 268.501 11.05C273.067 11.05 275.351 11.1833 275.351 11.45L284.001 45.35C284.001 45.5833 283.234 45.7667 281.701 45.9C280.167 46.0333 278.951 46.1 278.051 46.1ZM265.001 31.9H270.251L268.001 21.55H267.701L265.001 31.9ZM314.514 45.15C314.514 45.7167 312.831 46 309.464 46C306.098 46 304.414 45.7167 304.414 45.15V33.65H297.414V45.15C297.414 45.7167 295.731 46 292.364 46C288.998 46 287.314 45.7167 287.314 45.15V12C287.314 11.3 288.998 10.95 292.364 10.95C295.731 10.95 297.414 11.3 297.414 12V23.75H304.414V12.1C304.414 11.6333 305.248 11.3 306.914 11.1C307.781 11.0333 308.631 11 309.464 11L312.014 11.1C313.681 11.3 314.514 11.6333 314.514 12.1V45.15Z" fill="#F87171"/>
<path d="M193.91 63.105C192.92 63.105 192.01 62.875 191.18 62.415C190.36 61.955 189.705 61.315 189.215 60.495C188.735 59.665 188.495 58.735 188.495 57.705C188.495 56.675 188.735 55.75 189.215 54.93C189.705 54.11 190.36 53.47 191.18 53.01C192.01 52.55 192.92 52.32 193.91 52.32C194.9 52.32 195.805 52.55 196.625 53.01C197.455 53.47 198.105 54.11 198.575 54.93C199.055 55.75 199.295 56.675 199.295 57.705C199.295 58.735 199.055 59.665 198.575 60.495C198.095 61.315 197.445 61.955 196.625 62.415C195.805 62.875 194.9 63.105 193.91 63.105ZM193.91 60.765C194.75 60.765 195.42 60.485 195.92 59.925C196.43 59.365 196.685 58.625 196.685 57.705C196.685 56.775 196.43 56.035 195.92 55.485C195.42 54.925 194.75 54.645 193.91 54.645C193.06 54.645 192.38 54.92 191.87 55.47C191.37 56.02 191.12 56.765 191.12 57.705C191.12 58.635 191.37 59.38 191.87 59.94C192.38 60.49 193.06 60.765 193.91 60.765ZM203.287 55.815C203.527 55.425 203.872 55.11 204.322 54.87C204.772 54.63 205.287 54.51 205.867 54.51C206.557 54.51 207.182 54.685 207.742 55.035C208.302 55.385 208.742 55.885 209.062 56.535C209.392 57.185 209.557 57.94 209.557 58.8C209.557 59.66 209.392 60.42 209.062 61.08C208.742 61.73 208.302 62.235 207.742 62.595C207.182 62.945 206.557 63.12 205.867 63.12C205.277 63.12 204.762 63.005 204.322 62.775C203.882 62.535 203.537 62.22 203.287 61.83V63H200.722V51.9H203.287V55.815ZM206.947 58.8C206.947 58.16 206.767 57.66 206.407 57.3C206.057 56.93 205.622 56.745 205.102 56.745C204.592 56.745 204.157 56.93 203.797 57.3C203.447 57.67 203.272 58.175 203.272 58.815C203.272 59.455 203.447 59.96 203.797 60.33C204.157 60.7 204.592 60.885 205.102 60.885C205.612 60.885 206.047 60.7 206.407 60.33C206.767 59.95 206.947 59.44 206.947 58.8ZM212.178 53.76C211.728 53.76 211.358 53.63 211.068 53.37C210.788 53.1 210.648 52.77 210.648 52.38C210.648 51.98 210.788 51.65 211.068 51.39C211.358 51.12 211.728 50.985 212.178 50.985C212.618 50.985 212.978 51.12 213.258 51.39C213.548 51.65 213.693 51.98 213.693 52.38C213.693 52.77 213.548 53.1 213.258 53.37C212.978 53.63 212.618 53.76 212.178 53.76ZM213.468 64.08C213.468 65.11 213.208 65.85 212.688 66.3C212.168 66.76 211.443 66.99 210.513 66.99H209.508V64.815H210.123C210.403 64.815 210.603 64.76 210.723 64.65C210.843 64.54 210.903 64.36 210.903 64.11V54.63H213.468V64.08ZM223.202 58.68C223.202 58.92 223.187 59.17 223.157 59.43H217.352C217.392 59.95 217.557 60.35 217.847 60.63C218.147 60.9 218.512 61.035 218.942 61.035C219.582 61.035 220.027 60.765 220.277 60.225H223.007C222.867 60.775 222.612 61.27 222.242 61.71C221.882 62.15 221.427 62.495 220.877 62.745C220.327 62.995 219.712 63.12 219.032 63.12C218.212 63.12 217.482 62.945 216.842 62.595C216.202 62.245 215.702 61.745 215.342 61.095C214.982 60.445 214.802 59.685 214.802 58.815C214.802 57.945 214.977 57.185 215.327 56.535C215.687 55.885 216.187 55.385 216.827 55.035C217.467 54.685 218.202 54.51 219.032 54.51C219.842 54.51 220.562 54.68 221.192 55.02C221.822 55.36 222.312 55.845 222.662 56.475C223.022 57.105 223.202 57.84 223.202 58.68ZM220.577 58.005C220.577 57.565 220.427 57.215 220.127 56.955C219.827 56.695 219.452 56.565 219.002 56.565C218.572 56.565 218.207 56.69 217.907 56.94C217.617 57.19 217.437 57.545 217.367 58.005H220.577ZM224.045 58.815C224.045 57.945 224.22 57.185 224.57 56.535C224.93 55.885 225.425 55.385 226.055 55.035C226.695 54.685 227.425 54.51 228.245 54.51C229.295 54.51 230.17 54.785 230.87 55.335C231.58 55.885 232.045 56.66 232.265 57.66H229.535C229.305 57.02 228.86 56.7 228.2 56.7C227.73 56.7 227.355 56.885 227.075 57.255C226.795 57.615 226.655 58.135 226.655 58.815C226.655 59.495 226.795 60.02 227.075 60.39C227.355 60.75 227.73 60.93 228.2 60.93C228.86 60.93 229.305 60.61 229.535 59.97H232.265C232.045 60.95 231.58 61.72 230.87 62.28C230.16 62.84 229.285 63.12 228.245 63.12C227.425 63.12 226.695 62.945 226.055 62.595C225.425 62.245 224.93 61.745 224.57 61.095C224.22 60.445 224.045 59.685 224.045 58.815ZM238.302 60.825V63H236.997C236.067 63 235.342 62.775 234.822 62.325C234.302 61.865 234.042 61.12 234.042 60.09V56.76H233.022V54.63H234.042V52.59H236.607V54.63H238.287V56.76H236.607V60.12C236.607 60.37 236.667 60.55 236.787 60.66C236.907 60.77 237.107 60.825 237.387 60.825H238.302ZM246.854 52.47C247.964 52.47 248.934 52.69 249.764 53.13C250.594 53.57 251.234 54.19 251.684 54.99C252.144 55.78 252.374 56.695 252.374 57.735C252.374 58.765 252.144 59.68 251.684 60.48C251.234 61.28 250.589 61.9 249.749 62.34C248.919 62.78 247.954 63 246.854 63H242.909V52.47H246.854ZM246.689 60.78C247.659 60.78 248.414 60.515 248.954 59.985C249.494 59.455 249.764 58.705 249.764 57.735C249.764 56.765 249.494 56.01 248.954 55.47C248.414 54.93 247.659 54.66 246.689 54.66H245.474V60.78H246.689ZM261.698 58.68C261.698 58.92 261.683 59.17 261.653 59.43H255.848C255.888 59.95 256.053 60.35 256.343 60.63C256.643 60.9 257.008 61.035 257.438 61.035C258.078 61.035 258.523 60.765 258.773 60.225H261.503C261.363 60.775 261.108 61.27 260.738 61.71C260.378 62.15 259.923 62.495 259.373 62.745C258.823 62.995 258.208 63.12 257.528 63.12C256.708 63.12 255.978 62.945 255.338 62.595C254.698 62.245 254.198 61.745 253.838 61.095C253.478 60.445 253.298 59.685 253.298 58.815C253.298 57.945 253.473 57.185 253.823 56.535C254.183 55.885 254.683 55.385 255.323 55.035C255.963 54.685 256.698 54.51 257.528 54.51C258.338 54.51 259.058 54.68 259.688 55.02C260.318 55.36 260.808 55.845 261.158 56.475C261.518 57.105 261.698 57.84 261.698 58.68ZM259.073 58.005C259.073 57.565 258.923 57.215 258.623 56.955C258.323 56.695 257.948 56.565 257.498 56.565C257.068 56.565 256.703 56.69 256.403 56.94C256.113 57.19 255.933 57.545 255.863 58.005H259.073ZM267.716 60.825V63H266.411C265.481 63 264.756 62.775 264.236 62.325C263.716 61.865 263.456 61.12 263.456 60.09V56.76H262.436V54.63H263.456V52.59H266.021V54.63H267.701V56.76H266.021V60.12C266.021 60.37 266.081 60.55 266.201 60.66C266.321 60.77 266.521 60.825 266.801 60.825H267.716ZM277.035 58.68C277.035 58.92 277.02 59.17 276.99 59.43H271.185C271.225 59.95 271.39 60.35 271.68 60.63C271.98 60.9 272.345 61.035 272.775 61.035C273.415 61.035 273.86 60.765 274.11 60.225H276.84C276.7 60.775 276.445 61.27 276.075 61.71C275.715 62.15 275.26 62.495 274.71 62.745C274.16 62.995 273.545 63.12 272.865 63.12C272.045 63.12 271.315 62.945 270.675 62.595C270.035 62.245 269.535 61.745 269.175 61.095C268.815 60.445 268.635 59.685 268.635 58.815C268.635 57.945 268.81 57.185 269.16 56.535C269.52 55.885 270.02 55.385 270.66 55.035C271.3 54.685 272.035 54.51 272.865 54.51C273.675 54.51 274.395 54.68 275.025 55.02C275.655 55.36 276.145 55.845 276.495 56.475C276.855 57.105 277.035 57.84 277.035 58.68ZM274.41 58.005C274.41 57.565 274.26 57.215 273.96 56.955C273.66 56.695 273.285 56.565 272.835 56.565C272.405 56.565 272.04 56.69 271.74 56.94C271.45 57.19 271.27 57.545 271.2 58.005H274.41ZM277.878 58.815C277.878 57.945 278.053 57.185 278.403 56.535C278.763 55.885 279.258 55.385 279.888 55.035C280.528 54.685 281.258 54.51 282.078 54.51C283.128 54.51 284.003 54.785 284.703 55.335C285.413 55.885 285.878 56.66 286.098 57.66H283.368C283.138 57.02 282.693 56.7 282.033 56.7C281.563 56.7 281.188 56.885 280.908 57.255C280.628 57.615 280.488 58.135 280.488 58.815C280.488 59.495 280.628 60.02 280.908 60.39C281.188 60.75 281.563 60.93 282.033 60.93C282.693 60.93 283.138 60.61 283.368 59.97H286.098C285.878 60.95 285.413 61.72 284.703 62.28C283.993 62.84 283.118 63.12 282.078 63.12C281.258 63.12 280.528 62.945 279.888 62.595C279.258 62.245 278.763 61.745 278.403 61.095C278.053 60.445 277.878 59.685 277.878 58.815ZM292.135 60.825V63H290.83C289.9 63 289.175 62.775 288.655 62.325C288.135 61.865 287.875 61.12 287.875 60.09V56.76H286.855V54.63H287.875V52.59H290.44V54.63H292.12V56.76H290.44V60.12C290.44 60.37 290.5 60.55 290.62 60.66C290.74 60.77 290.94 60.825 291.22 60.825H292.135ZM294.854 53.76C294.404 53.76 294.034 53.63 293.744 53.37C293.464 53.1 293.324 52.77 293.324 52.38C293.324 51.98 293.464 51.65 293.744 51.39C294.034 51.12 294.404 50.985 294.854 50.985C295.294 50.985 295.654 51.12 295.934 51.39C296.224 51.65 296.369 51.98 296.369 52.38C296.369 52.77 296.224 53.1 295.934 53.37C295.654 53.63 295.294 53.76 294.854 53.76ZM296.129 54.63V63H293.564V54.63H296.129ZM301.798 63.12C300.978 63.12 300.238 62.945 299.578 62.595C298.928 62.245 298.413 61.745 298.033 61.095C297.663 60.445 297.478 59.685 297.478 58.815C297.478 57.955 297.668 57.2 298.048 56.55C298.428 55.89 298.948 55.385 299.608 55.035C300.268 54.685 301.008 54.51 301.828 54.51C302.648 54.51 303.388 54.685 304.048 55.035C304.708 55.385 305.228 55.89 305.608 56.55C305.988 57.2 306.178 57.955 306.178 58.815C306.178 59.675 305.983 60.435 305.593 61.095C305.213 61.745 304.688 62.245 304.018 62.595C303.358 62.945 302.618 63.12 301.798 63.12ZM301.798 60.9C302.288 60.9 302.703 60.72 303.043 60.36C303.393 60 303.568 59.485 303.568 58.815C303.568 58.145 303.398 57.63 303.058 57.27C302.728 56.91 302.318 56.73 301.828 56.73C301.328 56.73 300.913 56.91 300.583 57.27C300.253 57.62 300.088 58.135 300.088 58.815C300.088 59.485 300.248 60 300.568 60.36C300.898 60.72 301.308 60.9 301.798 60.9ZM312.638 54.54C313.618 54.54 314.398 54.86 314.978 55.5C315.568 56.13 315.863 57 315.863 58.11V63H313.313V58.455C313.313 57.895 313.168 57.46 312.878 57.15C312.588 56.84 312.198 56.685 311.708 56.685C311.218 56.685 310.828 56.84 310.538 57.15C310.248 57.46 310.103 57.895 310.103 58.455V63H307.538V54.63H310.103V55.74C310.363 55.37 310.713 55.08 311.153 54.87C311.593 54.65 312.088 54.54 312.638 54.54Z" fill="white"/>
</svg>
