<svg width="2274" height="1695" viewBox="0 0 2274 1695" fill="none" xmlns="http://www.w3.org/2000/svg">
<path d="M389.019 298.518C515.994 28.1511 966.864 66.3072 1140.86 256.406C1314.86 446.504 1371.44 568.385 1528.38 497.439C1685.33 426.494 1885.48 445.413 1896.75 671.029C1908.03 896.646 1724.53 1163.28 1432.56 1242.19C1140.59 1321.09 1140.77 1600.37 754.481 1544.03C543.872 1513.33 539.097 1285.44 568.84 1096.98C598.582 908.516 241.807 612.044 389.019 298.518Z" fill="#DC2626"/>
<path opacity="0.9" d="M389.019 298.518C515.994 28.1511 966.864 66.3072 1140.86 256.406C1314.86 446.504 1371.44 568.385 1528.38 497.439C1685.33 426.494 1885.48 445.413 1896.75 671.029C1908.03 896.646 1724.53 1163.28 1432.56 1242.19C1140.59 1321.09 1140.77 1600.37 754.481 1544.03C543.872 1513.33 539.097 1285.44 568.84 1096.98C598.582 908.516 241.807 612.044 389.019 298.518Z" fill="white"/>
<path d="M1136.95 1694.33C1623.94 1694.33 2018.73 1671.28 2018.73 1642.85C2018.73 1614.42 1623.94 1591.37 1136.95 1591.37C649.961 1591.37 255.177 1614.42 255.177 1642.85C255.177 1671.28 649.961 1694.33 1136.95 1694.33Z" fill="#F5F5F5"/>
<path d="M1883.25 789.227C1883.24 783.309 1881.85 777.475 1879.19 772.189C1876.53 766.902 1872.67 762.31 1867.93 758.777C1863.18 755.244 1857.67 752.868 1851.84 751.838C1846.02 750.808 1840.03 751.153 1834.36 752.845C1834.95 748.992 1835.24 745.1 1835.22 741.202C1835.23 730.642 1833.15 720.183 1829.11 710.425C1825.08 700.667 1819.15 691.801 1811.69 684.334C1804.22 676.866 1795.35 670.944 1785.59 666.905C1775.84 662.867 1765.38 660.791 1754.82 660.797C1749.84 660.812 1744.88 661.269 1739.99 662.161C1732.03 649.239 1720.09 639.243 1705.97 633.669C1691.85 628.096 1676.31 627.245 1661.67 631.244C1647.02 635.242 1634.07 643.876 1624.74 655.852C1615.41 667.828 1610.22 682.503 1609.92 697.68H1608.74C1591.86 698.127 1575.81 705.149 1564.03 717.249C1552.25 729.35 1545.65 745.573 1545.65 762.463C1545.65 779.354 1552.25 795.577 1564.03 807.677C1575.81 819.778 1591.86 826.799 1608.74 827.247H1846.41C1856.29 826.951 1865.67 822.813 1872.55 815.714C1879.42 808.614 1883.26 799.112 1883.25 789.227Z" fill="#263238"/>
<g opacity="0.7">
<path d="M1883.25 789.227C1883.24 783.309 1881.85 777.475 1879.19 772.189C1876.53 766.902 1872.67 762.31 1867.93 758.777C1863.18 755.244 1857.67 752.868 1851.84 751.838C1846.02 750.808 1840.03 751.153 1834.36 752.845C1834.95 748.992 1835.24 745.1 1835.22 741.202C1835.23 730.642 1833.15 720.183 1829.11 710.425C1825.08 700.667 1819.15 691.801 1811.69 684.334C1804.22 676.866 1795.35 670.944 1785.59 666.905C1775.84 662.867 1765.38 660.791 1754.82 660.797C1749.84 660.812 1744.88 661.269 1739.99 662.161C1732.03 649.239 1720.09 639.243 1705.97 633.669C1691.85 628.096 1676.31 627.245 1661.67 631.244C1647.02 635.242 1634.07 643.876 1624.74 655.852C1615.41 667.828 1610.22 682.503 1609.92 697.68H1608.74C1591.86 698.127 1575.81 705.149 1564.03 717.249C1552.25 729.35 1545.65 745.573 1545.65 762.463C1545.65 779.354 1552.25 795.577 1564.03 807.677C1575.81 819.778 1591.86 826.799 1608.74 827.247H1846.41C1856.29 826.951 1865.67 822.813 1872.55 815.714C1879.42 808.614 1883.26 799.112 1883.25 789.227Z" fill="white"/>
</g>
<path d="M1644.12 899.966L1620.29 905.424L1646.31 846.984L1589 916.839L1612.83 911.381L1586.82 969.821L1644.12 899.966Z" fill="#DC2626"/>
<path d="M1716.93 899.966L1693.1 905.424L1719.12 846.984L1661.81 916.839L1685.65 911.381L1659.63 969.821L1716.93 899.966Z" fill="#DC2626"/>
<path d="M1789.74 899.966L1765.91 905.424L1791.93 846.984L1734.63 916.839L1758.46 911.381L1732.44 969.821L1789.74 899.966Z" fill="#DC2626"/>
<g opacity="0.7">
<path d="M1644.12 899.966L1620.29 905.424L1646.31 846.984L1589 916.839L1612.83 911.381L1586.82 969.821L1644.12 899.966Z" fill="white"/>
</g>
<g opacity="0.7">
<path d="M1716.93 899.966L1693.1 905.424L1719.12 846.984L1661.81 916.839L1685.65 911.381L1659.63 969.821L1716.93 899.966Z" fill="white"/>
</g>
<g opacity="0.7">
<path d="M1789.74 899.966L1765.91 905.424L1791.93 846.984L1734.63 916.839L1758.46 911.381L1732.44 969.821L1789.74 899.966Z" fill="white"/>
</g>
<path d="M751.434 601.221C751.427 596.328 750.277 591.504 748.077 587.134C745.877 582.764 742.686 578.968 738.76 576.049C734.833 573.129 730.28 571.167 725.461 570.318C720.642 569.469 715.692 569.757 711.004 571.159C711.478 567.967 711.721 564.745 711.732 561.518C711.732 543.884 704.727 526.972 692.258 514.503C679.789 502.034 662.877 495.029 645.243 495.029C641.124 495.038 637.015 495.419 632.964 496.166C626.425 485.376 616.549 477.009 604.832 472.33C593.114 467.652 580.191 466.917 568.019 470.236C555.846 473.556 545.086 480.749 537.365 490.728C529.644 500.707 525.383 512.929 525.226 525.545H524.271C517.108 525.336 509.975 526.567 503.295 529.164C496.616 531.761 490.525 535.672 485.385 540.666C480.244 545.659 476.157 551.633 473.366 558.234C470.575 564.835 469.137 571.929 469.137 579.095C469.137 586.262 470.575 593.356 473.366 599.957C476.157 606.558 480.244 612.532 485.385 617.525C490.525 622.519 496.616 626.43 503.295 629.027C509.975 631.624 517.108 632.855 524.271 632.646H720.919C729.102 632.432 736.877 629.024 742.58 623.151C748.283 617.278 751.461 609.407 751.434 601.221Z" fill="#263238"/>
<g opacity="0.7">
<path d="M751.434 601.221C751.427 596.328 750.277 591.504 748.077 587.134C745.877 582.764 742.686 578.968 738.76 576.049C734.833 573.129 730.28 571.167 725.461 570.318C720.642 569.469 715.692 569.757 711.004 571.159C711.478 567.967 711.721 564.745 711.732 561.518C711.732 543.884 704.727 526.972 692.258 514.503C679.789 502.034 662.877 495.029 645.243 495.029C641.124 495.038 637.015 495.419 632.964 496.166C626.425 485.376 616.549 477.009 604.832 472.33C593.114 467.652 580.191 466.917 568.019 470.236C555.846 473.556 545.086 480.749 537.365 490.728C529.644 500.707 525.383 512.929 525.226 525.545H524.271C517.108 525.336 509.975 526.567 503.295 529.164C496.616 531.761 490.525 535.672 485.385 540.666C480.244 545.659 476.157 551.633 473.366 558.234C470.575 564.835 469.137 571.929 469.137 579.095C469.137 586.262 470.575 593.356 473.366 599.957C476.157 606.558 480.244 612.532 485.385 617.525C490.525 622.519 496.616 626.43 503.295 629.027C509.975 631.624 517.108 632.855 524.271 632.646H720.919C729.102 632.432 736.877 629.024 742.58 623.151C748.283 617.278 751.461 609.407 751.434 601.221Z" fill="white"/>
</g>
<path d="M693.404 678.67C706.229 674.122 679.306 646.835 679.306 646.835C679.306 646.835 680.58 683.081 693.404 678.67Z" fill="#DC2626"/>
<path d="M702.409 699.135C702.409 699.135 703.637 735.517 716.462 731.197C729.286 726.876 702.409 699.135 702.409 699.135Z" fill="#DC2626"/>
<path d="M725.467 751.708C725.467 751.708 726.694 788.09 739.519 783.77C752.344 779.449 725.467 751.708 725.467 751.708Z" fill="#DC2626"/>
<path d="M650.791 678.988C663.616 674.44 636.693 646.926 636.693 646.926C636.693 646.926 637.967 683.445 650.791 678.988Z" fill="#DC2626"/>
<path d="M659.796 699.453C659.796 699.453 661.024 735.836 673.849 731.561C686.674 727.286 659.796 699.453 659.796 699.453Z" fill="#DC2626"/>
<path d="M682.854 752.026C682.854 752.026 684.081 788.408 696.906 783.861C709.731 779.313 682.854 752.026 682.854 752.026Z" fill="#DC2626"/>
<path d="M608.178 679.306C621.003 674.758 594.126 647.244 594.126 647.244C594.126 647.244 595.354 683.763 608.178 679.306Z" fill="#DC2626"/>
<path d="M617.183 699.817C617.183 699.817 618.411 736.199 631.236 731.879C644.061 727.558 617.183 699.817 617.183 699.817Z" fill="#DC2626"/>
<path d="M640.24 752.344C640.24 752.344 641.468 788.727 654.293 784.179C667.118 779.631 640.24 752.344 640.24 752.344Z" fill="#DC2626"/>
<path d="M551.513 647.562C551.513 647.562 552.741 683.945 565.565 679.625C578.39 675.304 551.513 647.562 551.513 647.562Z" fill="#DC2626"/>
<path d="M574.57 700.363C574.57 700.363 575.798 736.745 588.623 732.425C601.448 728.104 574.57 700.363 574.57 700.363Z" fill="#DC2626"/>
<path d="M597.627 752.663C597.627 752.663 598.855 789.045 611.68 784.725C624.505 780.404 597.627 752.663 597.627 752.663Z" fill="#DC2626"/>
<g opacity="0.7">
<path d="M693.404 678.67C706.229 674.122 679.306 646.835 679.306 646.835C679.306 646.835 680.58 683.081 693.404 678.67Z" fill="white"/>
<path d="M702.409 699.135C702.409 699.135 703.637 735.517 716.462 731.197C729.286 726.876 702.409 699.135 702.409 699.135Z" fill="white"/>
<path d="M725.466 751.708C725.466 751.708 726.694 788.09 739.519 783.77C752.344 779.449 725.466 751.708 725.466 751.708Z" fill="white"/>
<path d="M650.791 678.988C663.616 674.44 636.693 646.926 636.693 646.926C636.693 646.926 637.967 683.445 650.791 678.988Z" fill="white"/>
<path d="M659.796 699.453C659.796 699.453 661.024 735.836 673.849 731.561C686.673 727.286 659.796 699.453 659.796 699.453Z" fill="white"/>
<path d="M682.853 752.026C682.853 752.026 684.081 788.408 696.906 783.861C709.731 779.313 682.853 752.026 682.853 752.026Z" fill="white"/>
<path d="M608.178 679.306C621.003 674.758 594.126 647.244 594.126 647.244C594.126 647.244 595.354 683.763 608.178 679.306Z" fill="white"/>
<path d="M617.183 699.817C617.183 699.817 618.411 736.199 631.236 731.879C644.061 727.558 617.183 699.817 617.183 699.817Z" fill="white"/>
<path d="M640.24 752.344C640.24 752.344 641.468 788.727 654.293 784.179C667.118 779.631 640.24 752.344 640.24 752.344Z" fill="white"/>
<path d="M551.513 647.562C551.513 647.562 552.741 683.945 565.565 679.625C578.39 675.304 551.513 647.562 551.513 647.562Z" fill="white"/>
<path d="M574.57 700.363C574.57 700.363 575.798 736.745 588.623 732.425C601.448 728.104 574.57 700.363 574.57 700.363Z" fill="white"/>
<path d="M597.627 752.663C597.627 752.663 598.855 789.045 611.68 784.725C624.505 780.404 597.627 752.663 597.627 752.663Z" fill="white"/>
</g>
<path d="M1646.31 462.421C1650.04 450.915 1642.71 439.682 1626.89 434.771C1620.56 432.31 1613.71 431.474 1606.97 432.34C1600.24 433.206 1593.82 435.746 1588.32 439.728L1572.59 420.354C1589.14 408.484 1610.7 405.028 1636.26 413.35C1666.45 423.128 1682.1 443.411 1674.46 467.06C1663.59 500.486 1627.48 492.21 1619.61 516.404L1593.55 507.945C1603.47 477.52 1639.62 482.932 1646.31 462.421ZM1579.64 539.734C1580.62 536.466 1582.55 533.565 1585.19 531.4C1587.83 529.235 1591.05 527.904 1594.45 527.576C1597.84 527.248 1601.26 527.938 1604.26 529.559C1607.27 531.18 1609.72 533.657 1611.31 536.677C1612.9 539.696 1613.55 543.12 1613.19 546.513C1612.83 549.906 1611.46 553.114 1609.27 555.729C1607.08 558.345 1604.16 560.248 1600.88 561.198C1597.61 562.148 1594.12 562.101 1590.87 561.063C1588.71 560.468 1586.7 559.44 1584.95 558.042C1583.2 556.644 1581.76 554.905 1580.7 552.932C1579.65 550.958 1579.01 548.791 1578.81 546.561C1578.62 544.331 1578.89 542.086 1579.59 539.961L1579.64 539.734Z" fill="#DC2626"/>
<path d="M481.385 840.617C483.75 832.931 478.748 825.7 468.151 822.426C463.908 820.88 459.348 820.412 454.879 821.062C450.41 821.713 446.173 823.463 442.547 826.155L432.042 813.512C442.911 805.417 457.191 802.87 474.382 808.1C494.574 814.24 505.216 827.565 500.395 843.346C493.574 865.721 469.47 860.627 464.513 876.817L447.095 871.542C453.098 851.213 477.201 854.351 481.385 840.617ZM437.954 892.962C438.571 890.784 439.822 888.838 441.547 887.373C443.273 885.907 445.395 884.988 447.644 884.731C449.894 884.475 452.168 884.893 454.179 885.933C456.19 886.973 457.847 888.587 458.938 890.571C460.029 892.554 460.506 894.817 460.308 897.073C460.11 899.328 459.245 901.473 457.825 903.236C456.404 904.999 454.491 906.299 452.33 906.972C450.168 907.645 447.855 907.66 445.685 907.015C444.23 906.641 442.866 905.973 441.679 905.052C440.491 904.131 439.505 902.977 438.781 901.66C438.056 900.344 437.609 898.893 437.467 897.397C437.325 895.901 437.491 894.392 437.954 892.962Z" fill="#DC2626"/>
<path d="M742.293 346.543L762.122 338.948L782.723 403.027L769.444 408.075L742.293 346.543ZM773.491 431.269C772.963 429.865 772.725 428.368 772.791 426.87C772.858 425.371 773.227 423.901 773.877 422.55C774.528 421.198 775.445 419.992 776.575 419.005C777.705 418.018 779.023 417.27 780.449 416.807C781.801 416.226 783.257 415.924 784.728 415.92C786.2 415.916 787.657 416.21 789.012 416.783C790.367 417.357 791.593 418.198 792.614 419.257C793.636 420.317 794.433 421.571 794.957 422.946C795.507 424.329 795.772 425.809 795.736 427.296C795.701 428.784 795.365 430.249 794.749 431.604C794.133 432.959 793.25 434.176 792.153 435.181C791.055 436.186 789.766 436.959 788.363 437.454C786.983 438.046 785.498 438.355 783.996 438.363C782.495 438.372 781.007 438.079 779.62 437.502C778.234 436.926 776.977 436.077 775.925 435.006C774.872 433.936 774.044 432.665 773.491 431.269Z" fill="#DC2626"/>
<path d="M499.531 1412.5C499.739 1410.18 500.413 1407.92 501.513 1405.86C502.613 1403.81 504.116 1401.99 505.932 1400.53C507.749 1399.06 509.842 1397.98 512.086 1397.34C514.331 1396.7 516.681 1396.52 518.996 1396.81C521.32 1396.92 523.599 1397.5 525.696 1398.5C527.794 1399.51 529.667 1400.93 531.203 1402.68C532.74 1404.42 533.909 1406.46 534.641 1408.67C535.373 1410.88 535.653 1413.21 535.463 1415.53C535.274 1417.85 534.619 1420.11 533.539 1422.17C532.458 1424.23 530.974 1426.05 529.174 1427.53C527.374 1429 525.295 1430.1 523.062 1430.75C520.829 1431.41 518.487 1431.6 516.176 1431.33C513.833 1431.23 511.535 1430.66 509.418 1429.65C507.301 1428.64 505.41 1427.21 503.856 1425.45C502.303 1423.69 501.119 1421.64 500.376 1419.42C499.633 1417.19 499.346 1414.84 499.531 1412.5ZM512.629 1272.57L545.601 1275.25L531.457 1379.03L509.4 1377.21L512.629 1272.57Z" fill="#DC2626"/>
<path d="M1373.12 947.536L1393.81 942.715L1405.59 1008.93L1391.72 1012.16L1373.12 947.536ZM1392.63 1035.72C1392.29 1034.26 1392.25 1032.74 1392.52 1031.26C1392.78 1029.78 1393.35 1028.38 1394.17 1027.12C1394.99 1025.87 1396.07 1024.79 1397.32 1023.97C1398.57 1023.14 1399.98 1022.57 1401.45 1022.3C1402.87 1021.97 1404.35 1021.92 1405.79 1022.16C1407.23 1022.4 1408.61 1022.92 1409.85 1023.69C1411.08 1024.46 1412.16 1025.47 1413.01 1026.65C1413.86 1027.84 1414.47 1029.18 1414.8 1030.6C1415.13 1032.02 1415.18 1033.5 1414.94 1034.94C1414.7 1036.38 1414.19 1037.76 1413.41 1038.99C1412.64 1040.23 1411.64 1041.31 1410.45 1042.16C1409.26 1043.01 1407.92 1043.62 1406.5 1043.95C1405.05 1044.34 1403.53 1044.44 1402.04 1044.24C1400.55 1044.04 1399.12 1043.54 1397.82 1042.77C1396.53 1042 1395.4 1040.98 1394.51 1039.77C1393.62 1038.56 1392.98 1037.18 1392.63 1035.72Z" fill="#DC2626"/>
<path d="M1420.74 476.519C1420.22 476.51 1419.73 476.297 1419.37 475.928C1419.01 475.564 1384.31 438.045 1407.09 411.94C1409.71 408.793 1412.98 406.262 1416.69 404.528C1410.93 389.816 1407.55 374.279 1406.68 358.504C1405.96 348.68 1410.28 342.041 1418.78 339.858C1424.41 338.714 1430.22 338.839 1435.79 340.222C1435.69 335.55 1436.95 330.952 1439.43 326.987C1443.38 321.303 1452.25 316.391 1471.85 325.396C1472.3 325.603 1472.64 325.977 1472.81 326.437C1472.98 326.897 1472.96 327.405 1472.76 327.851C1472.66 328.071 1472.51 328.269 1472.34 328.432C1472.16 328.595 1471.95 328.72 1471.72 328.801C1471.49 328.881 1471.25 328.915 1471 328.901C1470.76 328.886 1470.52 328.823 1470.31 328.716C1460.76 324.168 1448.2 320.848 1442.47 329.079C1440.26 332.679 1439.2 336.867 1439.43 341.086C1455.07 345.361 1471.76 355.593 1476.54 365.962C1477.91 368.608 1478.21 371.685 1477.36 374.544C1476.51 377.403 1474.59 379.821 1471.99 381.288C1465.26 385.836 1457.62 384.654 1450.48 377.514C1442.03 368.221 1436.87 356.414 1435.79 343.905C1430.5 342.484 1424.96 342.313 1419.6 343.405C1412.78 345.179 1409.64 350.181 1410.23 358.231C1411.07 373.679 1414.37 388.894 1420.01 403.3C1425.24 401.997 1430.76 402.677 1435.52 405.21C1443.75 409.394 1449.89 417.898 1448.61 423.401C1448.28 424.817 1447.44 426.061 1446.25 426.899C1445.06 427.737 1443.6 428.11 1442.16 427.949C1432.7 428.267 1424.37 420.854 1418.05 407.757C1414.83 409.282 1411.99 411.503 1409.73 414.26C1389.13 437.863 1421.6 472.972 1421.92 473.381C1422.09 473.555 1422.23 473.76 1422.32 473.986C1422.42 474.213 1422.46 474.455 1422.46 474.7C1422.46 474.945 1422.42 475.188 1422.32 475.414C1422.23 475.64 1422.09 475.846 1421.92 476.019C1421.6 476.328 1421.18 476.506 1420.74 476.519ZM1421.69 406.71C1427.28 418.08 1434.52 424.902 1442.2 424.356C1444.79 424.356 1445.07 423.128 1445.16 422.673C1445.84 419.626 1441.75 412.441 1434.02 408.53C1430.24 406.521 1425.89 405.878 1421.69 406.71ZM1439.65 344.86C1440.95 356.046 1445.72 366.543 1453.3 374.876C1457.35 378.969 1463.58 382.834 1470.12 378.241C1471.05 377.76 1471.87 377.097 1472.54 376.29C1473.2 375.482 1473.7 374.549 1473.99 373.546C1474.28 372.543 1474.37 371.49 1474.24 370.453C1474.12 369.415 1473.79 368.413 1473.26 367.508C1469.26 358.913 1454.21 349.135 1439.65 344.86Z" fill="#263238"/>
<path d="M1396.18 869.996C1384.4 869.996 1372.76 865.903 1367.57 855.443C1363.39 846.984 1365.02 837.252 1366.89 829.338C1369.66 818.014 1378.3 788.408 1396.31 770.217C1378.62 777.448 1359.93 797.094 1352.79 809.874C1352.54 810.29 1352.15 810.593 1351.68 810.721C1351.21 810.848 1350.71 810.789 1350.29 810.556C1350.08 810.442 1349.89 810.286 1349.73 810.097C1349.58 809.909 1349.47 809.692 1349.4 809.459C1349.33 809.226 1349.31 808.981 1349.34 808.74C1349.37 808.499 1349.44 808.266 1349.56 808.055C1356.79 795.321 1379.62 769.489 1402.09 764.578H1403.14C1408.84 760.315 1415.48 757.492 1422.51 756.346C1427.98 755.404 1433.6 755.926 1438.8 757.859C1444 759.792 1448.59 763.067 1452.12 767.352C1454.64 770.93 1456.41 774.986 1457.31 779.272C1458.21 783.558 1458.22 787.983 1457.35 792.274C1460.09 793.15 1462.53 794.81 1464.35 797.049C1467.99 801.597 1468.31 808.419 1465.3 817.059C1460.79 829.551 1453.33 840.767 1443.55 849.754C1433.77 858.741 1421.97 865.233 1409.14 868.677C1404.89 869.648 1400.54 870.091 1396.18 869.996ZM1404.59 767.761C1383.4 783.815 1373.44 818.06 1370.48 830.203C1368.75 837.297 1367.21 846.438 1370.89 853.806C1377.08 866.358 1394.59 868.268 1408.23 864.811C1420.46 861.515 1431.72 855.317 1441.04 846.743C1450.37 838.169 1457.49 827.471 1461.8 815.559C1464.39 808.146 1464.26 802.597 1461.44 799.005C1460.16 797.46 1458.5 796.282 1456.62 795.594C1456.11 797.594 1455.46 799.555 1454.66 801.46C1446.66 820.97 1422.6 849.667 1398.18 852.76C1397.7 852.812 1397.21 852.675 1396.83 852.378C1396.45 852.081 1396.2 851.647 1396.13 851.168C1396.1 850.929 1396.12 850.686 1396.18 850.453C1396.24 850.22 1396.35 850.002 1396.5 849.811C1396.65 849.621 1396.83 849.462 1397.04 849.343C1397.25 849.225 1397.48 849.149 1397.72 849.121C1420.46 846.256 1443.79 818.287 1451.25 800.096C1451.99 798.322 1452.59 796.499 1453.07 794.639C1451.12 794.3 1449.14 794.118 1447.16 794.093C1443.45 794.048 1439.74 794.276 1436.06 794.775C1436.1 803.998 1433.22 812.997 1427.84 820.487C1422.46 827.977 1414.85 833.574 1406.09 836.478C1400.45 838.327 1394.31 837.937 1388.95 835.387C1387.53 834.661 1386.27 833.653 1385.26 832.426C1384.24 831.198 1383.48 829.776 1383.03 828.247C1381.4 822.38 1384.53 815.831 1391.86 809.828C1403.5 800.407 1417.38 794.142 1432.15 791.637C1431.84 787.649 1430.7 783.77 1428.8 780.247C1426.91 776.723 1424.3 773.633 1421.14 771.172C1418.77 769.525 1416.09 768.374 1413.26 767.788C1410.43 767.202 1407.51 767.193 1404.68 767.761H1404.59ZM1432.38 795.321C1418.38 797.739 1405.24 803.722 1394.22 812.693C1390.67 815.604 1385.13 821.38 1386.58 827.246C1386.88 828.305 1387.4 829.288 1388.11 830.134C1388.81 830.98 1389.69 831.669 1390.67 832.158C1395.18 834.212 1400.3 834.488 1405 832.931C1412.91 830.263 1419.8 825.219 1424.73 818.487C1429.66 811.755 1432.4 803.665 1432.56 795.321H1432.38ZM1410.82 763.759C1415.33 764.045 1419.65 765.624 1423.28 768.307C1426.81 771.041 1429.74 774.47 1431.89 778.381C1434.04 782.292 1435.37 786.602 1435.79 791.046C1439.57 790.547 1443.39 790.319 1447.2 790.364C1449.41 790.382 1451.62 790.58 1453.8 790.955C1454.54 787.212 1454.52 783.357 1453.74 779.621C1452.96 775.886 1451.43 772.347 1449.25 769.216C1446.12 765.457 1442.06 762.59 1437.46 760.905C1432.87 759.22 1427.92 758.777 1423.1 759.62C1418.83 760.306 1414.71 761.705 1410.91 763.759H1410.82Z" fill="#263238"/>
<path d="M850.076 680.898C849.717 680.89 849.367 680.777 849.07 680.575C848.772 680.372 848.54 680.088 848.4 679.756C848.261 679.424 848.22 679.059 848.284 678.705C848.347 678.351 848.512 678.023 848.758 677.76C851.445 675.01 853.324 671.575 854.191 667.829C855.057 664.083 854.877 660.172 853.669 656.522C853.095 654.399 852.303 652.341 851.304 650.382C839.743 654.966 827.349 657.073 814.922 656.567C804.644 655.93 797.959 652.883 796.094 648.063C794.548 644.106 796.321 639.467 801.324 634.419C804.647 630.808 808.9 628.18 813.616 626.824C818.333 625.469 823.332 625.437 828.065 626.733C838.383 629.761 847.193 636.543 852.76 645.743C859.602 642.978 865.385 638.103 869.268 631.827C872.535 625.527 874.315 618.562 874.472 611.467C874.63 604.372 873.161 597.336 870.178 590.897C866.563 591.41 862.914 591.638 859.263 591.579C838.616 591.079 817.787 580.482 812.921 571.387C812.275 570.358 811.932 569.168 811.932 567.953C811.932 566.738 812.275 565.548 812.921 564.519C815.104 561.109 821.107 559.562 830.794 559.972C839.195 560.228 847.386 562.664 854.561 567.041C861.737 571.419 867.651 577.586 871.724 584.939C872.088 585.576 872.452 586.212 872.77 586.849C890.961 584.075 915.792 575.571 924.251 561.109C926.247 557.608 927.209 553.613 927.024 549.587C926.838 545.562 925.514 541.672 923.205 538.369C916.52 527.045 904.014 526.727 897.146 527.5C894.526 527.818 891.939 528.366 889.415 529.137C890.625 532.295 891.494 535.573 892.007 538.915C893.372 548.011 890.234 564.156 882.139 568.612C879.092 570.295 873.998 571.023 867.267 565.111C864.571 563.149 862.559 560.391 861.515 557.225C860.47 554.059 860.446 550.645 861.446 547.465C864.038 539.052 873.225 531.229 884.412 526.909C882.057 522.031 878.556 517.795 874.208 514.564C869.86 511.333 864.795 509.202 859.445 508.354C859.073 508.223 858.752 507.978 858.528 507.653C858.305 507.328 858.19 506.941 858.2 506.547C858.21 506.153 858.345 505.772 858.585 505.46C858.825 505.147 859.158 504.918 859.536 504.807C865.556 505.77 871.248 508.193 876.115 511.863C880.983 515.534 884.878 520.34 887.459 525.863C890.341 524.99 893.293 524.366 896.282 523.998C909.607 522.407 920.158 526.909 925.934 536.641C928.632 540.513 930.164 545.076 930.35 549.791C930.535 554.506 929.366 559.175 926.98 563.246C917.884 578.345 892.962 587.395 873.907 590.533C876.903 597.369 878.332 604.789 878.088 612.249C877.844 619.709 875.934 627.02 872.497 633.646C868.278 640.545 861.993 645.94 854.533 649.063C855.601 651.186 856.454 653.41 857.08 655.703C858.467 659.975 858.653 664.546 857.619 668.917C856.584 673.288 854.368 677.291 851.213 680.489C850.894 680.754 850.492 680.899 850.076 680.898ZM820.88 629.371C817.706 629.379 814.57 630.05 811.672 631.342C808.774 632.635 806.179 634.519 804.053 636.875C801.369 639.649 798.413 643.606 799.505 646.744C800.596 649.882 806.645 652.338 815.149 652.883C826.826 653.341 838.47 651.374 849.349 647.108C844.264 638.949 836.37 632.931 827.156 630.19C825.102 629.674 822.996 629.4 820.88 629.371ZM827.428 563.928C818.333 563.928 816.377 566.066 815.922 566.793C815.689 567.297 815.595 567.854 815.651 568.406C815.707 568.958 815.911 569.485 816.241 569.931C820.015 577.026 838.98 587.668 859.445 588.123C862.484 588.179 865.523 588.027 868.541 587.668C868.452 587.462 868.346 587.264 868.222 587.076C864.465 580.296 859.02 574.602 852.414 570.547C845.809 566.491 838.267 564.211 830.521 563.928H827.428ZM885.595 530.547C875.408 534.413 866.903 541.462 864.629 548.738C863.898 551.205 863.942 553.836 864.756 556.276C865.569 558.716 867.113 560.848 869.177 562.382C873.316 566.02 876.909 566.93 879.865 565.429C886.232 561.927 888.96 547.511 887.869 539.552C887.463 536.398 886.7 533.301 885.595 530.32V530.547Z" fill="#263238"/>
<path d="M597.173 1313.59C592.612 1313.57 588.095 1312.7 583.848 1311.04C583.398 1310.85 583.039 1310.49 582.844 1310.05C582.65 1309.6 582.635 1309.09 582.802 1308.63C582.984 1308.19 583.332 1307.83 583.773 1307.63C584.214 1307.44 584.714 1307.42 585.167 1307.59C589.697 1309.51 594.637 1310.27 599.537 1309.8C604.437 1309.34 609.143 1307.65 613.227 1304.9C624.687 1297.22 632.646 1281.16 633.055 1264.93C633.055 1263.61 633.055 1262.15 633.055 1260.65C627.055 1265.08 619.655 1267.18 612.226 1266.56C609.214 1266.61 606.231 1265.98 603.498 1264.71C600.766 1263.44 598.355 1261.57 596.445 1259.24C595.155 1257.84 594.304 1256.09 593.997 1254.2C593.689 1252.32 593.94 1250.39 594.717 1248.65C598.583 1241.1 614.227 1239.32 619.957 1239.28C622.923 1239.44 625.788 1240.41 628.241 1242.09C630.694 1243.77 632.642 1246.08 633.874 1248.78C634.468 1250.02 634.969 1251.29 635.374 1252.6C636.195 1251.35 636.909 1250.02 637.512 1248.65C639.561 1243.12 640.314 1237.19 639.715 1231.33C639.116 1225.46 637.18 1219.81 634.055 1214.81C629.508 1225.18 611.771 1230.09 600.902 1228.45C592.716 1227 588.577 1222 589.76 1214.81C590.445 1211.98 591.81 1209.37 593.736 1207.19C595.662 1205.01 598.09 1203.33 600.811 1202.3C605.591 1199.68 611.066 1198.59 616.488 1199.19C621.91 1199.79 627.013 1202.06 631.099 1205.67C629.239 1200.28 625.859 1195.54 621.367 1192.03C609.725 1181.66 598.628 1176.65 587.713 1177.06C587.23 1177.07 586.763 1176.88 586.409 1176.55C586.054 1176.22 585.838 1175.77 585.803 1175.29C585.791 1175.05 585.828 1174.81 585.911 1174.58C585.994 1174.35 586.122 1174.14 586.287 1173.96C586.452 1173.78 586.652 1173.64 586.873 1173.54C587.095 1173.44 587.334 1173.39 587.577 1173.38C599.265 1172.83 611.453 1178.25 623.959 1189.25C631.963 1196.44 635.784 1203.44 635.329 1210.13C639.596 1215.78 642.356 1222.42 643.35 1229.42C644.345 1236.43 643.541 1243.58 641.014 1250.19C639.891 1252.84 638.356 1255.3 636.466 1257.47C636.744 1260.01 636.851 1262.56 636.784 1265.11C636.329 1282.48 627.689 1299.76 615.319 1308.04C609.975 1311.69 603.645 1313.63 597.173 1313.59ZM619.912 1242.96C612.544 1242.96 600.447 1245.37 597.946 1250.33C597.508 1251.48 597.412 1252.73 597.671 1253.93C597.929 1255.14 598.53 1256.24 599.401 1257.11C601 1258.97 602.992 1260.45 605.234 1261.45C607.475 1262.45 609.909 1262.94 612.362 1262.88C615.996 1263.21 619.66 1262.79 623.12 1261.63C626.581 1260.47 629.763 1258.6 632.464 1256.15C632.112 1254.16 631.484 1252.23 630.599 1250.42C629.658 1248.35 628.179 1246.56 626.316 1245.25C624.453 1243.94 622.274 1243.15 620.003 1242.96H619.912ZM614.091 1202.8C610.007 1202.88 605.988 1203.84 602.312 1205.62C600.147 1206.45 598.201 1207.76 596.624 1209.45C595.047 1211.15 593.881 1213.18 593.216 1215.4C592.17 1221.68 597.036 1223.86 601.311 1224.5C612.681 1226.45 629.508 1220.18 631.19 1210.85C630.645 1210.22 630.053 1209.58 629.462 1208.99C625.373 1205.01 619.888 1202.79 614.182 1202.8H614.091Z" fill="#263238"/>
<path d="M667.846 942.988C659.125 942.868 650.686 939.879 643.833 934.484C630.417 924.115 625.642 907.697 630.554 889.461C630.826 888.415 631.145 887.414 631.418 886.459C629.504 884.966 627.311 883.871 624.968 883.238C622.625 882.605 620.179 882.448 617.774 882.775C614.454 883.867 611.953 887.323 610.179 893.599C610.032 894.06 609.715 894.447 609.293 894.684C608.871 894.92 608.375 894.988 607.905 894.872C607.675 894.805 607.46 894.692 607.273 894.541C607.087 894.39 606.932 894.203 606.818 893.991C606.703 893.78 606.632 893.548 606.608 893.309C606.584 893.07 606.608 892.828 606.678 892.599C608.77 885.14 612.044 880.774 616.637 879.273C619.384 878.724 622.215 878.755 624.949 879.366C627.683 879.977 630.258 881.154 632.509 882.821C633.753 878.631 635.774 874.712 638.467 871.269C647.835 859.718 667.118 863.765 680.352 874.362C683.62 876.667 686.396 879.599 688.52 882.988C690.644 886.376 692.072 890.153 692.722 894.099C693.672 893.536 694.726 893.173 695.821 893.032C696.916 892.891 698.028 892.976 699.089 893.281C702.521 894.34 705.397 896.709 707.093 899.875C712.687 910.79 705.683 924.206 695.633 929.891C693.577 930.981 691.431 931.894 689.22 932.619C687.288 935.457 684.738 937.82 681.762 939.532C677.498 941.862 672.705 943.053 667.846 942.988ZM634.647 888.415L634.101 890.325C629.553 907.061 634.101 922.159 646.062 931.255C656.476 939.304 670.711 941.306 679.988 936.03C681.012 935.41 681.985 934.711 682.899 933.938C673.868 936.145 664.357 935.265 655.885 931.437C653.125 929.919 650.825 927.687 649.224 924.975C647.624 922.262 646.783 919.169 646.789 916.02C646.777 915.533 646.955 915.06 647.287 914.703C647.618 914.346 648.076 914.133 648.563 914.11C648.806 914.097 649.048 914.134 649.276 914.217C649.505 914.3 649.714 914.428 649.892 914.593C650.07 914.759 650.213 914.958 650.313 915.18C650.413 915.401 650.467 915.64 650.473 915.883C650.455 918.41 651.128 920.893 652.418 923.065C653.709 925.237 655.568 927.015 657.795 928.208C665.617 932.756 677.896 931.892 686.901 929.208C689.745 923.678 690.703 917.37 689.63 911.245L689.357 909.198C689.357 908.47 689.129 907.697 689.038 906.924L688.629 907.424C677.805 921.068 661.024 908.107 646.244 896.692C642.287 894.008 638.376 891.007 634.647 888.505V888.415ZM696.815 896.555C696.02 896.551 695.243 896.789 694.587 897.237C691.494 899.238 692.222 904.15 692.904 908.88L693.177 910.972C694.062 916.57 693.563 922.301 691.722 927.662L693.859 926.571C702.273 922.023 708.458 910.38 703.864 901.467C702.629 899.291 700.613 897.665 698.225 896.919C697.764 896.786 697.292 896.695 696.815 896.646V896.555ZM635.738 884.731C639.831 887.369 644.061 890.643 648.381 893.826C665.754 907.197 677.714 915.201 685.673 905.15C693.632 895.1 686.946 884.094 678.078 876.954C666.527 867.858 649.2 863.674 641.332 873.316C638.779 876.777 636.883 880.677 635.738 884.822V884.731Z" fill="#263238"/>
<path d="M1699.88 1368.25C1691.67 1368.01 1683.49 1367.15 1675.41 1365.66L1673.82 1365.39C1673.58 1365.36 1673.34 1365.28 1673.13 1365.16C1672.92 1365.04 1672.74 1364.88 1672.59 1364.68C1672.45 1364.48 1672.34 1364.26 1672.29 1364.02C1672.23 1363.78 1672.23 1363.54 1672.27 1363.3C1672.31 1363.06 1672.39 1362.83 1672.51 1362.62C1672.64 1362.41 1672.8 1362.23 1673 1362.08C1673.19 1361.94 1673.41 1361.84 1673.65 1361.78C1673.88 1361.72 1674.13 1361.71 1674.37 1361.75L1676 1362.02C1693.69 1364.84 1713.8 1368.03 1727.58 1354.97C1730.99 1351.7 1733.7 1347.76 1735.55 1343.41C1737.4 1339.06 1738.36 1334.37 1738.35 1329.64C1738.43 1320.05 1735.88 1310.61 1730.99 1302.36C1729.73 1315.2 1723.82 1327.15 1714.39 1335.96C1707.4 1342.39 1698.85 1346.89 1689.59 1349C1680.33 1351.12 1670.68 1350.78 1661.59 1348.02C1642.85 1342.19 1632.57 1326.64 1635.98 1309.36C1637.79 1302.5 1641.11 1296.13 1645.69 1290.71C1650.26 1285.29 1655.99 1280.96 1662.45 1278.02C1662.81 1275.03 1663.64 1272.12 1664.91 1269.38C1666.86 1265.27 1669.88 1261.76 1673.66 1259.22C1677.44 1256.69 1681.83 1255.22 1686.37 1254.97C1693.52 1254.66 1700.63 1256.1 1707.09 1259.17C1713.55 1262.24 1719.16 1266.84 1723.44 1272.57C1728.24 1279.4 1730.93 1287.5 1731.17 1295.85C1738.28 1305.71 1742.09 1317.57 1742.04 1329.73C1742.02 1334.95 1740.95 1340.11 1738.89 1344.91C1736.84 1349.71 1733.84 1354.04 1730.08 1357.66C1725.99 1361.32 1721.21 1364.14 1716.03 1365.96C1710.85 1367.78 1705.36 1368.56 1699.88 1368.25ZM1662.09 1282.48C1661.07 1282.97 1660.09 1283.52 1659.13 1284.12C1654.24 1286.88 1649.98 1290.63 1646.62 1295.12C1643.25 1299.61 1640.85 1304.76 1639.58 1310.22C1636.12 1328.01 1648.67 1340.33 1662.68 1344.7C1671.15 1347.26 1680.14 1347.57 1688.77 1345.6C1697.4 1343.63 1705.36 1339.44 1711.89 1333.46C1716.8 1328.82 1720.73 1323.24 1723.42 1317.04C1726.12 1310.84 1727.53 1304.16 1727.58 1297.4C1726.35 1295.8 1725.03 1294.28 1723.62 1292.85C1716.19 1285.48 1706.79 1280.42 1696.54 1278.3C1686.29 1276.18 1675.65 1277.08 1665.91 1280.89C1665.18 1289.99 1667.45 1301.26 1672.87 1306.77C1674.72 1308.67 1677.16 1309.9 1679.79 1310.24C1682.43 1310.58 1685.1 1310.01 1687.37 1308.63C1688.58 1308.04 1689.66 1307.21 1690.52 1306.18C1691.39 1305.16 1692.04 1303.96 1692.42 1302.67C1692.66 1301.92 1692.72 1301.12 1692.62 1300.34C1692.52 1299.55 1692.25 1298.8 1691.83 1298.13C1691.57 1297.72 1691.47 1297.23 1691.56 1296.75C1691.66 1296.28 1691.93 1295.86 1692.33 1295.58C1692.53 1295.44 1692.75 1295.34 1692.98 1295.29C1693.22 1295.24 1693.46 1295.23 1693.7 1295.28C1693.94 1295.32 1694.16 1295.41 1694.36 1295.54C1694.57 1295.67 1694.74 1295.84 1694.88 1296.03C1695.64 1297.16 1696.13 1298.45 1696.33 1299.79C1696.53 1301.14 1696.42 1302.51 1696.01 1303.81C1695.48 1305.62 1694.57 1307.3 1693.35 1308.74C1692.12 1310.18 1690.62 1311.35 1688.92 1312.18C1685.96 1313.91 1682.51 1314.59 1679.11 1314.12C1675.72 1313.64 1672.59 1312.02 1670.23 1309.54C1664.12 1301.91 1661.2 1292.21 1662.09 1282.48ZM1685.42 1273.39C1693.01 1273.29 1700.55 1274.73 1707.58 1277.6C1714.61 1280.48 1720.99 1284.73 1726.35 1290.12L1727.12 1290.94C1726.2 1285.14 1723.94 1279.63 1720.53 1274.84C1716.58 1269.67 1711.45 1265.52 1705.57 1262.73C1699.7 1259.94 1693.24 1258.59 1686.74 1258.79C1682.82 1258.99 1679.04 1260.26 1675.79 1262.44C1672.54 1264.63 1669.94 1267.66 1668.27 1271.2C1667.48 1272.92 1666.9 1274.72 1666.54 1276.57C1672.61 1274.45 1678.99 1273.38 1685.42 1273.39Z" fill="#263238"/>
<path d="M1755.53 1100.83L1643.64 1031.79C1626.22 1021.04 1603.38 1026.44 1592.63 1043.86L1577.42 1068.52C1566.67 1085.94 1572.08 1108.77 1589.5 1119.52L1701.38 1188.57C1718.8 1199.32 1741.64 1193.91 1752.39 1176.49L1767.6 1151.84C1778.35 1134.42 1772.95 1111.58 1755.53 1100.83Z" fill="#DC2626"/>
<g opacity="0.7">
<path d="M1755.53 1100.83L1643.64 1031.79C1626.22 1021.04 1603.38 1026.44 1592.63 1043.86L1577.42 1068.52C1566.67 1085.94 1572.08 1108.77 1589.5 1119.52L1701.38 1188.57C1718.8 1199.32 1741.64 1193.91 1752.39 1176.49L1767.6 1151.84C1778.35 1134.42 1772.95 1111.58 1755.53 1100.83Z" fill="white"/>
</g>
<path d="M1618.61 1092.7C1619.03 1092.11 1619.66 1091.7 1620.38 1091.56C1621.09 1091.41 1621.83 1091.55 1622.45 1091.93C1623.07 1092.31 1623.52 1092.91 1623.71 1093.61C1623.9 1094.31 1623.82 1095.06 1623.48 1095.7C1623.28 1096.02 1623.02 1096.3 1622.72 1096.52C1622.42 1096.74 1622.08 1096.89 1621.71 1096.98C1621.35 1097.06 1620.97 1097.07 1620.6 1097.01C1620.23 1096.95 1619.88 1096.81 1619.57 1096.61C1618.93 1096.21 1618.48 1095.58 1618.3 1094.85C1618.12 1094.12 1618.24 1093.35 1618.61 1092.7ZM1641.35 1076.38C1643.4 1073.01 1642.12 1069.01 1637.35 1066.1C1635.74 1064.96 1633.9 1064.22 1631.96 1063.92C1630.02 1063.62 1628.03 1063.77 1626.16 1064.37L1624.89 1061C1627.32 1060.25 1629.9 1060.07 1632.41 1060.47C1634.93 1060.87 1637.32 1061.85 1639.39 1063.32C1645.9 1067.33 1648.17 1073.01 1645.08 1077.97C1640.21 1085.93 1631.44 1081.06 1627.39 1087.7L1623.93 1085.56C1628.71 1077.83 1637.62 1082.38 1641.4 1076.38H1641.35Z" fill="#263238"/>
<path d="M1637.94 1104.62C1638.13 1104.3 1638.39 1104.02 1638.69 1103.8C1639 1103.59 1639.34 1103.43 1639.71 1103.35C1640.08 1103.27 1640.45 1103.26 1640.82 1103.33C1641.19 1103.4 1641.54 1103.55 1641.85 1103.75C1642.18 1103.94 1642.46 1104.18 1642.69 1104.48C1642.91 1104.78 1643.08 1105.12 1643.16 1105.48C1643.25 1105.84 1643.27 1106.22 1643.21 1106.59C1643.14 1106.95 1643.01 1107.31 1642.8 1107.62C1642.41 1108.26 1641.78 1108.72 1641.05 1108.9C1640.31 1109.08 1639.54 1108.96 1638.89 1108.57C1638.25 1108.17 1637.79 1107.53 1637.61 1106.79C1637.43 1106.05 1637.55 1105.27 1637.94 1104.62ZM1657.18 1074.65L1661.04 1077.01L1646.31 1099.34L1643.76 1097.8L1657.18 1074.65Z" fill="#263238"/>
<path d="M1656.68 1116.17C1656.87 1115.85 1657.12 1115.57 1657.42 1115.36C1657.72 1115.14 1658.06 1114.99 1658.42 1114.91C1658.78 1114.82 1659.16 1114.82 1659.52 1114.89C1659.89 1114.96 1660.23 1115.1 1660.54 1115.3C1660.86 1115.49 1661.14 1115.74 1661.36 1116.04C1661.59 1116.33 1661.75 1116.67 1661.84 1117.03C1661.94 1117.39 1661.96 1117.76 1661.91 1118.13C1661.85 1118.5 1661.73 1118.85 1661.54 1119.17C1661.34 1119.49 1661.08 1119.77 1660.77 1119.99C1660.47 1120.21 1660.12 1120.36 1659.75 1120.45C1659.39 1120.53 1659 1120.54 1658.63 1120.48C1658.26 1120.42 1657.9 1120.28 1657.59 1120.08C1657.27 1119.88 1656.99 1119.63 1656.77 1119.32C1656.55 1119.02 1656.4 1118.68 1656.31 1118.31C1656.23 1117.95 1656.22 1117.57 1656.28 1117.21C1656.34 1116.84 1656.48 1116.48 1656.68 1116.17ZM1679.41 1099.84C1681.51 1096.48 1680.19 1092.47 1675.46 1089.56C1673.85 1088.43 1672.01 1087.68 1670.07 1087.38C1668.13 1087.08 1666.14 1087.24 1664.27 1087.84L1662.95 1084.47C1665.39 1083.72 1667.96 1083.54 1670.48 1083.94C1672.99 1084.34 1675.38 1085.32 1677.46 1086.79C1683.96 1090.79 1686.24 1096.48 1683.19 1101.43C1678.28 1109.39 1669.55 1104.53 1665.45 1111.17L1662.04 1109.03C1666.73 1101.39 1675.69 1105.94 1679.41 1099.84Z" fill="#263238"/>
<path d="M1675.96 1128.08C1676.16 1127.77 1676.43 1127.49 1676.74 1127.28C1677.05 1127.07 1677.4 1126.92 1677.76 1126.84C1678.13 1126.76 1678.51 1126.76 1678.88 1126.83C1679.25 1126.91 1679.6 1127.05 1679.92 1127.27C1680.23 1127.45 1680.51 1127.69 1680.74 1127.99C1680.96 1128.28 1681.12 1128.61 1681.21 1128.97C1681.3 1129.33 1681.31 1129.7 1681.25 1130.06C1681.2 1130.43 1681.07 1130.77 1680.87 1131.09C1680.68 1131.41 1680.42 1131.69 1680.12 1131.91C1679.82 1132.13 1679.48 1132.3 1679.12 1132.38C1678.75 1132.47 1678.37 1132.49 1678 1132.43C1677.63 1132.37 1677.28 1132.24 1676.96 1132.04C1676.31 1131.64 1675.84 1131.01 1675.65 1130.27C1675.46 1129.53 1675.57 1128.74 1675.96 1128.08ZM1695.2 1098.11L1699.11 1100.52L1684.37 1122.81L1681.83 1121.26L1695.2 1098.11Z" fill="#263238"/>
<path d="M1694.7 1139.64C1694.89 1139.32 1695.15 1139.05 1695.45 1138.84C1695.75 1138.62 1696.09 1138.47 1696.45 1138.39C1696.81 1138.31 1697.18 1138.3 1697.54 1138.37C1697.91 1138.43 1698.25 1138.57 1698.56 1138.77C1698.89 1138.95 1699.17 1139.2 1699.4 1139.5C1699.62 1139.79 1699.79 1140.13 1699.88 1140.49C1699.98 1140.85 1700 1141.23 1699.94 1141.6C1699.89 1141.97 1699.76 1142.32 1699.56 1142.64C1699.14 1143.23 1698.51 1143.64 1697.8 1143.78C1697.08 1143.93 1696.34 1143.79 1695.73 1143.41C1695.11 1143.03 1694.66 1142.43 1694.47 1141.73C1694.27 1141.03 1694.36 1140.28 1694.7 1139.64ZM1717.43 1123.31C1719.48 1119.94 1718.16 1115.94 1713.43 1113.03C1711.82 1111.91 1709.98 1111.17 1708.04 1110.87C1706.1 1110.57 1704.12 1110.72 1702.25 1111.3L1700.93 1107.94C1703.37 1107.18 1705.95 1107 1708.47 1107.4C1711 1107.81 1713.39 1108.78 1715.48 1110.26C1721.98 1114.26 1724.21 1119.94 1721.16 1124.9C1716.25 1132.86 1707.52 1127.99 1703.43 1134.63L1700.02 1132.5C1704.79 1124.86 1713.71 1129.4 1717.48 1123.31H1717.43Z" fill="#263238"/>
<path d="M1714.02 1151.55C1714.22 1151.23 1714.48 1150.96 1714.79 1150.75C1715.09 1150.54 1715.44 1150.39 1715.81 1150.31C1716.17 1150.23 1716.55 1150.23 1716.91 1150.3C1717.28 1150.38 1717.63 1150.52 1717.93 1150.73C1718.26 1150.91 1718.55 1151.16 1718.77 1151.46C1719 1151.76 1719.16 1152.1 1719.25 1152.46C1719.34 1152.82 1719.35 1153.2 1719.29 1153.57C1719.23 1153.93 1719.09 1154.28 1718.89 1154.6C1718.69 1154.92 1718.44 1155.19 1718.13 1155.41C1717.83 1155.63 1717.49 1155.79 1717.12 1155.87C1716.76 1155.96 1716.38 1155.97 1716.02 1155.9C1715.65 1155.84 1715.29 1155.71 1714.98 1155.51C1714.33 1155.1 1713.87 1154.46 1713.69 1153.72C1713.52 1152.98 1713.63 1152.2 1714.02 1151.55ZM1733.22 1121.58L1737.13 1123.99L1722.39 1146.28L1719.84 1144.73L1733.22 1121.58Z" fill="#263238"/>
<path d="M1614.38 1132.63L1572.81 1139.41L1599.06 1116.12L1614.38 1132.63Z" fill="#DC2626"/>
<g opacity="0.7">
<path d="M1614.38 1132.63L1572.81 1139.41L1599.06 1116.12L1614.38 1132.63Z" fill="white"/>
</g>
<path d="M1443.32 549.062L1272.42 594.981C1252.65 600.293 1240.93 620.625 1246.25 640.394L1253.76 668.371C1259.07 688.14 1279.41 699.86 1299.18 694.548L1470.07 648.63C1489.84 643.318 1501.56 622.986 1496.25 603.217L1488.73 575.239C1483.42 555.47 1463.09 543.751 1443.32 549.062Z" fill="#DC2626"/>
<g opacity="0.7">
<path d="M1443.32 549.062L1272.42 594.981C1252.65 600.293 1240.93 620.625 1246.25 640.394L1253.76 668.371C1259.07 688.14 1279.41 699.86 1299.18 694.548L1470.07 648.63C1489.84 643.318 1501.56 622.986 1496.25 603.217L1488.73 575.239C1483.42 555.47 1463.09 543.751 1443.32 549.062Z" fill="white"/>
</g>
<path d="M1292.76 629.008L1299.67 630.781L1299.13 633.101L1292.12 631.191L1293.94 638.058L1291.71 638.695L1289.94 631.782L1284.8 636.966L1283.12 635.238L1288.26 630.19L1281.3 628.462L1281.89 626.052L1288.94 628.007L1287.03 621.14L1289.26 620.549L1291.08 627.416L1296.17 622.232L1297.85 624.005L1292.76 629.008Z" fill="#263238"/>
<path d="M1351.29 628.644C1353.52 636.875 1351.75 642.56 1346.74 643.879C1346.04 644.114 1345.31 644.202 1344.57 644.137C1343.84 644.071 1343.13 643.855 1342.48 643.5C1341.83 643.145 1341.27 642.66 1340.82 642.075C1340.37 641.491 1340.05 640.82 1339.88 640.104C1339.33 642.04 1338.28 643.794 1336.82 645.179C1335.36 646.564 1333.56 647.529 1331.6 647.972C1328.33 648.715 1324.9 648.165 1322.04 646.437C1319.17 644.709 1317.08 641.937 1316.21 638.702C1315.34 635.467 1315.75 632.021 1317.37 629.086C1318.98 626.151 1321.67 623.955 1324.87 622.959C1326.75 622.386 1328.76 622.315 1330.68 622.754C1332.6 623.192 1334.38 624.125 1335.83 625.46L1334.51 620.594L1337.69 619.73L1342.6 637.921C1343.33 640.65 1344.97 641.241 1346.61 640.786C1349.61 639.968 1350.56 635.738 1348.79 629.19C1348.17 626.574 1347.01 624.118 1345.38 621.982C1343.75 619.846 1341.69 618.076 1339.33 616.789C1336.97 615.502 1334.36 614.727 1331.68 614.512C1329 614.298 1326.31 614.65 1323.78 615.546C1321.12 616.132 1318.61 617.248 1316.39 618.828C1314.18 620.409 1312.31 622.42 1310.89 624.742C1309.47 627.065 1308.54 629.649 1308.14 632.341C1307.75 635.034 1307.9 637.778 1308.6 640.409C1309.29 643.04 1310.51 645.504 1312.17 647.652C1313.84 649.801 1315.93 651.59 1318.31 652.913C1320.69 654.235 1323.31 655.063 1326.01 655.347C1328.72 655.631 1331.45 655.366 1334.05 654.566C1337.27 653.738 1340.26 652.182 1342.79 650.018L1344.24 652.156C1341.49 654.509 1338.24 656.204 1334.74 657.113C1331.81 658.002 1328.74 658.293 1325.7 657.968C1322.66 657.643 1319.72 656.709 1317.05 655.223C1314.39 653.736 1312.04 651.726 1310.17 649.314C1308.29 646.902 1306.92 644.136 1306.14 641.183C1305.36 638.229 1305.18 635.149 1305.61 632.124C1306.05 629.1 1307.09 626.194 1308.67 623.581C1310.25 620.967 1312.34 618.699 1314.82 616.912C1317.3 615.126 1320.11 613.857 1323.09 613.181C1325.96 612.19 1329 611.81 1332.01 612.065C1335.03 612.319 1337.96 613.203 1340.62 614.66C1343.28 616.117 1345.6 618.114 1347.44 620.522C1349.27 622.931 1350.59 625.697 1351.29 628.644ZM1337.87 632.828C1337.29 631.042 1336.2 629.467 1334.73 628.298C1333.26 627.128 1331.48 626.415 1329.61 626.247C1327.74 626.079 1325.86 626.464 1324.21 627.353C1322.55 628.243 1321.2 629.598 1320.31 631.251C1319.41 632.905 1319.03 634.783 1319.19 636.653C1319.36 638.524 1320.07 640.305 1321.24 641.775C1322.41 643.245 1323.98 644.34 1325.77 644.924C1327.55 645.508 1329.47 645.556 1331.28 645.061C1332.55 644.743 1333.74 644.164 1334.77 643.361C1335.8 642.558 1336.65 641.549 1337.27 640.398C1337.89 639.247 1338.27 637.98 1338.37 636.676C1338.47 635.373 1338.31 634.062 1337.87 632.828Z" fill="#263238"/>
<path d="M1376.44 612.044L1377.9 622.55L1384.76 620.685L1385.49 623.368L1378.26 625.278L1379.62 634.783L1377.03 635.511L1375.67 626.006L1365.71 628.689L1367.03 638.194L1364.43 638.876L1363.07 629.371L1356.16 631.236L1355.47 628.553L1362.66 626.643L1361.2 616.137L1354.29 617.956L1353.56 615.319L1360.84 613.363L1359.48 603.858L1362.11 603.13L1363.43 612.635L1373.44 609.998L1372.07 600.493L1374.67 599.765L1376.03 609.27L1382.85 607.451L1383.58 610.089L1376.44 612.044ZM1373.8 612.726L1363.89 615.41L1365.3 625.915L1375.26 623.232L1373.8 612.726Z" fill="#263238"/>
<path d="M1420.92 624.278L1414.91 620.685C1413.87 622.603 1412.43 624.276 1410.69 625.593C1408.95 626.911 1406.95 627.842 1404.82 628.326C1398.18 630.145 1392.49 627.916 1391.17 622.777C1390.08 618.775 1391.63 615.182 1396.86 609.907C1392.68 607.406 1391.13 605.632 1390.45 603.04C1389.26 598.719 1391.86 594.899 1397.09 593.489C1398.01 593.08 1399.02 592.874 1400.03 592.886C1401.05 592.898 1402.05 593.127 1402.97 593.558C1403.88 593.989 1404.7 594.612 1405.36 595.385C1406.01 596.157 1406.5 597.062 1406.77 598.037C1407.68 601.403 1406.27 604.359 1401.63 609.043L1413.5 616.137C1414.07 613.787 1414.26 611.361 1414.05 608.952H1417.05C1417.3 611.846 1417.01 614.76 1416.19 617.547L1422.33 621.231L1420.92 624.278ZM1393.63 602.13C1394.18 604.131 1395.27 605.314 1399.22 607.633C1403.36 603.495 1404.5 601.403 1403.77 598.947C1403.59 598.346 1403.28 597.791 1402.86 597.316C1402.45 596.841 1401.94 596.457 1401.38 596.187C1400.81 595.918 1400.19 595.77 1399.56 595.751C1398.93 595.733 1398.31 595.846 1397.72 596.082C1397.03 596.163 1396.37 596.392 1395.78 596.751C1395.18 597.111 1394.67 597.593 1394.28 598.166C1393.89 598.739 1393.62 599.389 1393.5 600.073C1393.38 600.757 1393.41 601.458 1393.58 602.13H1393.63ZM1412.37 619.184L1399.32 611.408C1394.77 615.956 1393.68 618.548 1394.45 621.549C1395.45 625.233 1399.41 626.734 1404.32 625.415C1406.03 625.023 1407.63 624.263 1409.01 623.186C1410.39 622.11 1411.52 620.744 1412.32 619.184H1412.37Z" fill="#263238"/>
<path d="M1416.82 598.037C1416.71 596.513 1417.04 594.988 1417.76 593.641C1418.48 592.294 1419.57 591.18 1420.9 590.43C1422.23 589.68 1423.75 589.324 1425.28 589.405C1426.8 589.485 1428.27 589.999 1429.52 590.885C1430.77 591.771 1431.73 592.994 1432.31 594.409C1432.88 595.825 1433.05 597.375 1432.77 598.879C1432.5 600.383 1431.81 601.778 1430.77 602.901C1429.73 604.025 1428.4 604.83 1426.92 605.223C1422.37 606.451 1418.28 603.585 1416.82 598.037ZM1429.69 594.581C1428.51 590.033 1425.74 588.123 1422.6 588.987C1419.46 589.851 1418.05 593.034 1419.24 597.4C1420.42 601.766 1423.15 603.904 1426.38 603.04C1429.6 602.176 1430.88 598.992 1429.69 594.581ZM1442.61 581.528L1445.48 580.755L1431.42 620.867L1428.56 621.64L1442.61 581.528ZM1441.88 608.452C1441.43 607.379 1441.21 606.223 1441.23 605.059C1441.24 603.895 1441.51 602.747 1441.99 601.69C1442.48 600.633 1443.19 599.689 1444.06 598.919C1444.93 598.149 1445.96 597.57 1447.07 597.218C1451.62 595.991 1455.71 598.81 1457.21 604.359C1457.7 605.424 1457.95 606.584 1457.95 607.757C1457.95 608.93 1457.69 610.089 1457.19 611.151C1456.69 612.213 1455.96 613.154 1455.06 613.906C1454.16 614.659 1453.11 615.206 1451.98 615.509C1450.84 615.812 1449.66 615.863 1448.5 615.659C1447.35 615.455 1446.25 615.001 1445.29 614.329C1444.33 613.657 1443.52 612.782 1442.94 611.767C1442.35 610.752 1441.99 609.62 1441.88 608.452ZM1454.8 604.995C1453.62 600.447 1450.84 598.537 1447.66 599.401C1444.48 600.265 1443.11 603.403 1444.34 607.815C1445.57 612.226 1448.3 614.273 1451.43 613.409C1454.57 612.545 1455.94 609.407 1454.8 604.859V604.995Z" fill="#263238"/>
<path d="M1333.92 680.307L1315.41 718.099L1311.63 683.263L1333.92 680.307Z" fill="#DC2626"/>
<g opacity="0.7">
<path d="M1333.92 680.307L1315.41 718.099L1311.63 683.263L1333.92 680.307Z" fill="white"/>
</g>
<path d="M908.152 283.283L991.786 197.193L1303.63 227.436L1354.02 441.547L1208.26 519.405L1123.9 492.482L1090.16 528.91L1111.44 550.148L1062.6 589.669L1090.16 550.148L1054.45 528.91L1076.1 484.66L932.574 434.361L908.152 283.283Z" fill="#DC2626"/>
<g opacity="0.7">
<path d="M908.152 283.283L991.786 197.193L1303.63 227.436L1354.02 441.547L1208.26 519.405L1123.9 492.482L1090.16 528.91L1111.44 550.148L1062.6 589.669L1090.16 550.148L1054.45 528.91L1076.1 484.66L932.574 434.361L908.152 283.283Z" fill="white"/>
</g>
<path d="M1158.6 458.692C1146.58 458.725 1134.68 456.311 1123.63 451.597C1117.71 449.354 1112.42 445.72 1108.21 441.001C1105.08 436.665 1103.07 431.628 1102.34 426.332C1101.61 421.036 1102.19 415.641 1104.03 410.621H1102.66C1093.06 411.764 1083.32 410.691 1074.19 407.483C1071.37 409.03 1068.6 410.394 1065.96 411.622C1067.94 413.882 1069.66 416.352 1071.1 418.989C1072.51 420.988 1073.41 423.296 1073.74 425.719C1074.06 428.142 1073.8 430.607 1072.96 432.906C1071.8 435.374 1069.9 437.416 1067.52 438.746C1065.13 440.076 1062.4 440.626 1059.68 440.319C1049.22 439.955 1034.81 431.86 1026.62 423.855L1021.85 424.31C1007.72 425.591 993.555 422.325 981.417 414.987C973.735 409.697 967.31 402.784 962.594 394.737C957.879 386.69 954.99 377.705 954.13 368.418C952.6 350.008 956.322 331.543 964.863 315.163C967.227 310.35 969.885 305.687 972.822 301.201C968.812 301.246 964.804 301.064 960.815 300.655C959.468 300.667 958.139 300.351 956.942 299.732C955.746 299.114 954.718 298.213 953.948 297.108C952.22 293.743 954.448 289.832 959.633 287.148C976.182 278.545 993.238 270.951 1010.7 264.409C1013.43 262.727 1016.25 261.226 1019.12 259.861C1031.01 254.04 1043.96 250.706 1057.19 250.065C1070.41 249.423 1083.62 251.488 1096.02 256.132C1098.16 256.996 1100.21 257.906 1102.25 258.952C1113.47 255.7 1124.92 253.313 1136.5 251.812C1165.6 247.468 1195.27 248.609 1223.95 255.177C1253.74 262.545 1269.43 275.37 1271.61 294.334C1273.48 309.751 1265.7 321.621 1255.51 331.444C1258.89 336.21 1261.78 341.298 1264.15 346.634C1266.77 347.141 1269.33 347.903 1271.79 348.908C1283.64 353.905 1293.2 363.128 1298.63 374.785C1303.86 385.745 1306.4 402.071 1297.81 414.714C1291.59 422.95 1282.8 428.885 1272.84 431.587C1261.85 435.327 1250.3 437.173 1238.69 437.044C1231.36 437.213 1224.1 435.655 1217.49 432.496C1212.88 429.864 1208.95 426.198 1206 421.787C1203.05 417.375 1201.16 412.339 1200.48 407.074C1198.98 410.193 1196.98 413.049 1194.57 415.533C1198.46 417.75 1201.53 421.155 1203.34 425.248C1205.15 429.34 1205.6 433.905 1204.62 438.272C1202.39 445.412 1195.53 451.006 1184.61 454.371C1176.21 457.111 1167.44 458.568 1158.6 458.692ZM1108.03 410.167C1104.89 419.581 1104.48 430.541 1111.07 438.681C1114.89 442.965 1119.7 446.245 1125.08 448.232C1143.67 456.069 1164.41 457.131 1183.7 451.233C1190.43 449.141 1198.94 445.048 1201.3 437.59C1202.12 433.835 1201.68 429.915 1200.03 426.442C1198.38 422.97 1195.63 420.141 1192.21 418.398C1183.84 426.162 1173.37 431.287 1162.1 433.133C1160.76 433.488 1159.37 433.554 1158 433.327C1156.64 433.099 1155.34 432.584 1154.19 431.814C1152.91 430.557 1152.13 428.884 1151.98 427.099C1151.83 425.315 1152.32 423.535 1153.37 422.082C1155.21 419.663 1157.7 417.818 1160.56 416.761C1169.71 411.884 1180.4 410.727 1190.39 413.532L1191.53 413.987L1192.16 413.305C1194.17 411.566 1195.8 409.426 1196.94 407.021C1198.07 404.617 1198.69 402.001 1198.76 399.343C1198.3 392.794 1192.44 388.337 1186.2 385.699C1185.98 386.245 1185.75 386.791 1185.48 387.337C1180.38 397.978 1170.51 407.029 1156.05 414.26C1151.52 416.87 1146.45 418.425 1141.23 418.807C1138.46 418.897 1135.73 418.223 1133.32 416.859C1130.91 415.495 1128.93 413.494 1127.58 411.076C1126.88 409.659 1126.48 408.11 1126.4 406.528C1120.37 408.159 1114.23 409.375 1108.03 410.167ZM1031.35 423.264C1038.95 429.859 1050.77 436.498 1059.82 436.908C1061.81 437.197 1063.83 436.84 1065.6 435.89C1067.37 434.941 1068.79 433.448 1069.64 431.632C1070.16 429.848 1070.27 427.972 1069.97 426.14C1069.67 424.308 1068.97 422.564 1067.92 421.036C1066.38 418.312 1064.54 415.778 1062.41 413.486L1061.87 413.759C1052.11 418.12 1041.86 421.311 1031.35 423.264ZM1252.97 334.036C1248.92 337.811 1244.55 341.313 1240.37 344.678C1236.19 348.043 1232.55 351 1229.14 354.138C1215.49 366.735 1207.4 378.878 1204.62 391.293C1201.71 404.436 1205.9 422.264 1219.4 429.404C1225.49 432.294 1232.18 433.667 1238.91 433.406C1250.11 433.588 1261.25 431.818 1271.84 428.176C1281.03 425.701 1289.15 420.267 1294.94 412.713C1302.67 401.253 1300.31 386.427 1295.49 376.331C1290.49 365.488 1281.62 356.907 1270.61 352.273C1269.13 351.651 1267.61 351.134 1266.06 350.727C1266.75 352.682 1267.38 354.592 1267.88 356.548C1271.14 367.073 1270.31 378.441 1265.56 388.383C1263.03 393.433 1258.97 397.554 1253.95 400.159C1248.94 402.764 1243.23 403.72 1237.64 402.89C1232.18 401.48 1227.34 398.283 1223.91 393.808C1220.47 389.333 1218.63 383.837 1218.68 378.195C1218.86 372.636 1220.45 367.214 1223.31 362.441C1226.17 357.667 1230.19 353.699 1235 350.909C1242.56 346.509 1251.32 344.644 1260.02 345.588C1257.98 341.554 1255.62 337.69 1252.97 334.036ZM1180.2 415.578C1173.89 415.829 1167.7 417.377 1162.01 420.126C1159.82 420.928 1157.88 422.312 1156.42 424.128C1155.86 424.817 1155.55 425.676 1155.55 426.561C1155.55 427.447 1155.86 428.306 1156.42 428.995C1157.94 429.789 1159.72 429.968 1161.37 429.495C1171.37 427.823 1180.72 423.434 1188.39 416.806C1185.77 415.969 1183.04 415.554 1180.29 415.578H1180.2ZM960.588 337.129C957.76 347.208 956.834 357.726 957.859 368.145C958.64 376.877 961.324 385.331 965.724 392.913C970.124 400.496 976.133 407.021 983.327 412.031C994.786 418.944 1008.16 422.004 1021.48 420.763H1023.44C1022.3 419.379 1021.35 417.85 1020.62 416.215C1018.74 410.598 1018.13 404.632 1018.85 398.752H1016.48L1012.16 398.388C999.745 397.296 984.191 394.659 974.049 383.835C973.713 383.487 973.525 383.022 973.525 382.539C973.525 382.055 973.713 381.59 974.049 381.243C974.219 381.071 974.42 380.934 974.643 380.841C974.866 380.748 975.104 380.7 975.346 380.7C975.587 380.7 975.826 380.748 976.048 380.841C976.271 380.934 976.472 381.071 976.642 381.243C985.737 391.157 1000.61 393.613 1012.39 394.613L1016.66 394.977L1019.07 395.204C1019.07 394.795 1019.07 394.386 1019.07 394.022L1019.3 391.702C1019.57 388.655 1019.75 385.563 1019.89 382.607C1014.29 382.074 1009.07 379.558 1005.16 375.512C999.381 369.191 997.789 359.504 1000.38 346.725C1001.25 342.477 1002.46 338.309 1004.02 334.264C999.994 336.629 995.833 338.754 991.558 340.631C985.399 343.739 978.527 345.167 971.639 344.769C969.674 344.627 967.758 344.082 966.013 343.166C964.268 342.251 962.731 340.985 961.497 339.448C961.14 338.708 960.865 337.93 960.679 337.129H960.588ZM1022.53 398.888C1021.86 404.198 1022.39 409.589 1024.08 414.669C1025.02 416.686 1026.31 418.519 1027.9 420.081C1038.77 418.314 1049.36 415.133 1059.41 410.621C1049.59 402.208 1036.22 400.207 1022.62 398.888H1022.53ZM1129.45 405.619C1129.45 406.961 1129.76 408.284 1130.36 409.484C1131.46 411.281 1133.03 412.751 1134.89 413.742C1136.75 414.733 1138.85 415.21 1140.95 415.124C1145.58 414.792 1150.07 413.424 1154.1 411.122C1167.74 404.254 1177.15 395.75 1181.88 385.881L1182.43 384.699L1181.2 384.381L1177.88 383.744C1167.17 390.678 1155.71 396.398 1143.73 400.798C1138.91 402.663 1134.18 404.254 1129.54 405.619H1129.45ZM1022.85 395.204C1037.72 396.569 1052.41 398.888 1063.19 408.848C1065.37 407.847 1067.73 406.756 1069.96 405.528L1069.14 405.028C1063.23 401.435 1058 394.158 1060.64 386.836C1061.8 383.857 1063.6 381.171 1065.92 378.969C1076.08 369.172 1088.05 361.448 1101.16 356.23V355.456C1100.79 353.416 1100.26 351.409 1099.57 349.453C1093.49 353.454 1086.46 355.79 1079.19 356.23C1076.94 356.218 1074.7 355.943 1072.51 355.411C1061.14 367.281 1048.13 378.741 1031.58 381.879C1029.12 382.368 1026.62 382.597 1024.12 382.561C1024.12 385.654 1023.8 388.746 1023.53 391.657L1023.3 393.976L1022.85 395.204ZM1078.24 405.209C1086.06 407.302 1094.2 407.934 1102.25 407.074L1105.21 406.801C1106.23 404.133 1107.47 401.548 1108.89 399.07C1112.69 392.84 1116.96 386.911 1121.67 381.333C1126.11 376.095 1130.16 370.547 1133.81 364.734C1136.99 359.342 1139.42 353.544 1141.04 347.498C1136.18 348.498 1131.45 349.817 1127.4 351H1126.54C1119.34 352.98 1112.26 355.379 1105.34 358.185C1105.78 364.87 1104.79 371.571 1102.44 377.844C1100.08 384.116 1096.42 389.817 1091.7 394.568C1087.69 398.64 1083.2 402.213 1078.33 405.209H1078.24ZM1145.05 346.725C1143.35 353.715 1140.62 360.414 1136.95 366.599C1133.25 372.585 1129.1 378.286 1124.54 383.653C1119.96 389.084 1115.8 394.845 1112.08 400.889C1111.08 402.626 1110.19 404.418 1109.39 406.255C1115.06 405.429 1120.66 404.245 1126.17 402.708C1128.09 396.506 1132.31 391.269 1137.95 388.064C1149.64 380.921 1163.44 378.03 1177.02 379.878C1179.79 378.014 1182.43 376.058 1184.89 374.057C1185.36 369.966 1184.84 365.821 1183.39 361.968C1181.93 358.115 1179.58 354.666 1176.52 351.909C1168.15 344.906 1156.46 344.815 1145.14 346.725H1145.05ZM1101.52 359.913C1089.33 364.993 1078.2 372.339 1068.73 381.561C1066.79 383.392 1065.24 385.606 1064.19 388.064C1062.37 393.34 1066.28 399.07 1071.15 402.026C1072.06 402.58 1073 403.081 1073.96 403.527C1079.5 400.419 1084.58 396.563 1089.06 392.066C1093.23 387.838 1096.49 382.807 1098.64 377.28C1100.8 371.752 1101.81 365.844 1101.62 359.913H1101.52ZM1168.97 383.016C1158.71 383.018 1148.66 385.851 1139.91 391.202C1135.8 393.641 1132.49 397.209 1130.36 401.48C1134.27 400.298 1138.32 398.933 1142.41 397.342C1152.72 393.549 1162.65 388.783 1172.06 383.107L1168.97 383.016ZM1255.65 349.499C1249.08 349.526 1242.63 351.333 1237 354.729C1232.76 357.164 1229.2 360.635 1226.65 364.818C1224.11 369 1222.66 373.759 1222.45 378.65C1222.4 383.44 1223.95 388.109 1226.85 391.922C1229.74 395.735 1233.83 398.474 1238.46 399.707C1243.28 400.325 1248.16 399.438 1252.46 397.166C1256.75 394.894 1260.23 391.349 1262.43 387.018C1266.74 377.869 1267.46 367.428 1264.43 357.776C1263.73 355.176 1262.86 352.624 1261.83 350.136C1259.82 349.756 1257.79 349.543 1255.74 349.499H1255.65ZM1187.16 382.379C1192.73 384.254 1197.45 388.041 1200.48 393.067C1200.48 392.203 1200.76 391.339 1200.94 390.475C1203.9 377.331 1212.26 364.552 1226.59 351.409C1230.05 348.225 1233.91 345.133 1237.96 341.813C1242.01 338.493 1246.69 334.764 1250.74 331.08C1248.13 327.613 1245.32 324.303 1242.32 321.166C1219.99 297.563 1181.75 279.008 1146.82 290.787C1144.78 291.44 1142.77 292.215 1140.82 293.106C1158.57 294.038 1176.01 298.167 1192.3 305.294C1200.37 308.227 1207.24 313.743 1211.85 320.984C1216.99 330.716 1214.76 344.223 1205.85 357.094C1200.98 364.108 1195.19 370.427 1188.61 375.876C1188.36 378.081 1187.91 380.259 1187.25 382.379H1187.16ZM1182.11 380.833L1183.66 381.197C1183.66 380.606 1183.98 379.969 1184.11 379.332L1182.11 380.833ZM1023.85 378.741C1026.09 378.742 1028.33 378.544 1030.53 378.15C1045.72 375.285 1057.82 364.916 1068.55 353.91C1066.17 352.828 1064.02 351.282 1062.23 349.362C1059.28 345.829 1057.43 341.515 1056.88 336.945C1056.34 332.375 1057.14 327.746 1059.18 323.622C1060.84 320.1 1063.09 316.885 1065.82 314.117C1056.14 308.734 1044.88 306.901 1033.99 308.932C1028.77 314.923 1022.98 320.391 1016.71 325.259C1018.37 329.506 1019.61 333.909 1020.39 338.402C1023.03 351.681 1024.22 365.206 1023.94 378.741H1023.85ZM1009.61 330.353C1007.12 335.662 1005.27 341.25 1004.11 346.998C1001.79 358.549 1003.06 367.144 1008.02 372.556C1011.24 375.881 1015.52 377.973 1020.12 378.468C1020.4 365.275 1019.29 352.089 1016.8 339.13C1016.09 335.196 1015.04 331.33 1013.66 327.578C1012.48 328.533 1011.11 329.488 1009.61 330.353ZM1156.51 341.949C1164.56 341.596 1172.48 344.128 1178.84 349.089C1181.9 351.823 1184.36 355.172 1186.04 358.917C1187.73 362.663 1188.6 366.721 1188.61 370.828C1193.92 366.136 1198.64 360.822 1202.67 355.002C1210.76 343.268 1212.9 331.217 1208.4 322.667C1204.14 316.201 1197.9 311.288 1190.62 308.659C1174.54 301.644 1157.33 297.606 1139.82 296.744C1142.54 302.273 1144.54 308.126 1145.77 314.162C1147.64 323.637 1147.64 333.384 1145.77 342.859C1149.37 342.274 1153 341.97 1156.64 341.949H1156.51ZM1102.57 347.361C1103.45 349.723 1104.12 352.158 1104.57 354.638C1111.34 351.919 1118.27 349.595 1125.31 347.68H1126.17C1130.99 346.361 1136.41 344.86 1141.95 343.769C1145.47 327.854 1143.23 311.209 1135.63 296.79H1133.68C1129.13 299.33 1124.79 302.235 1120.72 305.476C1110.87 313.59 1101.74 322.536 1093.43 332.217C1096.43 335.883 1098.98 339.899 1101.02 344.178C1110.62 338.48 1118.03 329.74 1122.08 319.347C1122.25 318.891 1122.6 318.519 1123.04 318.308C1123.48 318.097 1123.98 318.061 1124.45 318.21C1124.67 318.287 1124.88 318.408 1125.06 318.566C1125.24 318.725 1125.39 318.917 1125.5 319.133C1125.6 319.348 1125.66 319.583 1125.68 319.822C1125.69 320.062 1125.66 320.302 1125.58 320.529C1121.22 331.755 1113.21 341.189 1102.84 347.316L1102.57 347.361ZM1075.28 352.136C1076.51 352.299 1077.74 352.39 1078.97 352.409C1085.76 351.932 1092.31 349.69 1097.98 345.906C1096.12 341.92 1093.79 338.178 1091.02 334.764L1089.88 336.083C1086.74 339.539 1083.65 343.041 1080.51 346.452L1079.42 347.68L1075.28 352.136ZM1069.19 315.754C1066.42 318.347 1064.15 321.431 1062.5 324.85C1060.75 328.298 1060.05 332.181 1060.47 336.025C1060.89 339.869 1062.42 343.508 1064.87 346.497C1066.64 348.363 1068.82 349.795 1071.24 350.681C1073.1 348.726 1074.92 346.725 1076.69 344.815L1077.78 343.587C1080.92 340.176 1084.02 336.719 1086.88 333.263L1088.43 331.535C1085.44 328.268 1082.22 325.228 1078.79 322.439C1075.81 320.042 1072.64 317.883 1069.33 315.981L1069.19 315.754ZM993.651 311.888C985.227 312.224 977.118 315.181 970.457 320.347C965.909 323.94 960.861 331.399 964.635 336.629C965.58 337.727 966.734 338.627 968.031 339.275C969.327 339.923 970.739 340.307 972.185 340.403C978.478 340.741 984.75 339.424 990.376 336.583C996.151 334.015 1001.7 330.972 1006.98 327.487C1008.09 325.256 1009.35 323.099 1010.75 321.029C1008.71 317.587 1005.64 314.868 1001.97 313.253C999.346 312.337 996.564 311.95 993.787 312.116L993.651 311.888ZM1072.1 313.207C1075.29 315.134 1078.33 317.292 1081.2 319.665C1084.66 322.453 1087.91 325.493 1090.93 328.761C1099.23 319.059 1108.36 310.096 1118.21 301.974C1120.85 299.882 1123.54 297.972 1126.22 296.244C1109.81 296.289 1093.67 300.348 1079.19 308.068C1076.73 309.666 1074.41 311.461 1072.24 313.435L1072.1 313.207ZM1169.24 283.237C1198.35 283.237 1226.77 299.2 1244.96 318.392C1247.93 321.535 1250.74 324.829 1253.38 328.261C1262.84 319.165 1269.66 308.387 1268.02 294.607C1265.93 277.325 1251.24 265.546 1223.13 258.543C1194.88 252.097 1165.66 250.986 1137 255.268C1126.85 256.593 1116.81 258.599 1106.94 261.271C1119.31 268.49 1129.64 278.742 1136.95 291.059C1139.82 289.687 1142.76 288.488 1145.77 287.467C1153.37 284.867 1161.35 283.515 1169.38 283.465L1169.24 283.237ZM1014.98 321.393C1018.92 318.331 1022.64 315.003 1026.12 311.434C1021.79 314.035 1018.04 317.503 1015.12 321.621L1014.98 321.393ZM993.741 308.25C996.996 308.206 1000.23 308.809 1003.25 310.024C1007.18 311.715 1010.55 314.511 1012.93 318.073C1016.24 314.021 1020.32 310.666 1024.94 308.205C1027.18 307.038 1029.55 306.123 1031.99 305.476C1035.49 301.328 1038.71 296.952 1041.63 292.378C1043.51 289.397 1045.04 286.207 1046.18 282.873L1036.58 286.603C1017.75 294.462 997.799 299.311 977.46 300.974C974.034 305.981 970.993 311.241 968.365 316.709L967.819 317.846L968.319 317.437C975.693 311.852 984.631 308.719 993.878 308.478L993.741 308.25ZM1042.27 304.112C1051.5 304.372 1060.54 306.819 1068.64 311.252C1071.49 308.912 1074.53 306.827 1077.74 305.021C1092.86 296.952 1109.72 292.72 1126.86 292.697C1128.9 292.697 1130.9 292.697 1132.95 292.697L1133.54 292.378C1125.92 279.848 1115.04 269.617 1102.07 262.772C1084.93 267.775 1068.42 274.278 1051.32 280.963L1050.63 281.236C1049.44 285.888 1047.52 290.323 1044.95 294.379C1042.72 297.836 1040.4 301.201 1037.81 304.43C1039.34 304.311 1040.87 304.281 1042.4 304.339L1042.27 304.112ZM997.789 273.323C985.419 278.462 973.231 284.147 961.406 290.286C959.269 291.423 956.404 293.652 957.268 295.334C958.132 297.017 959.815 296.744 961.225 296.926C965.94 297.379 970.68 297.516 975.414 297.335C981.818 288.434 989.39 280.434 997.925 273.55L997.789 273.323ZM1012.34 267.593C999.797 275.25 988.861 285.275 980.144 297.108C999.1 295.169 1017.67 290.465 1035.26 283.146L1047.22 278.598C1047.75 276.294 1047.65 273.89 1046.94 271.636C1046.23 269.381 1044.93 267.358 1043.18 265.774C1036.35 259.952 1024.98 263.045 1017.25 265.774L1012.34 267.593ZM1032.99 258.497C1037.56 258.316 1042.03 259.803 1045.59 262.681C1047.59 264.398 1049.14 266.582 1050.1 269.041C1051.06 271.5 1051.4 274.158 1051.09 276.779C1066.51 270.685 1081.51 264.864 1096.98 260.134L1094.7 259.225C1074.23 251.446 1051.66 251.205 1031.03 258.543L1032.99 258.497Z" fill="#263238"/>
<path d="M596.127 1097.02L632.282 1118.53L616.364 1087.24L596.127 1097.02Z" fill="#DC2626"/>
<g opacity="0.7">
<path d="M596.127 1097.02L632.282 1118.53L616.364 1087.24L596.127 1097.02Z" fill="white"/>
</g>
<path d="M617.155 994.604L465.371 1021.89C445.223 1025.51 431.827 1044.78 435.448 1064.92L440.573 1093.44C444.195 1113.58 463.463 1126.98 483.61 1123.36L635.394 1096.08C655.541 1092.46 668.938 1073.19 665.317 1053.04L660.192 1024.53C656.57 1004.38 637.302 990.983 617.155 994.604Z" fill="#DC2626"/>
<g opacity="0.7">
<path d="M617.155 994.604L465.371 1021.89C445.223 1025.51 431.827 1044.78 435.448 1064.92L440.573 1093.44C444.195 1113.58 463.463 1126.98 483.61 1123.36L635.394 1096.08C655.541 1092.46 668.938 1073.19 665.317 1053.04L660.192 1024.53C656.57 1004.38 637.302 990.983 617.155 994.604Z" fill="white"/>
</g>
<path d="M478.793 1069.24C478.622 1068.41 478.619 1067.55 478.784 1066.72C478.949 1065.89 479.279 1065.11 479.754 1064.41C480.229 1063.71 480.839 1063.11 481.549 1062.65C482.259 1062.19 483.054 1061.88 483.887 1061.73C484.727 1061.57 485.589 1061.59 486.424 1061.76C487.26 1061.94 488.051 1062.28 488.753 1062.77C489.456 1063.26 490.054 1063.88 490.515 1064.6C490.975 1065.32 491.289 1066.12 491.436 1066.96C491.755 1068.67 491.384 1070.43 490.403 1071.86C489.422 1073.3 487.913 1074.28 486.206 1074.6C485.366 1074.74 484.506 1074.72 483.677 1074.52C482.847 1074.33 482.064 1073.97 481.374 1073.47C480.684 1072.97 480.1 1072.34 479.657 1071.61C479.214 1070.89 478.92 1070.08 478.793 1069.24Z" fill="#263238"/>
<path d="M509.764 1063.69C509.593 1062.86 509.59 1062 509.755 1061.18C509.92 1060.35 510.249 1059.56 510.724 1058.86C511.199 1058.16 511.81 1057.56 512.52 1057.1C513.23 1056.64 514.025 1056.33 514.857 1056.18C515.697 1056.03 516.559 1056.04 517.395 1056.22C518.23 1056.39 519.022 1056.74 519.724 1057.22C520.426 1057.71 521.025 1058.33 521.485 1059.05C521.946 1059.77 522.259 1060.57 522.407 1061.41C522.702 1063.12 522.32 1064.87 521.343 1066.3C520.367 1067.72 518.872 1068.71 517.177 1069.05C516.338 1069.19 515.48 1069.16 514.652 1068.96C513.825 1068.77 513.044 1068.41 512.356 1067.91C511.667 1067.41 511.083 1066.78 510.639 1066.06C510.194 1065.33 509.897 1064.53 509.764 1063.69Z" fill="#263238"/>
<path d="M540.689 1058.09C540.517 1057.27 540.512 1056.41 540.674 1055.58C540.835 1054.75 541.161 1053.96 541.63 1053.26C542.1 1052.56 542.705 1051.96 543.411 1051.49C544.116 1051.02 544.907 1050.7 545.737 1050.54C547.016 1050.28 548.343 1050.41 549.55 1050.9C550.757 1051.4 551.788 1052.25 552.51 1053.33C553.232 1054.42 553.613 1055.7 553.604 1057C553.595 1058.31 553.196 1059.58 552.459 1060.66C551.721 1061.74 550.679 1062.57 549.465 1063.05C548.252 1063.53 546.922 1063.64 545.648 1063.35C544.373 1063.07 543.211 1062.42 542.312 1061.47C541.412 1060.53 540.815 1059.34 540.598 1058.05L540.689 1058.09Z" fill="#263238"/>
<path d="M571.66 1052.55C571.51 1051.72 571.526 1050.86 571.706 1050.04C571.885 1049.22 572.226 1048.43 572.707 1047.74C573.189 1047.05 573.802 1046.46 574.511 1046C575.221 1045.55 576.014 1045.24 576.844 1045.09C577.674 1044.94 578.526 1044.95 579.35 1045.13C580.174 1045.31 580.954 1045.65 581.647 1046.13C582.34 1046.62 582.931 1047.23 583.386 1047.94C583.842 1048.65 584.153 1049.44 584.302 1050.27C584.622 1051.98 584.25 1053.74 583.269 1055.17C582.288 1056.61 580.779 1057.59 579.072 1057.91C578.232 1058.05 577.372 1058.03 576.543 1057.83C575.713 1057.64 574.93 1057.28 574.24 1056.78C573.55 1056.28 572.966 1055.65 572.523 1054.92C572.08 1054.2 571.787 1053.39 571.66 1052.55Z" fill="#263238"/>
<path d="M602.63 1047C602.459 1046.17 602.456 1045.31 602.621 1044.48C602.786 1043.66 603.116 1042.87 603.591 1042.17C604.066 1041.47 604.676 1040.87 605.386 1040.41C606.096 1039.95 606.891 1039.64 607.724 1039.49C608.563 1039.34 609.426 1039.35 610.261 1039.52C611.096 1039.7 611.888 1040.05 612.59 1040.53C613.292 1041.02 613.891 1041.64 614.351 1042.36C614.812 1043.08 615.125 1043.88 615.273 1044.72C615.568 1046.43 615.186 1048.18 614.209 1049.6C613.233 1051.03 611.738 1052.02 610.043 1052.36C609.204 1052.5 608.346 1052.47 607.518 1052.27C606.691 1052.08 605.911 1051.72 605.222 1051.22C604.533 1050.72 603.95 1050.09 603.505 1049.37C603.06 1048.64 602.763 1047.84 602.63 1047Z" fill="#263238"/>
<path d="M1018.71 625.415C1018.71 625.415 975.641 616.319 937.758 637.33C899.875 658.341 902.785 761.621 874.634 771.126C846.483 780.631 838.707 792.319 844.528 809.282C850.349 826.246 822.107 829.202 819.242 837.934C817.213 844.618 815.603 851.423 814.421 858.308C814.421 858.308 839.935 848.894 854.215 871.951C868.495 895.009 896.873 928.299 926.98 927.298C957.086 926.298 986.42 942.852 1011.07 953.039C1035.72 963.226 1069.78 925.752 1092.11 911.563C1114.44 897.374 1114.21 916.111 1137.59 911.563C1160.96 907.015 1165.83 889.415 1165.83 889.415C1165.83 889.415 1142.5 873.452 1158.05 843.573C1173.61 813.694 1123.95 784.133 1137.59 745.431C1151.23 706.729 1105.44 634.328 1018.71 625.415Z" fill="#263238"/>
<path d="M1184.2 876.181H1183.84C1176.84 874.8 1170.55 870.981 1166.1 865.402C1164.87 863.448 1164.05 861.259 1163.71 858.973C1163.36 856.687 1163.5 854.354 1164.1 852.123C1164.6 850.076 1165.1 848.075 1165.65 846.12C1169.47 831.567 1172.47 820.106 1153.96 802.233C1136.82 785.77 1136.72 774.31 1136.54 755.345C1136.54 749.524 1136.54 742.93 1135.86 735.198C1135.82 734.716 1135.98 734.239 1136.3 733.872C1136.61 733.506 1137.06 733.279 1137.54 733.243C1138.03 733.207 1138.5 733.364 1138.87 733.679C1139.24 733.995 1139.46 734.443 1139.5 734.926C1140.14 742.748 1140.18 749.433 1140.23 755.3C1140.23 773.946 1140.5 784.178 1156.51 799.595C1176.61 818.924 1173.15 831.976 1169.2 847.075L1167.7 852.941C1167.21 854.694 1167.1 856.528 1167.36 858.327C1167.61 860.127 1168.24 861.854 1169.2 863.401C1173.15 868.072 1178.57 871.275 1184.57 872.497C1184.8 872.54 1185.03 872.631 1185.23 872.762C1185.43 872.893 1185.61 873.063 1185.74 873.262C1185.88 873.461 1185.97 873.684 1186.02 873.92C1186.07 874.155 1186.07 874.398 1186.02 874.634C1185.95 875.064 1185.73 875.454 1185.39 875.737C1185.06 876.019 1184.64 876.176 1184.2 876.181Z" fill="#263238"/>
<path d="M807.099 836.115C806.642 836.143 806.191 835.997 805.836 835.707C805.482 835.417 805.25 835.004 805.186 834.55C805.123 834.096 805.234 833.635 805.495 833.259C805.757 832.883 806.152 832.62 806.599 832.522C806.599 832.522 822.88 827.974 827.928 818.878C828.717 817.514 829.206 815.997 829.363 814.429C829.52 812.86 829.341 811.277 828.838 809.783C823.108 790.546 836.433 775.401 868.404 764.714C891.37 757.074 893.781 736.7 896.555 713.096C897.429 703.923 898.857 694.811 900.83 685.81C909.925 647.108 932.983 629.371 969.047 633.055C969.286 633.078 969.519 633.148 969.731 633.261C969.943 633.374 970.131 633.528 970.283 633.714C970.435 633.9 970.549 634.115 970.618 634.345C970.687 634.575 970.709 634.817 970.684 635.056C970.667 635.299 970.601 635.537 970.491 635.754C970.38 635.972 970.227 636.164 970.04 636.321C969.853 636.478 969.637 636.596 969.404 636.668C969.171 636.74 968.926 636.764 968.683 636.739C934.347 633.191 913.336 649.518 904.513 686.765C902.59 695.605 901.178 704.548 900.284 713.551C897.51 737.336 894.872 759.802 869.677 768.125C839.935 778.085 827.428 791.683 832.476 808.6C833.092 810.543 833.301 812.591 833.089 814.618C832.878 816.644 832.251 818.606 831.248 820.379C825.427 830.885 808.509 835.705 807.691 835.933L807.099 836.115Z" fill="#263238"/>
<path d="M1533.79 1196.07C1519.57 1173.14 1504.18 1150.95 1487.68 1129.58C1471.17 1108.38 1447.94 1093.43 1421.8 1087.2C1395.66 1080.96 1368.18 1083.82 1343.88 1095.29C1334.78 1099.57 1325.82 1103.98 1317 1108.53C1113.99 1211.26 945.626 1361.61 945.626 1361.61L952.084 1374.07C814.149 1424.51 687.401 1573 767.716 1623.2C860.946 1681.46 964.363 1650.72 1067.05 1595.6L1067.55 1595.33L1068.83 1594.64C1085.47 1585.82 1216.99 1511.87 1392.9 1310C1466.53 1400.59 1572.36 1475.35 1647.99 1577.73C1659.36 1581.05 1723.44 1583.09 1721.35 1572.4C1721.44 1572.31 1634.26 1356.02 1533.79 1196.07Z" fill="#263238"/>
<path opacity="0.2" d="M1721.44 1572.31C1723.53 1583 1659.45 1580.91 1648.08 1577.63C1585.82 1493.27 1503.01 1427.56 1434.61 1356.61C1419.96 1341.38 1405.95 1325.91 1392.99 1309.91C1217.08 1511.78 1085.56 1585.73 1068.92 1594.55L1067.64 1595.23L1067.14 1595.51C982.963 1640.67 898.283 1669.46 819.197 1646.26C801.068 1640.93 783.761 1633.12 767.761 1623.07C687.447 1573.04 814.149 1424.37 952.175 1373.94L945.717 1361.48C945.717 1361.48 968.047 1341.6 1006.16 1311.45C1072.28 1258.88 1186.16 1175.02 1314.09 1110.07L1317.09 1108.53C1326.19 1103.98 1334.92 1099.43 1343.97 1095.25C1368.27 1083.79 1395.74 1080.95 1421.87 1087.19C1448 1093.43 1471.23 1108.38 1487.72 1129.58C1504.23 1150.93 1519.61 1173.12 1533.79 1196.07C1634.26 1356.02 1721.44 1572.31 1721.44 1572.31Z" fill="white"/>
<path opacity="0.2" d="M1434.61 1356.61C1419.96 1341.38 1405.95 1325.91 1392.99 1309.91C1217.08 1511.78 1085.56 1585.73 1068.92 1594.55L1067.64 1595.23L1067.14 1595.51C982.963 1640.67 898.283 1669.45 819.197 1646.26C827.929 1570.4 909.607 1433.79 1006.07 1311.22C1072.19 1258.65 1186.07 1174.79 1314 1109.85C1340.33 1148.87 1379.76 1221.54 1434.61 1356.61Z" fill="black"/>
<path d="M1177.2 700.362L1148.55 637.33L1098.16 670.847C1098.16 670.847 1111.8 717.735 1152.14 721.1L1177.2 700.362Z" fill="#EBB376"/>
<path d="M1109.48 607.269L1077.92 641.241L1098.16 670.847L1148.55 637.33L1109.48 607.269Z" fill="#EBB376"/>
<path d="M1090.7 956.495C1149.82 925.661 1208.94 890.87 1256.29 843.8L1251.74 850.213C1251.04 851.526 1250.59 852.962 1250.42 854.442C1249.1 840.799 1226.23 809.464 1211.72 791.955C1188.52 763.395 1162.1 735.608 1136.59 708.867C1133.21 705.261 1131.25 700.552 1131.08 695.613C1130.91 690.674 1132.53 685.84 1135.65 682.008C1138.78 678.176 1143.18 675.606 1148.05 674.775C1152.92 673.944 1157.93 674.907 1162.15 677.487C1179.25 688.083 1194.98 699.362 1210.76 711.323C1255.74 746.75 1358.02 828.565 1311.68 892.826C1262.88 951.038 1199.71 994.242 1132.22 1027.53L1125.13 1030.81C1115.27 1035.37 1104.01 1035.84 1093.81 1032.1C1083.62 1028.36 1075.32 1020.72 1070.76 1010.86C1066.19 1001.01 1065.73 989.745 1069.47 979.549C1073.21 969.353 1080.85 961.06 1090.7 956.495Z" fill="#E9B376"/>
<path d="M1175.61 1028.76C1154.24 1040.75 1132.22 1051.56 1109.67 1061.14C1087.79 1070.24 1065.55 1077.38 1051.86 1075.83L1048.86 1065.37L1010.98 934.484C1010.98 934.484 1077.29 943.579 1170.65 902.649C1170.74 902.831 1197.48 962.68 1175.61 1028.76Z" fill="#DC2626"/>
<path opacity="0.2" d="M1109.67 1061.14C1087.79 1070.24 1065.55 1077.38 1051.86 1075.83L1048.86 1065.37C1053.41 1044.13 1065.28 1019.35 1088.38 993.696C1102.19 1013.48 1109.62 1037.01 1109.67 1061.14Z" fill="black"/>
<path d="M756.937 995.197C749.16 1020.62 740.656 1039.27 727.513 1101.43C715.416 1153.78 705.047 1205.76 689.357 1292.71L950.173 1363.84C964.954 1288.94 996.334 1207.58 1088.24 1055.05C1109.57 1019.66 1142.82 953.403 1105.21 938.941C1095.16 935.075 1036.99 954.085 1025.94 950.447C982.781 936.439 947.308 925.252 907.697 918.157C894.508 915.838 880.728 913.609 867.494 912.109C819.515 905.924 770.899 949.628 756.937 995.197Z" fill="#DC2626"/>
<path d="M881.411 898.238C881.411 898.238 898.374 893.28 935.757 894.736C990.331 896.828 1029.94 957.359 1029.94 957.359C1029.94 957.359 1035.76 1010.3 1015.39 1045L979.962 1010.3L931.391 1041.86C931.391 1041.86 872.679 942.442 881.411 898.238Z" fill="#DC2626"/>
<path opacity="0.7" d="M881.411 898.238C881.411 898.238 898.374 893.28 935.757 894.736C990.331 896.828 1029.94 957.359 1029.94 957.359C1029.94 957.359 1035.76 1010.3 1015.39 1045L979.962 1010.3L931.391 1041.86C931.391 1041.86 872.679 942.442 881.411 898.238Z" fill="white"/>
<path d="M958.542 800.869C953.721 837.252 939.032 901.285 905.969 911.972C905.969 911.972 924.433 959.315 979.962 1001.56C1007.25 980.962 1004.66 945.717 1004.66 945.717C1004.66 945.717 984.328 921.432 1007.79 886.141L958.542 800.869Z" fill="#EBB376"/>
<path opacity="0.1" d="M958.542 800.869C953.721 837.252 939.032 901.285 905.969 911.972C905.969 911.972 924.433 959.315 979.962 1001.56C1007.25 980.962 1004.66 945.717 1004.66 945.717C1004.66 945.717 984.328 921.432 1007.79 886.141L958.542 800.869Z" fill="black"/>
<path d="M960.679 714.779C945.171 777.766 937.304 804.053 957.769 846.938C988.557 911.517 1066.92 920.477 1100.52 864.266C1130.68 813.694 1150.96 719.145 1099.84 672.803C1049.5 627.097 976.187 651.747 960.679 714.779Z" fill="#EBB376"/>
<path d="M1103.62 782.223L1116.62 782.996C1116.62 782.996 1107.66 790.591 1103.62 782.223Z" fill="#263238"/>
<path d="M1071.74 783.951C1071.74 783.951 1073.6 809.555 1079.7 823.881C1071.24 827.883 1060.96 820.834 1060.96 820.834L1071.74 783.951Z" fill="#D58745"/>
<path d="M1028.58 813.739C1026.11 811.994 1023.49 810.472 1020.76 809.191C1020.57 809.104 1020.37 809.057 1020.16 809.054C1019.95 809.051 1019.75 809.091 1019.56 809.173C1019.37 809.255 1019.2 809.376 1019.06 809.528C1018.92 809.68 1018.82 809.86 1018.75 810.056C1018.61 810.461 1018.63 810.905 1018.8 811.3C1018.96 811.695 1019.27 812.013 1019.66 812.193C1025.87 814.913 1031.39 819.001 1035.8 824.151C1040.21 829.301 1043.4 835.38 1045.13 841.936C1045.2 842.352 1045.43 842.724 1045.77 842.971C1046.11 843.218 1046.54 843.32 1046.95 843.255C1047.15 843.212 1047.34 843.129 1047.51 843.012C1047.68 842.894 1047.82 842.744 1047.93 842.571C1048.04 842.397 1048.12 842.203 1048.15 842C1048.19 841.798 1048.18 841.59 1048.13 841.39C1045.23 830.084 1038.27 820.242 1028.58 813.739Z" fill="#263238"/>
<path d="M1063.87 735.017C1063.45 734.982 1063.03 735.041 1062.63 735.191C1062.24 735.34 1061.89 735.576 1061.59 735.881C1058.92 738.664 1055.6 740.74 1051.92 741.923C1048.25 743.105 1044.34 743.358 1040.54 742.657C1040.15 742.549 1039.74 742.525 1039.33 742.586C1038.93 742.647 1038.55 742.791 1038.21 743.01C1037.86 743.228 1037.57 743.516 1037.34 743.855C1037.12 744.193 1036.97 744.576 1036.9 744.976C1036.76 745.823 1036.95 746.691 1037.42 747.407C1037.89 748.124 1038.61 748.636 1039.45 748.842C1044.23 749.834 1049.19 749.596 1053.86 748.148C1058.53 746.7 1062.76 744.091 1066.14 740.565C1066.73 739.954 1067.06 739.139 1067.06 738.291C1067.06 737.443 1066.73 736.627 1066.14 736.017C1065.54 735.41 1064.73 735.052 1063.87 735.017Z" fill="#263238"/>
<path d="M1107.53 745.84C1107.17 745.683 1106.78 745.601 1106.39 745.601C1106 745.601 1105.61 745.683 1105.25 745.84C1104.47 746.146 1103.84 746.747 1103.5 747.513C1103.16 748.279 1103.14 749.149 1103.43 749.933C1104.96 754.824 1107.59 759.296 1111.12 763.004C1114.66 766.711 1119 769.553 1123.81 771.308C1124.2 771.431 1124.61 771.469 1125.01 771.421C1125.42 771.373 1125.81 771.239 1126.16 771.028C1126.5 770.817 1126.8 770.534 1127.03 770.198C1127.26 769.862 1127.42 769.481 1127.49 769.08C1127.67 768.244 1127.53 767.373 1127.1 766.634C1126.67 765.895 1125.99 765.34 1125.17 765.078C1121.38 763.635 1117.98 761.344 1115.21 758.38C1112.44 755.416 1110.39 751.858 1109.21 747.978C1109.09 747.526 1108.88 747.104 1108.59 746.737C1108.3 746.369 1107.94 746.064 1107.53 745.84Z" fill="#263238"/>
<path d="M1103.62 782.223C1103.62 782.223 1099.07 791.319 1088.47 782.587C1088.47 782.587 1094.98 798.277 1107.89 785.998L1103.62 782.223Z" fill="#263238"/>
<path d="M1039.81 766.533L1052.82 767.306C1052.82 767.306 1043.81 774.856 1039.81 766.533Z" fill="#263238"/>
<path d="M1039.81 766.533C1039.81 766.533 1034.99 775.629 1024.67 766.852C1024.67 766.852 1031.12 782.587 1044.09 770.262L1039.81 766.533Z" fill="#263238"/>
<path d="M960.452 660.023C960.452 660.023 1003.38 587.259 1094.66 630.008C1185.93 672.757 1140.14 767.215 1140.14 767.215L1121.63 754.936L1122.17 718.827C1115.62 730.477 1104.92 739.23 1092.2 743.339C1092.2 743.339 1111.58 729.287 1118.22 713.597C1118.22 713.597 1100.62 733.834 1078.65 734.38L1032.03 723.374C1032.03 723.374 1055.18 715.598 1066.64 703.091C1066.64 703.091 1026.03 724.239 993.241 727.922L959.588 768.216L926.889 739.201C926.889 739.201 925.934 666.027 960.452 660.023Z" fill="#263238"/>
<path d="M925.024 758.165C926.27 764.875 928.827 771.273 932.55 776.994C936.272 782.714 941.087 787.643 946.717 791.5C961.497 801.142 974.004 787.544 974.004 769.444C974.004 753.117 966.454 728.513 949.628 726.239C932.801 723.965 921.704 740.974 925.024 758.165Z" fill="#EBB376"/>
<path opacity="0.1" d="M1019.94 899.42C995.197 893.826 971.685 875.999 957.769 846.938C948.797 829.597 944.605 810.179 945.626 790.682C945.543 790.664 945.467 790.625 945.403 790.569C945.339 790.514 945.291 790.443 945.262 790.363C947.536 768.215 949.446 744.567 949.81 726.239C952.457 726.602 954.981 727.584 957.177 729.104C958.314 724.557 959.497 719.736 960.77 714.733C963.185 704.632 967.373 695.038 973.14 686.4C979.978 687.93 986.605 690.282 992.878 693.404C992.878 693.404 1033.4 804.507 1019.94 899.42Z" fill="black"/>
<path opacity="0.2" d="M930.891 979.962C930.891 979.962 861.719 1088.24 769.216 1045C769.216 1045 820.925 943.534 930.891 979.962Z" fill="black"/>
<path d="M830.794 912.063C868.95 909.744 912.654 910.153 948.036 897.692C945.698 899.517 943.71 901.751 942.17 904.286C941.825 904.842 941.55 905.437 941.351 906.06C944.101 897.92 945.843 889.474 946.535 880.91C952.266 828.292 952.129 749.024 953.766 695.36C953.89 690.378 955.831 685.614 959.224 681.964C962.617 678.315 967.227 676.032 972.187 675.545C977.146 675.059 982.112 676.403 986.149 679.324C990.186 682.244 993.016 686.541 994.105 691.403C1004.11 738.833 1010.98 786.871 1014.66 835.205C1016.12 867.722 1022.67 926.57 997.926 951.993C959.588 987.875 880.365 994.378 830.475 993.969C776.948 990.922 777.311 914.655 830.794 912.108V912.063Z" fill="#E9B376"/>
<path d="M740.247 1048.36C740.247 1048.36 746.386 943.352 792.046 911.517C837.706 879.683 898.874 901.239 898.874 901.239C898.874 901.239 910.107 961.952 893.781 1008.2C893.781 1008.2 803.007 1056.82 740.247 1048.36Z" fill="#DC2626"/>
<path d="M952.72 692.04L971.503 625.415L1026.39 650.928C1026.39 650.928 1019.8 699.362 980.598 708.776L952.72 692.04Z" fill="#EBB376"/>
<path d="M1005.57 589.805L1041.9 618.593L1026.4 650.928L971.503 625.415L1005.57 589.805Z" fill="#EBB376"/>
<path d="M1324 1136.95C1322.5 1132.4 1320.96 1127.86 1319.46 1123.63C1313.41 1106.64 1303.42 1091.32 1290.32 1078.93C1277.22 1066.55 1261.37 1057.43 1244.07 1052.35C1226.77 1047.26 1208.51 1046.34 1190.78 1049.66C1173.06 1052.98 1156.37 1060.45 1142.09 1071.46C1136.13 1076.01 1130.27 1080.56 1124.4 1085.33C1011.16 1175.79 917.338 1278.53 868.04 1336.19L689.266 1292.9C689.266 1292.9 560.836 1527.11 713.824 1630.93C752.298 1657.04 780.313 1654.67 816.332 1654.67C903.877 1654.67 992.423 1589.82 992.423 1589.82C992.423 1589.82 1087.93 1517.38 1210.72 1331.14C1254.79 1417.55 1307.59 1512.06 1340.65 1599.46C1350.74 1605.69 1407.59 1608.56 1408.55 1598.05C1408.55 1597.87 1384.76 1319.5 1324 1136.95Z" fill="#263238"/>
<path opacity="0.2" d="M1324 1136.95C1322.5 1132.4 1320.96 1127.86 1319.46 1123.63C1313.41 1106.64 1303.42 1091.32 1290.32 1078.93C1277.22 1066.55 1261.37 1057.43 1244.07 1052.35C1226.77 1047.26 1208.51 1046.34 1190.78 1049.66C1173.06 1052.98 1156.37 1060.45 1142.09 1071.46C1136.13 1076.01 1130.27 1080.56 1124.4 1085.33C1011.16 1175.79 917.338 1278.53 868.04 1336.19L689.266 1292.9C689.266 1292.9 560.836 1527.11 713.824 1630.93C752.298 1657.04 780.313 1654.67 816.332 1654.67C903.877 1654.67 992.423 1589.82 992.423 1589.82C992.423 1589.82 1087.93 1517.38 1210.72 1331.14C1254.79 1417.55 1307.59 1512.06 1340.65 1599.46C1350.74 1605.69 1407.59 1608.56 1408.55 1598.05C1408.55 1597.87 1384.76 1319.5 1324 1136.95Z" fill="white"/>
<path d="M1466.08 1653.58C1416.05 1653.58 1409.37 1652.81 1381.26 1651.9C1357.16 1651.04 1351.38 1654.04 1332.01 1653.58C1315.86 1653.26 1316.45 1637.76 1321.46 1619.97C1323.96 1610.88 1327.78 1592.1 1331.23 1577.63L1404.59 1572.31C1414.91 1592.01 1438.2 1620.11 1466.44 1623.93C1493.36 1627.52 1486.04 1653.58 1466.08 1653.58Z" fill="#263238"/>
<path d="M1782.74 1653.58C1732.71 1653.58 1726.08 1652.81 1697.92 1651.9C1673.82 1651.04 1668.09 1654.04 1648.72 1653.58C1632.53 1653.26 1633.12 1637.76 1638.12 1619.97C1640.62 1610.88 1644.49 1592.1 1647.9 1577.63L1721.25 1572.31C1731.58 1592.01 1754.91 1620.11 1783.1 1623.93C1810.03 1627.52 1802.89 1653.58 1782.74 1653.58Z" fill="#263238"/>
<path opacity="0.2" d="M868.131 1336.01C868.131 1336.01 821.152 1391.63 802.734 1421.55C802.734 1421.55 801.46 1345.65 868.131 1336.01Z" fill="black"/>
</svg>
