<svg width="200" height="247" viewBox="0 0 200 247" fill="none" xmlns="http://www.w3.org/2000/svg">
<path d="M186.744 33.4392C183.23 33.4431 179.862 34.84 177.377 37.3236C174.892 39.8072 173.493 43.1748 173.487 46.6881V110.064C173.487 110.843 173.178 111.589 172.628 112.139C172.078 112.69 171.331 112.999 170.553 112.999C169.775 112.999 169.028 112.69 168.478 112.139C167.928 111.589 167.618 110.843 167.618 110.064V15.5392C167.615 11.4196 165.976 7.46973 163.063 4.55667C160.15 1.64362 156.2 0.00536228 152.081 0.00147762C149.997 -0.0273782 147.93 0.366672 146.003 1.1598C144.076 1.95294 142.33 3.12865 140.871 4.61584C138.052 7.58127 136.499 11.5286 136.543 15.6199V110.064C136.543 110.843 136.234 111.589 135.683 112.139C135.133 112.69 134.387 112.999 133.609 112.999C132.83 112.999 132.084 112.69 131.534 112.139C130.983 111.589 130.674 110.843 130.674 110.064V16.7717C130.668 12.3257 128.9 8.06355 125.756 4.91978C122.612 1.77601 118.35 0.00730075 113.904 0.00147762C103.406 0.00147762 97.1336 9.06884 97.1336 17.8281V110.064C97.1336 110.843 96.8244 111.589 96.2741 112.139C95.7238 112.69 94.9774 112.999 94.1992 112.999C93.4209 112.999 92.6745 112.69 92.1242 112.139C91.5739 111.589 91.2648 110.843 91.2648 110.064V34.503C91.2609 30.3833 89.6226 26.4334 86.7096 23.5204C83.7965 20.6073 79.8467 18.9691 75.727 18.9652C65.9994 18.9652 60.1892 27.365 60.1892 35.4933V150.149H94.6687C101.471 150.147 108.193 151.612 114.377 154.444C120.562 157.276 126.063 161.409 130.505 166.559C131.014 167.148 131.268 167.915 131.211 168.69C131.155 169.466 130.793 170.188 130.205 170.697C129.616 171.205 128.849 171.459 128.074 171.403C127.298 171.347 126.576 170.984 126.067 170.396C122.174 165.883 117.355 162.263 111.936 159.782C106.518 157.3 100.628 156.016 94.6687 156.017H57.2548C57.1246 156.013 56.9947 156.001 56.866 155.981H56.7119C56.4715 155.929 56.2377 155.85 56.015 155.746L55.8609 155.665C55.6683 155.558 55.4865 155.433 55.3181 155.291L55.2447 155.232L40.6973 141.565C35.468 136.612 28.5114 133.896 21.3093 133.996C14.1072 134.096 7.22869 137.004 2.13898 142.101C0.809346 143.413 0.0428204 145.192 0.00174023 147.06C-0.03934 148.927 0.648261 150.738 1.9189 152.107L57.02 211.889C79.1236 236.391 101.587 246.368 134.555 246.368C170.641 246.368 200 216.709 200 180.241V47.3411C200.029 40.5992 195.356 33.4392 186.744 33.4392Z" fill="#00DFBA"/>
</svg>
