<svg width="200" height="217" viewBox="0 0 200 217" fill="none" xmlns="http://www.w3.org/2000/svg">
<path d="M151.697 67.2552V22.3737C151.697 16.4466 149.343 10.7622 145.152 6.57108C140.961 2.37996 135.276 0.0253906 129.349 0.0253906C123.422 0.0253906 117.738 2.37996 113.546 6.57108C109.355 10.7622 107.001 16.4466 107.001 22.3737V66.0197H146.419C148.25 66.023 150.055 66.4456 151.697 67.2552Z" fill="#FE2BF1"/>
<path d="M48.3017 66.0202V20.6764C48.3017 15.7234 46.3342 10.9732 42.8318 7.47088C39.3295 3.96856 34.5794 2.00098 29.6263 2.00098C24.6733 2.00098 19.9231 3.96856 16.4208 7.47088C12.9185 10.9732 10.9509 15.7234 10.9509 20.6764V76.5513C19.3725 69.7303 29.8832 66.0121 40.7206 66.0202H48.3017Z" fill="#FE2BF1"/>
<path d="M179.207 112.691C174.382 112.686 169.644 111.413 165.467 108.998C161.291 106.583 157.823 103.111 155.413 98.9324C152.307 106.647 146.968 113.258 140.079 117.917C133.19 122.576 125.067 125.07 116.751 125.08H88.8132C95.535 129.177 101.091 134.934 104.947 141.797C108.803 148.66 110.83 156.399 110.834 164.271V176.878C110.834 177.77 110.48 178.625 109.849 179.256C109.219 179.886 108.363 180.24 107.472 180.24C106.58 180.24 105.725 179.886 105.095 179.256C104.464 178.625 104.11 177.77 104.11 176.878V164.271C104.097 153.881 99.9632 143.92 92.6163 136.573C85.2694 129.226 75.3086 125.093 64.9185 125.08H64.3217C63.4301 125.08 62.575 124.726 61.9445 124.095C61.314 123.465 60.9598 122.609 60.9598 121.718C60.9598 120.826 61.314 119.971 61.9445 119.341C62.575 118.71 63.4301 118.356 64.3217 118.356H116.759C126.021 118.347 134.902 114.664 141.452 108.116C148.002 101.567 151.687 92.6878 151.698 83.4257V78.0213C151.698 76.6215 151.142 75.279 150.152 74.2891C149.162 73.2992 147.819 72.7432 146.42 72.7432H40.7211C34.8108 72.7435 28.9716 74.0316 23.6098 76.518C18.248 79.0044 13.4924 82.6294 9.67389 87.1405C9.11077 87.8045 8.55605 88.4769 8.04336 89.1745C7.82484 89.4603 7.62313 89.7544 7.42142 90.015C6.90873 90.7378 6.41284 91.469 5.95058 92.2254C5.7993 92.4692 5.65641 92.7213 5.51353 92.9735C5.04286 93.8139 4.59741 94.604 4.17717 95.4361L3.97545 95.8479C3.50479 96.8228 3.08454 97.8146 2.69793 98.8232C2.6475 98.9576 2.58866 99.0837 2.53823 99.2182C2.16002 100.235 1.82383 101.277 1.52126 102.328C1.52126 102.462 1.44561 102.597 1.412 102.731C1.11783 103.79 0.874086 104.858 0.672372 105.934L0.596732 106.354C0.403422 107.438 0.252137 108.539 0.15128 109.64C0.15128 109.766 0.15128 109.892 0.15128 110.027C0.0588273 111.17 0 112.313 0 113.464C0 116.238 0.134475 118.969 0.352999 121.684C4.55539 174.508 48.8569 216.204 102.74 216.204H114.96C137.503 216.171 159.112 207.202 175.053 191.263C190.993 175.324 199.964 153.715 200 131.173V103.152C197.424 106.144 194.233 108.545 190.645 110.192C187.056 111.838 183.155 112.69 179.207 112.691Z" fill="#FE2BF1"/>
<path d="M100.277 22.6257C100.277 16.625 97.8934 10.87 93.6503 6.62692C89.4072 2.38378 83.6522 0 77.6515 0C71.6508 0 65.8959 2.38378 61.6528 6.62692C57.4096 10.87 55.0259 16.625 55.0259 22.6257V65.9943H100.277V22.6257Z" fill="#FE2BF1"/>
<path d="M179.206 32.7878C173.694 32.7945 168.41 34.9877 164.513 38.886C160.616 42.7843 158.425 48.0693 158.421 53.5812V85.1832C158.53 90.6245 160.769 95.806 164.655 99.6154C168.542 103.425 173.768 105.559 179.21 105.559C184.652 105.559 189.878 103.425 193.765 99.6154C197.652 95.806 199.89 90.6245 199.999 85.1832V53.5812C199.993 48.0685 197.8 42.7835 193.902 38.8855C190.004 34.9874 184.719 32.7945 179.206 32.7878Z" fill="#FE2BF1"/>
</svg>
