<svg width="200" height="322" viewBox="0 0 200 322" fill="none" xmlns="http://www.w3.org/2000/svg">
<path d="M65.6772 177.221H100.687V138.851C100.688 135.004 101.476 131.199 103.002 127.668C104.529 124.137 106.761 120.955 109.561 118.318L122.961 22.979C123.581 17.818 122.153 12.6196 118.983 8.49993C115.812 4.38029 111.153 1.66782 106.006 0.944881C100.858 0.221941 95.6322 1.54615 91.45 4.63324C87.2678 7.72032 84.4628 12.3242 83.637 17.4563L65.0646 144.82C64.9457 145.655 64.5296 146.418 63.8929 146.971C63.2562 147.523 62.4416 147.827 61.5986 147.827C60.7557 147.827 59.9411 147.523 59.3044 146.971C58.6676 146.418 58.2517 145.655 58.1327 144.82L39.5165 17.0975C39.1545 14.5154 38.2874 12.0299 36.9648 9.78298C35.6422 7.53601 33.8899 5.57154 31.8081 4.00176C29.7263 2.43197 27.3558 1.2876 24.8317 0.633976C22.3076 -0.0196445 19.6795 -0.169699 17.0974 0.192353C14.5154 0.554406 12.0299 1.42149 9.78296 2.74409C7.536 4.0667 5.57153 5.81892 4.00175 7.90072C2.43196 9.98253 1.28756 12.3531 0.633938 14.8772C-0.0196823 17.4013 -0.169684 20.0294 0.192369 22.6114C5.32999 60.9466 9.21596 88.2977 12.0605 108.27C19.2549 158.85 20.4714 167.463 20.6815 203.26C25.2366 195.352 31.7927 188.783 39.6911 184.212C47.5895 179.642 56.5518 177.231 65.6772 177.221Z" fill="#0C7CEB"/>
<path d="M178.662 219.942C173.977 219.94 169.367 218.777 165.243 216.556C161.119 214.335 157.61 211.126 155.03 207.216C152.239 214.69 147.233 221.133 140.681 225.684C134.13 230.235 126.344 232.678 118.367 232.685H104.363C110.763 236.74 116.035 242.345 119.691 248.981C123.346 255.617 125.266 263.068 125.272 270.644V282.898C125.272 283.826 124.904 284.717 124.247 285.373C123.59 286.03 122.7 286.399 121.771 286.399C120.843 286.399 119.952 286.03 119.296 285.373C118.639 284.717 118.27 283.826 118.27 282.898V270.644C118.247 260.584 114.236 250.943 107.115 243.835C99.9945 236.728 90.3461 232.734 80.2854 232.729C79.3569 232.729 78.4664 232.36 77.8099 231.704C77.1533 231.047 76.7844 230.157 76.7844 229.228C76.7844 228.3 77.1533 227.409 77.8099 226.753C78.4664 226.096 79.3569 225.727 80.2854 225.727H118.376C125.988 225.731 133.353 223.018 139.145 218.078C142.007 215.639 144.423 212.722 146.287 209.457C148.917 204.842 150.353 199.643 150.462 194.333C150.462 194.096 150.462 193.86 150.462 193.615C150.453 193.127 150.403 192.642 150.313 192.162C150.313 192.048 150.313 191.935 150.313 191.821C149.894 189.695 148.75 187.781 147.078 186.403C145.405 185.026 143.307 184.271 141.14 184.268H65.6778C53.7599 184.286 42.3357 189.029 33.9093 197.457C25.483 205.885 20.742 217.31 20.7258 229.228C20.7258 256.002 30.7998 280.193 49.0834 297.339C58.0716 305.701 68.6729 312.138 80.2374 316.258C91.8019 320.377 104.086 322.091 116.336 321.294C163.24 318.257 199.991 277.532 199.991 228.659V210.279C197.333 213.321 194.053 215.757 190.374 217.424C186.695 219.091 182.701 219.949 178.662 219.942Z" fill="#0C7CEB"/>
<path d="M178.662 139.954C173.005 139.961 167.581 142.212 163.581 146.212C159.581 150.212 157.33 155.636 157.323 161.293V191.331C157.435 192.075 157.494 192.827 157.499 193.58C157.499 193.755 157.499 193.939 157.499 194.114C158.122 199.526 160.793 204.494 164.964 207.999C169.135 211.503 174.49 213.278 179.928 212.959C185.367 212.64 190.477 210.251 194.21 206.282C197.942 202.314 200.014 197.067 200 191.619V161.284C199.993 155.628 197.742 150.205 193.742 146.206C189.741 142.207 184.318 139.959 178.662 139.954Z" fill="#0C7CEB"/>
<path d="M122.095 118.686C121.78 118.791 121.488 118.905 121.219 119.027C120.913 119.15 120.607 119.273 120.344 119.413C120.082 119.553 119.714 119.701 119.408 119.859L118.603 120.288C118.27 120.472 117.946 120.673 117.631 120.883C117.316 121.093 117.176 121.163 116.948 121.321C116.721 121.478 116.274 121.811 115.951 122.073C115.758 122.222 115.566 122.362 115.382 122.52C112.989 124.516 111.064 127.014 109.743 129.836C108.421 132.658 107.735 135.735 107.732 138.851V177.222H141.227C144.5 177.216 147.698 178.201 150.4 180.049V138.851C150.393 133.574 148.433 128.486 144.897 124.568C141.361 120.65 136.499 118.181 131.25 117.636C130.526 117.558 129.798 117.52 129.07 117.522C128.392 117.522 127.714 117.557 127.04 117.627C126.768 117.627 126.497 117.697 126.235 117.732C125.972 117.767 125.447 117.837 125.062 117.916C124.677 117.995 124.423 118.056 124.108 118.126C123.793 118.196 123.46 118.283 123.136 118.38L122.095 118.686Z" fill="#0C7CEB"/>
</svg>
