<svg width="197" height="55" viewBox="0 0 197 55" fill="none" xmlns="http://www.w3.org/2000/svg">
<g filter="url(#filter0_d_198_11)">
<path d="M2.76989 27V6.63636H7.07528V15.0384H15.8153V6.63636H20.1108V27H15.8153V18.5881H7.07528V27H2.76989ZM42.3736 16.8182C42.3736 19.0388 41.9527 20.928 41.1108 22.4858C40.2756 24.0436 39.1354 25.2334 37.6903 26.0554C36.2519 26.8707 34.6345 27.2784 32.8381 27.2784C31.0284 27.2784 29.4044 26.8674 27.9659 26.0455C26.5275 25.2235 25.3906 24.0336 24.5554 22.4759C23.7202 20.9181 23.3026 19.0322 23.3026 16.8182C23.3026 14.5975 23.7202 12.7083 24.5554 11.1506C25.3906 9.5928 26.5275 8.40625 27.9659 7.59091C29.4044 6.76894 31.0284 6.35795 32.8381 6.35795C34.6345 6.35795 36.2519 6.76894 37.6903 7.59091C39.1354 8.40625 40.2756 9.5928 41.1108 11.1506C41.9527 12.7083 42.3736 14.5975 42.3736 16.8182ZM38.0085 16.8182C38.0085 15.3797 37.7931 14.1667 37.3622 13.179C36.938 12.1913 36.3381 11.4422 35.5625 10.9318C34.7869 10.4214 33.8788 10.1662 32.8381 10.1662C31.7973 10.1662 30.8892 10.4214 30.1136 10.9318C29.3381 11.4422 28.7348 12.1913 28.304 13.179C27.8797 14.1667 27.6676 15.3797 27.6676 16.8182C27.6676 18.2566 27.8797 19.4697 28.304 20.4574C28.7348 21.4451 29.3381 22.1941 30.1136 22.7045C30.8892 23.215 31.7973 23.4702 32.8381 23.4702C33.8788 23.4702 34.7869 23.215 35.5625 22.7045C36.3381 22.1941 36.938 21.4451 37.3622 20.4574C37.7931 19.4697 38.0085 18.2566 38.0085 16.8182ZM45.5629 6.63636H50.8725L56.4805 20.3182H56.7191L62.3271 6.63636H67.6367V27H63.4606V13.7457H63.2915L58.0217 26.9006H55.1779L49.908 13.696H49.739V27H45.5629V6.63636Z" fill="black"/>
<path d="M77.6644 27V6.63636H85.6985C87.243 6.63636 88.5588 6.93134 89.646 7.52131C90.7331 8.10464 91.5617 8.91667 92.1317 9.95739C92.7085 10.9915 92.9968 12.1847 92.9968 13.5369C92.9968 14.8892 92.7051 16.0824 92.1218 17.1165C91.5385 18.1506 90.6933 18.956 89.5863 19.5327C88.4859 20.1094 87.1535 20.3977 85.5891 20.3977H80.4684V16.9474H84.8931C85.7217 16.9474 86.4045 16.8049 86.9414 16.5199C87.485 16.2282 87.8893 15.8272 88.1545 15.3168C88.4263 14.7997 88.5621 14.2064 88.5621 13.5369C88.5621 12.8608 88.4263 12.2708 88.1545 11.767C87.8893 11.2566 87.485 10.8622 86.9414 10.5838C86.3978 10.2988 85.7085 10.1562 84.8732 10.1562H81.9698V27H77.6644ZM100.099 6.63636V27H95.7933V6.63636H100.099ZM103.641 6.63636H108.951L114.559 20.3182H114.797L120.405 6.63636H125.715V27H121.539V13.7457H121.37L116.1 26.9006H113.256L107.986 13.696H107.817V27H103.641V6.63636Z" fill="#14213D"/>
<path d="M135.743 27V6.63636H143.777C145.321 6.63636 146.637 6.93134 147.724 7.52131C148.811 8.10464 149.64 8.91667 150.21 9.95739C150.787 10.9915 151.075 12.1847 151.075 13.5369C151.075 14.8892 150.783 16.0824 150.2 17.1165C149.617 18.1506 148.771 18.956 147.664 19.5327C146.564 20.1094 145.232 20.3977 143.667 20.3977H138.547V16.9474H142.971C143.8 16.9474 144.483 16.8049 145.02 16.5199C145.563 16.2282 145.967 15.8272 146.233 15.3168C146.504 14.7997 146.64 14.2064 146.64 13.5369C146.64 12.8608 146.504 12.2708 146.233 11.767C145.967 11.2566 145.563 10.8622 145.02 10.5838C144.476 10.2988 143.787 10.1562 142.951 10.1562H140.048V27H135.743ZM155.03 27H150.416L157.446 6.63636H162.994L170.014 27H165.401L160.3 11.2898H160.141L155.03 27ZM154.741 18.9957H165.639V22.3565H154.741V18.9957ZM172.465 27V6.63636H176.771V15.0384H185.511V6.63636H189.806V27H185.511V18.5881H176.771V27H172.465Z" fill="#FCA311"/>
</g>
<g filter="url(#filter1_d_198_11)">
<path d="M100.778 41.6364C100.778 42.5881 100.598 43.3977 100.237 44.0653C99.8793 44.733 99.3906 45.2429 98.7713 45.5952C98.1548 45.9446 97.4616 46.1193 96.6918 46.1193C95.9162 46.1193 95.2202 45.9432 94.6037 45.5909C93.9872 45.2386 93.5 44.7287 93.142 44.0611C92.7841 43.3935 92.6051 42.5852 92.6051 41.6364C92.6051 40.6847 92.7841 39.875 93.142 39.2074C93.5 38.5398 93.9872 38.0312 94.6037 37.6818C95.2202 37.3295 95.9162 37.1534 96.6918 37.1534C97.4616 37.1534 98.1548 37.3295 98.7713 37.6818C99.3906 38.0312 99.8793 38.5398 100.237 39.2074C100.598 39.875 100.778 40.6847 100.778 41.6364ZM98.9077 41.6364C98.9077 41.0199 98.8153 40.5 98.6307 40.0767C98.4489 39.6534 98.1918 39.3324 97.8594 39.1136C97.527 38.8949 97.1378 38.7855 96.6918 38.7855C96.2457 38.7855 95.8565 38.8949 95.5241 39.1136C95.1918 39.3324 94.9332 39.6534 94.7486 40.0767C94.5668 40.5 94.4759 41.0199 94.4759 41.6364C94.4759 42.2528 94.5668 42.7727 94.7486 43.196C94.9332 43.6193 95.1918 43.9403 95.5241 44.1591C95.8565 44.3778 96.2457 44.4872 96.6918 44.4872C97.1378 44.4872 97.527 44.3778 97.8594 44.1591C98.1918 43.9403 98.4489 43.6193 98.6307 43.196C98.8153 42.7727 98.9077 42.2528 98.9077 41.6364ZM102.145 46V37.2727H103.961V40.554H104.016C104.096 40.3778 104.211 40.1989 104.361 40.017C104.515 39.8324 104.713 39.679 104.958 39.5568C105.205 39.4318 105.512 39.3693 105.878 39.3693C106.355 39.3693 106.796 39.4943 107.199 39.7443C107.603 39.9915 107.925 40.3651 108.167 40.8651C108.408 41.3622 108.529 41.9858 108.529 42.7358C108.529 43.4659 108.411 44.0824 108.175 44.5852C107.942 45.0852 107.624 45.4645 107.221 45.723C106.82 45.9787 106.371 46.1065 105.874 46.1065C105.522 46.1065 105.222 46.0483 104.975 45.9318C104.73 45.8153 104.53 45.669 104.374 45.4929C104.218 45.3139 104.098 45.1335 104.016 44.9517H103.935V46H102.145ZM103.922 42.7273C103.922 43.1165 103.976 43.456 104.084 43.7457C104.192 44.0355 104.348 44.2614 104.553 44.4233C104.757 44.5824 105.006 44.6619 105.299 44.6619C105.594 44.6619 105.844 44.581 106.049 44.419C106.253 44.2543 106.408 44.027 106.513 43.7372C106.621 43.4446 106.675 43.108 106.675 42.7273C106.675 42.3494 106.623 42.017 106.517 41.7301C106.412 41.4432 106.257 41.2187 106.053 41.0568C105.848 40.8949 105.597 40.8139 105.299 40.8139C105.003 40.8139 104.753 40.892 104.549 41.0483C104.347 41.2045 104.192 41.4261 104.084 41.7131C103.976 42 103.922 42.3381 103.922 42.7273ZM109.74 39.4545H111.555V46.3239C111.555 46.8295 111.456 47.2386 111.257 47.5511C111.058 47.8636 110.773 48.0923 110.401 48.2372C110.031 48.3821 109.589 48.4545 109.075 48.4545C109.013 48.4545 108.953 48.4531 108.896 48.4503C108.837 48.4503 108.774 48.4489 108.709 48.446V47.027C108.757 47.0298 108.8 47.0312 108.837 47.0312C108.871 47.0341 108.908 47.0355 108.947 47.0355C109.24 47.0355 109.445 46.973 109.561 46.848C109.68 46.7259 109.74 46.5412 109.74 46.294V39.4545ZM110.643 38.6108C110.376 38.6108 110.146 38.5213 109.953 38.3423C109.76 38.1605 109.663 37.9432 109.663 37.6903C109.663 37.4403 109.76 37.2259 109.953 37.0469C110.146 36.8651 110.376 36.7741 110.643 36.7741C110.916 36.7741 111.148 36.8651 111.338 37.0469C111.531 37.2259 111.628 37.4403 111.628 37.6903C111.628 37.9432 111.531 38.1605 111.338 38.3423C111.148 38.5213 110.916 38.6108 110.643 38.6108ZM115.993 46.1278C115.319 46.1278 114.74 45.9915 114.254 45.7188C113.771 45.4432 113.399 45.054 113.137 44.5511C112.876 44.0455 112.745 43.4474 112.745 42.7571C112.745 42.0838 112.876 41.4929 113.137 40.9844C113.399 40.4759 113.767 40.0795 114.241 39.7955C114.718 39.5114 115.278 39.3693 115.92 39.3693C116.352 39.3693 116.754 39.4389 117.126 39.5781C117.501 39.7145 117.828 39.9205 118.106 40.196C118.387 40.4716 118.606 40.8182 118.762 41.2358C118.919 41.6506 118.997 42.1364 118.997 42.6932V43.1918H113.47V42.0668H117.288C117.288 41.8054 117.231 41.5739 117.118 41.3722C117.004 41.1705 116.846 41.0128 116.645 40.8991C116.446 40.7827 116.214 40.7244 115.95 40.7244C115.674 40.7244 115.43 40.7884 115.217 40.9162C115.007 41.0412 114.842 41.2102 114.723 41.4233C114.603 41.6335 114.542 41.8679 114.539 42.1264V43.196C114.539 43.5199 114.599 43.7997 114.718 44.0355C114.841 44.2713 115.012 44.4531 115.234 44.581C115.456 44.7088 115.718 44.7727 116.022 44.7727C116.224 44.7727 116.409 44.7443 116.576 44.6875C116.744 44.6307 116.887 44.5455 117.007 44.4318C117.126 44.3182 117.217 44.179 117.279 44.0142L118.958 44.125C118.873 44.5284 118.699 44.8807 118.434 45.1818C118.173 45.4801 117.835 45.7131 117.42 45.8807C117.008 46.0455 116.532 46.1278 115.993 46.1278ZM123.139 46.1278C122.468 46.1278 121.892 45.9858 121.409 45.7017C120.929 45.4148 120.559 45.017 120.301 44.5085C120.045 44 119.917 43.4148 119.917 42.7528C119.917 42.0824 120.047 41.4943 120.305 40.9886C120.566 40.4801 120.937 40.0838 121.417 39.7997C121.897 39.5128 122.468 39.3693 123.13 39.3693C123.701 39.3693 124.201 39.473 124.63 39.6804C125.059 39.8878 125.399 40.179 125.649 40.554C125.899 40.929 126.037 41.3693 126.062 41.875H124.349C124.301 41.5483 124.173 41.2855 123.966 41.0866C123.761 40.8849 123.493 40.7841 123.16 40.7841C122.879 40.7841 122.633 40.8608 122.423 41.0142C122.216 41.1648 122.054 41.3849 121.937 41.6747C121.821 41.9645 121.762 42.3153 121.762 42.7273C121.762 43.1449 121.819 43.5 121.933 43.7926C122.049 44.0852 122.213 44.3082 122.423 44.4616C122.633 44.6151 122.879 44.6918 123.16 44.6918C123.368 44.6918 123.554 44.6491 123.718 44.5639C123.886 44.4787 124.024 44.3551 124.132 44.1932C124.243 44.0284 124.315 43.831 124.349 43.6009H126.062C126.034 44.1009 125.897 44.5412 125.653 44.9219C125.412 45.2997 125.078 45.5952 124.652 45.8082C124.225 46.0213 123.721 46.1278 123.139 46.1278ZM130.706 39.4545V40.8182H126.764V39.4545H130.706ZM127.659 37.8864H129.474V43.9886C129.474 44.1562 129.5 44.2869 129.551 44.3807C129.602 44.4716 129.673 44.5355 129.764 44.5724C129.858 44.6094 129.966 44.6278 130.088 44.6278C130.173 44.6278 130.259 44.6207 130.344 44.6065C130.429 44.5895 130.494 44.5767 130.54 44.5682L130.825 45.919C130.734 45.9474 130.607 45.9801 130.442 46.017C130.277 46.0568 130.077 46.081 129.841 46.0895C129.403 46.1065 129.02 46.0483 128.69 45.9148C128.364 45.7812 128.109 45.5739 127.928 45.2926C127.746 45.0114 127.656 44.6562 127.659 44.2273V37.8864ZM137.794 46H134.7V37.2727H137.819C138.697 37.2727 139.453 37.4474 140.086 37.7969C140.72 38.1435 141.207 38.642 141.548 39.2926C141.892 39.9432 142.064 40.7216 142.064 41.6278C142.064 42.5369 141.892 43.3182 141.548 43.9716C141.207 44.625 140.717 45.1264 140.078 45.4759C139.441 45.8253 138.68 46 137.794 46ZM136.545 44.419H137.717C138.262 44.419 138.721 44.3224 139.093 44.1293C139.468 43.9332 139.75 43.6307 139.937 43.2216C140.127 42.8097 140.223 42.2784 140.223 41.6278C140.223 40.983 140.127 40.456 139.937 40.0469C139.75 39.6378 139.47 39.3366 139.098 39.1435C138.725 38.9503 138.267 38.8537 137.721 38.8537H136.545V44.419ZM146.379 46.1278C145.706 46.1278 145.126 45.9915 144.641 45.7188C144.158 45.4432 143.786 45.054 143.524 44.5511C143.263 44.0455 143.132 43.4474 143.132 42.7571C143.132 42.0838 143.263 41.4929 143.524 40.9844C143.786 40.4759 144.153 40.0795 144.628 39.7955C145.105 39.5114 145.665 39.3693 146.307 39.3693C146.739 39.3693 147.141 39.4389 147.513 39.5781C147.888 39.7145 148.214 39.9205 148.493 40.196C148.774 40.4716 148.993 40.8182 149.149 41.2358C149.305 41.6506 149.384 42.1364 149.384 42.6932V43.1918H143.857V42.0668H147.675C147.675 41.8054 147.618 41.5739 147.504 41.3722C147.391 41.1705 147.233 41.0128 147.031 40.8991C146.832 40.7827 146.601 40.7244 146.337 40.7244C146.061 40.7244 145.817 40.7884 145.604 40.9162C145.393 41.0412 145.229 41.2102 145.109 41.4233C144.99 41.6335 144.929 41.8679 144.926 42.1264V43.196C144.926 43.5199 144.986 43.7997 145.105 44.0355C145.227 44.2713 145.399 44.4531 145.621 44.581C145.842 44.7088 146.105 44.7727 146.409 44.7727C146.611 44.7727 146.795 44.7443 146.963 44.6875C147.131 44.6307 147.274 44.5455 147.393 44.4318C147.513 44.3182 147.604 44.179 147.666 44.0142L149.345 44.125C149.26 44.5284 149.085 44.8807 148.821 45.1818C148.56 45.4801 148.222 45.7131 147.807 45.8807C147.395 46.0455 146.919 46.1278 146.379 46.1278ZM154.05 39.4545V40.8182H150.108V39.4545H154.05ZM151.003 37.8864H152.818V43.9886C152.818 44.1562 152.844 44.2869 152.895 44.3807C152.946 44.4716 153.017 44.5355 153.108 44.5724C153.202 44.6094 153.31 44.6278 153.432 44.6278C153.517 44.6278 153.602 44.6207 153.688 44.6065C153.773 44.5895 153.838 44.5767 153.884 44.5682L154.169 45.919C154.078 45.9474 153.95 45.9801 153.786 46.017C153.621 46.0568 153.42 46.081 153.185 46.0895C152.747 46.1065 152.364 46.0483 152.034 45.9148C151.707 45.7812 151.453 45.5739 151.271 45.2926C151.089 45.0114 151 44.6562 151.003 44.2273V37.8864ZM158.145 46.1278C157.472 46.1278 156.892 45.9915 156.406 45.7188C155.923 45.4432 155.551 45.054 155.29 44.5511C155.028 44.0455 154.898 43.4474 154.898 42.7571C154.898 42.0838 155.028 41.4929 155.29 40.9844C155.551 40.4759 155.919 40.0795 156.393 39.7955C156.871 39.5114 157.43 39.3693 158.072 39.3693C158.504 39.3693 158.906 39.4389 159.278 39.5781C159.653 39.7145 159.98 39.9205 160.259 40.196C160.54 40.4716 160.759 40.8182 160.915 41.2358C161.071 41.6506 161.149 42.1364 161.149 42.6932V43.1918H155.622V42.0668H159.44C159.44 41.8054 159.384 41.5739 159.27 41.3722C159.156 41.1705 158.999 41.0128 158.797 40.8991C158.598 40.7827 158.366 40.7244 158.102 40.7244C157.827 40.7244 157.582 40.7884 157.369 40.9162C157.159 41.0412 156.994 41.2102 156.875 41.4233C156.756 41.6335 156.695 41.8679 156.692 42.1264V43.196C156.692 43.5199 156.751 43.7997 156.871 44.0355C156.993 44.2713 157.165 44.4531 157.386 44.581C157.608 44.7088 157.871 44.7727 158.175 44.7727C158.376 44.7727 158.561 44.7443 158.729 44.6875C158.896 44.6307 159.04 44.5455 159.159 44.4318C159.278 44.3182 159.369 44.179 159.432 44.0142L161.111 44.125C161.026 44.5284 160.851 44.8807 160.587 45.1818C160.325 45.4801 159.987 45.7131 159.572 45.8807C159.161 46.0455 158.685 46.1278 158.145 46.1278ZM165.291 46.1278C164.621 46.1278 164.044 45.9858 163.561 45.7017C163.081 45.4148 162.712 45.017 162.453 44.5085C162.197 44 162.07 43.4148 162.07 42.7528C162.07 42.0824 162.199 41.4943 162.457 40.9886C162.719 40.4801 163.089 40.0838 163.57 39.7997C164.05 39.5128 164.621 39.3693 165.283 39.3693C165.854 39.3693 166.354 39.473 166.783 39.6804C167.212 39.8878 167.551 40.179 167.801 40.554C168.051 40.929 168.189 41.3693 168.214 41.875H166.501C166.453 41.5483 166.325 41.2855 166.118 41.0866C165.913 40.8849 165.645 40.7841 165.312 40.7841C165.031 40.7841 164.786 40.8608 164.575 41.0142C164.368 41.1648 164.206 41.3849 164.089 41.6747C163.973 41.9645 163.915 42.3153 163.915 42.7273C163.915 43.1449 163.972 43.5 164.085 43.7926C164.202 44.0852 164.365 44.3082 164.575 44.4616C164.786 44.6151 165.031 44.6918 165.312 44.6918C165.52 44.6918 165.706 44.6491 165.871 44.5639C166.038 44.4787 166.176 44.3551 166.284 44.1932C166.395 44.0284 166.467 43.831 166.501 43.6009H168.214C168.186 44.1009 168.05 44.5412 167.805 44.9219C167.564 45.2997 167.23 45.5952 166.804 45.8082C166.378 46.0213 165.874 46.1278 165.291 46.1278ZM172.858 39.4545V40.8182H168.917V39.4545H172.858ZM169.811 37.8864H171.627V43.9886C171.627 44.1562 171.652 44.2869 171.703 44.3807C171.755 44.4716 171.826 44.5355 171.917 44.5724C172.01 44.6094 172.118 44.6278 172.24 44.6278C172.326 44.6278 172.411 44.6207 172.496 44.6065C172.581 44.5895 172.647 44.5767 172.692 44.5682L172.978 45.919C172.887 45.9474 172.759 45.9801 172.594 46.017C172.429 46.0568 172.229 46.081 171.993 46.0895C171.556 46.1065 171.172 46.0483 170.843 45.9148C170.516 45.7812 170.262 45.5739 170.08 45.2926C169.898 45.0114 169.809 44.6562 169.811 44.2273V37.8864ZM174.041 46V39.4545H175.856V46H174.041ZM174.953 38.6108C174.683 38.6108 174.451 38.5213 174.258 38.3423C174.068 38.1605 173.973 37.9432 173.973 37.6903C173.973 37.4403 174.068 37.2259 174.258 37.0469C174.451 36.8651 174.683 36.7741 174.953 36.7741C175.223 36.7741 175.453 36.8651 175.643 37.0469C175.836 37.2259 175.933 37.4403 175.933 37.6903C175.933 37.9432 175.836 38.1605 175.643 38.3423C175.453 38.5213 175.223 38.6108 174.953 38.6108ZM180.268 46.1278C179.606 46.1278 179.033 45.9872 178.55 45.706C178.07 45.4219 177.7 45.027 177.438 44.5213C177.177 44.0128 177.046 43.4233 177.046 42.7528C177.046 42.0767 177.177 41.4858 177.438 40.9801C177.7 40.4716 178.07 40.0767 178.55 39.7955C179.033 39.5114 179.606 39.3693 180.268 39.3693C180.93 39.3693 181.501 39.5114 181.981 39.7955C182.464 40.0767 182.836 40.4716 183.097 40.9801C183.359 41.4858 183.489 42.0767 183.489 42.7528C183.489 43.4233 183.359 44.0128 183.097 44.5213C182.836 45.027 182.464 45.4219 181.981 45.706C181.501 45.9872 180.93 46.1278 180.268 46.1278ZM180.276 44.7216C180.577 44.7216 180.829 44.6364 181.031 44.4659C181.232 44.2926 181.384 44.0568 181.487 43.7585C181.592 43.4602 181.644 43.1207 181.644 42.7401C181.644 42.3594 181.592 42.0199 181.487 41.7216C181.384 41.4233 181.232 41.1875 181.031 41.0142C180.829 40.8409 180.577 40.7543 180.276 40.7543C179.972 40.7543 179.717 40.8409 179.509 41.0142C179.305 41.1875 179.15 41.4233 179.045 41.7216C178.942 42.0199 178.891 42.3594 178.891 42.7401C178.891 43.1207 178.942 43.4602 179.045 43.7585C179.15 44.0568 179.305 44.2926 179.509 44.4659C179.717 44.6364 179.972 44.7216 180.276 44.7216ZM186.485 42.2159V46H184.67V39.4545H186.4V40.6094H186.477C186.621 40.2287 186.864 39.9276 187.205 39.706C187.546 39.4815 187.96 39.3693 188.445 39.3693C188.9 39.3693 189.296 39.4688 189.634 39.6676C189.972 39.8665 190.235 40.1506 190.423 40.5199C190.61 40.8864 190.704 41.3239 190.704 41.8324V46H188.888V42.1562C188.891 41.7557 188.789 41.4432 188.582 41.2188C188.374 40.9915 188.089 40.8778 187.725 40.8778C187.481 40.8778 187.265 40.9304 187.077 41.0355C186.893 41.1406 186.748 41.294 186.643 41.4957C186.54 41.6946 186.488 41.9347 186.485 42.2159Z" fill="black"/>
</g>
<defs>
<filter id="filter0_d_198_11" x="0.77002" y="4.35791" width="195.036" height="28.9205" filterUnits="userSpaceOnUse" color-interpolation-filters="sRGB">
<feFlood flood-opacity="0" result="BackgroundImageFix"/>
<feColorMatrix in="SourceAlpha" type="matrix" values="0 0 0 0 0 0 0 0 0 0 0 0 0 0 0 0 0 0 127 0" result="hardAlpha"/>
<feOffset dx="2" dy="2"/>
<feGaussianBlur stdDeviation="2"/>
<feComposite in2="hardAlpha" operator="out"/>
<feColorMatrix type="matrix" values="0 0 0 0 0 0 0 0 0 0 0 0 0 0 0 0 0 0 0.3 0"/>
<feBlend mode="normal" in2="BackgroundImageFix" result="effect1_dropShadow_198_11"/>
<feBlend mode="normal" in="SourceGraphic" in2="effect1_dropShadow_198_11" result="shape"/>
</filter>
<filter id="filter1_d_198_11" x="90.605" y="34.7742" width="106.099" height="19.6804" filterUnits="userSpaceOnUse" color-interpolation-filters="sRGB">
<feFlood flood-opacity="0" result="BackgroundImageFix"/>
<feColorMatrix in="SourceAlpha" type="matrix" values="0 0 0 0 0 0 0 0 0 0 0 0 0 0 0 0 0 0 127 0" result="hardAlpha"/>
<feOffset dx="2" dy="2"/>
<feGaussianBlur stdDeviation="2"/>
<feComposite in2="hardAlpha" operator="out"/>
<feColorMatrix type="matrix" values="0 0 0 0 0 0 0 0 0 0 0 0 0 0 0 0 0 0 0.4 0"/>
<feBlend mode="normal" in2="BackgroundImageFix" result="effect1_dropShadow_198_11"/>
<feBlend mode="normal" in="SourceGraphic" in2="effect1_dropShadow_198_11" result="shape"/>
</filter>
</defs>
</svg>
