<svg width="219" height="146" viewBox="0 0 219 146" fill="none" xmlns="http://www.w3.org/2000/svg">
<path d="M190.867 72.9974C189.047 73.0269 184.455 73.0999 182.696 73.1183L179.941 73.1305L179.809 73.1311L179.808 72.9974L179.795 69.5623L179.795 69.416L179.941 69.4166L185.404 69.4365C186.764 69.4478 189.507 69.4756 190.867 69.4937L190.937 69.4946L190.935 69.5626L190.867 72.9974ZM190.867 72.9974L190.798 69.5623L190.867 69.6309C189.504 69.6493 186.766 69.6768 185.404 69.6882L179.941 69.708L180.087 69.5623L180.075 72.9974L179.941 72.8642L182.65 72.8765C184.382 72.8955 189.076 72.9688 190.867 72.9974Z" fill="#EBEBEB"/>
<path d="M199.055 48.3783C197.235 48.4075 192.643 48.4807 190.884 48.4991L188.129 48.5114L187.997 48.512L187.996 48.3783L187.983 44.9432L187.983 44.7969L188.129 44.7975L193.592 44.8173C194.952 44.8287 197.695 44.8564 199.055 44.8745L199.125 44.8754L199.124 44.9435L199.055 48.3783ZM199.055 48.3783L198.986 44.9432L199.055 45.0118C197.692 45.0302 194.954 45.0576 193.592 45.069L188.129 45.0889L188.275 44.9432L188.262 48.3783L188.129 48.2451L190.837 48.2574C192.57 48.2761 197.264 48.3496 199.055 48.3783Z" fill="#EBEBEB"/>
<path d="M30.2083 85.1089C28.388 85.1384 23.7963 85.2114 22.037 85.2298L19.2825 85.2421L19.15 85.2427L19.1494 85.1089L19.1368 81.6741L19.1362 81.5278L19.2825 81.5284L24.7453 81.5483C26.1054 81.5597 28.8482 81.5874 30.2083 81.6055L30.2784 81.6064L30.2769 81.6744L30.2083 85.1089ZM30.2083 85.1089L30.1397 81.6738L30.2083 81.7425C28.8452 81.7609 26.1077 81.7883 24.7453 81.7997L19.2825 81.8195L19.4282 81.6738L19.4157 85.1086L19.2825 84.9755L21.9908 84.9877C23.723 85.0067 28.4169 85.0803 30.2083 85.1089Z" fill="#EBEBEB"/>
<path d="M24.1138 86.0054H13.188V89.4405H24.1138V86.0054Z" fill="#EBEBEB"/>
<path d="M98.584 101.205C100.404 101.176 104.996 101.103 106.755 101.084L109.51 101.072L109.643 101.071L109.643 101.205L109.656 104.64L109.656 104.786L109.51 104.786L104.047 104.766C102.687 104.754 99.9441 104.727 98.5842 104.708L98.5142 104.708L98.5156 104.64L98.584 101.205ZM98.584 101.205L98.6526 104.64L98.584 104.571C99.947 104.553 102.685 104.526 104.047 104.514L109.51 104.494L109.364 104.64L109.377 101.205L109.51 101.338L106.801 101.326C105.07 101.307 100.376 101.233 98.584 101.205Z" fill="#EBEBEB"/>
<path d="M104.679 100.309H115.604V96.8735H104.679V100.309Z" fill="#EBEBEB"/>
<path d="M184.511 72.4658H173.585V75.9009H184.511V72.4658Z" fill="#EBEBEB"/>
<path d="M106.801 31.2298C104.981 31.2593 100.389 31.3323 98.63 31.3507L95.8756 31.3629L95.7427 31.3635L95.7421 31.2298L95.7296 27.795L95.729 27.6487L95.8753 27.6493L101.338 27.6691C102.698 27.6805 105.441 27.7083 106.801 27.7264L106.871 27.7272L106.869 27.7953L106.801 31.2298ZM106.801 31.2298L106.733 27.7947L106.801 27.8633C105.438 27.8817 102.701 27.9091 101.339 27.9205L95.8759 27.9404L96.0216 27.7947L96.009 31.2295L95.8759 31.0963L98.5842 31.1086C100.316 31.1279 105.01 31.2012 106.801 31.2298Z" fill="#EBEBEB"/>
<path d="M100.707 32.1262H89.7812V35.5613H100.707V32.1262Z" fill="#EBEBEB"/>
<path d="M123.376 17.4427C121.555 17.4722 116.964 17.5452 115.204 17.5636L112.45 17.5759L112.317 17.5764L112.316 17.4427L112.304 14.0076L112.303 13.8613L112.45 13.8619L117.912 13.8818C119.272 13.8932 122.015 13.9209 123.375 13.939L123.445 13.9399L123.444 14.0079L123.376 17.4427ZM123.376 17.4427L123.307 14.0076L123.376 14.0762C122.013 14.0946 119.275 14.1221 117.913 14.1335L112.45 14.1533L112.596 14.0076L112.583 17.4427L112.45 17.3096L115.158 17.3218C116.89 17.3408 121.584 17.4141 123.376 17.4427Z" fill="#EBEBEB"/>
<path d="M64.75 97.012H53.8242V100.447H64.75V97.012Z" fill="#EBEBEB"/>
<path d="M64.1749 74.1898C62.3546 74.219 57.7629 74.2923 56.0036 74.3107L53.2491 74.3229L53.1163 74.3235L53.1157 74.1898L53.1031 70.7547L53.1025 70.6084L53.2488 70.609L58.7119 70.6288C60.072 70.6402 62.8147 70.668 64.1749 70.6861L64.245 70.6869L64.2435 70.755L64.1749 74.1898ZM64.1749 74.1898L64.1063 70.7547L64.1749 70.8233C62.8118 70.8417 60.0743 70.8692 58.7119 70.8805L53.2491 70.9004L53.3948 70.7547L53.3823 74.1898L53.2491 74.0566L55.9574 74.0689C57.6896 74.0876 62.3835 74.1612 64.1749 74.1898Z" fill="#EBEBEB"/>
<path d="M201.088 16.054H190.162V19.489H201.088V16.054Z" fill="#EBEBEB"/>
<path d="M28.6563 15.1612C26.836 15.1907 22.2443 15.2637 20.485 15.2821L17.7306 15.2944L17.5977 15.295L17.5971 15.1612L17.5846 11.7261L17.584 11.5798L17.7303 11.5804L23.1933 11.6003C24.5534 11.6117 27.2962 11.6394 28.656 11.6575L28.7261 11.6584L28.7247 11.7264L28.6563 15.1612ZM28.6563 15.1612L28.5877 11.7261L28.6563 11.7947C27.2933 11.8131 24.5558 11.8406 23.1936 11.852L17.7306 11.8718L17.8763 11.7261L17.8637 15.1612L17.7306 15.0281L20.4389 15.0403C22.171 15.0593 26.8649 15.1326 28.6563 15.1612Z" fill="#EBEBEB"/>
<path d="M82.1462 16.5167C82.2857 16.3768 82.456 16.3064 82.6566 16.3064H89.683C89.883 16.3064 90.0527 16.3768 90.1937 16.5167C90.3333 16.6574 90.4036 16.8274 90.4036 17.0271V57.6233C90.4036 57.8242 90.3333 57.9938 90.1937 58.1337C90.0527 58.2744 89.883 58.3439 89.683 58.3439H82.6566C82.456 58.3439 82.2857 58.2744 82.1462 58.1337C82.0054 57.9938 81.9359 57.8242 81.9359 57.6233V41.2286C81.9359 41.0289 81.8352 40.9285 81.6355 40.9285H75.6302C75.4296 40.9285 75.33 41.0289 75.33 41.2286V57.6233C75.33 57.8242 75.2596 57.9938 75.1198 58.1337C74.979 58.2744 74.8091 58.3439 74.6091 58.3439H67.5827C67.3821 58.3439 67.2124 58.2744 67.0723 58.1337C66.9315 57.9938 66.8623 57.8242 66.8623 57.6233V17.0268C66.8623 16.8271 66.9318 16.6571 67.0723 16.5164C67.2121 16.3765 67.3821 16.3062 67.5827 16.3062H74.6091C74.8091 16.3062 74.979 16.3765 75.1198 16.5164C75.2594 16.6571 75.33 16.8271 75.33 17.0268V33.3613C75.33 33.5622 75.4296 33.6615 75.6302 33.6615H81.6355C81.8355 33.6615 81.9359 33.5622 81.9359 33.3613V17.0268C81.9359 16.8271 82.0054 16.6571 82.1462 16.5167Z" fill="#FCA311"/>
<path d="M71.575 18.9024C71.575 19.2405 71.3009 19.5147 70.9627 19.5147C70.6246 19.5147 70.3501 19.2405 70.3501 18.9024C70.3501 18.5642 70.6243 18.29 70.9627 18.29C71.3006 18.2897 71.575 18.5639 71.575 18.9024Z" fill="#A6A6A6"/>
<path d="M86.8519 18.9024C86.8519 19.2405 86.5777 19.5147 86.2393 19.5147C85.9011 19.5147 85.627 19.2405 85.627 18.9024C85.627 18.5642 85.9011 18.29 86.2393 18.29C86.5777 18.2897 86.8519 18.5639 86.8519 18.9024Z" fill="#A6A6A6"/>
<path d="M142.019 16.5167C142.158 16.3768 142.328 16.3064 142.529 16.3064H149.495C149.695 16.3064 149.865 16.3768 150.006 16.5167C150.146 16.6574 150.216 16.8274 150.216 17.0271V57.6233C150.216 57.8242 150.146 57.9938 150.006 58.1337C149.865 58.2744 149.695 58.3439 149.495 58.3439H141.568C141.167 58.3439 140.908 58.1439 140.788 57.7436L133.341 34.503C133.3 34.383 133.23 34.3331 133.13 34.3529C133.03 34.3734 132.98 34.4429 132.98 34.5629L133.04 57.6236C133.04 57.8245 132.97 57.9941 132.83 58.134C132.689 58.2747 132.519 58.3442 132.319 58.3442H125.353C125.152 58.3442 124.983 58.2747 124.843 58.134C124.702 57.9941 124.632 57.8245 124.632 57.6236V17.0268C124.632 16.8271 124.702 16.6571 124.843 16.5164C124.982 16.3765 125.152 16.3062 125.353 16.3062H133.22C133.62 16.3062 133.881 16.507 134.001 16.9065L141.507 40.1471C141.547 40.2671 141.617 40.3179 141.718 40.2972C141.817 40.2776 141.868 40.2072 141.868 40.0872L141.807 17.0265C141.808 16.8271 141.878 16.6571 142.019 16.5167Z" fill="#FCA311"/>
<path d="M130.129 18.9024C130.129 19.2405 129.855 19.5147 129.517 19.5147C129.179 19.5147 128.905 19.2405 128.905 18.9024C128.905 18.5642 129.179 18.29 129.517 18.29C129.855 18.2897 130.129 18.5639 130.129 18.9024Z" fill="#A6A6A6"/>
<path d="M146.861 18.9024C146.861 19.2405 146.587 19.5147 146.249 19.5147C145.91 19.5147 145.636 19.2405 145.636 18.9024C145.636 18.5642 145.91 18.29 146.249 18.29C146.587 18.29 146.861 18.5639 146.861 18.9024Z" fill="#A6A6A6"/>
<path d="M112.562 63.5232L111.602 57.7579C111.602 57.5582 111.481 57.4577 111.241 57.4577H103.614C103.374 57.4577 103.254 57.5582 103.254 57.7579L102.293 63.5232C102.253 63.9641 101.993 64.1837 101.512 64.1837H94.4857C93.9651 64.1837 93.7653 63.9238 93.8853 63.4029L102.714 22.807C102.793 22.3669 103.053 22.1465 103.494 22.1465H111.602C112.041 22.1465 112.301 22.3669 112.382 22.807L121.15 63.4032L121.21 63.6435C121.21 64.0038 120.989 64.184 120.549 64.184H113.343C112.863 64.1837 112.602 63.9641 112.562 63.5232ZM104.695 50.912H110.1C110.3 50.912 110.38 50.8127 110.341 50.6118L107.518 34.2172C107.478 34.0972 107.417 34.037 107.338 34.037C107.257 34.037 107.197 34.0969 107.158 34.2172L104.455 50.6118C104.455 50.8127 104.535 50.912 104.695 50.912Z" fill="#FCA311"/>
<path d="M108.143 25.4627C108.143 25.8008 107.869 26.0753 107.531 26.0753C107.193 26.0753 106.918 25.8011 106.918 25.4627C106.918 25.1245 107.193 24.8503 107.531 24.8503C107.869 24.8501 108.143 25.1242 108.143 25.4627Z" fill="#A6A6A6"/>
<path d="M155.71 63.9735C155.57 63.8336 155.5 63.664 155.5 63.4631V22.8669C155.5 22.6672 155.57 22.4972 155.71 22.3565C155.85 22.2166 156.02 22.1462 156.221 22.1462H163.247C163.447 22.1462 163.617 22.2166 163.758 22.3565C163.897 22.4972 163.968 22.6672 163.968 22.8669V38.0004C163.968 38.1607 164.018 38.2509 164.118 38.2705C164.217 38.2912 164.287 38.2208 164.328 38.0605L172.075 22.6867C172.275 22.3264 172.555 22.1462 172.915 22.1462H180.362C180.642 22.1462 180.832 22.2166 180.933 22.3565C181.032 22.4972 181.023 22.7075 180.903 22.9869L172.015 40.2824C171.975 40.4427 171.955 40.563 171.955 40.6427L181.383 63.3431C181.423 63.4236 181.443 63.544 181.443 63.7034C181.443 64.0243 181.242 64.184 180.843 64.184H173.336C172.895 64.184 172.616 64.0039 172.496 63.6435L166.25 47.9097C166.21 47.7897 166.149 47.7397 166.07 47.7593C165.989 47.78 165.909 47.8297 165.83 47.9097L164.088 51.0323C164.007 51.1926 163.968 51.313 163.968 51.3927V63.4637C163.968 63.6646 163.897 63.8342 163.758 63.9741C163.617 64.1148 163.447 64.1843 163.247 64.1843H156.221C156.02 64.1837 155.85 64.1145 155.71 63.9735Z" fill="#FCA311"/>
<path d="M160.485 25.4627C160.485 25.8008 160.211 26.0753 159.873 26.0753C159.534 26.0753 159.26 25.8011 159.26 25.4627C159.26 25.1245 159.534 24.8503 159.873 24.8503C160.211 24.8501 160.485 25.1242 160.485 25.4627Z" fill="#A6A6A6"/>
<path d="M176.217 25.4627C176.217 25.8008 175.943 26.0753 175.605 26.0753C175.267 26.0753 174.993 25.8011 174.993 25.4627C174.993 25.1245 175.267 24.8503 175.605 24.8503C175.943 24.8503 176.217 25.1242 176.217 25.4627Z" fill="#A6A6A6"/>
<path d="M77.2818 114.234C77.141 114.094 77.0718 113.924 77.0718 113.723V98.1092L77.012 97.7488L68.6044 73.3073C68.5641 73.2273 68.5439 73.1271 68.5439 73.0068C68.5439 72.6465 68.7635 72.4663 69.2047 72.4663H76.5912C77.0315 72.4663 77.3118 72.6672 77.4318 73.0672L81.1551 87.4199C81.1946 87.5399 81.2547 87.5998 81.3353 87.5998C81.415 87.5998 81.4749 87.5399 81.5152 87.4199L85.2385 73.0672C85.3588 72.6675 85.6382 72.4663 86.0791 72.4663H93.4659C93.7059 72.4663 93.886 72.537 94.0063 72.6768C94.1264 72.8176 94.1459 73.0275 94.0662 73.3076L85.5985 97.7491L85.5386 98.1095V113.724C85.5386 113.924 85.4686 114.094 85.3284 114.234C85.1877 114.375 85.0177 114.444 84.818 114.444H77.7916C77.5913 114.444 77.4216 114.374 77.2818 114.234Z" fill="#FCA311"/>
<path d="M74.3018 75.6053C74.3018 75.9434 74.0276 76.2176 73.6895 76.2176C73.3513 76.2176 73.0771 75.9434 73.0771 75.6053C73.0771 75.2672 73.3513 74.9927 73.6895 74.9927C74.0276 74.9927 74.3018 75.2669 74.3018 75.6053Z" fill="#A6A6A6"/>
<path d="M89.7408 75.6053C89.7408 75.9434 89.4666 76.2176 89.1284 76.2176C88.7903 76.2176 88.5161 75.9434 88.5161 75.6053C88.5161 75.2672 88.7903 74.9927 89.1284 74.9927C89.4666 74.9927 89.7408 75.2669 89.7408 75.6053Z" fill="#A6A6A6"/>
<path d="M99.5318 117.581C97.3296 115.419 96.229 112.537 96.229 108.934V89.7167C96.229 86.1131 97.3296 83.2308 99.5318 81.0691C101.733 78.9072 104.676 77.8262 108.36 77.8262C112.043 77.8262 114.996 78.9072 117.218 81.0691C119.439 83.2311 120.551 86.1134 120.551 89.7167V108.934C120.551 112.537 119.439 115.419 117.218 117.581C114.995 119.743 112.043 120.824 108.36 120.824C104.676 120.824 101.733 119.743 99.5318 117.581ZM111.062 112.386C111.742 111.606 112.083 110.575 112.083 109.294V89.3558C112.083 88.0754 111.742 87.0437 111.062 86.2629C110.381 85.4827 109.48 85.0923 108.36 85.0923C107.238 85.0923 106.348 85.4827 105.687 86.2629C105.027 87.0437 104.696 88.0751 104.696 89.3558V109.294C104.696 110.575 105.027 111.606 105.687 112.386C106.348 113.167 107.238 113.558 108.36 113.558C109.48 113.558 110.381 113.167 111.062 112.386Z" fill="#FCA311"/>
<path d="M109.002 81.086C109.002 81.4241 108.728 81.6983 108.39 81.6983C108.052 81.6983 107.777 81.4241 107.777 81.086C107.777 80.7479 108.052 80.4734 108.39 80.4734C108.728 80.4734 109.002 80.7476 109.002 81.086Z" fill="#A6A6A6"/>
<path d="M16.2939 135.309C76.0076 135.13 142.992 135.128 202.706 135.309C142.992 135.489 76.0074 135.487 16.2939 135.309Z" fill="#263238"/>
<path d="M184.364 89.9845C184.482 88.2614 184.692 86.536 185.093 84.8538C185.455 83.3351 185.968 81.782 186.926 80.5264C187.801 79.3797 189.058 78.4663 190.519 78.2876C191.926 78.1153 193.248 78.7425 194.301 79.629C195.605 80.7273 196.604 82.1817 197.541 83.5912C198.59 85.1677 199.482 86.8064 200.34 88.4907C200.368 88.5461 200.283 88.5929 200.256 88.5374C199.548 87.1142 198.676 85.7307 197.752 84.4377C196.879 83.216 195.946 81.9986 194.87 80.9477C193.904 80.0048 192.677 79.1227 191.277 79.0783C189.884 79.0339 188.599 79.8156 187.76 80.8893C186.823 82.0894 186.346 83.5883 185.989 85.0483C185.597 86.6513 185.401 88.2909 185.267 89.9334C184.992 93.3133 184.918 96.7128 184.841 100.102C184.798 102.02 184.772 103.938 184.754 105.856C184.746 106.828 184.738 107.8 184.731 108.772C184.724 109.708 184.773 110.658 184.618 111.583C184.587 111.772 184.278 111.753 184.246 111.574C184.092 110.698 184.129 109.798 184.117 108.91C184.104 107.989 184.093 107.068 184.085 106.146C184.068 104.356 184.059 102.564 184.064 100.773C184.075 97.1794 184.118 93.5709 184.364 89.9845Z" fill="#263238"/>
<path d="M189.193 87.4359C189.372 86.4804 189.695 85.2345 190.239 84.4943C191.218 83.1636 192.274 83.7423 191.298 85.2158C190.231 86.8244 190.077 88.0955 189.924 88.8489C189.924 88.8489 191.569 91.1986 193.554 92.3555C193.469 91.4523 193.214 90.0627 193.39 88.7224C193.771 85.8199 195.527 85.9829 195.093 88.2885C194.744 90.1377 194.601 92.1006 194.696 92.9517C195.292 93.4035 196.308 93.7918 196.817 93.991C196.703 93.6552 196.583 93.2507 196.449 92.7614C195.745 90.1588 197.479 89.347 197.535 90.8111C197.577 92.0144 198.043 93.88 198.21 94.5028C199.162 94.8223 199.951 95.041 200.434 95.2107C202.44 95.915 203.689 97.4348 203.689 97.4348C204.599 96.626 205.332 95.6446 205.906 94.565C205.3 94.0432 204.341 93.2671 203.011 92.3277C200.516 90.5667 201.383 88.3425 203.363 89.7251C204.791 90.7232 205.897 92.5721 206.399 93.5211C207.087 91.8775 207.449 90.0738 207.53 88.3259C205.571 86.4866 200.725 83.9231 202.185 83.9231C203.5 83.9231 206.441 85.8506 207.521 86.594C207.491 86.0754 207.436 85.57 207.354 85.0841C205.509 83.874 199.511 81.9924 200.467 81.4513C201.517 80.8577 205.701 82.7948 206.966 83.408C206.689 82.5081 206.314 81.7252 205.858 81.1123C203.307 77.698 198.709 76.5215 196.702 77.1724C195.283 77.6328 195.697 81.235 195.392 81.1123C189.689 78.8172 187.095 80.4395 189.193 87.4359ZM203.174 87.0414C203.578 86.552 205.45 87.9904 204.909 88.7761C204.367 89.5622 202.652 87.6674 203.174 87.0414ZM193.393 83.9692C193.886 84.2823 193.158 86.102 192.398 85.551C191.753 85.0815 192.898 83.653 193.393 83.9692Z" fill="#FCA311"/>
<path d="M194.14 84.527C194.398 84.018 194.666 83.512 194.96 83.0226C195.239 82.5568 195.537 82.061 195.902 81.656C195.821 81.5562 195.742 81.454 195.659 81.3558C195.624 81.3158 195.683 81.2595 195.718 81.2992C195.814 81.4081 195.904 81.5199 195.997 81.6303C196.015 81.6408 196.03 81.656 196.037 81.677C196.389 82.0993 196.721 82.5344 197.038 82.9785C197.598 83.097 198.152 83.2766 198.694 83.4582C199.254 83.6457 199.808 83.8402 200.352 84.0697C200.409 84.0936 200.38 84.1871 200.324 84.1622C199.785 83.924 199.239 83.6933 198.68 83.5047C198.152 83.3263 197.615 83.189 197.08 83.0375C197.254 83.2833 197.425 83.5309 197.589 83.7827C198.593 84.0717 199.576 84.5302 200.518 84.9775C201.507 85.4476 202.46 85.994 203.408 86.5423C203.462 86.5733 203.411 86.6565 203.357 86.6244C202.429 86.0687 201.462 85.5948 200.483 85.1364C199.565 84.7068 198.616 84.3544 197.691 83.9456C200.02 87.5801 201.417 91.7741 203.284 95.6571C203.312 95.7138 203.223 95.7602 203.2 95.7038C202.63 94.342 201.973 93.0151 201.352 91.6754C200.795 90.4727 200.251 89.2638 199.693 88.0613C199.53 87.7095 199.361 87.3582 199.191 87.0075C199.292 88.949 199.251 90.9238 199.569 92.8422C199.581 92.9109 199.479 92.9231 199.474 92.8528C199.339 90.7784 198.974 88.7361 198.989 86.6501C198.989 86.6381 198.997 86.6329 199 86.6232C198.605 85.8302 198.184 85.0473 197.729 84.2861C196.957 86.1026 196.146 87.9472 195.786 89.898C195.775 89.9579 195.677 89.9313 195.694 89.87C196.218 87.9144 196.704 85.9563 197.647 84.1491C197.149 83.3265 196.606 82.5341 196.006 81.7845C195.748 82.2672 195.416 82.7239 195.122 83.1852C194.834 83.6364 194.552 84.0898 194.286 84.5541C193.718 85.5463 193.219 86.5584 192.829 87.633C192.808 87.6919 192.713 87.6613 192.737 87.6049C193.181 86.571 193.631 85.5314 194.14 84.527Z" fill="#263238"/>
<path d="M175.781 88.9464C177.275 87.4476 179.013 85.4801 181.322 85.4839C183.552 85.4877 185.193 87.2829 186.135 89.1345C187.121 91.071 187.475 93.2648 187.753 95.397C188.087 97.9497 188.271 100.523 188.344 103.096C188.385 104.526 188.379 105.957 188.344 107.387C188.308 108.829 188.273 110.292 188.016 111.715C187.974 111.946 187.604 111.955 187.59 111.705C187.523 110.502 187.571 109.292 187.578 108.088C187.585 106.901 187.566 105.715 187.522 104.529C187.435 102.13 187.26 99.735 186.978 97.3511C186.732 95.2691 186.537 93.1282 185.914 91.1166C185.352 89.3027 184.298 87.2277 182.459 86.4309C179.949 85.3434 177.497 87.3296 175.855 89.0075C175.812 89.0516 175.737 88.9902 175.781 88.9464Z" fill="#263238"/>
<path d="M168.156 92.2957V92.2989C168.167 92.6052 168.185 92.908 168.206 93.2041C168.888 92.7244 169.745 92.2884 170.655 92.1894C172.776 91.964 172.641 93.5767 171.224 93.6445C169.872 93.709 168.966 93.9382 168.313 94.2276C168.659 97.0288 169.43 99.2804 169.545 99.311C169.661 99.3382 172.254 99.1522 175.15 98.6026C174.623 97.4787 173.422 95.9851 174.033 95.8646C174.661 95.7399 175.315 97.0734 175.654 98.5001C177.051 98.2181 178.49 97.849 179.731 97.3783C178.798 96.5706 177.356 95.5652 177.907 95.1375C178.457 94.7062 179.603 96.1241 180.288 97.1526C180.97 96.862 181.575 96.5362 182.05 96.1706C180.793 94.324 177.729 93.9479 178.129 92.6128C178.537 91.2515 181.395 93.1294 182.683 95.6015C184.195 94.034 184.637 91.8154 184.478 89.9197C183.162 89.767 180.628 90.0447 180.812 89.0989C180.984 88.1993 182.825 88.3333 184.324 88.8855C184.139 88.0258 183.827 87.2932 183.444 86.802C182.057 85.0203 177.822 87.2859 177.822 87.2859C177.822 87.2859 178.275 83.0297 176.66 82.2939C175.729 81.8713 174.087 81.8748 172.439 82.8449C173.363 82.9216 174.481 83.2142 174.929 83.8555C175.504 84.6736 174.598 85.1184 174.021 84.7411C173.617 84.473 172.858 83.6309 171.491 83.52C170.961 83.96 170.442 84.5201 169.963 85.2124C169.806 85.432 169.661 85.6644 169.516 85.9161C170.848 85.3628 172.61 85.0795 174.473 86.0058C176.309 86.9174 175.284 88.8238 173.704 88.083C172.141 87.3513 170.62 86.614 168.946 87.0336C168.331 88.4507 168.127 90.1288 168.141 91.7801C168.769 91.3257 169.696 90.7817 170.86 90.4748C172.685 89.9959 173.237 91.086 171.232 91.2895C169.958 91.4194 168.887 91.8852 168.156 92.2957ZM170.376 89.3655C170.25 88.7739 171.545 88.6046 171.76 89.084C171.94 89.4931 170.499 89.9571 170.376 89.3655ZM181.451 92.6403C181.572 92.3176 182.439 92.6844 182.36 93.0865C182.252 93.624 181.332 92.9626 181.451 92.6403ZM175.337 94.7149C175.968 94.4629 176.954 96.0319 176.265 96.3913C175.577 96.7505 174.821 94.9223 175.337 94.7149Z" fill="#FCA311"/>
<path d="M169.793 98.9879C170.744 97.3976 171.684 95.7986 172.683 94.2373C173.148 93.5099 173.635 92.7975 174.141 92.0981C174.064 92.0826 173.989 92.0604 173.914 92.0447C173.789 92.0181 173.662 91.9939 173.536 91.9717C173.244 91.9209 172.949 91.8785 172.654 91.8487C172.376 91.8204 172.098 91.8055 171.819 91.802C171.528 91.7985 171.211 91.7886 170.926 91.849C170.89 91.8566 170.885 91.8003 170.919 91.8017C171.216 91.8134 171.52 91.7746 171.818 91.7702C172.107 91.7661 172.397 91.7737 172.685 91.7909C172.956 91.807 173.226 91.8338 173.494 91.8753C173.642 91.8981 173.79 91.9241 173.937 91.9533C174.025 91.9708 174.118 91.9831 174.205 92.0096C174.72 91.3012 175.255 90.6066 175.807 89.9265C174.139 89.1603 172.424 88.5293 170.6 88.2647C170.57 88.2604 170.581 88.2131 170.612 88.218C172.429 88.5083 174.251 88.9778 175.895 89.8202C176.199 89.4473 176.505 89.0756 176.812 88.7057C177.156 88.2919 177.524 87.8878 177.836 87.4483C177.856 87.4197 177.898 87.4515 177.874 87.4766C177.442 87.9374 177.052 88.4461 176.667 88.9544C176.67 88.9556 176.673 88.9539 176.676 88.9559C177.363 89.4152 177.994 89.9633 178.612 90.5108C179.244 91.0717 179.862 91.6516 180.462 92.2473C180.484 92.2692 180.451 92.3043 180.429 92.2824C179.836 91.6928 179.221 91.1304 178.578 90.5958C177.935 90.0617 177.259 89.5714 176.612 89.0426C176.609 89.04 176.61 89.0359 176.607 89.033C176.46 89.2283 176.313 89.4234 176.164 89.6155C176.089 89.7125 176.015 89.8106 175.941 89.9078C175.937 89.9166 175.931 89.9221 175.924 89.9288C175.677 90.2509 175.43 90.5736 175.186 90.898C175.485 91.2992 175.707 91.7731 175.921 92.2243C176.134 92.6731 176.32 93.1368 176.491 93.6031C176.844 94.5687 177.082 95.5761 177.284 96.5829C177.29 96.6133 177.243 96.627 177.238 96.5967C177.047 95.5945 176.733 94.6277 176.372 93.6752C176.187 93.1887 175.977 92.7145 175.76 92.2418C175.562 91.8117 175.323 91.3982 175.138 90.9631C174.924 91.2469 174.712 91.5313 174.503 91.8184C174.443 91.9019 174.384 91.9872 174.324 92.071C174.333 92.0896 174.328 92.1136 174.304 92.1148C174.3 92.115 174.297 92.1142 174.294 92.1145C173.64 93.027 173.018 93.9608 172.413 94.9057C172.454 94.9664 172.472 95.0415 172.496 95.1124C172.535 95.2272 172.571 95.3428 172.605 95.459C172.673 95.6923 172.728 95.928 172.771 96.1671C172.812 96.3914 172.844 96.6174 172.866 96.8443C172.891 97.0942 172.867 97.3705 172.923 97.6143C172.932 97.6525 172.87 97.6552 172.877 97.6155C172.914 97.3883 172.856 97.1237 172.824 96.8971C172.789 96.6516 172.743 96.4074 172.687 96.166C172.635 95.9473 172.577 95.7297 172.512 95.5148C172.479 95.4071 172.444 95.2999 172.407 95.1939C172.388 95.1378 172.36 95.0783 172.341 95.0181C172.058 95.4622 171.777 95.9078 171.501 96.3563C170.954 97.2458 170.411 98.1378 169.865 99.0279C169.837 99.0722 169.765 99.0334 169.793 98.9879Z" fill="#263238"/>
<path d="M184.462 111.201C184.487 110.3 184.63 109.392 184.727 108.496C184.825 107.595 184.927 106.695 185.023 105.795C185.208 104.059 185.312 102.285 185.72 100.583C186.071 99.1193 186.716 97.7171 187.84 96.6854C188.409 96.1636 189.132 95.7356 189.92 95.6929C190.725 95.6494 191.467 95.928 192.127 96.3736C192.879 96.8808 193.459 97.6003 193.984 98.33C194.525 99.0822 195.004 99.8592 195.432 100.681C195.448 100.712 195.399 100.731 195.382 100.702C194.592 99.3324 193.503 98.1507 192.25 97.1921C191.673 96.7506 191.011 96.4194 190.276 96.3692C189.547 96.3193 188.897 96.6673 188.361 97.1328C187.31 98.0465 186.702 99.3905 186.339 100.71C185.91 102.275 185.771 103.921 185.557 105.525C185.429 106.479 185.308 107.433 185.182 108.386C185.056 109.335 184.977 110.308 184.776 111.244C184.733 111.445 184.457 111.403 184.462 111.201Z" fill="#263238"/>
<path d="M188.896 104.201C189.156 104.564 189.488 104.895 189.877 105.203C189.728 104.323 189.549 102.76 189.993 101.928C190.682 100.636 191.499 101.281 191.088 102.404C190.496 104.008 190.418 105.091 190.424 105.589C191.298 106.164 192.353 106.629 193.418 107.001C193.324 106.569 193.264 106.032 193.32 105.46C193.457 104.079 194.515 104.104 194.24 105.542C194.119 106.163 194.094 106.761 194.095 107.229C196.508 107.986 198.761 108.282 198.761 108.282C199.659 107.085 200.289 105.936 200.692 104.844C199.568 104.562 197.291 104.498 197.34 103.695C197.405 102.613 199.61 103.446 200.9 104.23C201.217 103.195 201.329 102.218 201.289 101.321C200.786 101.156 199.854 100.951 198.189 100.807C195.873 100.607 195.987 99.2944 197.665 99.3247C198.903 99.3475 200.469 100.105 201.211 100.499C200.728 97.3502 198.325 95.3316 196.399 95.2548C193.161 95.124 194.326 99.1539 194.326 99.1539C194.326 99.1539 192.133 97.6098 190.062 97.6507C187.996 97.6951 186.682 101.121 188.896 104.201ZM197.544 98.376C197.472 97.9228 198.917 97.8139 198.993 98.3956C199.079 99.0485 197.618 98.8377 197.544 98.376ZM199.87 103.103C199.84 102.807 200.464 102.755 200.605 103.129C200.699 103.372 199.895 103.396 199.87 103.103ZM192.094 103.379C192.583 103.448 192.86 105.193 192.02 105.159C191.379 105.132 191.681 103.32 192.094 103.379Z" fill="#FCA311"/>
<path d="M192.77 105.317C192.85 105.1 192.922 104.879 192.991 104.658C192.928 104.882 192.871 105.107 192.83 105.334C192.821 105.378 192.753 105.361 192.77 105.317Z" fill="#263238"/>
<path d="M193.624 102.513C193.776 102.065 193.946 101.623 194.12 101.184C194.213 100.95 194.309 100.717 194.412 100.487C194.499 100.293 194.571 100.072 194.701 99.9024C194.601 99.717 194.508 99.529 194.439 99.3374C194.432 99.319 194.455 99.305 194.468 99.3202C194.715 99.6087 194.906 99.9713 195.099 100.298C195.189 100.451 195.275 100.606 195.363 100.76C195.545 100.771 195.73 100.812 195.908 100.845C196.102 100.881 196.295 100.92 196.488 100.964C196.681 101.007 196.873 101.051 197.065 101.098C197.255 101.143 197.445 101.207 197.639 101.236C197.684 101.243 197.666 101.313 197.623 101.296C197.431 101.219 197.219 101.182 197.017 101.139C196.831 101.098 196.645 101.066 196.456 101.039C196.268 101.011 196.079 100.988 195.891 100.969C195.749 100.955 195.605 100.948 195.462 100.935C195.54 101.07 195.62 101.205 195.695 101.342C195.707 101.364 195.717 101.386 195.729 101.407C195.885 101.395 196.041 101.435 196.194 101.462C196.362 101.492 196.528 101.524 196.694 101.561C197.032 101.635 197.369 101.715 197.702 101.808C198.403 102.004 199.095 102.228 199.786 102.454C199.824 102.466 199.8 102.525 199.762 102.511C199.076 102.277 198.375 102.09 197.669 101.931C197.337 101.856 197.007 101.78 196.674 101.711C196.508 101.676 196.341 101.64 196.175 101.604C196.046 101.577 195.912 101.562 195.788 101.519C196.144 102.177 196.48 102.846 196.788 103.528C197.459 105.014 198.025 106.545 198.601 108.07C198.615 108.108 198.556 108.132 198.543 108.094C198.005 106.571 197.325 105.104 196.614 103.655C196.485 103.391 196.352 103.13 196.221 102.867C196.21 102.92 196.197 102.974 196.187 103.028C196.153 103.208 196.121 103.388 196.091 103.568C196.03 103.93 195.968 104.291 195.914 104.653C195.805 105.386 195.628 106.16 195.653 106.903C195.655 106.95 195.584 106.948 195.591 106.903C195.649 106.545 195.649 106.17 195.672 105.808C195.695 105.429 195.723 105.05 195.767 104.673C195.809 104.309 195.856 103.945 195.916 103.584C195.946 103.403 195.978 103.223 196.011 103.043C196.035 102.912 196.041 102.764 196.113 102.651C195.923 102.271 195.735 101.889 195.543 101.51C195.363 101.154 195.181 100.799 194.996 100.446C194.918 100.297 194.833 100.146 194.75 99.9938C194.703 100.181 194.607 100.362 194.535 100.539C194.452 100.743 194.369 100.947 194.285 101.152C194.099 101.603 193.927 102.06 193.754 102.516C193.509 103.164 193.239 103.827 193.037 104.502C193.235 103.839 193.403 103.166 193.624 102.513Z" fill="#263238"/>
<path d="M192.99 104.658C193.005 104.605 193.021 104.553 193.037 104.501C193.022 104.553 193.006 104.605 192.99 104.658Z" fill="#263238"/>
<path d="M179.049 112.225L179.862 135.309H192.68L193.494 112.225H179.049Z" fill="#37474F"/>
<path d="M179.049 112.225L179.17 115.661L193.388 115.225L193.494 112.225H179.049Z" fill="#263238"/>
<path d="M178.22 114.174H194.323V110.276H178.22V114.174Z" fill="#37474F"/>
<path d="M187.414 112.715H169.574V135.309H187.414V112.715Z" fill="#DBDBDB"/>
<path d="M187.835 115.348H169.152V115.661H187.835V115.348Z" fill="#C7C7C7"/>
<path d="M187.835 116.102H169.152V116.415H187.835V116.102Z" fill="#C7C7C7"/>
<path d="M187.835 116.856H169.152V117.17H187.835V116.856Z" fill="#C7C7C7"/>
<path d="M187.835 130.849H169.152V131.163H187.835V130.849Z" fill="#C7C7C7"/>
<path d="M187.835 131.604H169.152V131.917H187.835V131.604Z" fill="#C7C7C7"/>
<path d="M187.835 132.358H169.152V132.672H187.835V132.358Z" fill="#C7C7C7"/>
<path d="M182.293 121.554C178.645 121.554 175.334 119.175 173.199 117.179C170.897 115.027 169.428 112.844 169.414 112.822L169.735 112.607C169.792 112.693 175.537 121.168 182.293 121.168C183.996 121.168 185.297 120.629 186.161 119.565C188.119 117.154 187.234 112.798 187.225 112.755L187.603 112.675C187.642 112.861 188.535 117.252 186.461 119.808C185.521 120.967 184.118 121.554 182.293 121.554Z" fill="#263238"/>
<path d="M174.154 112.715H183.369C183.369 112.715 183.144 113.518 182.165 113.855C181.186 114.192 181.25 117.038 179.348 117.038C177.447 117.038 176.548 114.304 176.098 113.823C175.649 113.341 174.154 112.715 174.154 112.715Z" fill="#FCA311"/>
<path d="M63.3658 112.715H45.5264V135.309H63.3658V112.715Z" fill="#DBDBDB"/>
<path d="M63.7875 115.348H45.1045V115.661H63.7875V115.348Z" fill="#C7C7C7"/>
<path d="M63.7875 116.102H45.1045V116.415H63.7875V116.102Z" fill="#C7C7C7"/>
<path d="M63.7875 116.856H45.1045V117.17H63.7875V116.856Z" fill="#C7C7C7"/>
<path d="M63.7875 130.849H45.1045V131.163H63.7875V130.849Z" fill="#C7C7C7"/>
<path d="M63.7875 131.604H45.1045V131.917H63.7875V131.604Z" fill="#C7C7C7"/>
<path d="M63.7875 132.358H45.1045V132.672H63.7875V132.358Z" fill="#C7C7C7"/>
<path d="M58.2447 121.554C54.5967 121.554 51.2863 119.175 49.1512 117.179C46.8494 115.027 45.3803 112.844 45.3657 112.822L45.6869 112.607C45.7439 112.693 51.4893 121.168 58.2447 121.168C59.9479 121.168 61.2496 120.629 62.1128 119.565C64.0715 117.154 63.1859 112.798 63.1768 112.755L63.5547 112.675C63.5938 112.861 64.4876 117.252 62.4133 119.808C61.473 120.967 60.0703 121.554 58.2447 121.554Z" fill="#263238"/>
<path d="M130.929 135.439L131.085 133.92L83.0349 128.993L82.8792 130.512L130.929 135.439Z" fill="#263238"/>
<path d="M83.8601 129.707L80.0924 129.321L80.8063 122.378L75.8339 121.869L75.5308 124.827L75.8163 124.856L76.0899 122.183L80.4918 122.634L79.7779 129.577L83.8309 129.993L83.8601 129.707Z" fill="#C7C7C7"/>
<path d="M88.4551 131.383L88.6689 129.295L82.4677 128.66L82.2539 130.748L88.4551 131.383Z" fill="#455A64"/>
<path d="M77.6081 135.412L78.8652 123.151L73.4632 122.597L72.206 134.858L77.6081 135.412Z" fill="#FCA311"/>
<path opacity="0.3" d="M77.6081 135.412L78.8652 123.151L73.4632 122.597L72.206 134.858L77.6081 135.412Z" fill="white"/>
<path d="M72.6437 131.985C73.4265 132.255 74.6074 129.499 74.5942 126.973C74.5901 126.192 74.4266 125.751 74.8503 125.487C75.2743 125.222 76.0922 125.283 75.9374 124.721C75.7824 124.159 75.0308 124.284 74.869 123.875C74.7072 123.465 74.7452 123.412 74.4999 123.212C74.2546 123.013 73.7057 122.788 73.4826 122.997C73.2598 123.205 73.2808 124.388 73.1812 125.142C73.0819 125.896 72.2448 131.848 72.6437 131.985Z" fill="#FCA311"/>
<path d="M63.1075 114.81C63.1075 114.81 64.1757 118.372 65.4444 122.011C66.7131 125.65 67.84 134.008 67.604 134.224C67.3681 134.441 64.5512 126.315 63.7385 122.602C62.9256 118.89 62.3428 115.08 62.3428 115.08L63.1075 114.81Z" fill="#FCA311"/>
<path d="M63.1253 114.72L63.9733 117.14L62.6251 117.468L62.2192 114.975L63.1253 114.72Z" fill="#DBDBDB"/>
<path d="M63.1253 114.72C63.2701 114.208 63.2923 113.599 62.8052 112.902C62.2172 112.061 62.3886 111.407 62.3886 111.407C62.3886 111.407 60.8725 113.35 62.2192 114.975L63.1253 114.72Z" fill="#455A64"/>
<path d="M62.4024 111.31C62.4789 111.433 62.3224 112.044 62.6062 112.522C62.8737 112.972 61.4978 113.714 61.6117 112.996C61.7416 112.179 62.2617 111.084 62.4024 111.31Z" fill="#FCA311"/>
<path d="M69.7533 116.896C69.7533 116.896 68.7208 119.779 67.5204 122.717C66.3197 125.654 65.0319 132.479 65.2165 132.667C65.4013 132.855 68.0687 126.294 68.8977 123.276C69.7264 120.258 70.3706 117.15 70.3706 117.15L69.7533 116.896Z" fill="#A6A6A6"/>
<path d="M69.7423 116.821L68.9404 118.774L70.0348 119.102L70.4763 117.069L69.7423 116.821Z" fill="#DBDBDB"/>
<path d="M69.7427 116.821C69.8589 115.213 71.1349 113.903 71.1349 113.903C71.1349 113.903 71.6547 115.791 70.4771 117.069L69.7427 116.821Z" fill="#455A64"/>
<path d="M66.5767 113.114C66.5767 113.114 66.9844 116.149 67.545 119.273C68.1057 122.397 67.9401 129.34 67.7202 129.485C67.5003 129.631 66.2614 122.657 66.0812 119.532C65.9008 116.408 65.92 113.234 65.92 113.234L66.5767 113.114Z" fill="#37474F"/>
<path d="M66.603 113.043L66.9791 115.121L65.8406 115.213L65.833 113.133L66.603 113.043Z" fill="#DBDBDB"/>
<path d="M65.8329 113.133C65.8329 113.133 66.5623 113.06 66.6029 113.043C66.6435 113.027 67.1893 110.935 67.1437 110.877C67.0982 110.818 64.6889 111.156 64.7017 111.383C64.7149 111.611 65.8329 113.133 65.8329 113.133Z" fill="#455A64"/>
<path d="M69.0242 135.309H63.0858C62.3794 135.309 61.8071 134.736 61.8071 134.03V125.89C61.8071 125.184 62.3797 124.612 63.0858 124.612H69.0242C69.7305 124.612 70.3029 125.184 70.3029 125.89V134.03C70.3029 134.736 69.7303 135.309 69.0242 135.309Z" fill="#455A64"/>
<path d="M69.2305 122.923H62.8789V124.611H69.2305V122.923Z" fill="#455A64"/>
<path d="M63.2689 124.574C64.745 124.502 68.3596 124.498 68.8479 124.579C68.8587 124.581 68.8587 124.599 68.8479 124.601C68.3596 124.681 64.9891 124.783 63.2689 124.605C63.2491 124.603 63.2488 124.575 63.2689 124.574Z" fill="#263238"/>
<path d="M112.886 135.267C113.634 135.52 135.629 135.459 136.445 134.935C136.54 134.882 136.735 127.6 136.735 127.6C136.706 127.498 137.058 126.788 137.596 125.802C139.102 123.031 142.057 118.063 142.057 118.063L128.92 114.411L123.801 125.268L122.497 128.038C122.497 128.038 119.526 129.277 116.938 130.504C116.935 130.508 116.931 130.508 116.931 130.511C115.337 131.264 113.951 131.952 113.63 132.205C112.803 132.87 112.138 135.022 112.886 135.267Z" fill="#AD6359"/>
<path d="M112.886 135.267C113.634 135.52 135.629 135.459 136.445 134.935C136.54 134.882 136.735 127.6 136.735 127.6C136.706 127.497 137.058 126.788 137.596 125.802L123.801 125.268L122.497 128.038C122.497 128.038 119.526 129.277 116.938 130.504C116.935 130.508 116.931 130.508 116.931 130.511C115.337 131.264 113.951 131.952 113.63 132.205C112.803 132.87 112.138 135.022 112.886 135.267Z" fill="#EBEBEB"/>
<path d="M112.796 135.352C113.566 135.605 135.588 135.487 136.425 134.952C136.744 134.751 137.056 131.354 136.734 127.601L122.536 127.693C122.536 127.693 114.399 131.511 113.544 132.196C112.694 132.882 112.025 135.098 112.796 135.352Z" fill="#FCA311"/>
<path opacity="0.1" d="M136.424 134.951C136.119 135.146 132.992 135.287 129.106 135.374L136.387 127.603L136.389 127.6L136.734 127.6C137.056 131.354 136.743 134.751 136.424 134.951Z" fill="white"/>
<path d="M113.107 134.469C116.798 134.359 131.695 134.262 135.352 134.433C135.382 134.435 135.382 134.455 135.352 134.456C131.696 134.646 116.798 134.622 113.107 134.529C113.029 134.528 113.029 134.471 113.107 134.469Z" fill="#263238"/>
<path d="M114.956 131.397C115.831 131.356 116.689 131.768 117.17 132.286C117.631 132.785 118.027 133.487 118.005 134.253C118.004 134.275 117.964 134.276 117.96 134.253C117.742 132.81 116.421 131.548 114.956 131.443C114.927 131.441 114.926 131.398 114.956 131.397Z" fill="#263238"/>
<path d="M121.38 128.069C122.858 128.041 124.574 128.553 125.498 129.757C125.534 129.804 125.467 129.854 125.423 129.831C124.084 129.15 122.811 128.644 121.356 128.251C121.253 128.224 121.275 128.072 121.38 128.069Z" fill="#263238"/>
<path d="M120.242 128.52C121.72 128.492 123.435 129.005 124.36 130.208C124.396 130.255 124.329 130.305 124.285 130.282C122.946 129.601 121.673 129.095 120.217 128.703C120.115 128.675 120.137 128.522 120.242 128.52Z" fill="#263238"/>
<path d="M119.104 128.971C120.581 128.943 122.297 129.455 123.222 130.659C123.258 130.705 123.191 130.755 123.147 130.733C121.807 130.051 120.535 129.545 119.079 129.153C118.977 129.126 118.998 128.973 119.104 128.971Z" fill="#263238"/>
<path d="M117.966 129.422C119.444 129.394 121.159 129.906 122.084 131.109C122.12 131.156 122.053 131.206 122.009 131.184C120.669 130.503 119.397 129.996 117.941 129.604C117.839 129.576 117.86 129.424 117.966 129.422Z" fill="#263238"/>
<path d="M134.393 130.932C136.051 130.928 136.06 133.504 134.4 133.508C132.742 133.513 132.733 130.936 134.393 130.932Z" fill="#263238"/>
<path d="M119.892 126.301C120.695 127.325 121.914 127.966 122.969 128.688C123.079 128.763 123.203 128.674 123.234 128.568C123.258 128.569 123.282 128.556 123.28 128.525C123.191 127.252 122.67 125.793 121.917 124.754C121.453 124.112 120.507 123.511 119.763 124.136C119.059 124.726 119.424 125.702 119.892 126.301ZM119.817 125.077C119.956 123.468 121.412 124.696 121.736 125.182C121.944 125.494 122.118 125.838 122.281 126.176C122.623 126.883 122.858 127.626 123.125 128.361C122.628 127.974 122.103 127.634 121.592 127.266C120.984 126.828 119.741 125.964 119.817 125.077Z" fill="#263238"/>
<path d="M128.522 127.555C128.402 126.591 127.3 126.388 126.523 126.542C125.265 126.791 123.89 127.506 122.958 128.378C122.935 128.399 122.944 128.425 122.963 128.44C122.913 128.539 122.944 128.689 123.075 128.709C124.34 128.898 125.669 129.257 126.954 129.053C127.705 128.934 128.637 128.467 128.522 127.555ZM125.051 128.604C124.427 128.526 123.81 128.418 123.183 128.363C123.879 128.006 124.556 127.622 125.288 127.336C125.637 127.2 125.999 127.066 126.364 126.979C126.932 126.842 128.835 126.934 127.841 128.207C127.294 128.909 125.796 128.697 125.051 128.604Z" fill="#263238"/>
<path d="M138.585 125.638L123.054 123.64C123.054 123.64 130.161 108.643 134.586 100.492C137.046 95.9601 144.047 95.5835 147.575 100.867C152.288 107.927 155.971 114.558 158.079 118.234L161.597 118.455L160.969 124.209L149.358 127.084C144.901 127.72 141.584 119.833 141.514 119.969C140.972 121.027 138.585 125.638 138.585 125.638Z" fill="#37474F"/>
<path d="M141.433 120.006C141.853 119.095 142.175 118.13 142.545 117.197C142.904 116.295 143.264 115.394 143.62 114.491C144.338 112.665 145.084 110.848 145.78 109.014C146.17 107.984 146.527 106.943 146.89 105.903C146.899 105.878 146.937 105.888 146.93 105.914C146.653 106.895 146.364 107.872 146.059 108.845C146.142 108.676 146.225 108.508 146.312 108.344C146.55 107.894 146.797 107.449 147.045 107.004C147.054 106.987 147.08 107.002 147.071 107.019C146.843 107.466 146.616 107.911 146.379 108.353C146.261 108.572 146.132 108.789 146.007 109.009C145.149 111.733 144.168 114.416 142.975 117.013C142.505 118.034 141.951 119.014 141.481 120.034C141.466 120.066 141.418 120.038 141.433 120.006Z" fill="#263238"/>
<path d="M138.178 122.894C138.898 121.725 140.597 118.2 141.207 116.98C142.439 114.514 143.562 112 144.619 109.454C145.217 108.016 145.773 106.566 146.324 105.109C146.327 105.099 146.343 105.103 146.34 105.113C145.521 107.734 144.534 110.305 143.457 112.828C142.378 115.356 138.868 122.178 138.226 122.922C138.202 122.949 138.159 122.924 138.178 122.894Z" fill="#263238"/>
<path d="M147.435 107.01C148.822 109.362 150.238 111.697 151.631 114.045C152.335 115.232 153.039 116.419 153.736 117.61C154.064 118.17 154.382 118.737 154.722 119.291C155.043 119.815 155.423 120.246 155.974 120.532C156.581 120.848 157.274 120.99 157.93 121.166C158.688 121.37 159.441 121.59 160.202 121.78C160.237 121.789 160.222 121.842 160.187 121.834C159.509 121.669 158.825 121.529 158.143 121.377C157.524 121.239 156.889 121.125 156.287 120.921C155.742 120.736 155.268 120.453 154.898 120.007C154.501 119.529 154.213 118.965 153.904 118.429C152.511 116.013 151.132 113.589 149.761 111.159C148.982 109.778 148.21 108.393 147.423 107.017C147.418 107.009 147.43 107.003 147.435 107.01Z" fill="#263238"/>
<path d="M138.889 123.458C137.957 123.31 137.006 123.251 136.068 123.152C135.127 123.052 134.187 122.952 133.246 122.851C131.37 122.648 124.98 121.777 124.496 121.629C124.465 121.619 124.475 121.57 124.505 121.568C124.96 121.544 129.143 122.005 130.081 122.122C131.957 122.355 133.823 122.645 135.694 122.917C136.228 122.995 136.761 123.084 137.294 123.167C137.827 123.249 138.36 123.351 138.896 123.408C138.929 123.411 138.921 123.463 138.889 123.458Z" fill="#263238"/>
<path d="M129.418 138.21C129.682 137.466 143.319 120.211 144.233 119.892C144.338 119.85 150.181 124.196 150.181 124.196C150.419 124.527 161.744 122.381 161.744 122.381L161.572 135.986L141.041 135.119C141.041 135.119 138.232 136.691 135.667 137.967C135.663 137.967 135.66 137.97 135.658 137.968C134.079 138.758 132.682 139.423 132.286 139.517C131.253 139.759 129.15 138.95 129.418 138.21Z" fill="#AD6359"/>
<path d="M132.285 139.517C132.683 139.424 134.079 138.759 135.657 137.967C135.66 137.971 135.663 137.967 135.667 137.967C138.231 136.692 141.04 135.117 141.04 135.117L145.609 135.312L153.008 123.914C151.431 124.159 150.256 124.301 150.18 124.195C150.18 124.195 144.339 119.849 144.234 119.893C143.32 120.211 129.683 137.466 129.419 138.21C129.151 138.951 131.252 139.761 132.285 139.517Z" fill="#EBEBEB"/>
<path d="M129.297 138.231C129.574 137.469 143.271 120.225 144.209 119.897C144.564 119.771 147.429 121.624 150.181 124.196L141.337 135.303C141.337 135.303 133.307 139.343 132.24 139.592C131.176 139.837 129.02 138.993 129.297 138.231Z" fill="#FCA311"/>
<path d="M130.183 138.532C132.55 135.697 141.83 124.043 143.954 121.061C143.971 121.037 143.956 121.024 143.936 121.047C141.529 123.805 132.344 135.534 130.136 138.494C130.089 138.557 130.133 138.592 130.183 138.532Z" fill="#263238"/>
<path d="M133.741 138.975C134.314 138.312 134.52 137.383 134.409 136.685C134.302 136.014 133.995 135.269 133.379 134.813C133.362 134.8 133.336 134.831 133.352 134.848C134.352 135.912 134.528 137.73 133.705 138.946C133.689 138.971 133.722 138.998 133.741 138.975Z" fill="#263238"/>
<path d="M140.327 135.979C141.262 134.835 141.919 133.169 141.544 131.699C141.529 131.642 141.449 131.663 141.439 131.712C141.147 133.186 140.759 134.499 140.169 135.886C140.127 135.984 140.26 136.061 140.327 135.979Z" fill="#263238"/>
<path d="M139.269 136.596C140.205 135.451 140.862 133.786 140.486 132.315C140.472 132.258 140.391 132.28 140.381 132.328C140.09 133.802 139.702 135.115 139.111 136.502C139.069 136.6 139.202 136.678 139.269 136.596Z" fill="#263238"/>
<path d="M138.212 137.212C139.147 136.068 139.804 134.402 139.429 132.932C139.414 132.875 139.333 132.897 139.324 132.945C139.032 134.419 138.644 135.733 138.053 137.12C138.012 137.217 138.144 137.294 138.212 137.212Z" fill="#263238"/>
<path d="M137.154 137.829C138.089 136.685 138.746 135.019 138.371 133.548C138.356 133.491 138.275 133.513 138.266 133.561C137.974 135.035 137.586 136.349 136.995 137.736C136.954 137.834 137.086 137.911 137.154 137.829Z" fill="#263238"/>
<path d="M146.115 123.978C147.142 122.677 145.122 121.079 144.093 122.382C143.066 123.683 145.086 125.282 146.115 123.978Z" fill="#263238"/>
<path d="M142.421 139.682C143.371 139.482 143.483 138.367 143.266 137.605C142.913 136.372 142.088 135.061 141.142 134.204C141.119 134.183 141.094 134.194 141.08 134.214C140.978 134.173 140.83 134.215 140.822 134.347C140.737 135.624 140.488 136.978 140.798 138.242C140.979 138.98 141.521 139.871 142.421 139.682ZM141.089 136.309C141.116 135.68 141.173 135.056 141.176 134.427C141.588 135.091 142.027 135.735 142.372 136.441C142.537 136.777 142.7 137.126 142.817 137.483C143 138.038 143.065 139.942 141.714 139.057C140.97 138.569 141.058 137.058 141.089 136.309Z" fill="#263238"/>
<path d="M142.996 130.989C142.042 131.873 141.503 133.14 140.87 134.252C140.804 134.367 140.904 134.484 141.012 134.506C141.013 134.531 141.027 134.553 141.058 134.549C142.32 134.355 143.731 133.716 144.705 132.88C145.306 132.364 145.827 131.373 145.144 130.682C144.497 130.029 143.554 130.473 142.996 130.989ZM144.21 130.814C145.824 130.819 144.721 132.372 144.263 132.735C143.969 132.968 143.64 133.169 143.317 133.359C142.641 133.758 141.92 134.053 141.209 134.381C141.554 133.854 141.85 133.302 142.174 132.763C142.561 132.12 143.32 130.81 144.21 130.814Z" fill="#263238"/>
<path d="M155.061 119.097C155.061 119.097 172.588 116.341 178.377 117.761C186.45 119.742 187.587 129.362 181.489 133.17C173.764 137.995 146.541 136.015 146.541 136.015L153.836 123.064C153.836 123.064 165.168 120.687 175.387 121.28L154.863 124.289L155.061 119.097Z" fill="#37474F"/>
<path d="M153.329 123.936C153.339 123.919 153.341 123.885 153.346 123.866C153.351 123.847 153.355 123.828 153.36 123.81C153.371 123.766 153.383 123.721 153.395 123.678C153.42 123.587 153.452 123.5 153.486 123.412C153.519 123.324 153.556 123.239 153.594 123.154C153.634 123.066 153.687 122.995 153.737 122.915C153.742 122.907 153.75 122.905 153.756 122.9C153.76 122.896 153.765 122.893 153.77 122.89C153.776 122.887 153.781 122.883 153.788 122.882C153.794 122.88 153.799 122.876 153.807 122.874C155.052 122.646 163.507 121.496 164.763 121.364C166.03 121.232 167.3 121.129 168.569 121.039C171.101 120.858 173.645 120.796 176.181 120.897C176.418 120.906 176.655 120.922 176.893 120.936C176.943 120.919 176.998 120.91 177.05 120.897C177.172 120.867 177.294 120.837 177.417 120.813C177.647 120.77 177.879 120.738 178.11 120.704C178.591 120.633 179.074 120.587 179.553 120.499C179.583 120.493 179.593 120.542 179.564 120.548C179.081 120.655 178.606 120.799 178.123 120.904C177.984 120.934 177.845 120.964 177.705 120.992C178.634 121.065 179.561 121.164 180.487 121.276C180.516 121.279 180.516 121.329 180.486 121.327C179.225 121.218 177.953 121.181 176.687 121.178C175.43 121.176 174.174 121.18 172.918 121.232C170.377 121.339 167.837 121.537 165.303 121.775C163.882 121.909 155.26 123.109 153.835 123.145C153.828 123.145 153.823 123.142 153.817 123.141C153.805 123.177 153.792 123.213 153.776 123.248C153.735 123.332 153.694 123.415 153.65 123.498C153.607 123.577 153.566 123.656 153.518 123.731C153.494 123.769 153.47 123.806 153.446 123.844C153.433 123.862 153.421 123.881 153.409 123.899C153.399 123.915 153.377 123.939 153.371 123.958C153.36 123.992 153.311 123.968 153.329 123.936Z" fill="#263238"/>
<path d="M150.419 135.131C150.85 134.386 151.221 133.589 151.618 132.819C152.016 132.048 152.414 131.276 152.813 130.505C153.61 128.967 156.461 123.799 156.74 123.439C156.757 123.416 156.792 123.443 156.783 123.47C156.645 123.872 154.861 127.296 154.451 128.06C153.631 129.586 152.772 131.081 151.924 132.588C151.682 133.018 151.431 133.442 151.186 133.87C150.941 134.297 150.68 134.717 150.454 135.157C150.44 135.183 150.403 135.157 150.419 135.131Z" fill="#263238"/>
<path d="M157.233 124.829C157.985 124.647 158.754 124.534 159.514 124.393C160.275 124.251 161.036 124.11 161.798 123.971C163.322 123.693 164.847 123.427 166.374 123.177C169.421 122.679 172.478 122.275 175.548 122.016C177.281 121.87 179.017 121.786 180.752 121.682C180.789 121.68 180.787 121.745 180.75 121.746C177.66 121.834 174.57 122.23 171.504 122.649C168.468 123.064 165.439 123.526 162.413 124.023C161.558 124.163 160.705 124.305 159.851 124.45C158.984 124.597 158.116 124.781 157.244 124.885C157.212 124.889 157.199 124.837 157.233 124.829Z" fill="#263238"/>
<path d="M163.797 88.3158C163.797 88.3158 163.008 86.7755 161.809 86.7842C160.611 86.793 160.392 87.6523 159.658 87.7201C158.925 87.7881 157.406 87.3922 156.579 88.1493C155.753 88.9062 155.913 90.6264 155.525 91.0985C155.137 91.5707 153.962 91.5353 153.605 92.7711C153.189 94.2063 153.919 95.1559 153.829 95.9086C153.679 97.1613 152.848 98.1094 153.348 99.6381C153.885 101.283 155.09 101.361 155.84 101.95C156.56 102.514 156.598 104.202 158.288 104.472C159.978 104.741 160.507 103.548 161.532 103.196C162.557 102.845 163.933 103.742 165.053 103.014C166.173 102.286 165.919 101.068 166.257 100.471C166.596 99.8737 167.452 99.9301 167.86 98.8634C168.268 97.7964 167.491 96.7286 167.455 96.2917C167.393 95.5445 167.859 95.1851 167.778 94.1219C167.697 93.0584 166.639 92.2221 166.441 91.8817C165.968 91.0638 166.602 89.5036 165.798 88.7234C164.777 87.7318 163.797 88.3158 163.797 88.3158Z" fill="#263238"/>
<path d="M156.072 89C155.937 89.7312 155.907 90.6369 155.174 91.0466C153.992 91.5454 153.131 92.4354 153.303 93.7903C153.348 94.2691 153.536 94.7232 153.687 95.2138C153.758 95.4587 153.826 95.7288 153.775 96.0147C153.709 96.2912 153.607 96.5044 153.524 96.7444C153.351 97.2107 153.208 97.6867 153.158 98.1776C153.098 98.6675 153.16 99.1704 153.348 99.6376C153.101 99.1972 153.003 98.6777 153.02 98.1679C153.038 97.416 153.335 96.6761 153.525 95.9721C153.564 95.2397 153.062 94.5848 153.014 93.8218C152.866 92.7674 153.431 91.6499 154.4 91.1993C154.627 91.0773 154.869 90.985 155.087 90.8831C155.783 90.5301 155.849 89.6807 156.072 89Z" fill="#263238"/>
<path d="M164.126 103.303C165.529 103.157 166.002 102.686 166.198 101.291C166.249 101.059 166.28 100.793 166.422 100.574C166.759 100.184 167.291 99.978 167.584 99.5759C167.999 99.0302 168.091 98.2184 167.875 97.5561C167.778 97.2025 167.63 96.8591 167.507 96.5076C167.691 96.8323 167.863 97.1611 168.011 97.5094C168.3 98.2111 168.261 99.1166 167.803 99.7456C167.56 100.065 167.233 100.29 166.936 100.502C166.787 100.612 166.649 100.704 166.605 100.834C166.219 102.416 166.059 103.386 164.126 103.303Z" fill="#263238"/>
<path d="M158.296 103.536C153.416 108.278 147.659 113.195 144.861 112.884C142.684 112.642 137.777 110.367 133.261 106.721C132.402 106.027 138.754 100.094 139.423 100.49C141.201 101.544 146.17 104.915 146.522 104.765C146.984 104.569 152.525 101.847 156.284 100.193C161.346 97.9676 160.819 101.084 158.296 103.536Z" fill="#AD6359"/>
<path d="M134.399 107.629C133.54 107.252 129.753 105.177 128.829 104.364C127.904 103.55 125.414 101.018 125.964 100.246C126.515 99.4753 127.303 100.159 127.303 100.159C127.303 100.159 126.421 98.9226 127.046 98.1967C127.671 97.471 128.863 98.5739 128.863 98.5739C128.863 98.5739 128.05 97.2386 128.725 96.5591C129.4 95.8799 130.413 97.1895 130.413 97.1895C130.413 97.1895 129.612 96.0031 130.404 95.6779C131.356 95.2863 132.586 97.6401 133.674 98.4612C133.921 98.6478 138.95 101.884 138.95 101.884L134.399 107.629Z" fill="#AD6359"/>
<path d="M130.324 97.0794C131.232 98.8084 131.928 99.4075 133.593 100.37C133.626 100.388 133.605 100.441 133.569 100.425C131.853 99.6309 130.871 99.0052 130.238 97.1191C130.207 97.0269 130.281 96.9971 130.324 97.0794Z" fill="#263238"/>
<path d="M128.794 98.4355C129.894 100.149 130.644 100.805 132.313 101.941C132.336 101.957 132.312 101.999 132.286 101.985C130.556 101.008 129.59 100.361 128.716 98.5047C128.676 98.4206 128.743 98.3572 128.794 98.4355Z" fill="#263238"/>
<path d="M127.39 100.214C128.575 101.796 129.366 102.551 131.128 103.446C131.17 103.467 131.143 103.529 131.099 103.512C129.214 102.775 128.22 101.839 127.346 100.255C127.287 100.147 127.316 100.114 127.39 100.214Z" fill="#263238"/>
<path d="M140.288 101.942C140.288 101.942 139.346 99.6835 138.714 98.7824C138.082 97.8816 134.488 95.3911 133.907 96.1366C133.155 97.099 134.946 98.9454 135.942 99.7349C135.942 99.7349 134.202 101.96 135.2 103.563C136.199 105.166 140.288 101.942 140.288 101.942Z" fill="#AD6359"/>
<path d="M133.787 96.4689C133.735 97.8407 135.108 98.7929 136.017 99.6313C136.086 99.6949 136.059 99.7732 135.999 99.8161C135.332 100.798 134.677 102.376 135.125 103.545C135.138 103.579 135.091 103.603 135.073 103.57C134.423 102.381 134.94 100.777 135.739 99.7495C134.795 98.9045 133.459 97.8892 133.773 96.4675C133.776 96.4596 133.787 96.4601 133.787 96.4689Z" fill="#263238"/>
<path d="M140.977 101.157L134.581 108.579C134.581 108.579 142.344 113.398 145.359 113.16C148.374 112.922 155.403 107.194 158.819 103.141C162.313 98.9949 159.069 98.7061 156.413 100.021C153.758 101.336 146.689 104.536 146.491 104.526C146.293 104.516 140.977 101.157 140.977 101.157Z" fill="#DBDBDB"/>
<path d="M139.759 105.786C140.186 105.272 140.614 104.759 141.046 104.249C141.476 103.742 141.893 103.21 142.358 102.734C142.379 102.712 142.42 102.737 142.402 102.764C142.043 103.296 141.622 103.797 141.225 104.303C140.804 104.84 140.379 105.375 139.953 105.908C139.109 106.963 138.227 107.983 137.327 108.991C137.304 109.016 137.272 108.983 137.291 108.958C138.09 107.882 138.903 106.821 139.759 105.786Z" fill="#263238"/>
<path opacity="0.1" d="M158.821 103.142C155.403 107.195 148.376 112.921 145.358 113.16C143.876 113.276 141.242 112.169 138.949 111.013L159.205 99.3359C160.54 99.4335 161.034 100.511 158.821 103.142Z" fill="white"/>
<path d="M151.114 111.917L149.519 117.252C149.519 117.252 150.204 117.342 152.47 117.622L152.677 117.643L167.465 119.213C167.465 119.213 164.778 104.839 162.414 101.609C160.536 99.0431 158.002 98.9327 156.217 100.377C155.765 100.743 151.299 105.914 150.382 108.252C149.849 109.612 151.114 111.917 151.114 111.917Z" fill="#DBDBDB"/>
<path d="M155.815 111.421C155.155 111.396 154.488 111.398 153.823 111.494C153.492 111.542 153.164 111.608 152.835 111.683C152.671 111.72 152.507 111.751 152.343 111.78C152.174 111.811 151.994 111.835 151.827 111.814C151.812 111.812 151.807 111.84 151.822 111.843C151.983 111.876 152.137 111.907 152.302 111.912C152.458 111.918 152.618 111.902 152.775 111.881C153.111 111.837 153.446 111.773 153.781 111.724C154.458 111.626 155.135 111.528 155.812 111.489C155.843 111.488 155.847 111.422 155.815 111.421Z" fill="#263238"/>
<path d="M157.294 112.41C156.774 112.253 156.238 112.124 155.703 112.043C155.433 112.001 155.163 111.98 154.89 111.968C154.76 111.961 154.629 111.959 154.498 111.957C154.354 111.956 154.209 111.979 154.065 111.975C154.05 111.975 154.045 112.003 154.06 112.004C154.195 112.013 154.328 112.049 154.462 112.068C154.596 112.086 154.731 112.103 154.866 112.122C155.135 112.159 155.403 112.199 155.673 112.233C156.213 112.3 156.749 112.375 157.285 112.465C157.314 112.47 157.32 112.418 157.294 112.41Z" fill="#263238"/>
<path d="M160.25 100.284C160.133 100.594 158.33 102.466 156.877 102.203C156.404 102.116 156.762 99.514 156.762 99.514L156.744 99.3158L156.5 96.5421L159.935 94.9334L160.428 94.7258C160.428 94.7258 160.445 95.4891 160.456 96.4399C160.457 96.484 160.457 96.5281 160.457 96.5754C160.459 96.6291 160.462 96.6799 160.461 96.7301C160.465 96.872 160.468 97.0172 160.468 97.1617C160.468 97.2718 160.469 97.3787 160.466 97.494C160.465 97.6099 160.461 97.7226 160.461 97.8386C160.428 98.9809 160.298 100.152 160.25 100.284Z" fill="#AD6359"/>
<path d="M160.455 96.4396C159.398 98.4807 157.569 99.1263 156.744 99.3158L156.5 96.5421L159.934 94.9334L160.427 94.7258C160.427 94.7258 160.444 95.4888 160.455 96.4396Z" fill="#263238"/>
<path d="M154.62 90.4796C151.979 94.5913 154.144 96.6376 155.031 97.2061C155.836 97.7224 158.644 99.3772 161.696 95.5604C164.748 91.7437 163.671 89.2158 161.891 87.9381C160.112 86.6603 157.261 86.368 154.62 90.4796Z" fill="#AD6359"/>
<path d="M155.73 90.1676C155.834 90.2184 155.94 90.2479 156.049 90.2876C156.172 90.3322 156.265 90.3804 156.398 90.3477C156.469 90.3302 156.524 90.2373 156.513 90.1667C156.489 90.002 156.352 89.91 156.206 89.8499C156.047 89.7847 155.909 89.7754 155.745 89.825C155.587 89.8732 155.591 90.1004 155.73 90.1676Z" fill="#263238"/>
<path d="M158.625 91.9037C158.535 91.8302 158.464 91.7472 158.382 91.6649C158.289 91.5723 158.206 91.5081 158.18 91.374C158.166 91.3022 158.227 91.2135 158.295 91.1933C158.455 91.146 158.597 91.2313 158.712 91.3381C158.838 91.4541 158.905 91.5758 158.93 91.7449C158.953 91.909 158.745 92.001 158.625 91.9037Z" fill="#263238"/>
<path d="M157.508 92.3259C157.518 92.3168 157.521 92.3542 157.512 92.365C157.308 92.6319 157.118 92.9724 157.3 93.2404C157.306 93.2486 157.295 93.2617 157.287 93.2541C157.016 92.9954 157.272 92.546 157.508 92.3259Z" fill="#263238"/>
<path d="M157.957 92.2154C158.421 92.4972 157.823 93.4036 157.393 93.1425C156.971 92.8855 157.569 91.9792 157.957 92.2154Z" fill="#263238"/>
<path d="M158.104 92.3808C158.149 92.4842 158.167 92.6258 158.256 92.6982C158.359 92.782 158.505 92.742 158.638 92.6985C158.651 92.6938 158.654 92.707 158.646 92.7192C158.534 92.8947 158.35 93.0287 158.147 92.9318C157.961 92.8433 157.941 92.6091 158.012 92.4059C158.026 92.3682 158.085 92.339 158.104 92.3808Z" fill="#263238"/>
<path d="M155.947 91.134C155.951 91.1217 155.916 91.134 155.909 91.146C155.744 91.4394 155.506 91.7475 155.188 91.6856C155.178 91.6835 155.17 91.6984 155.181 91.7031C155.526 91.8503 155.838 91.4383 155.947 91.134Z" fill="#263238"/>
<path d="M155.872 90.6779C155.43 90.3628 154.833 91.2692 155.242 91.5612C155.644 91.8485 156.242 90.9422 155.872 90.6779Z" fill="#263238"/>
<path d="M155.644 90.6132C155.54 90.6141 155.412 90.6547 155.323 90.6039C155.219 90.5449 155.211 90.3986 155.209 90.2628C155.209 90.2488 155.197 90.2517 155.189 90.2634C155.07 90.4336 155.008 90.6518 155.152 90.7945C155.284 90.9251 155.494 90.8497 155.649 90.7046C155.677 90.6774 155.685 90.6126 155.644 90.6132Z" fill="#263238"/>
<path d="M155.9 94.6497C155.792 94.6795 155.669 94.7355 155.557 94.6853C155.45 94.6371 155.356 94.5244 155.282 94.4359C155.275 94.4272 155.26 94.4318 155.261 94.4438C155.275 94.5989 155.396 94.7589 155.546 94.8106C155.692 94.8611 155.822 94.7825 155.922 94.6786C155.935 94.6643 155.916 94.6453 155.9 94.6497Z" fill="#263238"/>
<path d="M155.361 92.8713C155.361 92.8713 155.034 93.2588 154.908 93.4591C154.896 93.4778 154.939 93.5175 155.004 93.5645C155.007 93.5674 155.008 93.57 155.012 93.5697C155.331 93.8483 155.764 93.9514 156.161 93.7984C156.188 93.7876 156.175 93.7508 156.149 93.7516C155.763 93.7788 155.439 93.6445 155.122 93.4515C155.143 93.3869 155.704 92.8064 155.674 92.784C155.57 92.7054 155.308 92.6438 155.154 92.5997C155.812 91.7725 156.596 91.0577 157.239 90.224C157.261 90.1939 157.222 90.1557 157.195 90.1782C156.319 90.8693 155.541 91.8046 154.84 92.6415C154.752 92.7445 155.259 92.8546 155.361 92.8713Z" fill="#263238"/>
<path d="M155.071 93.5027C155.071 93.5027 155.077 93.8896 155.268 94.1649C155.338 94.2666 155.43 94.353 155.557 94.4012C155.817 94.501 155.967 94.3039 156.05 94.1033C156.119 93.9386 156.141 93.7699 156.141 93.7699C156.141 93.7699 155.607 93.8394 155.071 93.5027Z" fill="#263238"/>
<path d="M155.268 94.165C155.338 94.2666 155.43 94.353 155.557 94.4012C155.817 94.501 155.967 94.3039 156.05 94.1033C155.798 93.9588 155.452 93.9512 155.268 94.165Z" fill="#FF9CBD"/>
<path d="M161.136 95.6262C160.286 95.2828 161.099 93.3506 161.099 93.3506C161.099 93.3506 158.038 90.8864 159.291 87.9726C159.291 87.9726 157.73 89.4037 155.515 89.2074C155.515 89.2074 157.321 86.2547 160.042 87.0066C160.042 87.0066 163.616 87.5865 163.968 90.8768C164.32 94.167 161.706 95.8569 161.136 95.6262Z" fill="#263238"/>
<path d="M159.393 87.7622C159.113 88.157 158.934 88.6224 158.842 89.1037C158.75 89.5849 158.747 90.0903 158.858 90.5724C158.876 90.6951 158.926 90.8095 158.958 90.9284L159.014 91.105C159.037 91.162 159.063 91.218 159.089 91.2738C159.142 91.3848 159.19 91.4983 159.247 91.607C159.311 91.7118 159.377 91.8152 159.445 91.9174C159.478 91.9682 159.51 92.0207 159.546 92.0701L159.662 92.2111L159.896 92.4914C160.068 92.6626 160.249 92.8246 160.43 92.982C160.283 92.7887 160.12 92.6138 159.978 92.4222L159.774 92.1294L159.672 91.9837C159.642 91.9328 159.616 91.8797 159.587 91.828C159.532 91.7235 159.476 91.6201 159.417 91.5182C159.367 91.4119 159.326 91.3018 159.28 91.1941L159.212 91.0323L159.162 90.8641C159.134 90.7511 159.087 90.6422 159.072 90.526C158.961 90.0708 158.958 89.5966 159.007 89.1296C159.033 88.8955 159.082 88.6636 159.147 88.435C159.208 88.2049 159.292 87.9812 159.393 87.7622Z" fill="#263238"/>
<path d="M160.658 95.1335C160.658 95.1335 162.312 94.2803 162.748 94.9393C163.183 95.5983 161.444 97.1816 160.584 97.0706C159.724 96.9599 159.811 96.1619 159.811 96.1619L160.658 95.1335Z" fill="#AD6359"/>
<path d="M162.238 95.3808C162.25 95.3857 162.244 95.4032 162.232 95.4018C161.62 95.3408 161.109 95.6687 160.667 96.0556C160.916 95.9478 161.173 95.9531 161.33 96.2632C161.338 96.2795 161.314 96.2933 161.302 96.283C161.119 96.13 160.951 96.0877 160.724 96.1797C160.564 96.2448 160.418 96.3572 160.276 96.4553C160.229 96.488 160.16 96.4212 160.205 96.3782C160.208 96.375 160.212 96.3721 160.215 96.3689C160.541 95.7186 161.514 95.0821 162.238 95.3808Z" fill="#263238"/>
<path d="M156.66 100.032C156.66 100.032 153.018 105 153.088 105.305C153.159 105.61 156.034 106.117 156.42 105.996C156.805 105.874 160.25 100.284 160.25 100.284L156.66 100.032Z" fill="#AD6359"/>
<path d="M127.691 110.42C125.806 107.906 125.096 104.781 125.562 101.046L129.198 71.9057C129.223 71.7075 129.313 71.5475 129.47 71.4254C129.626 71.3039 129.803 71.2549 130.003 71.2797L136.975 72.1496C137.173 72.1744 137.333 72.2652 137.455 72.4217C137.577 72.5785 137.625 72.7558 137.601 72.954L133.861 102.929C133.703 104.2 133.891 105.273 134.428 106.146C134.964 107.021 135.749 107.522 136.782 107.651C137.815 107.779 138.688 107.486 139.404 106.767C140.119 106.05 140.556 105.055 140.714 103.784L144.454 73.809C144.479 73.6107 144.569 73.4507 144.726 73.3287C144.882 73.2072 145.059 73.1581 145.258 73.183L152.23 74.0528C152.428 74.0776 152.588 74.1685 152.711 74.3247C152.832 74.4815 152.881 74.6587 152.856 74.857L149.221 103.997C148.755 107.732 147.299 110.587 144.854 112.561C142.408 114.535 139.418 115.302 135.882 114.861C132.307 114.415 129.576 112.935 127.691 110.42Z" fill="#FCA311"/>
<path d="M160.055 105.468C154.386 105.932 145.658 105.081 143.978 103.94C142.489 102.93 140.821 95.6259 140.315 92.4779C140.126 91.3 148.282 89.4697 148.459 90.7329C148.672 92.2487 149.42 98.006 149.769 98.2084C150.152 98.4306 156.456 100.463 160.65 102.129C164.451 103.64 162.2 105.293 160.055 105.468Z" fill="#AD6359"/>
<path d="M145.942 86.6885C146.25 87.1087 146.472 86.9498 146.504 86.0248C146.538 85.0886 145.874 81.4106 147.18 81.2888C148.49 81.1641 149.344 86.3848 149.174 87.9213C149.008 89.4587 148.19 91.8843 148.19 91.8843C147.819 90.902 146.694 88.6058 145.942 86.6885Z" fill="#AD6359"/>
<path d="M140.787 93.9122C139.756 91.0713 138.416 87.5652 139.105 84.2992C139.24 83.6586 139.639 83.3578 139.639 83.3578C139.921 81.8885 140.7 81.5807 140.7 81.5807C141.382 80.2927 142.222 80.0874 142.222 80.0874C142.222 80.0874 142.572 78.3661 143.648 78.4052C144.854 78.4455 144.126 80.8551 144.535 82.4255C145.475 86.0229 147.816 90.8739 148.189 91.8845L140.787 93.9122Z" fill="#AD6359"/>
<path d="M142.87 86.8867C142.615 85.8223 142.337 84.7837 142.227 83.6904C142.107 82.4909 142.192 81.3165 142.249 80.1187C142.251 80.0813 142.199 80.0749 142.191 80.1117C141.745 82.2637 142.025 84.8558 142.822 86.8989C142.842 86.9486 142.883 86.9404 142.87 86.8867Z" fill="#263238"/>
<path d="M140.781 87.7691C140.591 86.7197 140.267 84.8736 140.735 81.5854C140.737 81.5746 140.719 81.5688 140.716 81.5802C140.128 83.6744 140.169 85.6956 140.732 87.7782C140.749 87.8427 140.794 87.8389 140.781 87.7691Z" fill="#263238"/>
<path d="M139.65 88.2223C139.393 86.4257 139.459 85.2606 139.646 83.3661C139.647 83.3553 139.628 83.3506 139.626 83.3623C139.188 85.493 139.27 86.3159 139.589 88.2399C139.601 88.3059 139.66 88.2924 139.65 88.2223Z" fill="#263238"/>
<path d="M139.576 93.8177L148.911 92.1592L150.166 97.8631C153.302 99.1573 159.348 101.283 161.496 102.376C164.015 103.657 163.102 105.309 160.243 105.648C153.702 106.424 144.715 105.149 143.359 104.216C141.416 102.878 139.576 93.8177 139.576 93.8177Z" fill="#DBDBDB"/>
<path d="M140.896 95.8521C141.575 95.855 144.342 95.403 145.03 95.2827C145.704 95.165 147.663 94.6289 148.37 94.5031C148.408 94.4963 148.41 94.4394 148.371 94.4455C147.67 94.5582 141.542 95.5887 140.892 95.8156C140.869 95.8238 140.875 95.8521 140.896 95.8521Z" fill="#263238"/>
<path d="M141.471 100.632C141.743 101.367 142.038 102.094 142.398 102.786C142.718 103.355 143.031 104.024 143.672 104.268C145.216 104.834 146.89 104.998 148.531 105.196C150.085 105.373 151.646 105.5 153.208 105.613C154.577 105.723 156.512 105.837 157.899 105.934C156.33 105.957 154.761 105.91 153.194 105.844C150.843 105.722 148.487 105.551 146.165 105.146C145.296 104.991 144.41 104.808 143.592 104.444C142.918 104.158 142.588 103.456 142.288 102.841C141.96 102.124 141.69 101.385 141.471 100.632Z" fill="#263238"/>
<path d="M156.279 105.916C156.632 105.95 156.982 106.059 157.327 106.129C156.966 106.155 156.612 106.047 156.279 105.916Z" fill="#263238"/>
<path d="M159.277 101.443C156.833 100.538 154.367 99.6934 151.939 98.7418C151.616 98.6075 150.882 98.3356 150.576 98.1923C150.416 98.107 150.067 98.0235 150.029 97.8016C149.554 95.9532 149.225 94.0394 148.901 92.1613L148.913 92.1698L148.642 92.2083L148.909 92.1487C148.936 92.1318 149.786 95.9585 149.798 95.9666C149.917 96.4718 150.103 97.342 150.247 97.7951C153.004 99.0405 156.521 100.209 159.277 101.443Z" fill="#263238"/>
<path d="M159.04 101.099C158.685 101.106 158.324 101.039 157.972 101.009C158.328 100.942 158.694 101.008 159.04 101.099Z" fill="#263238"/>
<path d="M21.4199 102.757C21.4199 102.757 13.7961 112.456 13.79 112.463C12.2313 114.524 10.9015 116.358 10.3023 117.371C10.2982 117.376 10.2944 117.38 10.293 117.387C10.0664 117.769 9.94607 118.031 9.96359 118.139C9.96447 118.148 9.96301 118.155 9.96593 118.161C10.2649 119.04 26.3682 131.976 27.0815 132.238C27.7954 132.505 28.5982 130.487 28.3736 129.487C28.1444 128.483 24.1965 120.774 24.1965 120.774L31.376 110.777L21.4199 102.757Z" fill="#EB9481"/>
<path d="M27.0819 132.239C26.3683 131.978 10.2645 119.041 9.96519 118.16C9.9614 118.155 9.96402 118.149 9.96256 118.139C9.94534 118.033 10.0656 117.77 10.2931 117.388C10.2937 117.38 10.2984 117.376 10.3027 117.372C10.8999 116.358 12.2297 114.523 13.7898 112.464C13.7921 112.461 14.1644 111.986 14.747 111.249L25.1425 119.453L24.1955 120.774C24.1955 120.774 28.1434 128.482 28.3726 129.486C28.5998 130.488 27.7953 132.504 27.0819 132.239Z" fill="#DBDBDB"/>
<path d="M27.0814 132.239C26.3666 131.976 10.2649 119.042 9.96528 118.16C9.84556 117.827 11.5935 115.371 13.7908 112.464C13.8141 112.433 13.8372 112.403 13.8606 112.373L24.3419 120.602L24.1962 120.775C24.1962 120.775 28.1449 128.483 28.3727 129.487C28.5969 130.486 27.7945 132.504 27.0814 132.239Z" fill="#FCA311"/>
<path opacity="0.3" d="M27.0814 132.239C26.3666 131.976 10.2649 119.042 9.96528 118.16C9.84556 117.827 11.5935 115.371 13.7908 112.464C13.8141 112.433 13.8372 112.403 13.8606 112.373L24.3419 120.602L24.1962 120.775C24.1962 120.775 28.1449 128.483 28.3727 129.487C28.5969 130.486 27.7945 132.504 27.0814 132.239Z" fill="white"/>
<path d="M27.4008 131.468C24.7401 129.221 13.7962 120.409 10.9953 118.39C10.9726 118.374 10.9606 118.389 10.9816 118.407C13.5702 120.692 24.585 129.415 27.3652 131.513C27.4236 131.557 27.4568 131.516 27.4008 131.468Z" fill="#263238"/>
<path d="M25.0442 121.508C24.1364 120.45 22.6983 119.565 21.2707 119.67C21.2152 119.674 21.2219 119.753 21.2655 119.77C22.5862 120.284 23.7413 120.862 24.9315 121.639C25.0153 121.694 25.109 121.584 25.0442 121.508Z" fill="#263238"/>
<path d="M25.4417 122.592C24.5339 121.535 23.0958 120.649 21.6682 120.754C21.6127 120.758 21.6194 120.837 21.6629 120.854C22.9836 121.368 24.1388 121.946 25.3293 122.723C25.4128 122.778 25.5065 122.668 25.4417 122.592Z" fill="#263238"/>
<path d="M25.8395 123.676C24.9317 122.619 23.4933 121.733 22.066 121.838C22.0108 121.842 22.0172 121.921 22.0608 121.938C23.3815 122.452 24.5366 123.03 25.7268 123.807C25.8106 123.862 25.9043 123.752 25.8395 123.676Z" fill="#263238"/>
<path d="M13.7769 111.855L24.603 120.56C24.603 120.56 43.4303 97.5975 44.0339 94.6787C44.7198 91.3598 46.6289 65.3666 46.5848 64.0712C46.5314 62.5003 44.801 55.5959 44.801 55.5959H32.4614C32.4614 55.5959 30.7353 89.5885 30.3759 90.6412C29.9887 91.7736 13.7769 111.855 13.7769 111.855Z" fill="#263238"/>
<path d="M25.5754 117.983C23.9846 116.448 17.7799 111.52 17.0084 111.116C16.9915 111.108 16.9675 111.137 16.9801 111.152C17.541 111.818 22.8206 116.153 25.5348 118.034C25.5637 118.054 25.6008 118.008 25.5754 117.983Z" fill="#37474F"/>
<path d="M45.4111 60.706C45.2464 60.6348 45.0753 60.6368 44.9094 60.5887C44.7348 60.5381 44.5611 60.4765 44.3891 60.3901C44.0644 60.2269 43.7371 60.0049 43.4383 59.7165C43.13 59.4192 42.9095 59.0063 42.7075 58.5414C42.6 58.2935 42.0963 56.9693 42.0916 56.9597C42.077 56.929 42.04 56.9468 42.0461 56.9795C42.0805 57.1626 42.4263 58.3058 42.5285 58.5917C42.7206 59.1295 42.956 59.614 43.2909 59.9571C43.6182 60.292 43.98 60.5224 44.3441 60.6666C44.5316 60.7408 44.7217 60.796 44.9097 60.8182C45.0797 60.8383 45.2698 60.8681 45.4254 60.7887C45.4526 60.7747 45.4345 60.7163 45.4111 60.706Z" fill="#37474F"/>
<path d="M34.4962 56.1978L34.2366 63.0247L33.9419 69.8499L33.2852 83.4974C33.1614 85.7715 33.0403 88.045 32.8963 90.3197C32.8805 90.6012 32.8572 90.8914 32.8294 91.1849C32.8271 91.2191 32.8259 91.2559 32.8026 91.3154C32.7845 91.3551 32.7669 91.3931 32.748 91.4249C32.7109 91.4921 32.672 91.5531 32.6326 91.6147C32.5538 91.7368 32.4723 91.855 32.39 91.9724C32.0594 92.4405 31.7166 92.8957 31.3718 93.3495C30.6826 94.2576 29.9737 95.1491 29.2656 96.0412C27.8464 97.8229 26.4157 99.5948 24.9758 101.359L18.27 110.152L24.8683 101.273C26.2822 99.4882 27.6964 97.7035 29.0933 95.9057C29.7923 95.0072 30.485 94.104 31.172 93.1979C31.5143 92.7442 31.855 92.2884 32.1794 91.825C32.26 91.709 32.3397 91.5925 32.4148 91.4752C32.482 91.356 32.5795 91.2401 32.5731 91.1405C32.5964 90.8669 32.618 90.5895 32.6329 90.3025C32.7675 88.0313 32.8799 85.7563 32.9944 83.4825L33.7145 69.8388L34.0912 63.0177L34.4962 56.1978Z" fill="#37474F"/>
<path d="M44.2802 92.867C44.1894 93.7039 44.1076 94.327 44.0343 94.6783C43.695 96.3167 35.9952 106.692 31.3752 112.383L30.5605 88.9291C31.1253 81.8574 32.4594 55.595 32.4594 55.595H38.6095L44.2802 92.867Z" fill="#37474F"/>
<path d="M36.3896 116.358C36.3896 116.358 38.7759 128.462 38.7773 128.471C39.324 130.996 39.8484 133.2 40.2262 134.315C40.2274 134.321 40.2286 134.327 40.2327 134.333C40.3749 134.754 40.4949 135.016 40.5877 135.072C40.595 135.077 40.5991 135.083 40.6058 135.085C41.4675 135.432 61.7741 131.65 62.4378 131.28C63.105 130.912 62.0985 128.989 61.1933 128.507C60.282 128.026 51.863 125.996 51.863 125.996L48.9605 114.035L36.3896 116.358Z" fill="#EB9481"/>
<path d="M62.4389 131.28C61.7757 131.651 41.468 135.432 40.6046 135.085C40.5987 135.085 40.5958 135.079 40.5868 135.073C40.4954 135.017 40.3745 134.755 40.2331 134.333C40.2273 134.328 40.2273 134.322 40.2273 134.316C39.8471 133.202 39.3227 130.997 38.7775 128.472C38.7775 128.469 38.6596 127.876 38.48 126.954L51.4781 124.418L51.862 125.997C51.862 125.997 60.2816 128.027 61.1923 128.507C62.1002 128.987 63.1049 130.912 62.4389 131.28Z" fill="#DBDBDB"/>
<path d="M62.4386 131.28C61.774 131.651 41.4692 135.432 40.6052 135.085C40.2746 134.958 39.5511 132.032 38.7784 128.47C38.7708 128.433 38.763 128.396 38.7554 128.359L51.8279 125.773L51.8641 125.996C51.8641 125.996 60.2834 128.025 61.1938 128.508C62.0973 128.989 63.1041 130.912 62.4386 131.28Z" fill="#FCA311"/>
<path opacity="0.3" d="M62.4386 131.28C61.774 131.651 41.4692 135.432 40.6052 135.085C40.2746 134.958 39.5511 132.032 38.7784 128.47C38.7708 128.433 38.763 128.396 38.7554 128.359L51.8279 125.773L51.8641 125.996C51.8641 125.996 60.2834 128.025 61.1938 128.508C62.0973 128.989 63.1041 130.912 62.4386 131.28Z" fill="white"/>
<path d="M62.0624 130.536C58.6241 131.089 44.8078 133.645 41.451 134.453C41.4235 134.46 41.427 134.479 41.4551 134.475C44.875 134.001 58.6699 131.333 62.0729 130.592C62.1447 130.576 62.1348 130.524 62.0624 130.536Z" fill="#263238"/>
<path d="M52.9724 125.831C51.5787 125.83 49.9698 126.344 49.1195 127.495C49.0865 127.54 49.1504 127.586 49.1913 127.564C50.4422 126.898 51.633 126.398 52.9987 126.002C53.0948 125.974 53.0723 125.831 52.9724 125.831Z" fill="#263238"/>
<path d="M54.0535 126.236C52.6598 126.235 51.0508 126.749 50.2005 127.9C50.1675 127.945 50.2315 127.991 50.2724 127.969C51.5233 127.303 52.7141 126.803 54.0798 126.407C54.1761 126.379 54.1533 126.236 54.0535 126.236Z" fill="#263238"/>
<path d="M55.1348 126.641C53.7411 126.64 52.1322 127.154 51.2816 128.305C51.2486 128.35 51.3125 128.396 51.3537 128.374C52.6046 127.708 53.7954 127.208 55.1611 126.812C55.2575 126.784 55.2347 126.641 55.1348 126.641Z" fill="#263238"/>
<path d="M43.2889 130.62C42.5904 129.099 40.2249 130.181 40.9242 131.705C41.6227 133.227 43.9885 132.144 43.2889 130.62Z" fill="#263238"/>
<path d="M42.3453 55.5955C42.3453 55.5955 42.0209 60.8711 40.5644 64.6294C40.5644 64.6294 38.4638 65.9381 38.2448 66.1452L52.1664 125.604L38.3729 128.129C38.3729 128.129 32.8906 97.6715 32.4614 95.8024C31.7737 92.7986 26.3312 67.2647 26.0897 65.8135C25.5848 62.7787 28.3865 55.5952 28.3865 55.5952L42.3453 55.5955Z" fill="#263238"/>
<path d="M50.1822 122.749C46.6568 123.277 39.9157 124.706 39.0862 125.049C39.0678 125.057 39.0754 125.094 39.0952 125.093C39.9931 125.079 48.2047 123.45 50.1953 122.812C50.2298 122.801 50.2181 122.743 50.1822 122.749Z" fill="#37474F"/>
<path d="M29.9639 60.7077C30.2206 60.6508 30.4942 60.6689 30.7552 60.6353C31.0297 60.6003 31.3015 60.5541 31.569 60.482C32.073 60.3465 32.5758 60.1517 33.0267 59.8872C33.4921 59.6142 33.8066 59.2162 34.0861 58.763C34.235 58.5215 34.9174 57.2247 34.9238 57.2157C34.9442 57.1856 35.0053 57.2075 34.9983 57.2402C34.9597 57.4227 34.5135 58.5501 34.3769 58.8307C34.1196 59.3584 33.7885 59.8282 33.2848 60.145C32.7928 60.4546 32.2354 60.6543 31.6668 60.767C31.374 60.8251 31.075 60.8631 30.7765 60.868C30.5067 60.8727 30.2057 60.885 29.9493 60.7901C29.9037 60.7731 29.9277 60.7156 29.9639 60.7077Z" fill="#37474F"/>
<path d="M40.8699 64.4878C39.7011 64.8782 38.5713 65.4374 37.4903 66.0246C37.448 66.0477 37.4751 66.1134 37.521 66.0941C38.6592 65.6176 39.8193 65.162 40.9298 64.6236C41.0171 64.5813 40.9596 64.4577 40.8699 64.4878Z" fill="#37474F"/>
<path d="M41.3008 56.7119C41.2982 56.6727 41.2293 56.6634 41.2293 56.7057C41.2264 58.0519 41.1297 59.235 41.005 60.4921C40.9472 61.0755 40.4482 64.2986 39.4376 64.0542C39.2685 64.0133 39.1832 63.8454 39.159 63.5896C39.1298 63.2822 39.2489 62.9064 39.3024 62.6012C39.4209 61.9267 39.5173 61.2498 39.5815 60.5677C39.7012 59.2949 39.7182 58.0209 39.5751 56.7495C39.5704 56.7078 39.51 56.7104 39.5097 56.7527C39.4951 58.5161 39.4332 60.276 39.1537 62.0201C39.0194 62.8585 38.5852 64.1184 39.4618 64.2554C40.355 64.3953 40.9525 62.2835 41.0669 61.7057C41.3858 60.0921 41.4138 58.3477 41.3008 56.7119Z" fill="#37474F"/>
<path d="M39.4635 64.141C39.3701 64.3567 39.2944 64.5819 39.2296 64.8079C39.1794 64.9834 39.1116 65.1732 39.13 65.3568C39.1335 65.3925 39.1808 65.3963 39.2001 65.3723C39.3201 65.2228 39.3724 65.0173 39.4401 64.8394C39.519 64.6333 39.6025 64.4286 39.6752 64.2201C39.7237 64.082 39.521 64.0078 39.4635 64.141Z" fill="#37474F"/>
<path d="M29.4377 55.5955C29.0878 56.9328 28.7576 58.2757 28.4557 59.6242C28.1572 60.9726 27.8705 62.3275 27.7017 63.6947L27.6541 64.2074C27.6395 64.3782 27.6445 64.5479 27.6384 64.7178L27.7899 65.7322L28.1765 67.7681L29.0017 71.8318L32.3901 88.0711L35.7817 104.31L38.2096 115.53L39.8711 123.657L38.0698 115.56L35.5618 104.357L32.1042 88.1313C30.9835 82.7158 29.8526 77.3024 28.7824 71.8762L27.9964 67.8031L27.629 65.7606L27.4854 64.7225C27.4874 64.3701 27.5178 64.0229 27.5616 63.678C27.7555 62.303 28.0656 60.9537 28.3876 59.6087C28.7115 58.264 29.0648 56.927 29.4377 55.5955Z" fill="#37474F"/>
<path d="M38.2765 40.5166C40.5155 41.583 50.2952 42.8059 52.6481 41.1806C54.9765 39.5726 54.7777 25.4827 53.5594 20.9982C53.1314 19.4225 46.9129 22.4407 46.2551 23.7637C45.6897 24.901 46.6113 35.4656 46.1605 35.6969C45.3998 36.087 42.9344 36.3796 39.0038 36.9294C35.3062 37.4465 36.6991 39.765 38.2765 40.5166Z" fill="#EB9481"/>
<path d="M45.4517 27.7912L54.8001 26.0325C54.8001 26.0325 55.9535 40.0006 52.8972 42.0113C51.9257 42.6505 44.1611 42.4689 38.7442 41.0348C36.8331 40.5288 34.1058 37.5732 39.5043 36.7203C44.9031 35.8673 45.8862 35.5642 45.9849 35.4299C46.0836 35.2959 45.4517 27.7912 45.4517 27.7912Z" fill="#455A64"/>
<path d="M54.2193 28.5472C53.5457 28.598 52.8738 28.7446 52.2089 28.862C51.5534 28.9779 50.8984 29.0982 50.244 29.2229C48.9242 29.4743 47.5886 29.6959 46.2868 30.0332C46.2562 30.0411 46.2617 30.0852 46.2941 30.0823C47.6432 29.9608 48.9864 29.6986 50.3179 29.4536C50.9857 29.3306 51.6523 29.1978 52.3169 29.0573C52.9567 28.9218 53.612 28.8039 54.2333 28.5971C54.2628 28.5869 54.2471 28.5449 54.2193 28.5472Z" fill="#263238"/>
<path opacity="0.1" d="M44.3489 42.0361C42.4392 41.82 40.474 41.493 38.7454 41.0346C36.8415 40.5323 34.1289 37.5977 39.4404 36.7334L44.3489 42.0361Z" fill="white"/>
<path d="M46.3623 59.8765L26.3465 60.2993C26.1004 60.0029 30.1814 43.2293 34.7386 37.2807C35.8 35.8954 38.8082 35.9529 39.8699 36.8056C42.9047 39.2426 46.597 59.6149 46.3623 59.8765Z" fill="#455A64"/>
<path d="M63.0061 16.2774C63.174 16.3831 63.2806 16.5329 63.3252 16.7277L64.6284 22.4053C64.6734 22.601 64.6427 22.7823 64.5376 22.9499C64.4322 23.1187 64.2821 23.2244 64.0873 23.2691L56.7707 24.9487C56.5751 24.9936 56.5006 25.1136 56.5453 25.3084L64.0961 58.2031C64.1411 58.3987 64.1104 58.58 64.0056 58.7474C63.8999 58.9161 63.7498 59.0218 63.5547 59.0665L56.7065 60.6384C56.5108 60.6833 56.3301 60.6535 56.1622 60.5475C55.9937 60.4427 55.8883 60.2929 55.8433 60.0973L48.2925 27.2026C48.2478 27.0078 48.1275 26.9325 47.9327 26.9772L40.909 28.5893C40.713 28.6343 40.532 28.6045 40.3644 28.4985C40.1956 28.394 40.0899 28.2439 40.0449 28.0479L38.7417 22.3703C38.6971 22.1755 38.7269 21.9945 38.8326 21.8257C38.9374 21.6581 39.0872 21.5515 39.2828 21.5066L62.4612 16.186C62.6565 16.1419 62.8376 16.1726 63.0061 16.2774Z" fill="#FCA311"/>
<path d="M33.9134 42.0711C34.5905 44.9578 38.1103 56.2535 41.8753 57.3386C46.2285 58.5933 50.6566 58.5107 54.448 58.6611C56.0794 58.7259 54.1092 49.8523 52.6425 50.0336C50.329 50.3201 46.5654 50.0152 45.7178 49.9022C44.8704 49.7892 39.9543 44.1443 37.2083 41.0397C34.7345 38.2433 33.5142 40.3699 33.9134 42.0711Z" fill="#EB9481"/>
<path d="M63.0853 48.181C63.6258 48.9276 63.0564 49.6938 63.0564 49.6938C63.0564 49.6938 63.7461 49.9511 64.0486 50.5903C64.3949 51.3223 63.3989 52.1866 63.3989 52.1866C63.3989 52.1866 64.0431 52.5913 64.2948 53.2989C64.5558 54.0329 63.6751 55.0482 63.6751 55.0482C63.6751 55.0482 64.0679 55.7549 63.8468 56.5222C63.4687 57.8342 61.4635 58.4068 60.1928 58.7835C58.922 59.1605 54.0666 58.7946 53.5892 58.429L51.356 50.8563C51.356 50.8563 55.258 47.7003 58.4945 47.4136C59.8155 47.2965 62.4785 47.3429 63.0853 48.181Z" fill="#EB9481"/>
<path d="M62.9604 49.5805C61.5158 49.4526 60.1125 49.7589 58.6943 49.9846C58.6627 49.9895 58.6709 50.0389 58.7027 50.0336C60.1107 49.7924 61.5483 49.8339 62.963 49.6494C63.0018 49.6441 62.9992 49.5837 62.9604 49.5805Z" fill="#263238"/>
<path d="M63.3407 52.088C63.0131 52.0691 62.6802 52.1581 62.3616 52.225C62.0188 52.2974 61.6775 52.3757 61.3373 52.4592C60.656 52.6265 59.9789 52.8093 59.3073 53.0119C59.2775 53.021 59.2839 53.0689 59.3158 53.061C59.995 52.8954 60.6765 52.7401 61.3618 52.6031C61.7049 52.5348 62.0486 52.4691 62.3926 52.406C62.7126 52.3471 63.0554 52.3117 63.3565 52.1827C63.4008 52.1634 63.39 52.0907 63.3407 52.088Z" fill="#263238"/>
<path d="M63.6462 55.0543C63.3621 55.0263 63.0435 55.1518 62.7714 55.2248C62.4627 55.3075 62.1535 55.3883 61.8437 55.4678C61.2247 55.6263 60.6053 55.7843 59.981 55.9212C59.9501 55.9283 59.958 55.977 59.9895 55.9703C60.6246 55.8345 61.2614 55.7075 61.8951 55.5659C62.2064 55.4964 62.5173 55.4254 62.8277 55.3524C63.0917 55.2905 63.4287 55.2429 63.6553 55.085C63.6681 55.0762 63.6605 55.0558 63.6462 55.0543Z" fill="#263238"/>
<path d="M51.3985 49.9049L52.7294 59.2664C52.7294 59.2664 44.1592 59.283 41.1242 57.3631C38.0888 55.4432 35.0862 48.0635 33.814 43.8517C32.5414 39.6402 34.2861 36.6881 38.7088 42.0077C43.1317 47.3271 45.3526 49.4812 45.7086 49.6342C46.0648 49.7872 51.3985 49.9049 51.3985 49.9049Z" fill="#455A64"/>
<path d="M45.2729 58.668C44.5476 58.446 42.1406 58.0472 40.4663 56.8468C39.2367 55.9652 37.0277 51.9315 35.4521 48.5686C34.7694 47.1112 34.2908 45.6956 33.604 44.3092C33.5955 44.2919 33.5722 44.303 33.5771 44.3205C33.8484 45.2748 34.181 46.2133 34.5448 47.1392C34.5113 47.0957 34.478 47.0522 34.4444 47.0087C34.1576 46.6346 33.8551 46.2682 33.6069 45.8667C33.5891 45.8378 33.5456 45.8708 33.5649 45.8994C33.8256 46.2869 34.0464 46.7006 34.2963 47.0954C34.4172 47.2867 34.5378 47.4762 34.6736 47.6572C34.7247 47.7253 34.7799 47.7991 34.8386 47.8713C37.0727 52.9188 39.1567 56.1734 40.4424 57.0859C41.6603 57.9502 43.1568 58.4355 45.2872 58.7684C45.3243 58.7745 45.3103 58.6794 45.2729 58.668Z" fill="#263238"/>
<path d="M50.8641 58.8839C50.8448 58.1597 50.7231 57.4329 50.632 56.7149C50.542 56.0071 50.4474 55.2996 50.3482 54.5929C50.1478 53.1668 49.9805 51.7255 49.6877 50.3148C49.6809 50.2818 49.6333 50.2854 49.6348 50.3204C49.6947 51.7713 49.9052 53.2226 50.0979 54.661C50.1946 55.3825 50.302 56.1029 50.4177 56.8215C50.5292 57.5132 50.6215 58.221 50.8101 58.8967C50.8194 58.9288 50.865 58.9137 50.8641 58.8839Z" fill="#263238"/>
<path d="M51.4419 49.823C50.6077 49.736 47.229 49.6975 46.395 49.6078C46.0058 49.5661 45.686 49.432 45.3905 49.1733C45.079 48.9003 40.0554 43.5961 39.5082 42.9715C39.4854 42.9456 39.4431 42.9791 39.4661 43.0043C40.0466 43.6321 43.8853 48.0395 44.4853 48.6723C44.7546 48.9561 45.0191 49.2633 45.3292 49.5036C45.63 49.7366 45.9547 49.8298 46.3319 49.8338C47.1347 49.8423 50.2655 49.8992 51.3614 49.9249C51.3827 49.9255 51.4554 50.3463 51.4749 50.3463C51.5047 50.3466 51.4933 50.3469 51.5193 50.3463C51.5354 50.3457 51.4799 49.8271 51.4419 49.823Z" fill="#263238"/>
<path d="M43.9893 20.1681C44.9199 19.1455 45.7883 17.1757 46.6862 16.6752C47.4965 16.2232 48.0866 16.808 48.0866 16.808C48.0866 16.808 48.1701 15.6736 49.0595 15.3536C49.5171 15.1889 50.1823 15.7755 50.1823 15.7755C50.1823 15.7755 50.2889 14.8691 51.0971 14.6335C51.7413 14.4457 52.3113 15.0616 52.3113 15.0616C52.3113 15.0616 52.8185 14.2399 53.5362 14.2589C54.9912 14.2977 57.1771 19.6261 55.5519 21.2546C54.7944 22.0135 54.331 20.6829 54.331 20.6829C54.331 20.6829 54.5351 22.7569 53.448 23.2358C52.3612 23.7144 51.8636 21.9496 51.8636 21.9496C51.8636 21.9496 52.0438 23.9612 50.8667 24.344C49.6415 24.7423 49.4462 22.8916 49.4462 22.8916C49.4462 22.8916 49.1287 24.4059 48.1608 24.4923C46.5621 24.6354 47.4258 21.6599 46.6675 20.6029L44.4714 20.7486L43.9893 20.1681Z" fill="#EB9481"/>
<path d="M45.2299 18.4114C44.2642 19.3026 42.2783 18.4683 41.2324 19.1881C39.8176 20.1616 42.0567 21.2849 44.4712 20.7485L46.2726 20.0028L45.2299 18.4114Z" fill="#EB9481"/>
<path d="M52.4384 15.1191C52.4299 15.1019 52.4521 15.0864 52.4638 15.1024C53.6099 16.6801 54.3855 18.7644 54.3881 20.7261C54.3881 20.7903 54.2838 20.8183 54.2701 20.7477C53.8806 18.7262 53.374 16.9637 52.4384 15.1191Z" fill="#263238"/>
<path d="M50.1826 15.7452C50.1724 15.7254 50.2054 15.7079 50.2197 15.7277C51.3918 17.3597 52.2006 19.7313 51.9375 21.9926C51.9285 22.0703 51.8426 22.1307 51.8464 22.0405C51.9072 20.5235 51.0332 17.4012 50.1826 15.7452Z" fill="#263238"/>
<path d="M49.375 23.0501C49.5434 20.8721 48.9965 18.8593 48.1378 16.8726C48.1267 16.8466 48.1643 16.8334 48.1795 16.8527C48.8645 17.71 49.2798 19.0336 49.516 20.0904C49.742 21.1031 49.7426 22.062 49.4509 23.0559C49.4401 23.0945 49.3715 23.0968 49.375 23.0501Z" fill="#263238"/>
<path d="M39.3116 39.565C38.3524 39.7848 36.3648 38.6428 35.6911 37.2695C35.6456 37.1752 35.8298 36.2131 35.9986 35.0331C36.0982 34.3168 36.1922 33.5168 36.2252 32.7806C36.2313 32.6294 40.7921 34.1095 40.7921 34.1095C40.7921 34.1095 40.2688 35.6323 40.2192 36.9162C40.2162 37.0237 40.2224 37.1238 40.2373 37.2196C40.2381 37.2336 40.2416 37.2506 40.2416 37.2698C40.3094 37.8483 40.3377 39.3293 39.3116 39.565Z" fill="#EB9481"/>
<path d="M40.2385 37.2195C40.2382 37.2344 40.2411 37.2522 40.2408 37.27C40.0957 37.2832 39.9386 37.2844 39.7672 37.2736C37.0522 37.0916 36.4878 33.6577 36.3882 32.7893C37.2032 32.9438 40.7918 34.1094 40.7918 34.1094C40.7918 34.1094 40.2683 35.6337 40.2181 36.9176C40.2169 37.0242 40.2216 37.1246 40.2385 37.2195Z" fill="#263238"/>
<path d="M34.3488 27.9144C34.1853 29.62 35.9773 34.0867 37.3298 34.8888C39.2909 36.0516 42.031 35.6434 42.9 33.3938C43.7425 31.2131 41.3045 25.4333 39.8375 24.7526C37.6767 23.7508 34.5903 25.395 34.3488 27.9144Z" fill="#EB9481"/>
<path d="M39.4394 29.7708C39.4324 29.7603 39.4216 29.7944 39.4268 29.8067C39.5556 30.1042 39.6528 30.4669 39.4195 30.6748C39.4122 30.6812 39.4192 30.6961 39.4289 30.6906C39.7434 30.5122 39.609 30.0321 39.4394 29.7708Z" fill="#263238"/>
<path d="M39.046 29.5625C38.5467 29.7176 38.8933 30.7048 39.3558 30.5615C39.8113 30.4198 39.4644 29.4326 39.046 29.5625Z" fill="#263238"/>
<path d="M41.2281 29.1995C41.2263 29.1869 41.257 29.2056 41.2611 29.2182C41.3586 29.5274 41.5227 29.8652 41.8349 29.8696C41.8445 29.8696 41.8492 29.8854 41.8384 29.8877C41.4842 29.9587 41.271 29.5081 41.2281 29.1995Z" fill="#263238"/>
<path d="M41.3891 28.7841C41.868 28.5742 42.2528 29.5474 41.8093 29.7419C41.3725 29.9331 40.9876 28.9599 41.3891 28.7841Z" fill="#263238"/>
<path d="M38.4978 29.2478C38.6204 29.1666 38.72 29.0717 38.833 28.9789C38.9603 28.8744 39.0727 28.8043 39.1224 28.6393C39.1489 28.5511 39.0835 28.4323 39 28.3984C38.8058 28.3193 38.6181 28.4086 38.4595 28.5283C38.2875 28.6583 38.188 28.8022 38.1369 29.0113C38.0869 29.2137 38.336 29.3547 38.4978 29.2478Z" fill="#263238"/>
<path d="M41.5963 28.1528C41.4514 28.1785 41.3139 28.1782 41.1682 28.1887C41.0035 28.2007 40.8739 28.2273 40.7247 28.142C40.6444 28.0964 40.6102 27.9653 40.6473 27.883C40.7334 27.692 40.9311 27.6272 41.1285 27.6047C41.3428 27.5802 41.5139 27.6161 41.6953 27.7323C41.8705 27.845 41.787 28.1189 41.5963 28.1528Z" fill="#263238"/>
<path d="M40.1531 32.7093C40.2516 32.7551 40.3593 32.8281 40.4735 32.7983C40.583 32.77 40.691 32.678 40.7751 32.6059C40.7836 32.5989 40.797 32.6056 40.7938 32.617C40.7555 32.7621 40.6142 32.8944 40.4638 32.9192C40.3167 32.9434 40.2063 32.848 40.1283 32.7332C40.1178 32.7171 40.1388 32.7025 40.1531 32.7093Z" fill="#263238"/>
<path d="M40.1531 31.6804C40.4177 31.8859 40.7202 31.9426 41.011 31.8999C41.141 31.8815 41.2703 31.841 41.3915 31.7855C41.416 31.7761 41.4397 31.765 41.4601 31.7522C41.4814 31.7417 41.5007 31.732 41.5235 31.7183C41.5574 31.7005 41.5667 31.6643 41.5609 31.6284L41.56 31.626C41.5559 31.6149 41.5524 31.6059 41.546 31.5957C41.546 31.5957 41.546 31.5957 41.5451 31.5933L41.5352 31.5668C41.459 31.3291 41.3103 30.979 41.3103 30.979C41.4117 30.9918 41.9194 31.0353 41.8692 30.9147C41.4511 29.9176 40.9856 28.8085 40.359 27.9045C40.3397 27.8736 40.2913 27.8995 40.3059 27.932C40.67 28.9061 41.2029 29.8098 41.5842 30.7827C41.4254 30.7787 41.1626 30.7606 41.0402 30.8061C41.0102 30.8274 41.3395 31.4777 41.3652 31.5872C41.3652 31.5872 41.367 31.5916 41.3673 31.5992C40.9894 31.7887 40.6492 31.7738 40.1718 31.643C40.1432 31.6333 40.1263 31.6625 40.1531 31.6804Z" fill="#263238"/>
<path d="M41.2108 31.7148C41.2108 31.7148 41.1007 32.0699 40.8505 32.272C40.7585 32.3467 40.6502 32.4016 40.5203 32.4116C40.2534 32.4332 40.1687 32.211 40.1462 32.0036C40.1272 31.8331 40.1526 31.6716 40.1526 31.6716C40.1526 31.6716 40.6268 31.8801 41.2108 31.7148Z" fill="#263238"/>
<path d="M40.8508 32.272C40.7588 32.3468 40.6505 32.4017 40.5205 32.4116C40.2536 32.4332 40.169 32.211 40.1465 32.0037C40.4178 31.9383 40.7392 32.025 40.8508 32.272Z" fill="#FF9BBC"/>
<path d="M36.6418 33.9471C36.6418 33.9471 36.1437 34.1015 35.8917 33.8431C35.6394 33.585 35.6213 32.6109 34.6203 32.5177C34.2731 32.4853 34.0097 32.4961 33.7744 32.2999C33.3364 31.9349 33.4298 31.4642 33.2167 31.1988C32.9536 30.8706 32.2466 31.0697 31.8559 30.3744C31.3362 29.45 32.0557 28.8388 32.0618 28.444C32.0679 28.0495 31.6682 27.6437 31.8708 26.8439C32.0577 26.1066 32.8514 25.967 33.1813 25.5602C33.5341 25.1255 33.0599 24.4728 33.7023 23.7723C34.1706 23.2613 35.1164 23.5072 35.477 23.2239C36.047 22.7763 35.7921 22.1456 36.5796 21.6615C37.4588 21.1207 39.3802 22.1634 39.8226 22.7019C40.3169 23.3037 40.0109 23.9119 40.3257 24.29C40.7771 24.8323 41.3089 24.5657 41.5699 25.1074C41.8283 25.6435 41.5831 26.0537 41.7185 26.407C41.9022 26.8856 42.0269 26.9499 42.1793 27.3677C42.3361 27.7981 42.1162 28.2277 42.1162 28.2277C42.1162 28.2277 41.0542 26.1816 39.7423 25.0773C39.3055 24.7096 38.8447 24.5184 38.7031 24.618C38.5185 24.7476 38.9483 25.47 38.6257 25.6709C38.3033 25.8718 37.2328 25.3737 36.8693 25.8578C36.3846 26.5031 37.0956 27.3984 36.5639 28.0171C36.0324 28.6359 35.5892 28.5959 35.5223 29.0018C35.4391 29.5055 35.9276 29.6497 36.2745 30.3528C36.5878 30.9876 36.5379 31.2703 36.5379 31.2703L36.0972 31.5445C36.0972 31.5445 35.3348 31.3185 35.1897 31.4712C35.0446 31.6233 36.6418 33.9471 36.6418 33.9471Z" fill="#263238"/>
<path d="M31.9867 27.9026C32.262 28.6612 31.4392 29.353 31.5948 30.1072C31.7656 30.7087 32.255 30.9338 32.8361 31.0255C33.0177 31.0685 33.2592 31.1181 33.3261 31.3204C33.2204 31.1444 33.0046 31.1397 32.8212 31.119C32.4299 31.0939 31.9907 31.0101 31.7154 30.6929C31.419 30.3779 31.3081 29.934 31.4584 29.5308C31.6155 28.9766 32.0827 28.5041 31.9867 27.9026Z" fill="#263238"/>
<path d="M40.5781 24.5183C40.913 24.6007 41.3119 24.4935 41.6086 24.7338C42.0773 25.119 41.9283 25.5926 41.7525 26.0785C41.7198 26.1845 41.6939 26.2925 41.719 26.4067C41.6536 26.3074 41.653 26.1766 41.6626 26.0609C41.6959 25.75 41.8285 25.3873 41.6804 25.1096C41.5911 24.9245 41.4322 24.7832 41.2299 24.7253C41.0275 24.664 40.7761 24.6471 40.5781 24.5183Z" fill="#263238"/>
<path d="M36.302 31.5091C36.302 31.5091 34.9223 30.2497 34.3281 30.7744C33.7339 31.2991 35.0053 33.2879 35.8675 33.4056C36.7298 33.5233 36.8542 32.7273 36.8542 32.7273L36.302 31.5091Z" fill="#EB9481"/>
<path d="M34.7064 31.3353C34.6933 31.337 34.695 31.3554 34.707 31.3574C35.3158 31.4582 35.7255 31.9096 36.0517 32.4002C35.8394 32.2308 35.588 32.1686 35.3558 32.4279C35.3438 32.4416 35.3628 32.4612 35.3777 32.4545C35.5953 32.3543 35.769 32.357 35.9646 32.5053C36.103 32.6104 36.2146 32.7576 36.3264 32.8896C36.3638 32.9337 36.4479 32.8866 36.4161 32.8335C36.4137 32.8297 36.4111 32.8256 36.4085 32.8215C36.2628 32.107 35.4863 31.2354 34.7064 31.3353Z" fill="#263238"/>
<path d="M15.521 20.5499C15.521 23.9231 18.257 26.6591 21.6302 26.6591C22.9936 26.6591 24.2521 26.2121 25.2697 25.4543L28.2624 26.2185L27.0165 23.4316C27.4793 22.5726 27.7392 21.5897 27.7392 20.5499C27.7392 17.1767 25.0031 14.4407 21.6299 14.4407C18.257 14.4407 15.521 17.1767 15.521 20.5499Z" fill="white"/>
<path d="M15.5214 20.5499C15.5298 15.3374 21.6125 12.4752 25.6479 15.7789C27.8922 17.5785 28.5878 20.9923 27.166 23.5119L27.1716 23.363L28.4038 26.1557L28.5323 26.4471C27.4329 26.1662 26.335 25.8713 25.2394 25.5758L25.3451 25.5548C24.4166 26.2299 23.3017 26.6381 22.1641 26.7193C18.6361 27.0043 15.4819 24.0962 15.5214 20.5499ZM15.5214 20.5499C15.5596 25.5189 21.2238 28.3594 25.1956 25.3542L25.2417 25.3188L25.3013 25.3331C26.3023 25.5749 27.3033 25.8164 28.3013 26.069L28.1226 26.2813L26.8632 23.5006L26.8294 23.4258C28.7145 20.055 26.8361 15.679 23.0923 14.723C19.3232 13.6783 15.5079 16.6488 15.5214 20.5499Z" fill="#263238"/>
<path d="M17.4492 25.0995C16.1679 23.9044 15.4441 22.2458 15.4628 20.5499C15.4616 20.2085 15.4893 19.8715 15.5442 19.5413C15.8695 17.5347 17.1482 15.8168 19.0406 14.9222C21.2511 13.8777 23.7964 14.1884 25.6842 15.7333C27.9472 17.5481 28.6325 20.9137 27.2704 23.443L28.5855 26.4234C28.5946 26.4439 28.5914 26.4678 28.5765 26.4848C28.5622 26.5023 28.5394 26.509 28.5175 26.5037C27.4473 26.2301 26.3868 25.946 25.3061 25.6543C24.3778 26.3096 23.2945 26.6973 22.1682 26.7776C22.0094 26.7905 21.8505 26.7969 21.692 26.7969C20.1447 26.7969 18.6202 26.1919 17.4492 25.0995ZM25.1808 25.5734C25.1817 25.5463 25.2012 25.5235 25.2281 25.5182L25.3338 25.4975C25.3607 25.4923 25.3875 25.5063 25.3986 25.5317C25.4024 25.5407 25.4039 25.5501 25.4033 25.5594C26.2933 25.7994 27.1699 26.0345 28.0497 26.2626L27.9493 26.0412C27.0838 25.8243 26.2075 25.6126 25.3572 25.407L25.2553 25.3825L25.2307 25.4009C23.7053 26.5551 21.8465 26.9198 20.0726 26.4532C20.7488 26.6451 21.4558 26.7184 22.1598 26.6611C23.2437 26.5838 24.2861 26.2164 25.1849 25.5968C25.182 25.5892 25.1805 25.5816 25.1808 25.5734ZM25.2553 25.2619L25.3843 25.2931C26.2057 25.4914 27.0508 25.6955 27.8874 25.9049L26.7757 23.4503C26.7678 23.4334 26.769 23.4138 26.778 23.3975C27.6675 21.8069 27.7548 19.9101 27.0181 18.1928C26.2808 16.475 24.8444 15.2311 23.0767 14.7797C21.3147 14.2914 19.4474 14.6652 17.9535 15.8057C16.7119 16.7533 15.9069 18.086 15.6601 19.5594C15.6079 19.8824 15.5804 20.2135 15.5798 20.5496C15.5977 22.8409 16.8833 24.8922 18.9349 25.9031C20.9976 26.919 23.3249 26.6965 25.1598 25.308L25.2059 25.2727C25.2161 25.2648 25.2287 25.2604 25.2415 25.2604C25.2462 25.2601 25.2506 25.2607 25.2553 25.2619ZM28.1855 26.2976C28.267 26.3186 28.3487 26.3396 28.4302 26.3604L28.3277 26.1285L28.1855 26.2976ZM28.0941 26.0771L28.1376 26.1726L28.1963 26.1028C28.1621 26.0944 28.128 26.0859 28.0941 26.0771ZM27.1498 23.5683C27.1238 23.561 27.1063 23.537 27.1071 23.5099L27.1127 23.3607C27.1138 23.3332 27.1334 23.3104 27.1603 23.3055C27.1766 23.3014 27.1933 23.3063 27.2058 23.3157C28.4903 20.8433 27.81 17.5878 25.6109 15.8244C24.2376 14.7002 22.5099 14.2412 20.823 14.4976C21.5793 14.4036 22.3528 14.4579 23.1064 14.6672C24.909 15.1274 26.3739 16.3959 27.1255 18.1473C27.873 19.8888 27.7884 21.8122 26.8946 23.4293L28.0322 25.9414C28.1122 25.9612 28.1919 25.9814 28.2716 26.0015L27.1953 23.5627C27.1822 23.5703 27.1661 23.5726 27.1498 23.5683Z" fill="#263238"/>
<path d="M24.6348 21.4106C23.746 23.2032 21.6313 24.2673 21.6313 24.2673C21.6313 24.2673 19.5166 23.2035 18.6295 21.4106C17.8893 19.9153 18.3583 18.2991 19.5266 17.9464C21.2015 17.4397 21.6313 19.1938 21.6313 19.1938C21.6313 19.1938 22.0611 17.44 23.7378 17.9464C24.9061 18.2991 25.375 19.9153 24.6348 21.4106Z" fill="#FCA311"/>
</svg>
