<svg width="4230" height="4223" viewBox="0 0 4230 4223" fill="none" xmlns="http://www.w3.org/2000/svg">
<path d="M2721.16 42.7014C2721.16 42.7014 2002.16 -118.256 1336.17 348.994C670.183 816.245 370.613 1623.21 110.524 2272.72C-149.565 2922.23 62.6152 3526.87 607.978 3750.31C1153.34 3973.76 1485.1 3511.91 2222.95 3405.2C2960.8 3298.5 3166.73 3377.84 3754.61 2901.03C4342.48 2424.21 4392.28 1454.11 3863.02 802.422C3333.75 150.732 2721.16 42.7014 2721.16 42.7014Z" fill="#16A34A"/>
<path opacity="0.7" d="M2721.16 42.7014C2721.16 42.7014 2002.16 -118.256 1336.17 348.994C670.183 816.245 370.613 1623.21 110.524 2272.72C-149.565 2922.23 62.6152 3526.87 607.978 3750.31C1153.34 3973.76 1485.1 3511.91 2222.95 3405.2C2960.8 3298.5 3166.73 3377.84 3754.61 2901.03C4342.48 2424.21 4392.28 1454.11 3863.02 802.422C3333.75 150.732 2721.16 42.7014 2721.16 42.7014Z" fill="white"/>
<path d="M1834.57 1551.35L1415.42 3140L1888.63 2856.05L2159.04 3254.94L2125.24 1585.15L1834.57 1551.35Z" fill="#16A34A"/>
<mask id="mask0_277_1761" style="mask-type:luminance" maskUnits="userSpaceOnUse" x="1415" y="1551" width="745" height="1704">
<path d="M1834.57 1551.35L1415.42 3140L1888.63 2856.05L2159.04 3254.94L2125.24 1585.15L1834.57 1551.35Z" fill="white"/>
</mask>
<g mask="url(#mask0_277_1761)">
<path d="M1907.47 2770.65L1516.73 3005.18L1881.91 1620.84L2062.85 1641.86L2091.25 3041.63L1907.47 2770.65Z" fill="white"/>
<path opacity="0.3" d="M2133 1967.09L2125.24 1585.34L1834.76 1551.35L1745.1 1891.16C1777.1 1955.64 1799.06 2041.32 1855.21 2059.6C1930.96 2084.02 2031.79 1964.92 2115.3 1964.92C2121.26 1965.1 2127.18 1965.82 2133 1967.09Z" fill="black"/>
</g>
<path d="M2412.22 1563.47L3080.19 3064.54L2639.08 2841.66L2364.6 3296.98L2130.73 1643.38L2412.22 1563.47Z" fill="#16A34A"/>
<mask id="mask1_277_1761" style="mask-type:luminance" maskUnits="userSpaceOnUse" x="2130" y="1563" width="951" height="1734">
<path d="M2412.22 1563.47L3080.19 3064.54L2639.08 2841.66L2364.6 3296.98L2130.73 1643.38L2412.22 1563.47Z" fill="white"/>
</mask>
<g mask="url(#mask1_277_1761)">
<path d="M2201.37 1689.3L2376.62 1639.59L2949.63 2927.44L2615.12 2758.34L2402.47 3111.22L2201.37 1689.3Z" fill="white"/>
<path opacity="0.3" d="M2412.31 1563.47L2130.83 1643.38L2175.61 1959.04H2179.78C2263.29 1959.04 2364.6 2077.68 2439.96 2053.25C2497.72 2034.32 2519.3 1944.08 2552.92 1879.04L2412.31 1563.47Z" fill="black"/>
</g>
<path d="M3021.21 1149.81C3021.21 1233.31 2876.06 1292.87 2851.54 1368.14C2826.26 1446.25 2907.78 1579.56 2860.44 1644.61C2813.1 1709.65 2660.38 1673.68 2594.76 1721.4C2529.15 1769.11 2517.79 1925.15 2439.68 1950.43C2363.93 1974.95 2263 1855.75 2179.49 1855.75C2095.98 1855.75 1994.77 1974.48 1919.4 1950.43C1841.29 1925.15 1829.27 1768.74 1764.32 1721.4C1699.37 1674.05 1546.55 1710.22 1498.55 1644.61C1450.54 1579 1532.82 1446.25 1507.45 1368.24C1483.02 1292.49 1337.87 1233.31 1337.87 1149.81C1337.87 1066.3 1483.02 1006.74 1507.45 931.472C1532.82 853.36 1451.3 720.049 1498.55 655.003C1545.79 589.958 1698.61 625.936 1764.32 578.217C1830.03 530.498 1841.29 374.464 1919.4 349.184C1995.15 324.661 2095.98 443.391 2179.49 443.391C2263 443.391 2364.31 324.661 2439.68 349.184C2517.69 374.464 2529.72 530.877 2594.76 578.217C2659.81 625.558 2812.53 589.389 2860.44 655.003C2908.35 720.617 2826.26 853.834 2851.54 931.377C2876.25 1006.36 3021.21 1065.92 3021.21 1149.81Z" fill="#16A34A"/>
<path opacity="0.6" d="M2929.37 1149.81C2929.37 1224.23 2800.03 1277.25 2777.88 1344.38C2755.25 1413.97 2827.87 1532.7 2785.74 1590.55C2743.6 1648.4 2607.55 1616.49 2549.03 1659C2490.52 1701.51 2480.48 1840.5 2410.89 1863.13C2343.77 1884.91 2253.53 1779.15 2179.11 1779.15C2104.7 1779.15 2014.65 1884.53 1947.81 1862.75C1878.22 1840.13 1867.52 1700.85 1809.57 1658.62C1751.63 1616.39 1615.48 1648.68 1572.87 1590.17C1530.27 1531.65 1603.36 1413.59 1580.83 1344C1558.95 1276.87 1429.34 1223.85 1429.34 1149.43C1429.34 1075.01 1558.58 1021.99 1580.83 954.858C1603.36 885.267 1530.74 766.537 1572.87 708.687C1615.01 650.837 1751.16 682.745 1809.57 640.233C1867.99 597.721 1878.22 458.729 1947.81 436.101C2014.84 414.324 2105.17 520.083 2179.49 520.083C2253.82 520.083 2344.14 414.324 2411.27 436.101C2480.86 458.729 2491.56 598.005 2549.41 640.233C2607.26 682.461 2743.6 649.701 2786.11 708.687C2828.63 767.674 2755.63 885.267 2778.26 954.858C2800.51 1021.99 2929.37 1075.01 2929.37 1149.81Z" fill="white"/>
<path d="M2179.49 1774.7C2524.82 1774.7 2804.77 1494.76 2804.77 1149.43C2804.77 804.098 2524.82 524.154 2179.49 524.154C1834.16 524.154 1554.22 804.098 1554.22 1149.43C1554.22 1494.76 1834.16 1774.7 2179.49 1774.7Z" fill="white"/>
<path d="M1881.53 856.295C1956.24 819.559 2015.22 798.635 2110.94 684.544H2344.24V1426.46H2466.09V1600.77H1941.84V1426.84H2072.88V940.561L1941.84 1002.2L1881.53 856.295Z" fill="#263238"/>
<path opacity="0.2" d="M3171.75 4212.55C3662.34 4212.55 4060.05 4134.63 4060.05 4038.52C4060.05 3942.41 3662.34 3864.5 3171.75 3864.5C2681.16 3864.5 2283.45 3942.41 2283.45 4038.52C2283.45 4134.63 2681.16 4212.55 3171.75 4212.55Z" fill="black"/>
<path d="M3992.92 1826.21C3979 1761.16 3971.24 1764.29 3892.27 1739.48C3805.45 1712.22 3715.29 1697.09 3624.33 1694.51C3565.78 1692.3 3507.25 1699.1 3450.77 1714.67C3450.77 1714.67 3351.55 1727.08 3280.35 1743.08C3219.28 1865.03 3288.21 2032.42 3288.21 2032.42C3288.21 2032.42 3374.94 2222.92 3374.94 2320.54C3374.94 2418.15 3300.52 2588.48 3297.49 2593.12C3294.46 2597.76 3068.26 2990.78 3010.89 3124.38C2953.51 3257.97 2952.09 3311.85 2983.05 3364.49C3014.01 3417.13 3367.17 3903.51 3367.17 3903.51C3367.17 3903.51 3272.49 4011.92 3229.32 4039.85C3186.14 4067.78 3131.89 4072.14 3150.83 4095.43C3169.76 4118.72 3294.84 4127.9 3328.92 4120.14C3363.01 4112.38 3440.45 4044.39 3485.33 4013.34C3530.21 3982.28 3570.55 3960.6 3553.5 3921.88C3536.46 3883.15 3499.25 3849.07 3483.82 3817.73C3468.39 3786.39 3412.52 3696.91 3381.56 3585.38C3350.6 3473.85 3327.41 3407.29 3291.71 3346.88C3256.02 3286.47 3231.3 3263.28 3231.3 3263.28C3231.3 3263.28 3364.52 3140.85 3435.82 3078.93C3507.11 3017.01 3570.55 2965.88 3570.55 2965.88C3570.55 2965.88 3812.17 2718.01 3833.85 2663.76C3855.54 2609.5 3914.43 2439.17 3957.79 2290.52C4001.16 2141.87 4006.84 1891.25 3992.92 1826.21Z" fill="#16A34A" stroke="#263238" stroke-width="0.967197" stroke-linecap="round" stroke-linejoin="round"/>
<path d="M3288.21 2032.23C3288.21 2032.23 3219.28 1864.84 3280.35 1742.89C3263.58 1746.42 3247.04 1750.97 3230.83 1756.52C3172.03 1778.2 2885.43 1898.54 2855.99 1911.42C2826.54 1924.3 2772.39 1968.7 2786.3 2015.57C2800.22 2062.44 2821.9 2075.98 2921.04 2077.49C3020.17 2079.01 3288.21 2032.23 3288.21 2032.23Z" fill="#263238" stroke="#263238" stroke-width="0.967197" stroke-linecap="round" stroke-linejoin="round"/>
<path d="M3077.54 1186.54C3077.54 1186.54 3165.79 1231.42 3170.42 1239.19C3175.06 1246.95 3168.91 1263.9 3162.66 1276.3C3156.41 1288.7 3122.42 1318.15 3106.99 1324.3C3091.56 1330.46 3103.86 1284.06 3103.86 1258.03C3103.86 1231.99 3058.89 1210.02 3054.25 1197.62C3049.61 1185.22 3065.61 1181.81 3077.54 1186.54Z" fill="white" stroke="#263238" stroke-width="0.967197" stroke-linecap="round" stroke-linejoin="round"/>
<path d="M2908.63 2066.32L2874.64 2075.79C2840.56 2085.25 2781.66 2089.7 2772.39 2077.3C2763.11 2064.9 2730.54 1900.72 2735.18 1809.35C2739.82 1717.99 2876.16 1327.62 2891.68 1298.08C2907.21 1268.54 3040.33 1172.62 3040.33 1172.62C3040.33 1172.62 3057.38 1167.98 3077.54 1186.64C3097.71 1205.29 3154.99 1243.92 3151.87 1259.35C3148.74 1274.79 3116.27 1321.37 3102.25 1333.77C3088.24 1346.17 3066.65 1333.77 3066.65 1333.77C3066.65 1333.77 3049.61 1363.12 3027.93 1372.5C3006.25 1381.87 2955.12 1370.89 2955.12 1370.89C2955.12 1370.89 2913.37 1631.16 2925.67 1730.67C2937.98 1830.18 2962.88 1945.98 2944.61 2001.75" fill="#263238"/>
<path d="M2908.63 2066.32L2874.64 2075.79C2840.56 2085.25 2781.66 2089.7 2772.39 2077.3C2763.11 2064.9 2730.54 1900.72 2735.18 1809.35C2739.82 1717.99 2876.16 1327.62 2891.68 1298.08C2907.21 1268.54 3040.33 1172.62 3040.33 1172.62C3040.33 1172.62 3057.38 1167.98 3077.54 1186.64C3097.71 1205.29 3154.99 1243.92 3151.87 1259.35C3148.74 1274.79 3116.27 1321.37 3102.25 1333.77C3088.24 1346.17 3066.65 1333.77 3066.65 1333.77C3066.65 1333.77 3049.61 1363.12 3027.93 1372.5C3006.25 1381.87 2955.12 1370.89 2955.12 1370.89C2955.12 1370.89 2913.37 1631.16 2925.67 1730.67C2937.98 1830.18 2962.88 1945.98 2944.61 2001.75" stroke="#263238" stroke-width="0.967197" stroke-linecap="round" stroke-linejoin="round"/>
<path d="M3027.74 1372.4C3049.42 1362.93 3066.46 1333.68 3066.46 1333.68C3066.46 1333.68 3088.15 1346.08 3102.06 1333.68C3115.98 1321.27 3148.55 1274.79 3151.68 1259.26C3154.8 1243.73 3097.42 1205.1 3077.35 1186.54C3057.28 1167.99 3040.14 1172.53 3040.14 1172.53C3040.14 1172.53 2906.93 1268.63 2891.49 1297.98C2887.71 1305.18 2876.82 1333.68 2862.33 1373.73C2888.22 1391.75 2918.19 1403.04 2949.53 1406.58C2952.75 1384.24 2954.93 1370.51 2954.93 1370.51C2954.93 1370.51 3006.25 1381.68 3027.74 1372.4Z" fill="white" stroke="#263238" stroke-width="0.967197" stroke-linecap="round" stroke-linejoin="round"/>
<path d="M3165.69 1273.36C3165.69 1273.36 3187.37 1279.52 3181.22 1295.05C3175.06 1310.57 3151.77 1327.52 3137.85 1326.01C3123.94 1324.49 3120.81 1305.84 3130.09 1290.41C3139.37 1274.97 3157.93 1267.12 3165.69 1273.36Z" fill="white" stroke="#263238" stroke-width="0.967197" stroke-linecap="round" stroke-linejoin="round"/>
<path d="M3066.65 1333.68C3066.65 1333.68 3054.25 1319.66 3062.01 1308.87C3069.78 1298.08 3085.21 1305.75 3085.21 1305.75L3062.01 1276.3" stroke="#263238" stroke-width="0.967197" stroke-linecap="round" stroke-linejoin="round"/>
<path d="M3250.62 2464.36C3299.04 2464.36 3338.29 2425.1 3338.29 2376.68C3338.29 2328.26 3299.04 2289.01 3250.62 2289.01C3202.2 2289.01 3162.94 2328.26 3162.94 2376.68C3162.94 2425.1 3202.2 2464.36 3250.62 2464.36Z" fill="white" stroke="#263238" stroke-width="0.967197" stroke-linecap="round" stroke-linejoin="round"/>
<path d="M3227.61 2290.71C3236.79 2265.94 3251.32 2243.5 3270.15 2224.97C3288.99 2206.45 3311.67 2192.3 3336.59 2183.53C3423.32 2151.15 3564.58 2117.26 3646.29 2009.98C3728 1902.71 3698.46 1697.54 3698.46 1697.54L3761.99 1706.15C3761.99 1706.15 3753.47 1911.23 3712.66 2020.11C3671.85 2129 3547.54 2190.54 3448.88 2207.39C3350.22 2224.25 3268.51 2222.64 3227.61 2290.71Z" fill="white" stroke="#263238" stroke-width="0.967197" stroke-linecap="round" stroke-linejoin="round"/>
<path d="M3227.61 2290.71C3227.61 2290.71 3217.39 2220.93 3280.35 2147.74C3343.31 2074.56 3445.47 1994.65 3462.52 1919.75C3479.56 1844.86 3460.81 1715.53 3460.81 1715.53L3515.25 1700.19C3530.23 1767.95 3530.81 1838.11 3516.96 1906.12C3493.1 2011.59 3435.25 2062.72 3363.76 2117.16C3292.28 2171.6 3227.61 2290.71 3227.61 2290.71Z" fill="white" stroke="#263238" stroke-width="0.967197" stroke-linecap="round" stroke-linejoin="round"/>
<path d="M3929.39 1770.44C3911.12 1785.51 3896.09 1804.11 3885.19 1825.13C3874.29 1846.15 3867.74 1869.16 3865.95 1892.77C3859.7 1973.34 3873.62 2185.52 3873.62 2269.22C3873.62 2352.92 3811.7 2478.27 3820.98 2543.32C3830.26 2608.37 3915.66 2685.82 3961.96 2634.78C4008.26 2583.75 4044.05 2419.48 4061.09 2207.2C4078.13 1994.93 4064.21 1852.53 4037.89 1809.54C4011.57 1766.56 3968.11 1737.87 3929.39 1770.44Z" fill="#263238" stroke="#263238" stroke-width="0.967197" stroke-linecap="round" stroke-linejoin="round"/>
<path d="M3980.52 2571.25C3971.05 2623.89 3941.79 2675.4 3910.83 2685.82C3879.87 2696.23 3844.55 2653.34 3794.66 2572.77C3744.76 2492.19 3718.91 2403.95 3699.98 2310.97C3683.19 2225.98 3670.8 2140.18 3662.86 2053.92C3661.25 2018.32 3662.86 2008.94 3682.93 1987.64C3703.01 1966.34 3775.91 1948.91 3775.91 1948.91L3788.31 1927.23C3794.47 1916.44 3827.04 1910.19 3842.47 1919.56C3857.9 1928.94 3865.76 1979.97 3865.76 1979.97C3865.76 1979.97 3909.13 2004.68 3909.13 2029.49C3909.13 2054.29 3881.19 2080.62 3850.23 2122.46C3819.27 2164.31 3809.99 2148.79 3806.87 2187.51C3803.75 2226.23 3825.81 2277.36 3864.15 2312.96C3902.5 2348.56 3958.83 2391.93 3974.17 2461.61" fill="#263238"/>
<path d="M3980.52 2571.25C3971.05 2623.89 3941.79 2675.4 3910.83 2685.82C3879.87 2696.23 3844.55 2653.34 3794.66 2572.77C3744.76 2492.19 3718.91 2403.95 3699.98 2310.97C3683.19 2225.98 3670.8 2140.18 3662.86 2053.92C3661.25 2018.32 3662.86 2008.94 3682.93 1987.64C3703.01 1966.34 3775.91 1948.91 3775.91 1948.91L3788.31 1927.23C3794.47 1916.44 3827.04 1910.19 3842.47 1919.56C3857.9 1928.94 3865.76 1979.97 3865.76 1979.97C3865.76 1979.97 3909.13 2004.68 3909.13 2029.49C3909.13 2054.29 3881.19 2080.62 3850.23 2122.46C3819.27 2164.31 3809.99 2148.79 3806.87 2187.51C3803.75 2226.23 3825.81 2277.36 3864.15 2312.96C3902.5 2348.56 3958.83 2391.93 3974.17 2461.61" stroke="#263238" stroke-width="0.967197" stroke-linecap="round" stroke-linejoin="round"/>
<path d="M3806.77 2195.65C3806.77 2192.81 3806.77 2189.88 3806.77 2187.13C3809.9 2148.41 3819.18 2163.84 3850.14 2122.09C3881.1 2080.33 3909.03 2053.91 3909.03 2029.11C3909.03 2004.3 3865.67 1979.59 3865.67 1979.59C3865.67 1979.59 3857.9 1928.46 3842.37 1919.18C3826.85 1909.91 3794.37 1916.06 3788.22 1926.85L3775.72 1948.54C3775.72 1948.54 3702.91 1965.58 3682.74 1987.26C3662.58 2008.94 3661.06 2018.31 3662.67 2053.54C3663.62 2076.64 3671.19 2138.75 3681.61 2205.03C3723.39 2213.52 3766.72 2210.28 3806.77 2195.65Z" fill="white" stroke="#263238" stroke-width="0.967197" stroke-linecap="round" stroke-linejoin="round"/>
<path d="M3835.37 2659.31C3648.85 2596.91 3417.73 2567.37 3313.2 2556.39C3304.59 2577.79 3298.34 2591.61 3297.49 2592.93C3294.36 2597.57 3068.26 2990.59 3010.89 3124.19C2953.51 3257.78 2952.09 3311.66 2983.05 3364.3C3014.01 3416.94 3367.17 3903.32 3367.17 3903.32C3423.98 3896.41 3474.63 3858.25 3496.6 3839.41C3491.62 3832.68 3487.18 3825.55 3483.34 3818.11C3467.82 3787.15 3412.05 3697.29 3381.09 3585.76C3350.13 3474.22 3326.93 3407.66 3291.24 3347.26C3255.54 3286.85 3230.83 3263.65 3230.83 3263.65C3230.83 3263.65 3364.05 3141.23 3435.34 3079.31C3506.64 3017.39 3570.07 2966.26 3570.07 2966.26C3570.07 2966.26 3811.7 2718.39 3833.38 2664.13C3834.04 2662.62 3834.61 2661.01 3835.37 2659.31Z" fill="#787878" stroke="#263238" stroke-width="0.967197" stroke-linecap="round" stroke-linejoin="round"/>
<path d="M3496.6 3839.41C3478.8 3873.12 3404.38 3937.41 3404.38 3937.41C3404.38 3937.41 3385.45 3917.24 3374.94 3903.32C3366.7 3892.81 3363.86 3895.46 3362.91 3897.45L3367.17 3903.32C3367.17 3903.32 3272.49 4011.73 3229.32 4039.66C3186.14 4067.59 3131.89 4072.14 3150.83 4095.43C3169.76 4118.72 3294.84 4127.9 3328.92 4120.14C3363.01 4112.38 3440.45 4044.39 3485.33 4013.34C3530.21 3982.28 3570.55 3960.6 3553.5 3921.88C3539.77 3891.86 3514.5 3864.6 3496.6 3839.41Z" fill="#16A34A" stroke="#263238" stroke-width="0.967197" stroke-linecap="round" stroke-linejoin="round"/>
<path d="M3303.64 4101.58C3271.54 4109.91 3185.67 4092.11 3147.42 4082.65C3146.6 4084.78 3146.45 4087.12 3146.97 4089.34C3147.49 4091.57 3148.67 4093.59 3150.35 4095.14C3169.29 4118.34 3294.36 4127.62 3328.45 4119.86C3362.53 4112.09 3439.98 4044.11 3484.86 4013.06C3529.74 3982 3570.07 3960.32 3553.03 3921.59C3551.04 3917.14 3548.77 3912.69 3546.31 3908.34C3538.26 3919.13 3528.79 3931.25 3518.95 3943.28C3491.11 3977.64 3345.49 4090.69 3303.64 4101.58Z" fill="white" stroke="#263238" stroke-width="0.967197" stroke-linecap="round" stroke-linejoin="round"/>
<path d="M3740.5 2736.94C3740.5 2736.94 3605.29 2616.13 3474.07 2572.77C3342.84 2529.4 3097.61 2541.81 3035.69 2566.61C2973.77 2591.42 3000.09 2670.76 3001.61 2761.75C3003.12 2852.74 3065.14 3021.93 3091.46 3118.04C3117.78 3214.14 3127.06 3320.94 3130.18 3358.05C3133.31 3395.17 3133.31 3409.18 3133.31 3409.18C3133.31 3409.18 2961.37 3407.66 2916.39 3403.03C2871.42 3398.39 2845.19 3412.49 2837.43 3427.83C2832.83 3435.79 2831.19 3445.11 2832.79 3454.15C2832.79 3454.15 2948.97 3529.9 3049.61 3571.84C3150.26 3613.78 3246.36 3640.01 3258.76 3633.76C3271.16 3627.51 3283.47 3533.12 3283.47 3468.07C3283.47 3403.03 3303.64 3090.1 3303.64 3034.34V2890.33C3303.64 2890.33 3604.16 3049.86 3723.46 3012.66C3842.75 2975.45 3835.37 2659.31 3835.37 2659.31L3738.89 2628.53" fill="#787878"/>
<path d="M3740.5 2736.94C3740.5 2736.94 3605.29 2616.13 3474.07 2572.77C3342.84 2529.4 3097.61 2541.81 3035.69 2566.61C2973.77 2591.42 3000.09 2670.76 3001.61 2761.75C3003.12 2852.74 3065.14 3021.93 3091.46 3118.04C3117.78 3214.14 3127.06 3320.94 3130.18 3358.05C3133.31 3395.17 3133.31 3409.18 3133.31 3409.18C3133.31 3409.18 2961.37 3407.66 2916.39 3403.03C2871.42 3398.39 2845.19 3412.49 2837.43 3427.83C2832.83 3435.79 2831.19 3445.11 2832.79 3454.15C2832.79 3454.15 2948.97 3529.9 3049.61 3571.84C3150.26 3613.78 3246.36 3640.01 3258.76 3633.76C3271.16 3627.51 3283.47 3533.12 3283.47 3468.07C3283.47 3403.03 3303.64 3090.1 3303.64 3034.34V2890.33C3303.64 2890.33 3604.16 3049.86 3723.46 3012.66C3842.75 2975.45 3835.37 2659.31 3835.37 2659.31L3738.89 2628.53" stroke="#263238" stroke-width="0.967197" stroke-linecap="round" stroke-linejoin="round"/>
<path d="M3133.31 3409.18C3133.31 3409.18 2961.37 3407.66 2916.39 3403.03C2871.42 3398.39 2845.19 3412.49 2837.43 3427.83C2832.83 3435.79 2831.19 3445.11 2832.79 3454.15C2832.79 3454.15 2948.97 3529.9 3049.61 3571.84C3150.26 3613.79 3246.36 3640.01 3258.76 3633.76C3269.65 3628.37 3280.54 3554.51 3283 3492.5C3219.18 3438.15 3133.31 3409.18 3133.31 3409.18Z" fill="#16A34A" stroke="#263238" stroke-width="0.967197" stroke-linecap="round" stroke-linejoin="round"/>
<path d="M3258.76 3633.76C3263.59 3631.4 3268.23 3614.83 3272.59 3592.86C3218.53 3588.9 3165.34 3577.13 3114.66 3557.92C3027.08 3524.88 2884.39 3455.48 2835.73 3431.52C2832.45 3438.59 2831.42 3446.49 2832.79 3454.15C2832.79 3454.15 2948.97 3529.9 3049.61 3571.84C3150.26 3613.78 3246.36 3639.92 3258.76 3633.76Z" fill="white" stroke="#263238" stroke-width="0.967197" stroke-linecap="round" stroke-linejoin="round"/>
<path d="M3303.64 2890.33C3303.64 2890.33 3302.13 2755.6 3233.96 2688.94" stroke="#263238" stroke-width="0.967197" stroke-linecap="round" stroke-linejoin="round"/>
<path d="M3198.17 1546.52C3198.17 1546.52 3235.09 1667.62 3251.38 1710.41C3267.66 1753.21 3269.08 1776.69 3320.68 1825.54C3372.28 1874.4 3382.7 1912.65 3435.82 1917.01C3488.93 1921.36 3509.67 1888.6 3509.67 1888.6C3509.67 1888.6 3517.05 1937.36 3545.08 1952.04C3573.1 1966.71 3635.12 1969.74 3673.47 1894.47C3711.81 1819.2 3688.24 1782.37 3674.98 1746.96C3661.72 1711.55 3643.92 1667.24 3643.92 1667.24C3663.19 1640.66 3673.17 1608.49 3672.33 1575.68C3669.39 1524.08 3654.62 1518.12 3638.43 1513.67C3622.24 1509.22 3576.42 1538.76 3557.29 1529.95C3538.17 1521.14 3570.55 1470.87 3518.85 1466.51C3467.16 1462.16 3414.04 1532.79 3321.06 1540.27C3228.09 1547.75 3194.76 1518.49 3198.17 1546.52Z" fill="white" stroke="#263238" stroke-width="0.967197" stroke-linecap="round" stroke-linejoin="round"/>
<path d="M3509.19 1888.98L3593.27 1794.3C3630.2 1753.02 3630.2 1691 3630.2 1691" fill="white"/>
<path d="M3509.19 1888.98L3593.27 1794.3C3630.2 1753.02 3630.2 1691 3630.2 1691" stroke="#263238" stroke-width="0.967197" stroke-linecap="round" stroke-linejoin="round"/>
<path d="M3343.88 1691.19C3343.88 1691.19 3354.2 1738.53 3343.88 1762.01C3333.56 1785.49 3342.36 1797.52 3360.07 1798.94C3368.54 1800.38 3377.25 1799.36 3385.16 1796" stroke="#263238" stroke-width="0.967197" stroke-linecap="round" stroke-linejoin="round"/>
<path d="M3398.51 1695.64C3398.51 1695.64 3408.83 1664.68 3457.5 1673.49" stroke="#263238" stroke-width="1.93439" stroke-linecap="round" stroke-linejoin="round"/>
<path d="M3275.99 1704.45C3275.99 1704.45 3304.4 1688.26 3324.66 1710.41" stroke="#263238" stroke-width="1.93439" stroke-linecap="round" stroke-linejoin="round"/>
<path d="M3250.9 1657.3C3250.9 1657.3 3284.8 1623.31 3324.66 1676.23" stroke="#263238" stroke-width="0.967197" stroke-linecap="round" stroke-linejoin="round"/>
<path d="M3371.91 1661.65C3371.91 1661.65 3388.1 1607.12 3438.18 1614.31" stroke="#263238" stroke-width="0.967197" stroke-linecap="round" stroke-linejoin="round"/>
<path d="M3417.64 1810.77C3417.64 1810.77 3494.42 1796 3509.19 1705.96C3509.19 1705.96 3547.06 1766.65 3520.84 1815.32C3494.61 1863.98 3459.01 1856.51 3459.01 1856.51L3417.64 1810.77Z" stroke="#263238" stroke-width="0.967197" stroke-linecap="round" stroke-linejoin="round"/>
<path d="M3247.87 1375.34C3247.87 1375.34 3286.31 1322.22 3243.52 1329.61C3200.72 1336.99 3129.9 1419.65 3138.71 1497.85C3147.51 1576.06 3305.44 1593.77 3382.23 1582.02C3428.3 1574.84 3471.07 1553.69 3504.74 1521.43C3504.74 1521.43 3476.34 1582.02 3506.26 1589.32C3536.18 1596.61 3550.47 1589.32 3550.47 1589.32C3550.47 1589.32 3578.88 1652.85 3587.4 1633.63C3595.92 1614.41 3585.32 1599.35 3590.34 1574.64C3602.17 1517.07 3644.97 1518.49 3644.97 1518.49C3644.97 1518.49 3652.35 1375.34 3599.23 1319.66C3546.12 1263.99 3407.32 1257.65 3349.75 1287.19C3292.18 1316.73 3247.87 1375.34 3247.87 1375.34Z" fill="#263238" stroke="#263238" stroke-width="0.967197" stroke-linecap="round" stroke-linejoin="round"/>
<path opacity="0.2" d="M1019.75 4212.55C1510.34 4212.55 1908.04 4134.63 1908.04 4038.52C1908.04 3942.41 1510.34 3864.5 1019.75 3864.5C529.153 3864.5 131.449 3942.41 131.449 4038.52C131.449 4134.63 529.153 4212.55 1019.75 4212.55Z" fill="black"/>
<path d="M430.167 3847.27C430.167 3847.27 314.561 3906.92 268.357 3960.88C222.153 4014.85 274.133 4051.4 368.53 4020.63C462.926 3989.86 497.58 3856.93 497.58 3856.93C497.58 3856.93 464.82 3829.94 430.167 3847.27Z" fill="#16A34A" stroke="#263238" stroke-width="0.967197" stroke-linecap="round" stroke-linejoin="round"/>
<path d="M1657.23 3847.27C1657.23 3847.27 1772.84 3906.92 1819.04 3960.88C1865.25 4014.85 1813.27 4051.4 1718.87 4020.63C1624.47 3989.86 1589.82 3856.93 1589.82 3856.93C1589.82 3856.93 1622.58 3829.94 1657.23 3847.27Z" fill="#16A34A" stroke="#263238" stroke-width="0.967197" stroke-linecap="round" stroke-linejoin="round"/>
<path d="M929.231 1404.59L927.811 1507.32C884.836 1497.3 842.448 1484.91 800.843 1470.21C732.389 1445.97 715.63 1467.37 675.296 1501.55C634.962 1535.73 444.275 1755.76 424.013 1774.04C403.751 1792.31 341.262 1887.65 341.262 1936.6C341.262 1985.55 379.797 2019.36 456.773 1977.98C533.748 1936.6 675.012 1825.35 675.012 1825.35C675.012 1825.35 747.822 2042.17 749.242 2079.29C750.662 2116.4 699.251 2197.64 672.172 2271.87C645.093 2346.1 632.311 2552.88 613.943 2624.18C595.575 2695.47 548.329 2769.7 511.309 2959.35C474.289 3149 471.353 3294.61 462.832 3331.63C454.311 3368.66 442.949 3510.01 429.978 3620.98C417.007 3731.95 408.58 3854.84 422.877 3867.72C437.174 3880.6 478.454 3889.12 498.622 3867.72C518.789 3846.32 668.195 3467.22 698.588 3380.21C728.98 3293.19 931.124 2899.42 948.262 2855.2C965.399 2810.98 996.265 2749.91 996.265 2749.91C996.265 2749.91 1101.83 2946.76 1137.43 3045.13C1173.03 3143.5 1368.55 3522.99 1422.8 3622.68C1477.06 3722.38 1565.39 3855.13 1589.63 3868C1613.87 3880.88 1652.97 3872.93 1657.23 3847.27C1661.49 3821.61 1621.07 3427.26 1590.96 3353.03C1560.85 3278.8 1541.06 3237.52 1532.54 3183.36C1524.02 3129.21 1441.17 2685.53 1402.73 2604.2C1364.29 2522.87 1358.51 2507.25 1357.09 2502.89C1355.67 2498.54 1328.69 2403.1 1288.55 2306.05C1248.4 2209 1204.47 2122.08 1204.47 2122.08L1277.18 1922.4C1277.18 1922.4 1384.17 2143.48 1434.07 2190.54C1483.97 2237.6 1646.63 2440.12 1646.63 2440.12L1697.95 2388.8L1532.54 2104.76C1532.54 2104.76 1496.84 1920.79 1454.05 1805.19C1411.25 1689.58 1379.91 1604.09 1324.24 1577.95C1268.57 1551.82 1148.8 1545.1 1127.4 1536.58C1106 1528.06 1113.1 1520.86 1111.68 1516.6C1110.26 1512.34 1118.88 1416.81 1118.88 1416.81C1118.88 1416.81 1039.44 1444.55 1001.57 1433.09C976.863 1425.17 952.7 1415.65 929.231 1404.59Z" fill="#263238" stroke="#263238" stroke-width="0.967197" stroke-linecap="round" stroke-linejoin="round"/>
<path d="M1236.47 2429.8L1071.63 2643.49" stroke="#696969" stroke-width="0.967197" stroke-linecap="round" stroke-linejoin="round"/>
<path d="M711.465 2448.17L894.673 2637.43" stroke="#696969" stroke-width="0.967197" stroke-linecap="round" stroke-linejoin="round"/>
<path d="M742.047 2558L925.16 2673.98" stroke="#696969" stroke-width="0.967197" stroke-linecap="round" stroke-linejoin="round"/>
<path d="M1204.56 2122.09L1277.28 1922.4C1277.28 1922.4 1238.74 1651.62 1165.37 1544.63C1152.56 1543.21 1139.89 1540.74 1127.49 1537.24C1106.09 1528.72 1113.2 1521.52 1111.78 1517.26C1110.36 1513 1118.97 1417.47 1118.97 1417.47C1118.97 1417.47 1039.44 1444.55 1001.57 1433.09C976.737 1425.21 952.447 1415.73 928.852 1404.69L927.432 1507.42C927.432 1507.42 908.496 1503.16 878.955 1495.01C847.616 1535.25 721.027 1702.18 674.917 1825.45C674.917 1825.45 747.727 2042.27 749.147 2079.38C750.189 2106.27 723.489 2156.27 698.398 2210.04C744.887 2241.19 827.922 2278.03 963.505 2280.49C1126.26 2283.42 1213.56 2245.93 1252.19 2222.16C1225.87 2164.03 1204.56 2122.09 1204.56 2122.09Z" fill="#16A34A" stroke="#263238" stroke-width="0.967197" stroke-linecap="round" stroke-linejoin="round"/>
<path d="M1108.18 1651.62C1136.58 1623.97 1145.29 1582.03 1144.82 1541.22C1138.93 1540.42 1133.12 1539.06 1127.49 1537.15C1106.09 1528.63 1113.2 1521.43 1111.78 1517.17C1110.36 1512.91 1118.97 1417.37 1118.97 1417.37C1118.97 1417.37 1039.44 1444.55 1001.57 1433.09C976.737 1425.21 952.447 1415.73 928.852 1404.69L927.432 1507.42C927.432 1507.42 921.467 1506.09 911.147 1503.53C903.288 1533.83 888.139 1615.35 937.373 1660.04C984.714 1702.46 1063.96 1694.22 1108.18 1651.62Z" fill="#B2B2B2" stroke="#263238" stroke-width="0.967197" stroke-linecap="round" stroke-linejoin="round"/>
<path d="M874.979 1493.02C874.979 1493.02 870.718 1600.01 843.639 1658.53C816.56 1717.04 787.967 1725.56 787.967 1725.56C799.359 1732.78 811.293 1739.11 823.662 1744.5C846.48 1753.97 850.74 1750.18 850.74 1750.18C850.74 1750.18 893.536 1723.1 913.514 1651.71C925.696 1604.73 930.519 1556.15 927.811 1507.7L874.979 1493.02Z" fill="white" stroke="#263238" stroke-width="0.967197" stroke-linecap="round" stroke-linejoin="round"/>
<path d="M955.268 946.337C955.268 946.337 953.469 897.955 1041.33 874.663C1129.2 851.372 1206.46 921.246 1213.56 967.924C1220.66 1014.6 1206.46 1039.69 1195.66 1043.67C1184.87 1047.65 1138.29 1000.59 1068.32 977.392C998.348 954.195 946.274 967.924 955.268 946.337Z" fill="#263238" stroke="#263238" stroke-width="0.967197" stroke-linecap="round" stroke-linejoin="round"/>
<path d="M865.511 1181.43C865.511 1181.43 854.812 1149.14 827.638 1168.84C800.465 1188.53 813.247 1249.6 825.839 1267.49C838.432 1285.39 863.712 1285.48 868.825 1272.89C873.937 1260.3 874.221 1188.53 874.221 1188.53" fill="#B2B2B2"/>
<path d="M865.511 1181.43C865.511 1181.43 854.812 1149.14 827.638 1168.84C800.465 1188.53 813.247 1249.6 825.839 1267.49C838.432 1285.39 863.712 1285.48 868.825 1272.89C873.937 1260.3 874.221 1188.53 874.221 1188.53" stroke="#263238" stroke-width="0.967197" stroke-linecap="round" stroke-linejoin="round"/>
<path d="M862.007 1025.3C862.007 1025.3 831.425 1070.18 845.817 1115.06C860.208 1159.94 853.012 1192.13 853.012 1244.2C853.012 1296.28 890.885 1366.15 915.786 1409.23C940.687 1452.31 990.963 1503.44 1044.74 1487.34C1098.52 1471.25 1177.29 1358.96 1192.06 1306.98C1206.84 1255 1201.06 1242.4 1209.96 1220.82C1225.1 1182.61 1232.44 1141.76 1231.55 1100.67C1231.55 1041.49 1161.58 962.527 1075.42 937.437C989.258 912.346 894.293 937.437 862.007 1025.3Z" fill="#B2B2B2" stroke="#263238" stroke-width="0.967197" stroke-linecap="round" stroke-linejoin="round"/>
<path d="M1188.47 1233.41C1188.47 1233.41 1202.86 1190.33 1229.75 1202.92C1256.64 1215.52 1245.84 1281.89 1224.35 1301.58C1202.86 1321.27 1179.47 1312.37 1179.47 1299.78" fill="#B2B2B2"/>
<path d="M1188.47 1233.41C1188.47 1233.41 1202.86 1190.33 1229.75 1202.92C1256.64 1215.52 1245.84 1281.89 1224.35 1301.58C1202.86 1321.27 1179.47 1312.37 1179.47 1299.78" stroke="#263238" stroke-width="0.967197" stroke-linecap="round" stroke-linejoin="round"/>
<path d="M985.755 1290.79C994.497 1299.47 1006.22 1304.49 1018.54 1304.82C1030.85 1305.16 1042.83 1300.78 1052.03 1292.59" stroke="#263238" stroke-width="0.967197" stroke-linecap="round" stroke-linejoin="round"/>
<path d="M970.039 1332.73C970.039 1332.73 1013.5 1370.6 1073.34 1331.88" stroke="#263238" stroke-width="0.967197" stroke-linecap="round" stroke-linejoin="round"/>
<path d="M956.877 1247.42C964.146 1247.42 970.038 1237.88 970.038 1226.12C970.038 1214.35 964.146 1204.82 956.877 1204.82C949.609 1204.82 943.717 1214.35 943.717 1226.12C943.717 1237.88 949.609 1247.42 956.877 1247.42Z" fill="#263238"/>
<path d="M1084.79 1247.42C1092.06 1247.42 1097.95 1237.88 1097.95 1226.12C1097.95 1214.35 1092.06 1204.82 1084.79 1204.82C1077.52 1204.82 1071.63 1214.35 1071.63 1226.12C1071.63 1237.88 1077.52 1247.42 1084.79 1247.42Z" fill="#263238"/>
<path d="M920.804 1173.67C929.462 1165.92 940.065 1160.69 951.476 1158.52C962.886 1156.35 974.672 1157.33 985.566 1161.36" stroke="#263238" stroke-width="0.967197" stroke-linecap="round" stroke-linejoin="round"/>
<path d="M1052.79 1166.28C1052.79 1166.28 1101.17 1144.98 1127.4 1187.58" stroke="#263238" stroke-width="0.967197" stroke-linecap="round" stroke-linejoin="round"/>
<path d="M1075.42 937.437C989.353 912.252 894.293 937.437 862.007 1025.3C862.007 1025.3 831.425 1070.18 845.817 1115.06C850.395 1129.3 853.194 1144.06 854.149 1158.99L856.61 1161.64C867.363 1149.59 874.227 1134.58 876.304 1118.56C879.902 1091.67 939.077 1023.88 1036.03 1030.7C1132.98 1037.51 1179.47 1106.44 1188.47 1150.94C1197.46 1195.44 1174.17 1228.01 1209.96 1220.82C1225.1 1182.61 1232.44 1141.76 1231.55 1100.67C1231.55 1041.49 1161.58 962.527 1075.42 937.437Z" fill="#263238" stroke="#263238" stroke-width="0.967197" stroke-linecap="round" stroke-linejoin="round"/>
<path d="M1698.04 2388.8L1790.73 2407.74C1798.22 2409.22 1804.93 2413.31 1809.67 2419.29C1825.29 2438.89 1860.32 2483.86 1863.64 2497.12C1867.9 2514.25 1867.9 2518.51 1862.22 2518.51C1854.55 2518.19 1846.92 2517.24 1839.4 2515.67C1832.2 2514.25 1805.13 2475.72 1783.73 2474.3C1762.81 2471.1 1742.25 2465.84 1722.37 2458.58C1722.37 2458.58 1768.01 2492.86 1778.05 2501.38C1788.08 2509.9 1786.57 2514.25 1779.47 2517.09C1772.37 2519.94 1762.33 2515.67 1752.39 2511.41C1742.45 2507.15 1738.09 2505.64 1703.82 2491.44C1669.54 2477.23 1647.01 2440.02 1647.01 2440.02L1698.04 2388.8Z" fill="#B2B2B2" stroke="#263238" stroke-width="0.967197" stroke-linecap="round" stroke-linejoin="round"/>
<path d="M1334.37 1769.78L1277.28 1922.4L1328.6 1831.13" stroke="#696969" stroke-width="0.967197" stroke-linecap="round" stroke-linejoin="round"/>
<path d="M675.296 1657.01V1825.36L646.797 1702.74" stroke="#696969" stroke-width="0.967197" stroke-linecap="round" stroke-linejoin="round"/>
<path d="M957.73 1771.2C965.156 1776.3 973.554 1779.82 982.4 1781.53C991.246 1783.24 1000.35 1783.11 1009.14 1781.14C1037.55 1774.04 1114.62 1718.37 1161.77 1655.59C1208.92 1592.82 1230.22 1556.93 1230.22 1556.93L1154.48 1534.12C1154.48 1534.12 1114.52 1642.53 1061.78 1689.58C1009.05 1736.64 930.557 1759.46 930.557 1759.46L957.73 1771.2Z" fill="white" stroke="#263238" stroke-width="0.967197" stroke-linecap="round" stroke-linejoin="round"/>
<path d="M605.422 1261.91C605.422 1261.91 942.107 1762.58 957.73 1771.2C965.139 1775.37 972.755 1779.16 980.548 1782.56C980.548 1782.56 900.732 1782.56 877.914 1763.62C855.095 1744.69 672.456 1405.63 656.739 1368.52C644.045 1340.18 629.757 1312.59 613.943 1285.86L599.741 1258.69L605.422 1261.91Z" fill="white" stroke="#263238" stroke-width="0.967197" stroke-linecap="round" stroke-linejoin="round"/>
<path d="M605.421 1261.91C605.421 1261.91 745.265 1664.21 756.911 1692.71C768.557 1721.21 808.228 1744.12 829.626 1746.96L851.024 1749.8C851.024 1749.8 749.81 1584.3 705.594 1484.69C661.378 1385.09 605.421 1261.91 605.421 1261.91Z" fill="white" stroke="#263238" stroke-width="0.967197" stroke-linecap="round" stroke-linejoin="round"/>
<path d="M567.644 1279.14C616.117 1279.14 655.413 1239.84 655.413 1191.37C655.413 1142.9 616.117 1103.6 567.644 1103.6C519.17 1103.6 479.875 1142.9 479.875 1191.37C479.875 1239.84 519.17 1279.14 567.644 1279.14Z" fill="white" stroke="#263238" stroke-width="0.967197" stroke-linecap="round" stroke-linejoin="round"/>
<path d="M485.65 1960.84C440.014 1985.18 350.067 2042.17 333.025 2016.52C315.982 1990.86 318.728 1845.33 360.103 1758.32C401.479 1671.31 476.088 1515.75 478.455 1489.05C480.822 1462.35 474.857 1285.39 477.319 1278.1C479.78 1270.81 553.631 1230.76 553.631 1230.76C557.521 1229.8 561.614 1230.1 565.323 1231.61C569.032 1233.13 572.165 1235.78 574.272 1239.19C581.562 1251.3 614.322 1286.53 613.091 1295.99C611.86 1305.46 610.629 1312.94 610.629 1312.94C610.629 1312.94 630.039 1323.92 625.21 1342.1C620.382 1360.28 611.86 1416.05 600.972 1423.34C591.912 1427.71 581.662 1428.98 571.81 1426.94C570.592 1440.13 566.898 1452.98 560.922 1464.81C552.495 1478.16 543.974 1485.45 542.743 1489.05C541.512 1492.65 515.57 1912.37 501.273 1926.66" fill="#263238"/>
<path d="M485.65 1960.84C440.014 1985.18 350.067 2042.17 333.025 2016.52C315.982 1990.86 318.728 1845.33 360.103 1758.32C401.479 1671.31 476.088 1515.75 478.455 1489.05C480.822 1462.35 474.857 1285.39 477.319 1278.1C479.78 1270.81 553.631 1230.76 553.631 1230.76C557.521 1229.8 561.614 1230.1 565.323 1231.61C569.032 1233.13 572.165 1235.78 574.272 1239.19C581.562 1251.3 614.322 1286.53 613.091 1295.99C611.86 1305.46 610.629 1312.94 610.629 1312.94C610.629 1312.94 630.039 1323.92 625.21 1342.1C620.382 1360.28 611.86 1416.05 600.972 1423.34C591.912 1427.71 581.662 1428.98 571.81 1426.94C570.592 1440.13 566.898 1452.98 560.922 1464.81C552.495 1478.16 543.974 1485.45 542.743 1489.05C541.512 1492.65 515.57 1912.37 501.273 1926.66" stroke="#263238" stroke-width="0.967197" stroke-linecap="round" stroke-linejoin="round"/>
<path d="M610.629 1313.23C610.629 1313.23 611.86 1306.03 613.091 1296.28C614.322 1286.53 581.562 1251.4 574.272 1239.47C572.165 1236.06 569.032 1233.41 565.323 1231.9C561.614 1230.38 557.521 1230.08 553.631 1231.04C553.631 1231.04 479.685 1271 477.318 1278.38C474.951 1285.77 479.78 1429.4 479.022 1477.21C487.78 1484.34 498.112 1489.28 509.161 1491.62C520.21 1493.96 531.658 1493.63 542.553 1490.66C542.553 1489.81 542.553 1489.24 542.553 1489.05C543.784 1485.45 552.022 1478.16 560.732 1464.81C566.709 1452.98 570.402 1440.13 571.62 1426.94C581.472 1428.98 591.722 1427.71 600.782 1423.34C611.671 1416.05 619.718 1360.28 625.021 1342.1C630.323 1323.92 610.629 1313.23 610.629 1313.23Z" fill="#B2B2B2" stroke="#263238" stroke-width="0.967197" stroke-linecap="round" stroke-linejoin="round"/>
<path d="M610.629 1313.23L548.802 1288.99" stroke="#263238" stroke-width="0.967197" stroke-linecap="round" stroke-linejoin="round"/>
<path d="M541.512 1322.98C541.512 1322.98 605.8 1337.46 611.86 1347.22C615.648 1353.86 617.73 1361.34 617.919 1368.99" stroke="#263238" stroke-width="0.967197" stroke-linecap="round" stroke-linejoin="round"/>
<path d="M545.205 1358.1C545.205 1358.1 593.681 1368.99 600.972 1375.05C608.262 1381.11 609.398 1406.58 609.398 1406.58" stroke="#263238" stroke-width="0.967197" stroke-linecap="round" stroke-linejoin="round"/>
<path d="M571.81 1427.22V1407.81L585.16 1406.58" stroke="#263238" stroke-width="0.967197" stroke-linecap="round" stroke-linejoin="round"/>
<path d="M956.31 2290.43L939.172 2524.29L966.346 2528.55C966.346 2528.55 966.346 2281.81 956.31 2290.43Z" fill="white" stroke="#263238" stroke-width="0.967197" stroke-linecap="round" stroke-linejoin="round"/>
<path d="M973.163 2298.95L981.684 2558.56L1024.48 2557.14L983.104 2301.51C983.104 2301.51 976.287 2277.55 973.163 2298.95Z" fill="white" stroke="#263238" stroke-width="0.967197" stroke-linecap="round" stroke-linejoin="round"/>
<path d="M1700.6 219.281L1749.26 267.474L1776.15 224.773L1700.6 219.281Z" fill="#9C9C9C"/>
<path d="M1091.32 300.234L1139.99 348.332L1166.88 305.631L1091.32 300.234Z" fill="#9C9C9C"/>
<path d="M708.245 104.244L756.911 152.436L783.801 109.64L708.245 104.244Z" fill="#9C9C9C"/>
<path d="M2249.84 478.518L2219.26 539.776L2268.21 551.99L2249.84 478.518Z" fill="#9C9C9C"/>
<path d="M2716.52 44.8789L2685.94 106.138L2734.89 118.351L2716.52 44.8789Z" fill="#9C9C9C"/>
<path d="M1704.19 579.827L1656.57 530.593L1628.83 572.726L1704.19 579.827Z" fill="#16A34A"/>
<path d="M1425.07 598.1L1377.55 548.866L1349.71 590.999L1425.07 598.1Z" fill="#16A34A"/>
<path d="M2026.39 378.724L2082.07 338.863L2044.48 305.157L2026.39 378.724Z" fill="#16A34A"/>
<path d="M1399.51 180.367L1455.18 140.601L1417.6 106.8L1399.51 180.367Z" fill="#16A34A"/>
<path d="M2465.15 535.232L2520.82 495.466L2483.23 461.665L2465.15 535.232Z" fill="#16A34A"/>
<path d="M236.45 568.086L205.868 629.25L254.818 641.558L236.45 568.086Z" fill="#9C9C9C"/>
<path d="M547.572 613.817L516.99 675.076L565.94 687.289L547.572 613.817Z" fill="#9C9C9C"/>
<path d="M377.145 403.909L329.521 354.675L301.685 396.808L377.145 403.909Z" fill="#16A34A"/>
<path d="M1682.42 886.877L1738.19 847.111L1700.6 813.31L1682.42 886.877Z" fill="#16A34A"/>
<path d="M3165.88 409.496L3214.55 457.594L3241.44 414.892L3165.88 409.496Z" fill="#9C9C9C"/>
<path d="M3715.22 534.475L3684.54 595.733L3733.59 607.947L3715.22 534.475Z" fill="#9C9C9C"/>
<path d="M2973.96 210.57L2943.38 271.829L2992.33 284.137L2973.96 210.57Z" fill="#9C9C9C"/>
<path d="M4026.34 580.205L3995.66 641.464L4044.71 653.772L4026.34 580.205Z" fill="#9C9C9C"/>
<path d="M4181.9 346.911L4151.22 408.17L4200.27 420.384L4181.9 346.911Z" fill="#9C9C9C"/>
<path d="M3169.57 635.688L3121.95 586.454L3094.11 628.682L3169.57 635.688Z" fill="#16A34A"/>
<path d="M2890.45 654.056L2842.83 604.822L2814.99 646.955L2890.45 654.056Z" fill="#16A34A"/>
<path d="M3482.49 188.794L3538.17 149.028L3500.58 115.227L3482.49 188.794Z" fill="#16A34A"/>
<path d="M2864.89 124.506L2920.56 84.6449L2882.97 50.9385L2864.89 124.506Z" fill="#16A34A"/>
<path d="M3784.53 267.095L3840.2 227.329L3802.61 193.623L3784.53 267.095Z" fill="#16A34A"/>
<path d="M3147.8 942.833L3203.47 902.973L3165.88 869.266L3147.8 942.833Z" fill="#16A34A"/>
<path d="M888.328 535.042L944.001 495.276L906.412 461.475L888.328 535.042Z" fill="#16A34A"/>
<path d="M2705.54 1272.23L2656.87 1224.04L2629.99 1266.74L2705.54 1272.23Z" fill="#9C9C9C"/>
<path d="M3176.77 1240.13L3128.1 1192.03L3101.21 1234.74L3176.77 1240.13Z" fill="#9C9C9C"/>
<path d="M3712.95 1301.2L3664.28 1253.01L3637.39 1295.8L3712.95 1301.2Z" fill="#9C9C9C"/>
<path d="M2156.2 1147.16L2186.88 1085.9L2137.83 1073.68L2156.2 1147.16Z" fill="#9C9C9C"/>
<path d="M1845.08 1101.42L1875.76 1040.17L1826.71 1027.95L1845.08 1101.42Z" fill="#9C9C9C"/>
<path d="M3383.65 1210.69L3431.27 1259.92L3459.11 1217.69L3383.65 1210.69Z" fill="#16A34A"/>
<path d="M2025.35 1119.98L1969.68 1159.75L2007.27 1193.45L2025.35 1119.98Z" fill="#16A34A"/>
<path d="M2052.81 900.322L1997.14 940.182L2034.73 973.889L2052.81 900.322Z" fill="#16A34A"/>
<path d="M4169.69 1057.68L4200.27 996.423L4151.22 984.209L4169.69 1057.68Z" fill="#9C9C9C"/>
<path d="M3858.47 1011.95L3889.15 950.692L3840.1 938.479L3858.47 1011.95Z" fill="#9C9C9C"/>
<path d="M4038.74 1030.51L3983.07 1070.27L4020.66 1103.98L4038.74 1030.51Z" fill="#16A34A"/>
<path d="M1397.52 902.878L1348.86 854.686L1321.97 897.481L1397.52 902.878Z" fill="#9C9C9C"/>
<path d="M690.918 1091.2L721.5 1030.03L672.55 1017.73L690.918 1091.2Z" fill="#9C9C9C"/>
<path d="M379.797 1045.47L410.379 984.209L361.429 971.995L379.797 1045.47Z" fill="#9C9C9C"/>
<path d="M224.236 1278.86L254.818 1217.6L205.868 1205.38L224.236 1278.86Z" fill="#9C9C9C"/>
<path d="M550.223 1255.38L597.847 1304.61L625.683 1262.48L550.223 1255.38Z" fill="#16A34A"/>
<path d="M1541.25 1255.19L1485.58 1295.05L1523.16 1328.75L1541.25 1255.19Z" fill="#16A34A"/>
<path d="M587.527 844.365L531.76 884.226L569.348 917.932L587.527 844.365Z" fill="#16A34A"/>
<path d="M3428.24 866.994L3372.57 906.76L3410.16 940.467L3428.24 866.994Z" fill="#16A34A"/>
<path d="M1229.27 1504.1L1277.94 1552.3L1304.83 1509.59L1229.27 1504.1Z" fill="#9C9C9C"/>
<path d="M693.096 1443.13L741.762 1491.23L768.652 1448.52L693.096 1443.13Z" fill="#9C9C9C"/>
<path d="M2249.84 1597.08L2219.26 1658.34L2268.21 1670.55L2249.84 1597.08Z" fill="#9C9C9C"/>
<path d="M784.842 1916.82L754.26 1978.08L803.21 1990.29L784.842 1916.82Z" fill="#9C9C9C"/>
<path d="M1704.19 1698.39L1656.57 1649.15L1628.83 1691.29L1704.19 1698.39Z" fill="#16A34A"/>
<path d="M1425.07 1716.66L1377.55 1667.43L1349.71 1709.56L1425.07 1716.66Z" fill="#16A34A"/>
<path d="M1022.49 1533.64L974.867 1484.41L947.031 1526.54L1022.49 1533.64Z" fill="#16A34A"/>
<path d="M2390.54 1433L2342.91 1383.76L2315.08 1425.9L2390.54 1433Z" fill="#16A34A"/>
<path d="M2026.39 1497.28L2082.07 1457.42L2044.48 1423.72L2026.39 1497.28Z" fill="#16A34A"/>
<path d="M2380.79 1624.35L2436.46 1584.49L2398.87 1550.78L2380.79 1624.35Z" fill="#16A34A"/>
<path d="M2353.33 1844.01L2409 1804.15L2371.41 1770.44L2353.33 1844.01Z" fill="#16A34A"/>
<path d="M236.45 1686.55L205.868 1747.81L254.818 1760.12L236.45 1686.55Z" fill="#9C9C9C"/>
<path d="M547.572 1732.38L516.99 1793.64L565.94 1805.85L547.572 1732.38Z" fill="#9C9C9C"/>
<path d="M377.145 1522.47L329.521 1473.24L301.685 1515.37L377.145 1522.47Z" fill="#16A34A"/>
<path d="M367.393 1713.82L423.066 1673.96L385.477 1640.25L367.393 1713.82Z" fill="#16A34A"/>
<path d="M1682.42 2005.44L1738.19 1965.58L1700.6 1931.87L1682.42 2005.44Z" fill="#16A34A"/>
<path d="M2694.65 1560.06L2743.32 1608.25L2770.21 1565.46L2694.65 1560.06Z" fill="#9C9C9C"/>
<path d="M3715.22 1653.04L3684.54 1714.29L3733.59 1726.51L3715.22 1653.04Z" fill="#9C9C9C"/>
<path d="M4026.34 1698.77L3995.66 1760.03L4044.71 1772.33L4026.34 1698.77Z" fill="#9C9C9C"/>
<path d="M4181.9 1465.47L4151.22 1526.73L4200.27 1538.95L4181.9 1465.47Z" fill="#9C9C9C"/>
<path d="M2890.45 1772.62L2842.83 1723.38L2814.99 1765.52L2890.45 1772.62Z" fill="#16A34A"/>
<path d="M2798.14 2833.14L2750.51 2783.91L2722.77 2826.04L2798.14 2833.14Z" fill="#16A34A"/>
<path d="M2256.28 73.5672L2311.95 33.7064L2274.36 0L2256.28 73.5672Z" fill="#16A34A"/>
<path d="M3147.8 2061.39L3203.47 2021.53L3165.88 1987.83L3147.8 2061.39Z" fill="#16A34A"/>
<path d="M977.802 1877.34L1033.57 1837.47L995.981 1803.77L977.802 1877.34Z" fill="#16A34A"/>
<path d="M3176.77 2358.69L3128.1 2310.59L3101.21 2353.3L3176.77 2358.69Z" fill="#9C9C9C"/>
<path d="M2156.2 2265.72L2186.88 2204.46L2137.83 2192.24L2156.2 2265.72Z" fill="#9C9C9C"/>
<path d="M1845.08 2219.99L1875.76 2158.73L1826.71 2146.51L1845.08 2219.99Z" fill="#9C9C9C"/>
<path d="M2701.85 2164.5L2749.47 2213.74L2777.31 2171.6L2701.85 2164.5Z" fill="#16A34A"/>
<path d="M2980.97 2146.23L3028.59 2195.46L3056.43 2153.24L2980.97 2146.23Z" fill="#16A34A"/>
<path d="M3383.65 3033.39L3431.27 3082.62L3459.11 3040.49L3383.65 3033.39Z" fill="#16A34A"/>
<path d="M2379.74 2365.6L2324.07 2405.47L2361.66 2439.17L2379.74 2365.6Z" fill="#16A34A"/>
<path d="M2052.81 2018.88L1997.14 2058.74L2034.73 2092.45L2052.81 2018.88Z" fill="#16A34A"/>
<path d="M4169.69 2880.48L4200.27 2819.22L4151.22 2807.01L4169.69 2880.48Z" fill="#9C9C9C"/>
<path d="M3858.47 2130.51L3889.15 2069.25L3840.1 2057.04L3858.47 2130.51Z" fill="#9C9C9C"/>
<path d="M4038.74 2853.21L3983.07 2893.07L4020.66 2926.78L4038.74 2853.21Z" fill="#16A34A"/>
<path d="M2723.62 1857.36L2667.95 1897.22L2705.54 1930.92L2723.62 1857.36Z" fill="#16A34A"/>
<path d="M1711.49 2302.83L1662.82 2254.64L1635.93 2297.34L1711.49 2302.83Z" fill="#9C9C9C"/>
<path d="M690.918 2209.76L721.5 2148.6L672.55 2136.29L690.918 2209.76Z" fill="#9C9C9C"/>
<path d="M1432.18 2287.59L1462.76 2226.33L1413.81 2214.12L1432.18 2287.59Z" fill="#9C9C9C"/>
<path d="M379.797 2164.03L410.379 2102.87L361.429 2090.56L379.797 2164.03Z" fill="#9C9C9C"/>
<path d="M224.236 2397.42L254.818 2336.16L205.868 2323.95L224.236 2397.42Z" fill="#9C9C9C"/>
<path d="M1515.68 2090.27L1563.31 2139.51L1591.05 2097.37L1515.68 2090.27Z" fill="#16A34A"/>
<path d="M550.223 2373.94L597.847 2423.17L625.683 2381.04L550.223 2373.94Z" fill="#16A34A"/>
<path d="M914.46 2309.65L858.788 2349.51L896.376 2383.22L914.46 2309.65Z" fill="#16A34A"/>
<path d="M1100.32 3318.29L1044.65 3358.15L1082.23 3391.85L1100.32 3318.29Z" fill="#16A34A"/>
<path d="M2192.37 2863.72L2136.7 2903.58L2174.29 2937.29L2192.37 2863.72Z" fill="#16A34A"/>
<path d="M3428.24 1985.46L3372.57 2025.32L3410.16 2059.03L3428.24 1985.46Z" fill="#16A34A"/>
<path d="M1700.6 3389.39L1749.26 3437.58L1776.15 3394.79L1700.6 3389.39Z" fill="#9C9C9C"/>
<path d="M659.769 2955.56L708.435 3003.66L735.324 2960.96L659.769 2955.56Z" fill="#9C9C9C"/>
<path d="M2249.84 3514.37L2219.26 3575.63L2268.21 3587.84L2249.84 3514.37Z" fill="#9C9C9C"/>
<path d="M1508.68 2649.08L1478 2710.34L1527.05 2722.55L1508.68 2649.08Z" fill="#9C9C9C"/>
<path d="M2560.96 3560.2L2530.38 3621.36L2579.33 3633.67L2560.96 3560.2Z" fill="#9C9C9C"/>
<path d="M2716.52 3326.81L2685.94 3388.06L2734.89 3400.28L2716.52 3326.81Z" fill="#9C9C9C"/>
<path d="M1704.19 3615.68L1656.57 3566.44L1628.83 3608.58L1704.19 3615.68Z" fill="#16A34A"/>
<path d="M989.069 3046.08L941.539 2996.84L913.703 3038.98L989.069 3046.08Z" fill="#16A34A"/>
<path d="M2026.39 3414.58L2082.07 3374.71L2044.48 3341.01L2026.39 3414.58Z" fill="#16A34A"/>
<path d="M2353.33 3761.3L2409 3721.44L2371.41 3687.73L2353.33 3761.3Z" fill="#16A34A"/>
<path d="M203.122 3198.99L172.445 3260.25L221.49 3272.46L203.122 3198.99Z" fill="#9C9C9C"/>
<path d="M514.244 3244.72L483.662 3305.98L532.612 3318.28L514.244 3244.72Z" fill="#9C9C9C"/>
<path d="M343.723 3034.91L296.193 2985.67L268.357 3027.8L343.723 3034.91Z" fill="#16A34A"/>
<path d="M1682.42 3990.05L1738.19 3950.28L1700.6 3916.48L1682.42 3990.05Z" fill="#16A34A"/>
<path d="M3165.88 2657.79L3214.55 2705.98L3241.44 2663.19L3165.88 2657.79Z" fill="#9C9C9C"/>
<path d="M3715.22 3487.01L3684.54 3548.27L3733.59 3560.48L3715.22 3487.01Z" fill="#9C9C9C"/>
<path d="M2973.96 2705.04L2943.38 2766.29L2992.33 2778.51L2973.96 2705.04Z" fill="#9C9C9C"/>
<path d="M4026.34 3532.74L3995.66 3594L4044.71 3606.21L4026.34 3532.74Z" fill="#9C9C9C"/>
<path d="M4181.9 3299.44L4151.22 3360.61L4200.27 3372.92L4181.9 3299.44Z" fill="#9C9C9C"/>
<path d="M2890.45 3689.81L2842.83 3640.67L2814.99 3682.81L2890.45 3689.81Z" fill="#16A34A"/>
<path d="M3855.82 3322.83L3808.29 3273.6L3780.45 3315.73L3855.82 3322.83Z" fill="#16A34A"/>
<path d="M3491.68 3387.12L3547.35 3347.26L3509.76 3313.55L3491.68 3387.12Z" fill="#16A34A"/>
<path d="M3818.61 3733.84L3874.28 3693.98L3836.7 3660.27L3818.61 3733.84Z" fill="#16A34A"/>
<path d="M3147.8 4046L3203.47 4006.14L3165.88 3972.44L3147.8 4046Z" fill="#16A34A"/>
<path d="M763.349 3663.02L819.022 3623.16L781.433 3589.45L763.349 3663.02Z" fill="#16A34A"/>
<path d="M1700.6 4119.76L1749.26 4130.08L1776.15 4120.9L1700.6 4119.76Z" fill="#9C9C9C"/>
<path d="M1229.27 3926.33L1277.94 3936.74L1304.83 3927.56L1229.27 3926.33Z" fill="#9C9C9C"/>
<path d="M693.096 3913.26L741.762 3923.58L768.652 3914.4L693.096 3913.26Z" fill="#9C9C9C"/>
<path d="M2249.84 3946.3L2219.26 3959.46L2268.21 3962.12L2249.84 3946.3Z" fill="#9C9C9C"/>
<path d="M1508.68 3929.64L1478 3942.8L1527.05 3945.45L1508.68 3929.64Z" fill="#9C9C9C"/>
<path d="M2560.96 3956.15L2530.38 3969.31L2579.33 3971.96L2560.96 3956.15Z" fill="#9C9C9C"/>
<path d="M2716.52 3906.06L2685.94 3919.23L2734.89 3921.88L2716.52 3906.06Z" fill="#9C9C9C"/>
<path d="M1578.36 4093.44L1530.83 4082.83L1503 4091.92L1578.36 4093.44Z" fill="#16A34A"/>
<path d="M1425.07 3971.96L1377.55 3961.45L1349.71 3970.45L1425.07 3971.96Z" fill="#16A34A"/>
<path d="M1022.49 3932.67L974.867 3922.16L947.031 3931.16L1022.49 3932.67Z" fill="#16A34A"/>
<path d="M2390.54 3911.08L2342.91 3900.57L2315.08 3909.57L2390.54 3911.08Z" fill="#16A34A"/>
<path d="M2026.39 3924.91L2082.07 3916.39L2044.48 3909.09L2026.39 3924.91Z" fill="#16A34A"/>
<path d="M1399.51 3911.18L1455.18 3902.56L1417.6 3895.37L1399.51 3911.18Z" fill="#16A34A"/>
<path d="M2380.79 3952.18L2436.46 3943.65L2398.87 3936.36L2380.79 3952.18Z" fill="#16A34A"/>
<path d="M2353.33 3999.33L2409 3990.8L2371.41 3983.51L2353.33 3999.33Z" fill="#16A34A"/>
<path d="M236.45 3965.52L205.868 3978.68L254.818 3981.34L236.45 3965.52Z" fill="#9C9C9C"/>
<path d="M547.572 3975.37L516.99 3988.53L565.94 3991.18L547.572 3975.37Z" fill="#9C9C9C"/>
<path d="M259.741 4075.07L212.116 4064.56L184.28 4073.65L259.741 4075.07Z" fill="#16A34A"/>
<path d="M470.596 4100.07L526.268 4091.54L488.68 4084.25L470.596 4100.07Z" fill="#16A34A"/>
<path d="M339.936 4018.55L395.608 4010.02L358.02 4002.73L339.936 4018.55Z" fill="#16A34A"/>
<path d="M1682.42 4033.98L1738.19 4025.46L1700.6 4018.17L1682.42 4033.98Z" fill="#16A34A"/>
<path d="M3165.88 3931.53L3214.55 3941.85L3241.44 3932.67L3165.88 3931.53Z" fill="#9C9C9C"/>
<path d="M2694.65 3938.35L2743.32 3948.77L2770.21 3939.58L2694.65 3938.35Z" fill="#9C9C9C"/>
<path d="M3715.22 3958.33L3684.54 3971.49L3733.59 3974.14L3715.22 3958.33Z" fill="#9C9C9C"/>
<path d="M2973.96 3941.67L2943.38 3954.83L2992.33 3957.38L2973.96 3941.67Z" fill="#9C9C9C"/>
<path d="M4026.34 3968.18L3995.66 3981.34L4044.71 3983.99L4026.34 3968.18Z" fill="#9C9C9C"/>
<path d="M2365.92 4084.25L2335.34 4097.41L2384.29 4100.07L2365.92 4084.25Z" fill="#9C9C9C"/>
<path d="M4181.9 3918.09L4151.22 3931.25L4200.27 3933.9L4181.9 3918.09Z" fill="#9C9C9C"/>
<path d="M3169.57 3980.11L3121.95 3969.5L3094.11 3978.59L3169.57 3980.11Z" fill="#16A34A"/>
<path d="M2890.45 3983.99L2842.83 3973.48L2814.99 3982.47L2890.45 3983.99Z" fill="#16A34A"/>
<path d="M4053.04 4094.95L4005.51 4084.35L3977.67 4093.44L4053.04 4094.95Z" fill="#16A34A"/>
<path d="M3855.82 3923.11L3808.29 3912.5L3780.45 3921.59L3855.82 3923.11Z" fill="#16A34A"/>
<path d="M3491.68 3936.93L3547.35 3928.31L3509.76 3921.12L3491.68 3936.93Z" fill="#16A34A"/>
<path d="M2864.89 3923.2L2920.56 3914.59L2882.97 3907.39L2864.89 3923.2Z" fill="#16A34A"/>
<path d="M3846.07 3964.2L3901.74 3955.68L3864.15 3948.39L3846.07 3964.2Z" fill="#16A34A"/>
<path d="M3818.61 4011.35L3874.28 4002.83L3836.7 3995.54L3818.61 4011.35Z" fill="#16A34A"/>
<path d="M3479.75 4169.37L3449.07 4182.53L3498.12 4185.18L3479.75 4169.37Z" fill="#9C9C9C"/>
<path d="M3790.87 4179.22L3760.29 4192.38L3809.24 4195.03L3790.87 4179.22Z" fill="#9C9C9C"/>
<path d="M3620.35 4134.15L3572.82 4123.55L3544.98 4132.64L3620.35 4134.15Z" fill="#16A34A"/>
<path d="M3610.6 4175.24L3666.27 4166.72L3628.68 4159.43L3610.6 4175.24Z" fill="#16A34A"/>
<path d="M3583.14 4222.39L3638.81 4213.87L3601.22 4206.58L3583.14 4222.39Z" fill="#16A34A"/>
<path d="M2686.7 4145.89L2742.37 4137.28L2704.78 4130.08L2686.7 4145.89Z" fill="#16A34A"/>
<path d="M977.802 4006.52L1033.57 3997.91L995.981 3990.71L977.802 4006.52Z" fill="#16A34A"/>
<path d="M815.992 4073.93L864.658 4084.25L891.548 4075.07L815.992 4073.93Z" fill="#9C9C9C"/>
<path d="M1011.79 4119.57L964.262 4109.06L936.426 4118.06L1011.79 4119.57Z" fill="#16A34A"/>
<path d="M609.208 4080.28L561.584 4069.67L533.748 4078.76L609.208 4080.28Z" fill="#16A34A"/>
<path d="M564.519 4154.13L620.286 4145.51L582.698 4138.32L564.519 4154.13Z" fill="#16A34A"/>
</svg>
